<svg height="804" width="1132" viewBox="0 0 1132 804" xmlns:ev="http://www.w3.org/2001/xml-events" xmlns:xlink="http://www.w3.org/1999/xlink" xmlns="http://www.w3.org/2000/svg"><defs><linearGradient x2="0%" x1="0%" y2="100%" id="lg1" y1="0%"><stop offset="0.00" stop-color="#4a4a4a"/><stop offset="1.00" stop-color="#2a2a2a"/></linearGradient><linearGradient x2="0%" x1="100%" y2="0%" id="lg2" y1="0%"><stop offset="0.00" stop-color="#272727"/><stop offset="0.79" stop-color="#373737"/><stop offset="1.00" stop-color="#1d1d1d"/></linearGradient><linearGradient x2="0%" x1="100%" y2="0%" id="lg3" y1="0%"><stop offset="0.00" stop-color="#272727"/><stop offset="0.83" stop-color="#383838"/><stop offset="1.00" stop-color="#1d1d1d"/></linearGradient><linearGradient x2="0%" x1="100%" y2="0%" id="lg4" y1="0%"><stop offset="0.00" stop-color="#272727"/><stop offset="0.13" stop-color="#373737"/><stop offset="1.00" stop-color="#1d1d1d"/></linearGradient><linearGradient x2="-2" gradientUnits="userSpaceOnUse" x1="18" y2="26" id="lg5" y1="28"><stop stop-opacity="0.25" offset="0.00" stop-color="#ffffff"/><stop stop-opacity="0.00" offset="0.44" stop-color="#686868"/></linearGradient><radialGradient r="5.4" gradientUnits="userSpaceOnUse" fx="0" fy="0" cy="0" id="rg1" cx="0"><stop offset="0.00" stop-color="#404040"/><stop offset="0.50" stop-color="#d8d8d8"/><stop offset="1.00" stop-color="#404040"/></radialGradient><linearGradient x2="0%" x1="0%" y2="100%" id="lg6" y1="0%"><stop offset="0.00" stop-color="#000000"/><stop offset="1.00" stop-color="#000000"/></linearGradient><linearGradient x2="0%" x1="0%" y2="100%" id="lg7" y1="0%"><stop stop-opacity="0.39" offset="0.09" stop-color="#ffffff"/><stop stop-opacity="0.00" offset="0.36" stop-color="#ffffff"/></linearGradient><radialGradient r="9.0" gradientUnits="userSpaceOnUse" fx="0" fy="-0" cy="-0" id="rg2" cx="0"><stop offset="0.00" stop-color="#a5a5a5"/><stop offset="0.83" stop-color="#383b3b"/><stop offset="1.00" stop-color="#383b3b"/></radialGradient><linearGradient x2="0%" x1="100%" y2="0%" id="lg8" y1="0%"><stop offset="0.00" stop-color="#d8d8d8"/><stop offset="1.00" stop-color="#bfbfbf"/></linearGradient><radialGradient r="2.5" gradientUnits="userSpaceOnUse" fx="0" fy="0" cy="0" id="rg3" cx="0"><stop offset="0.00" stop-color="#daeafd"/><stop offset="0.71" stop-color="#a8b1b2"/><stop offset="1.00" stop-color="#a8b1b2"/></radialGradient><linearGradient x2="0%" x1="0%" y2="100%" id="lg9" y1="0%"><stop offset="0.00" stop-color="#a5a5a5"/><stop offset="1.00" stop-color="#0c0c0c"/></linearGradient><radialGradient r="54.6" gradientUnits="userSpaceOnUse" fx="1" fy="0" cy="0" id="rg4" cx="1"><stop offset="0.00" stop-color="#383b3b"/><stop offset="0.99" stop-color="#e1ecee"/><stop offset="1.00" stop-color="#e1ecee"/></radialGradient><linearGradient x2="0%" x1="0%" y2="100%" id="lg10" y1="0%"><stop offset="0.00" stop-color="#e1ecee"/><stop offset="1.00" stop-color="#262626"/></linearGradient><linearGradient x2="100%" x1="0%" y2="0%" id="lg11" y1="0%"><stop offset="0.00" stop-color="#383b3b"/><stop offset="1.00" stop-color="#161717"/></linearGradient><linearGradient x2="100%" x1="0%" y2="0%" id="lg12" y1="0%"><stop offset="0.00" stop-color="#cad4d6"/><stop offset="1.00" stop-color="#707677"/></linearGradient><linearGradient x2="100%" x1="0%" y2="0%" id="lg13" y1="0%"><stop offset="0.00" stop-color="#2e2e2e"/><stop offset="0.30" stop-color="#4c4c4c"/><stop offset="1.00" stop-color="#1e1e1e"/></linearGradient><linearGradient x2="20" gradientUnits="userSpaceOnUse" x1="15" y2="-5" id="lg14" y1="9"><stop stop-opacity="0.33" offset="0.00" stop-color="#ffffff"/><stop stop-opacity="0.02" offset="0.40" stop-color="#000000"/></linearGradient><linearGradient x2="100%" x1="0%" y2="0%" id="lg15" y1="0%"><stop offset="0.00" stop-color="#2e2e2e"/><stop offset="0.29" stop-color="#3f3f3f"/><stop offset="1.00" stop-color="#1e1e1e"/></linearGradient><linearGradient x2="0%" x1="0%" y2="100%" id="lg16" y1="0%"><stop offset="0.00" stop-color="#3498db"/><stop offset="1.00" stop-color="#1a567f"/></linearGradient><linearGradient x2="20" gradientUnits="userSpaceOnUse" x1="15" y2="-5" id="lg17" y1="9"><stop stop-opacity="0.23" offset="0.00" stop-color="#ffffff"/><stop stop-opacity="0.02" offset="0.40" stop-color="#000000"/></linearGradient><linearGradient x2="100%" x1="0%" y2="0%" id="lg18" y1="0%"><stop offset="0.00" stop-color="#cccccc"/><stop offset="0.08" stop-color="#dadada"/><stop offset="0.21" stop-color="#dddddd"/><stop offset="0.29" stop-color="#b8b8b8"/><stop offset="0.34" stop-color="#9b9b9b"/><stop offset="0.48" stop-color="#b4b4b4"/></linearGradient><linearGradient x2="100%" x1="0%" y2="0%" id="lg19" y1="0%"><stop offset="0.00" stop-color="#8a8a8a"/><stop offset="0.18" stop-color="#adadad"/><stop offset="0.38" stop-color="#f8f8f8"/><stop offset="0.62" stop-color="#d8d8d8"/><stop offset="0.86" stop-color="#e0e0e0"/><stop offset="1.00" stop-color="#e0e0e0"/></linearGradient><linearGradient x2="100%" x1="0%" y2="0%" id="lg20" y1="0%"><stop offset="0.00" stop-color="#000000"/><stop offset="1.00" stop-color="#404040"/></linearGradient><linearGradient x2="0%" x1="0%" y2="100%" id="lg21" y1="0%"><stop stop-opacity="0.20" offset="0.00" stop-color="#ffffff"/><stop stop-opacity="0.06" offset="0.40" stop-color="#ffffff"/><stop stop-opacity="0.00" offset="1.00" stop-color="#ffffff"/></linearGradient><linearGradient x2="63" gradientUnits="userSpaceOnUse" x1="30" y2="61" id="lg22" y1="-13"><stop offset="0.00" stop-color="#373737"/><stop offset="0.52" stop-color="#494949"/><stop offset="0.03" stop-color="#474747"/></linearGradient><linearGradient x2="0%" x1="100%" y2="0%" id="lg23" y1="0%"><stop offset="0.14" stop-color="#343434"/><stop offset="0.66" stop-color="#383838"/><stop offset="1.00" stop-color="#353535"/></linearGradient><linearGradient x2="43" gradientUnits="userSpaceOnUse" x1="19" y2="42" id="lg24" y1="-9"><stop offset="0.45" stop-color="#4a4a4a"/><stop offset="0.49" stop-color="#565656"/><stop offset="0.51" stop-color="#414141"/></linearGradient><linearGradient x2="0%" x1="100%" y2="0%" id="lg25" y1="0%"><stop offset="0.00" stop-color="#414141"/><stop offset="0.25" stop-color="#4c4c4c"/><stop offset="1.00" stop-color="#353535"/></linearGradient><linearGradient x2="-7" gradientUnits="userSpaceOnUse" x1="28" y2="41" id="lg26" y1="47"><stop stop-opacity="0.20" offset="0.00" stop-color="#8f8f8f"/><stop stop-opacity="0.00" offset="0.52" stop-color="#686868"/></linearGradient><clipPath id="clip1"><path d="M.0,.0L.0,1.8L19.4,10.8L19.4,8.9L.0,.0z"/></clipPath><linearGradient x2="100%" x1="0%" y2="0%" id="lg27" y1="0%"><stop offset="0.00" stop-color="#333333"/><stop offset="1.00" stop-color="#000000"/></linearGradient><linearGradient x2="0%" x1="0%" y2="100%" id="lg28" y1="0%"><stop offset="0.00" stop-color="#333333"/><stop offset="1.00" stop-color="#000000"/></linearGradient><clipPath id="clip2"><path d="M.0,.0L.0,2.0L19.4,10.9L19.4,8.7L.0,.0z"/></clipPath><linearGradient x2="100%" x1="0%" y2="0%" id="lg29" y1="0%"><stop offset="0.00" stop-color="#333333"/><stop offset="1.00" stop-color="#000000"/></linearGradient><linearGradient x2="0%" x1="0%" y2="100%" id="lg30" y1="0%"><stop offset="0.00" stop-color="#333333"/><stop offset="1.00" stop-color="#000000"/></linearGradient><clipPath id="clip3"><path d="M.0,.0L.0,2.1L19.5,11.1L19.5,9.1L.0,.0z"/></clipPath><linearGradient x2="100%" x1="0%" y2="0%" id="lg31" y1="0%"><stop offset="0.00" stop-color="#333333"/><stop offset="1.00" stop-color="#000000"/></linearGradient><linearGradient x2="0%" x1="0%" y2="100%" id="lg32" y1="0%"><stop offset="0.00" stop-color="#333333"/><stop offset="1.00" stop-color="#000000"/></linearGradient><clipPath id="clip4"><path d="M.0,.0L.0,2.1L19.3,10.9L19.3,8.9L.0,.0z"/></clipPath><linearGradient x2="100%" x1="0%" y2="0%" id="lg33" y1="0%"><stop offset="0.00" stop-color="#333333"/><stop offset="1.00" stop-color="#000000"/></linearGradient><linearGradient x2="0%" x1="0%" y2="100%" id="lg34" y1="0%"><stop offset="0.00" stop-color="#333333"/><stop offset="1.00" stop-color="#000000"/></linearGradient><clipPath id="clip5"><path d="M.0,.0L.0,1.8L17.5,9.4L17.5,7.7L.0,.0z"/></clipPath><linearGradient x2="100%" x1="0%" y2="0%" id="lg35" y1="0%"><stop offset="0.00" stop-color="#006fbd"/><stop offset="1.00" stop-color="#004371"/></linearGradient><linearGradient x2="0%" x1="0%" y2="100%" id="lg36" y1="0%"><stop offset="0.00" stop-color="#006fbd"/><stop offset="1.00" stop-color="#004371"/></linearGradient><linearGradient x2="17" gradientUnits="userSpaceOnUse" x1="0" y2="5" id="lg37" y1="5"><stop offset="0.00" stop-color="#00538e"/><stop offset="1.00" stop-color="#00406e"/></linearGradient><clipPath id="clip6"><path d="M.0,.0L.0,2.2L17.6,10.1L17.6,8.1L.0,.0z"/></clipPath><linearGradient x2="100%" x1="0%" y2="0%" id="lg38" y1="0%"><stop offset="0.00" stop-color="#006fbd"/><stop offset="1.00" stop-color="#004371"/></linearGradient><linearGradient x2="0%" x1="0%" y2="100%" id="lg39" y1="0%"><stop offset="0.00" stop-color="#006fbd"/><stop offset="1.00" stop-color="#004371"/></linearGradient><linearGradient x2="18" gradientUnits="userSpaceOnUse" x1="0" y2="5" id="lg40" y1="5"><stop offset="0.00" stop-color="#00538e"/><stop offset="1.00" stop-color="#00406e"/></linearGradient><clipPath id="clip7"><path d="M.0,.0L17.7,8.0L17.7,9.8L.0,2.2L.0,.0z"/></clipPath><linearGradient x2="100%" x1="0%" y2="0%" id="lg41" y1="0%"><stop offset="0.00" stop-color="#006fbd"/><stop offset="1.00" stop-color="#004371"/></linearGradient><linearGradient x2="0%" x1="0%" y2="100%" id="lg42" y1="0%"><stop offset="0.00" stop-color="#006fbd"/><stop offset="1.00" stop-color="#004371"/></linearGradient><clipPath id="clip8"><path d="M.0,.0L17.7,8.3L17.7,10.2L.0,2.2L.0,.0z"/></clipPath><linearGradient x2="0%" x1="0%" y2="100%" id="lg43" y1="0%"><stop offset="0.63" stop-color="#006fbd"/><stop offset="1.00" stop-color="#004371"/></linearGradient><linearGradient x2="0%" x1="100%" y2="0%" id="lg44" y1="0%"><stop offset="0.63" stop-color="#006fbd"/><stop offset="1.00" stop-color="#004371"/></linearGradient><linearGradient x2="0%" x1="0%" y2="100%" id="lg45" y1="0%"><stop offset="0.00" stop-color="#40c2f2"/><stop stop-opacity="0.00" offset="0.75" stop-color="#45c4f3"/></linearGradient><linearGradient x2="0%" x1="0%" y2="100%" id="lg46" y1="0%"><stop stop-opacity="0.78" offset="0.29" stop-color="#40c2f2"/><stop stop-opacity="0.00" offset="0.72" stop-color="#45c4f3"/></linearGradient><linearGradient x2="-1" gradientUnits="userSpaceOnUse" x1="16" y2="3" id="lg47" y1="6"><stop offset="0.07" stop-color="#40c2f2"/><stop stop-opacity="0.00" offset="0.41" stop-color="#45c4f3"/></linearGradient><linearGradient x2="-1" gradientUnits="userSpaceOnUse" x1="16" y2="3" id="lg48" y1="6"><stop stop-opacity="0.90" offset="0.00" stop-color="#40c2f2"/><stop stop-opacity="0.00" offset="0.41" stop-color="#45c4f3"/></linearGradient><linearGradient x2="43" gradientUnits="userSpaceOnUse" x1="30" y2="70" id="lg49" y1="-5"><stop stop-opacity="0.15" offset="0.14" stop-color="#0099d2"/><stop offset="0.93" stop-color="#007faf"/></linearGradient><linearGradient x2="43" gradientUnits="userSpaceOnUse" x1="30" y2="70" id="lg50" y1="-5"><stop stop-opacity="0.15" offset="0.14" stop-color="#00c044"/><stop offset="0.93" stop-color="#009d4b"/></linearGradient><linearGradient x2="100%" x1="0%" y2="0%" id="lg51" y1="0%"><stop offset="0.00" stop-color="#009970"/><stop offset="0.69" stop-color="#95e2cd"/></linearGradient></defs><g transform="translate(5.5,5.5)" id="page1"><rect x="0" height="794" width="1123" fill="none" y="0"/><g transform="translate(198.514985,260.133300)" id="group1"><g transform="translate(-0.011576,2.984594)" id="group2"><path stroke="#000000" stroke-width="1" fill="url(#lg1)" fill-rule="nonzero" id="shape3" d="M.2,.0L24.0,.0C24.1,.0,24.2,.1,24.2,.3L24.2,53.5C24.2,53.7,24.1,53.8,24.0,53.8L.2,53.8C.1,53.8,.0,53.7,.0,53.5L.0,.3C.0,.1,.1,.0,.2,.0z"/><path stroke="#7e7e7e" stroke-width="1" fill="url(#lg2)" transform="translate(1.640189,1.613457)" fill-rule="nonzero" id="shape4" d="M.3,.0L10.4,.0C10.6,.0,10.7,.1,10.7,.3L10.7,32.0C10.7,32.2,10.6,32.3,10.4,32.3L.3,32.3C.1,32.3,.0,32.2,.0,32.0L.0,.3C.0,.1,.1,.0,.3,.0z"/><path stroke="#7e7e7e" stroke-width="1" fill="url(#lg3)" transform="translate(1.640189,33.882596)" fill-rule="nonzero" id="shape5" d="M.3,.0L10.4,.0C10.6,.0,10.7,.1,10.7,.3L10.7,18.0C10.7,18.2,10.6,18.3,10.4,18.3L.3,18.3C.1,18.3,.0,18.2,.0,18.0L.0,.3C.0,.1,.1,.0,.3,.0z"/><path stroke="#7e7e7e" stroke-width="1" fill="url(#lg4)" transform="translate(12.236746,1.613457)" fill-rule="nonzero" id="shape6" d="M.2,.0L9.9,.0C10.1,.0,10.2,.1,10.2,.3L10.2,50.3C10.2,50.4,10.1,50.6,9.9,50.6L.2,50.6C.1,50.6,.0,50.4,.0,50.3L.0,.3C.0,.1,.1,.0,.2,.0z"/><path fill="url(#lg5)" transform="translate(0.145983,0.044531)" fill-rule="nonzero" id="shape7" d="M.0,.0L15.6,.0L11.0,53.7L.1,53.7L.0,.0z"/><g transform="translate(15.953848,32.934430)" id="group8"><path stroke="#000000" stroke-width="1" fill="url(#rg1)" fill-rule="nonzero" id="shape9" d="M.0,1.9C.0,.9,.9,.0,1.9,.0C3.0,.0,3.9,.9,3.9,1.9C3.9,3.0,3.0,3.9,1.9,3.9C.9,3.9,.0,3.0,.0,1.9z"/><path fill="url(#lg6)" transform="translate(0.432190,0.432190)" fill-rule="nonzero" id="shape10" d="M.0,1.5C.0,.7,.7,.0,1.5,.0C2.3,.0,3.0,.7,3.0,1.5C3.0,2.3,2.3,3.0,1.5,3.0C.7,3.0,.0,2.3,.0,1.5z"/><path fill="url(#lg7)" transform="translate(0.432190,0.432190)" fill-rule="nonzero" id="shape11" d="M.0,1.5C.0,.7,.7,.0,1.5,.0C2.3,.0,3.0,.7,3.0,1.5C3.0,2.3,2.3,3.0,1.5,3.0C.7,3.0,.0,2.3,.0,1.5z"/><g transform="translate(1.243534,0.942833)" id="group12"><path fill="#ff4500" transform="translate(0.578778,0.000328)" fill-rule="nonzero" id="shape13" d="M.1,-0.0L.1,-0.0C.2,-0.0,.2,.0,.2,.1L.2,.9C.2,.9,.2,1.0,.1,1.0L.1,1.0C.0,1.0,-0.0,.9,-0.0,.9L-0.0,.1C-0.0,.0,.0,-0.0,.1,-0.0z"/><path fill="#ff4500" transform="translate(0.000000,0.400047)" fill-rule="nonzero" id="shape14" d="M.4,.2C.6,.2,.5,-0.0,.4,.0C.3,.0,.0,.2,.0,.6C-0.0,1.0,.3,1.3,.7,1.3C1.1,1.3,1.4,1.1,1.4,.6C1.4,.1,.9,-0.0,.9,.0C.8,.1,.8,.2,.9,.2C1.1,.3,1.2,.5,1.2,.6C1.2,.8,1.1,1.1,.7,1.1C.2,1.1,.2,.8,.2,.6C.2,.5,.2,.2,.4,.2z"/></g></g></g><g transform="translate(90.576796,54.377126)" id="group15"><path fill="url(#rg2)" transform="translate(0.302992,-0.013199)" fill-rule="nonzero" id="shape16" d="M.0,2.0C.3,1.1,1.6,.4,2.3,.2C3.0,.0,4.3,-0.1,5.3,.2C6.1,.4,7.0,1.0,7.4,2.1C7.6,2.7,7.7,3.6,7.6,4.1C7.4,4.4,6.5,4.9,5.0,4.8C3.2,4.7,2.1,4.1,2.1,4.1C2.1,4.1,1.7,2.1,1.1,1.8C.8,1.5,.3,1.4,.0,2.0z"/><path fill="url(#lg8)" transform="translate(0.044512,1.501206)" fill-rule="nonzero" id="shape17" d="M.0,1.2C.0,1.2,1.8,2.4,2.4,2.5C2.2,1.9,2.0,.2,1.0,.0C.2,-0.2,.0,1.2,.0,1.2z"/><path fill="url(#rg3)" transform="translate(2.894087,1.034995)" fill-rule="nonzero" id="shape18" d="M1.0,.0C.4,.0,.0,.4,.0,.8C.0,1.3,.4,1.6,1.0,1.6C1.5,1.6,1.9,1.3,1.9,.8C1.9,.4,1.5,.0,1.0,.0z"/></g><g transform="translate(31.186939,53.926056)" id="group19"><path fill="url(#lg9)" transform="translate(-0.005208,0.453006)" fill-rule="nonzero" id="shape20" d="M1.0,.0C1.0,.0,.4,1.6,.1,2.6C.0,3.6,-0.2,5.1,.4,5.2C.4,5.2,54.9,5.2,54.9,5.2C55.3,5.0,55.8,4.8,54.9,2.8C54.0,.8,52.4,.0,52.4,.0L1.0,.0z"/><path fill="url(#rg4)" transform="translate(0.120974,0.470020)" fill-rule="nonzero" id="shape21" d="M1.0,.1C1.0,.1,.4,1.5,.1,2.4C.0,3.3,-0.2,4.6,.4,4.8C.4,4.8,54.5,4.8,54.5,4.8C54.9,4.6,55.3,4.4,54.5,2.6C53.7,.8,52.5,.0,52.5,.0L1.0,.1z"/><g transform="translate(44.229186,0.405271)" id="group22"><path fill="url(#lg10)" transform="translate(0.007142,0.005170)" fill-rule="nonzero" id="shape23" d="M.1,1.2L2.5,1.2L1.9,.0L.3,.0L-0.0,.6L.1,1.2z"/><path fill="url(#lg10)" transform="translate(2.027623,0.035626)" fill-rule="nonzero" id="shape24" d="M.0,1.2L2.7,1.2L2.2,.0L.5,.0L.0,1.2z"/><path fill="url(#lg10)" transform="translate(4.300278,0.039848)" fill-rule="nonzero" id="shape25" d="M-0.0,1.2L2.5,1.2L1.9,.0L.4,.0L-0.0,1.2z"/><path fill="url(#lg10)" transform="translate(6.404075,0.021102)" fill-rule="nonzero" id="shape26" d="M.0,1.2L2.3,1.2L1.9,.0L.4,.0L.0,1.2z"/></g><g transform="translate(36.179853,0.044066)" id="group27"><path fill="url(#lg10)" transform="translate(-0.005075,-0.012696)" fill-rule="nonzero" id="shape28" d="M.0,1.2L2.5,1.2L1.8,.0L.2,.0L.0,.6L.0,1.2z"/><path fill="url(#lg10)" transform="translate(1.966236,0.017697)" fill-rule="nonzero" id="shape29" d="M.0,1.2L2.7,1.2L2.2,.0L.5,.0L.0,1.2z"/><path fill="url(#lg10)" transform="translate(4.238779,0.021886)" fill-rule="nonzero" id="shape30" d="M-0.0,1.2L2.5,1.2L1.9,.0L.4,.0L-0.0,1.2z"/></g><g transform="translate(36.164229,0.224628)" id="group31"><path fill="url(#lg11)" transform="translate(-0.014485,0.005110)" fill-rule="nonzero" id="shape32" d="M.0,.8L2.3,.8L2.1,.0L.3,.0L.0,.8z"/><path fill="url(#lg11)" transform="translate(2.322206,0.010031)" fill-rule="nonzero" id="shape33" d="M.0,.8L2.2,.8L2.0,.0L.3,.0L.0,.8z"/><path fill="url(#lg11)" transform="translate(4.505744,0.005110)" fill-rule="nonzero" id="shape34" d="M.0,.8L2.0,.8L1.8,.0L.2,.0L.0,.8z"/></g><g transform="translate(1.473845,0.028569)" id="group35"><g transform="translate(24.309841,0.000000)" id="group36"><path fill="url(#lg10)" transform="translate(4.375322,-0.003773)" fill-rule="nonzero" id="shape37" d="M.0,1.2L2.8,1.1L2.2,.0L.6,.0L.0,1.2z"/><path fill="url(#lg10)" transform="translate(6.654213,-0.003773)" fill-rule="nonzero" id="shape38" d="M.0,1.2L2.8,1.1L2.2,.0L.6,.0L.0,1.2z"/><path fill="url(#lg10)" transform="translate(0.004153,0.007720)" fill-rule="nonzero" id="shape39" d="M.0,1.2L2.8,1.1L2.2,.0L.6,.0L.0,1.2z"/><path fill="url(#lg10)" transform="translate(2.283035,0.007720)" fill-rule="nonzero" id="shape40" d="M.0,1.2L2.8,1.1L2.2,.0L.6,.0L.0,1.2z"/></g><g transform="translate(14.355818,0.000000)" id="group41"><path fill="url(#lg10)" transform="translate(4.375322,-0.003773)" fill-rule="nonzero" id="shape42" d="M.0,1.2L2.8,1.1L2.2,.0L.6,.0L.0,1.2z"/><path fill="url(#lg10)" transform="translate(6.654213,-0.003773)" fill-rule="nonzero" id="shape43" d="M.0,1.2L2.8,1.1L2.2,.0L.6,.0L.0,1.2z"/><path fill="url(#lg10)" transform="translate(0.004153,0.007720)" fill-rule="nonzero" id="shape44" d="M.0,1.2L2.8,1.1L2.2,.0L.6,.0L.0,1.2z"/><path fill="url(#lg10)" transform="translate(2.283035,0.007720)" fill-rule="nonzero" id="shape45" d="M.0,1.2L2.8,1.1L2.2,.0L.6,.0L.0,1.2z"/></g><g transform="translate(4.169541,0.000000)" id="group46"><path fill="url(#lg10)" transform="translate(4.375322,-0.003773)" fill-rule="nonzero" id="shape47" d="M.0,1.2L2.8,1.1L2.2,.0L.6,.0L.0,1.2z"/><path fill="url(#lg10)" transform="translate(6.654213,-0.003773)" fill-rule="nonzero" id="shape48" d="M.0,1.2L2.8,1.1L2.2,.0L.6,.0L.0,1.2z"/><path fill="url(#lg10)" transform="translate(0.004153,0.007720)" fill-rule="nonzero" id="shape49" d="M.0,1.2L2.8,1.1L2.2,.0L.6,.0L.0,1.2z"/><path fill="url(#lg10)" transform="translate(2.283035,0.007720)" fill-rule="nonzero" id="shape50" d="M.0,1.2L2.8,1.1L2.2,.0L.6,.0L.0,1.2z"/></g><path fill="url(#lg10)" transform="translate(-0.006208,-0.006236)" fill-rule="nonzero" id="shape51" d="M-0.0,1.2L2.2,1.2L2.2,.6L1.9,.0L.4,.0L-0.0,1.2z"/></g><g transform="translate(1.539803,0.257801)" id="group52"><path fill="url(#lg11)" transform="translate(0.012045,0.000613)" fill-rule="nonzero" id="shape53" d="M.0,.9L2.0,.9L1.8,.0L.2,.0L.0,.9z"/><g transform="translate(4.533410,0.000000)" id="group54"><path fill="url(#lg11)" transform="translate(0.001793,0.009851)" fill-rule="nonzero" id="shape55" d="M.0,.9L2.1,.9L1.8,.0L.2,.0L.0,.9z"/><path fill="url(#lg11)" transform="translate(2.178268,0.012427)" fill-rule="nonzero" id="shape56" d="M.0,.9L1.9,.9L1.7,.0L.2,.0L.0,.9z"/><path fill="url(#lg11)" transform="translate(4.382606,0.015757)" fill-rule="nonzero" id="shape57" d="M.0,.9L2.1,.9L1.8,.0L.2,.0L.0,.9z"/><path fill="url(#lg11)" transform="translate(6.527110,0.012427)" fill-rule="nonzero" id="shape58" d="M.0,.9L2.1,.9L1.9,.0L.3,.0L.0,.9z"/></g><g transform="translate(14.697266,-0.004264)" id="group59"><path fill="url(#lg11)" transform="translate(0.001793,0.009851)" fill-rule="nonzero" id="shape60" d="M.0,.9L2.1,.9L1.8,.0L.2,.0L.0,.9z"/><path fill="url(#lg11)" transform="translate(2.178268,0.012427)" fill-rule="nonzero" id="shape61" d="M.0,.9L1.9,.9L1.7,.0L.2,.0L.0,.9z"/><path fill="url(#lg11)" transform="translate(4.382606,0.015757)" fill-rule="nonzero" id="shape62" d="M.0,.9L2.1,.9L1.8,.0L.2,.0L.0,.9z"/><path fill="url(#lg11)" transform="translate(6.527110,0.012427)" fill-rule="nonzero" id="shape63" d="M.0,.9L2.1,.9L1.9,.0L.3,.0L.0,.9z"/></g><g transform="translate(24.682467,0.000000)" id="group64"><path fill="url(#lg11)" transform="translate(0.001793,0.009851)" fill-rule="nonzero" id="shape65" d="M.0,.9L2.1,.9L1.8,.0L.2,.0L.0,.9z"/><path fill="url(#lg11)" transform="translate(2.178268,0.012427)" fill-rule="nonzero" id="shape66" d="M.0,.9L1.9,.9L1.7,.0L.2,.0L.0,.9z"/><path fill="url(#lg11)" transform="translate(4.382606,0.015757)" fill-rule="nonzero" id="shape67" d="M.0,.9L2.1,.9L1.8,.0L.2,.0L.0,.9z"/><path fill="url(#lg11)" transform="translate(6.527110,0.012427)" fill-rule="nonzero" id="shape68" d="M.0,.9L2.1,.9L1.9,.0L.3,.0L.0,.9z"/></g></g><g transform="translate(1.243893,0.586532)" id="group69"><path fill="url(#lg10)" transform="translate(-0.022778,-0.003445)" fill-rule="nonzero" id="shape70" d="M.0,1.2L2.4,1.1L1.9,.0L.5,.0L.0,1.2z"/><path fill="url(#lg10)" transform="translate(1.791597,-0.003445)" fill-rule="nonzero" id="shape71" d="M.0,1.2L2.9,1.1L2.3,.0L.6,.0L.0,1.2z"/><path fill="url(#lg10)" transform="translate(4.211091,-0.014281)" fill-rule="nonzero" id="shape72" d="M.0,1.2L2.9,1.1L2.3,.0L.6,.0L.0,1.2z"/><path fill="url(#lg10)" transform="translate(6.478856,-0.014281)" fill-rule="nonzero" id="shape73" d="M.0,1.2L2.9,1.1L2.2,.0L.6,.0L.0,1.2z"/><path fill="url(#lg10)" transform="translate(8.717801,-0.014281)" fill-rule="nonzero" id="shape74" d="M.0,1.2L2.9,1.1L2.3,.0L.6,.0L.0,1.2z"/><path fill="url(#lg10)" transform="translate(11.058711,-0.014281)" fill-rule="nonzero" id="shape75" d="M.0,1.2L2.9,1.1L2.3,.0L.6,.0L.0,1.2z"/><path fill="url(#lg10)" transform="translate(13.429350,-0.013953)" fill-rule="nonzero" id="shape76" d="M.0,1.2L2.9,1.1L2.3,.0L.6,.0L.0,1.2z"/><path fill="url(#lg10)" transform="translate(15.697530,-0.013953)" fill-rule="nonzero" id="shape77" d="M.0,1.2L2.9,1.1L2.2,.0L.6,.0L.0,1.2z"/><path fill="url(#lg10)" transform="translate(18.023251,-0.012967)" fill-rule="nonzero" id="shape78" d="M.0,1.2L2.9,1.1L2.3,.0L.6,.0L.0,1.2z"/><path fill="url(#lg10)" transform="translate(20.338727,0.006406)" fill-rule="nonzero" id="shape79" d="M.0,1.2L2.8,1.1L2.2,.0L.6,.0L.0,1.2z"/><path fill="url(#lg10)" transform="translate(22.566984,0.006406)" fill-rule="nonzero" id="shape80" d="M.0,1.2L2.8,1.1L2.2,.0L.6,.0L.0,1.2z"/><path fill="url(#lg10)" transform="translate(24.823532,0.006735)" fill-rule="nonzero" id="shape81" d="M.0,1.2L2.8,1.1L2.2,.0L.6,.0L.0,1.2z"/><path fill="url(#lg10)" transform="translate(26.983027,0.006735)" fill-rule="nonzero" id="shape82" d="M.0,1.2L2.7,1.1L2.1,.0L.6,.0L.0,1.2z"/><path fill="url(#lg10)" transform="translate(29.196544,0.007720)" fill-rule="nonzero" id="shape83" d="M.0,1.2L2.8,1.1L2.2,.0L.6,.0L.0,1.2z"/></g><g transform="translate(1.342567,0.783001)" id="group84"><path fill="url(#lg11)" transform="translate(27.361331,0.027580)" fill-rule="nonzero" id="shape85" d="M.0,.9L2.3,.9L1.9,.0L.3,.0L.0,.9z"/><path fill="url(#lg11)" transform="translate(29.601094,0.044981)" fill-rule="nonzero" id="shape86" d="M.0,.9L2.3,.9L1.9,.0L.3,.0L.0,.9z"/><path fill="url(#lg11)" transform="translate(-0.004910,0.038736)" fill-rule="nonzero" id="shape87" d="M-0.0,1.0L1.9,.9L1.6,.0L.2,.0L-0.0,1.0z"/><g transform="translate(2.061460,0.011379)" id="group88"><path fill="url(#lg11)" transform="translate(0.007748,0.025671)" fill-rule="nonzero" id="shape89" d="M.0,.9L2.2,.9L2.0,.0L.3,.0L.0,.9z"/><path fill="url(#lg11)" transform="translate(2.366502,0.031184)" fill-rule="nonzero" id="shape90" d="M.0,.9L2.2,.9L1.9,.0L.3,.0L.0,.9z"/><path fill="url(#lg11)" transform="translate(4.703180,0.033985)" fill-rule="nonzero" id="shape91" d="M.0,.9L2.2,.9L2.0,.0L.3,.0L.0,.9z"/><path fill="url(#lg11)" transform="translate(6.966249,0.037318)" fill-rule="nonzero" id="shape92" d="M.0,.9L2.2,.9L1.9,.0L.3,.0L.0,.9z"/><path fill="url(#lg11)" transform="translate(9.201194,0.033985)" fill-rule="nonzero" id="shape93" d="M.0,.9L2.2,.9L2.0,.0L.3,.0L.0,.9z"/><path fill="url(#lg11)" transform="translate(11.559883,0.039947)" fill-rule="nonzero" id="shape94" d="M.0,.9L2.2,.9L1.9,.0L.3,.0L.0,.9z"/><path fill="url(#lg11)" transform="translate(13.823935,0.017997)" fill-rule="nonzero" id="shape95" d="M.0,1.0L2.2,1.0L1.8,.0L.3,.0L.0,1.0z"/><path fill="url(#lg11)" transform="translate(16.062581,0.045632)" fill-rule="nonzero" id="shape96" d="M.0,.9L2.2,.9L1.9,.0L.3,.0L.0,.9z"/><path fill="url(#lg11)" transform="translate(18.394347,-0.017014)" fill-rule="nonzero" id="shape97" d="M.0,1.0L2.2,1.0L1.8,.0L.3,.0L.0,1.0z"/><path fill="url(#lg11)" transform="translate(20.632943,0.010611)" fill-rule="nonzero" id="shape98" d="M.0,.9L2.2,.9L1.9,.0L.3,.0L.0,.9z"/><path fill="url(#lg11)" transform="translate(22.837747,-0.004703)" fill-rule="nonzero" id="shape99" d="M.0,.9L2.2,.9L1.9,.0L.3,.0L.0,.9z"/></g></g><g transform="translate(1.134388,1.002008)" id="group100"><path fill="url(#lg10)" transform="translate(0.014137,0.024131)" fill-rule="nonzero" id="shape101" d="M-0.0,1.1L3.7,1.1L3.0,-0.0L.3,.0L-0.0,1.1z"/><path fill="url(#lg10)" transform="translate(30.743542,0.012311)" fill-rule="nonzero" id="shape102" d="M.0,1.2L3.7,1.1L3.6,.6L3.4,-0.0L.5,.0L.0,1.2z"/><path fill="url(#lg10)" transform="translate(2.962373,0.006188)" fill-rule="nonzero" id="shape103" d="M.0,1.2L2.9,1.1L2.3,.0L.6,.0L.0,1.2z"/><path fill="url(#lg10)" transform="translate(5.320479,0.006188)" fill-rule="nonzero" id="shape104" d="M.0,1.2L2.9,1.1L2.3,.0L.6,.0L.0,1.2z"/><path fill="url(#lg10)" transform="translate(7.757593,0.039018)" fill-rule="nonzero" id="shape105" d="M.0,1.2L2.9,1.1L2.3,.0L.6,.0L.0,1.2z"/><path fill="url(#lg10)" transform="translate(10.041907,0.039018)" fill-rule="nonzero" id="shape106" d="M.0,1.2L2.9,1.1L2.3,.0L.6,.0L.0,1.2z"/><path fill="url(#lg10)" transform="translate(12.297141,0.039018)" fill-rule="nonzero" id="shape107" d="M.0,1.2L2.9,1.1L2.3,.0L.6,.0L.0,1.2z"/><path fill="url(#lg10)" transform="translate(14.655247,0.039018)" fill-rule="nonzero" id="shape108" d="M.0,1.2L2.9,1.1L2.3,.0L.6,.0L.0,1.2z"/><path fill="url(#lg10)" transform="translate(17.043171,0.028512)" fill-rule="nonzero" id="shape109" d="M.0,1.2L2.9,1.1L2.3,.0L.6,.0L.0,1.2z"/><path fill="url(#lg10)" transform="translate(19.327658,0.028512)" fill-rule="nonzero" id="shape110" d="M.0,1.2L2.9,1.1L2.3,.0L.6,.0L.0,1.2z"/><path fill="url(#lg10)" transform="translate(21.670312,0.029377)" fill-rule="nonzero" id="shape111" d="M.0,1.2L2.9,1.1L2.3,.0L.6,.0L.0,1.2z"/><path fill="url(#lg10)" transform="translate(23.954729,0.029377)" fill-rule="nonzero" id="shape112" d="M.0,1.2L2.8,1.1L2.2,.0L.6,.0L.0,1.2z"/><path fill="url(#lg10)" transform="translate(26.233897,0.029377)" fill-rule="nonzero" id="shape113" d="M.0,1.2L2.8,1.1L2.2,.0L.6,.0L.0,1.2z"/><path fill="url(#lg10)" transform="translate(28.499930,0.012311)" fill-rule="nonzero" id="shape114" d="M.0,1.2L2.8,1.1L2.2,.0L.6,.0L.0,1.2z"/></g><g transform="translate(1.178184,1.177490)" id="group115"><path fill="url(#lg11)" transform="translate(0.004156,0.050559)" fill-rule="nonzero" id="shape116" d="M-0.0,1.0L3.1,.9L2.7,.0L.3,.0L-0.0,1.0z"/><path fill="url(#lg11)" transform="translate(31.268183,0.032827)" fill-rule="nonzero" id="shape117" d="M.0,1.0L2.9,1.0L2.8,-0.0L.2,.0L.0,1.0z"/><g transform="translate(3.118074,0.021886)" id="group118"><path fill="url(#lg11)" transform="translate(0.007871,0.025671)" fill-rule="nonzero" id="shape119" d="M.0,.9L2.2,.9L2.0,.0L.3,.0L.0,.9z"/><path fill="url(#lg11)" transform="translate(2.404021,0.031184)" fill-rule="nonzero" id="shape120" d="M.0,.9L2.3,.9L1.9,.0L.3,.0L.0,.9z"/><path fill="url(#lg11)" transform="translate(4.777747,0.033985)" fill-rule="nonzero" id="shape121" d="M.0,.9L2.2,.9L2.0,.0L.3,.0L.0,.9z"/><path fill="url(#lg11)" transform="translate(7.076694,0.037318)" fill-rule="nonzero" id="shape122" d="M.0,.9L2.3,.9L1.9,.0L.3,.0L.0,.9z"/><path fill="url(#lg11)" transform="translate(9.347074,0.033985)" fill-rule="nonzero" id="shape123" d="M.0,.9L2.2,.9L2.0,.0L.3,.0L.0,.9z"/><path fill="url(#lg11)" transform="translate(11.743158,0.039947)" fill-rule="nonzero" id="shape124" d="M.0,.9L2.3,.9L1.9,.0L.3,.0L.0,.9z"/><path fill="url(#lg11)" transform="translate(14.043106,0.017997)" fill-rule="nonzero" id="shape125" d="M.0,1.0L2.2,1.0L1.9,.0L.3,.0L.0,1.0z"/><path fill="url(#lg11)" transform="translate(16.317244,0.045632)" fill-rule="nonzero" id="shape126" d="M.0,.9L2.3,.9L1.9,.0L.3,.0L.0,.9z"/><path fill="url(#lg11)" transform="translate(18.685979,-0.017014)" fill-rule="nonzero" id="shape127" d="M.0,1.0L2.2,1.0L1.9,.0L.3,.0L.0,1.0z"/><path fill="url(#lg11)" transform="translate(20.960066,0.010611)" fill-rule="nonzero" id="shape128" d="M.0,.9L2.3,.9L1.9,.0L.3,.0L.0,.9z"/><path fill="url(#lg11)" transform="translate(23.199826,-0.004703)" fill-rule="nonzero" id="shape129" d="M.0,.9L2.3,.9L1.9,.0L.3,.0L.0,.9z"/></g><path fill="url(#lg11)" transform="translate(28.615733,0.046456)" fill-rule="nonzero" id="shape130" d="M.0,1.0L2.2,1.0L1.9,.0L.3,.0L.0,1.0z"/></g><g transform="translate(1.134388,1.395679)" id="group131"><path fill="url(#lg10)" transform="translate(-0.011048,0.046018)" fill-rule="nonzero" id="shape132" d="M-0.0,1.1L4.3,1.1L3.5,-0.0L.3,.0L-0.0,1.1z"/><path fill="url(#lg10)" transform="translate(28.928891,0.028075)" fill-rule="nonzero" id="shape133" d="M.0,1.2L5.6,1.1L5.4,.6L5.1,-0.0L.7,.0L.0,1.2z"/><g transform="translate(3.460309,0.000000)" id="group134"><path fill="url(#lg10)" transform="translate(0.005822,0.028075)" fill-rule="nonzero" id="shape135" d="M.0,1.2L2.9,1.1L2.3,.0L.6,.0L.0,1.2z"/><path fill="url(#lg10)" transform="translate(2.363945,0.028075)" fill-rule="nonzero" id="shape136" d="M.0,1.2L2.9,1.1L2.3,.0L.6,.0L.0,1.2z"/><path fill="url(#lg10)" transform="translate(4.801111,0.017131)" fill-rule="nonzero" id="shape137" d="M.0,1.2L2.9,1.1L2.3,.0L.6,.0L.0,1.2z"/><path fill="url(#lg10)" transform="translate(7.085425,0.017131)" fill-rule="nonzero" id="shape138" d="M.0,1.2L2.9,1.1L2.3,.0L.6,.0L.0,1.2z"/><path fill="url(#lg10)" transform="translate(9.340706,0.017131)" fill-rule="nonzero" id="shape139" d="M.0,1.2L2.9,1.1L2.3,.0L.6,.0L.0,1.2z"/><path fill="url(#lg10)" transform="translate(11.698878,0.017131)" fill-rule="nonzero" id="shape140" d="M.0,1.2L2.9,1.1L2.3,.0L.6,.0L.0,1.2z"/><path fill="url(#lg10)" transform="translate(14.086788,0.050398)" fill-rule="nonzero" id="shape141" d="M.0,1.2L2.9,1.1L2.3,.0L.6,.0L.0,1.2z"/><path fill="url(#lg10)" transform="translate(16.371388,0.050398)" fill-rule="nonzero" id="shape142" d="M.0,1.2L2.9,1.1L2.3,.0L.6,.0L.0,1.2z"/><path fill="url(#lg10)" transform="translate(18.714054,0.051265)" fill-rule="nonzero" id="shape143" d="M.0,1.2L2.9,1.1L2.3,.0L.6,.0L.0,1.2z"/><path fill="url(#lg10)" transform="translate(20.998550,0.051265)" fill-rule="nonzero" id="shape144" d="M.0,1.2L2.8,1.1L2.2,.0L.6,.0L.0,1.2z"/><path fill="url(#lg10)" transform="translate(23.277756,0.051265)" fill-rule="nonzero" id="shape145" d="M.0,1.2L2.8,1.1L2.2,.0L.6,.0L.0,1.2z"/></g></g><path fill="url(#lg12)" transform="translate(0.563454,4.070981)" fill-rule="nonzero" id="shape146" d="M.0,.0L54.0,.0L54.0,.8L.0,.8L.0,.0z"/><g transform="translate(1.178267,1.615606)" id="group147"><path fill="url(#lg11)" transform="translate(0.004160,0.028673)" fill-rule="nonzero" id="shape148" d="M-0.0,1.0L3.4,.9L3.0,.0L.3,.0L-0.0,1.0z"/><path fill="url(#lg11)" transform="translate(29.340418,0.009626)" fill-rule="nonzero" id="shape149" d="M.0,1.0L5.0,1.0L4.7,-0.0L.4,.0L.0,1.0z"/><g transform="translate(3.810690,0.000000)" id="group150"><path fill="url(#lg11)" transform="translate(0.007871,0.025671)" fill-rule="nonzero" id="shape151" d="M.0,.9L2.2,.9L2.0,.0L.3,.0L.0,.9z"/><path fill="url(#lg11)" transform="translate(2.404029,0.031184)" fill-rule="nonzero" id="shape152" d="M.0,.9L2.3,.9L1.9,.0L.3,.0L.0,.9z"/><path fill="url(#lg11)" transform="translate(4.777762,0.033985)" fill-rule="nonzero" id="shape153" d="M.0,.9L2.2,.9L2.0,.0L.3,.0L.0,.9z"/><path fill="url(#lg11)" transform="translate(7.076717,0.037318)" fill-rule="nonzero" id="shape154" d="M.0,.9L2.3,.9L1.9,.0L.3,.0L.0,.9z"/><path fill="url(#lg11)" transform="translate(9.347104,0.033985)" fill-rule="nonzero" id="shape155" d="M.0,.9L2.2,.9L2.0,.0L.3,.0L.0,.9z"/><path fill="url(#lg11)" transform="translate(11.743195,0.039947)" fill-rule="nonzero" id="shape156" d="M.0,.9L2.3,.9L1.9,.0L.3,.0L.0,.9z"/><path fill="url(#lg11)" transform="translate(14.043151,0.017997)" fill-rule="nonzero" id="shape157" d="M.0,1.0L2.2,1.0L1.9,.0L.3,.0L.0,1.0z"/><path fill="url(#lg11)" transform="translate(16.317296,0.045632)" fill-rule="nonzero" id="shape158" d="M.0,.9L2.3,.9L1.9,.0L.3,.0L.0,.9z"/><path fill="url(#lg11)" transform="translate(18.686039,-0.017014)" fill-rule="nonzero" id="shape159" d="M.0,1.0L2.2,1.0L1.9,.0L.3,.0L.0,1.0z"/><path fill="url(#lg11)" transform="translate(20.960133,0.010611)" fill-rule="nonzero" id="shape160" d="M.0,.9L2.3,.9L1.9,.0L.3,.0L.0,.9z"/><path fill="url(#lg11)" transform="translate(23.199900,-0.004703)" fill-rule="nonzero" id="shape161" d="M.0,.9L2.3,.9L1.9,.0L.3,.0L.0,.9z"/></g></g><g transform="translate(0.959174,1.921046)" id="group162"><path fill="url(#lg10)" transform="translate(-0.007126,0.039883)" fill-rule="nonzero" id="shape163" d="M.0,1.1L5.8,1.1L5.0,-0.0L.4,.0L.0,1.1z"/><path fill="url(#lg10)" transform="translate(4.973016,0.021940)" fill-rule="nonzero" id="shape164" d="M.0,1.2L2.9,1.1L2.3,.0L.6,.0L.0,1.2z"/><path fill="url(#lg10)" transform="translate(7.331125,0.021940)" fill-rule="nonzero" id="shape165" d="M.0,1.2L2.9,1.1L2.3,.0L.6,.0L.0,1.2z"/><path fill="url(#lg10)" transform="translate(9.768284,0.010997)" fill-rule="nonzero" id="shape166" d="M.0,1.2L2.9,1.1L2.3,.0L.6,.0L.0,1.2z"/><path fill="url(#lg10)" transform="translate(12.052639,0.010997)" fill-rule="nonzero" id="shape167" d="M.0,1.2L2.9,1.1L2.3,.0L.6,.0L.0,1.2z"/><path fill="url(#lg10)" transform="translate(14.308001,0.010997)" fill-rule="nonzero" id="shape168" d="M.0,1.2L2.9,1.1L2.3,.0L.6,.0L.0,1.2z"/><path fill="url(#lg10)" transform="translate(16.666075,0.010997)" fill-rule="nonzero" id="shape169" d="M.0,1.2L2.9,1.1L2.3,.0L.6,.0L.0,1.2z"/><path fill="url(#lg10)" transform="translate(19.053954,0.044264)" fill-rule="nonzero" id="shape170" d="M.0,1.2L2.9,1.1L2.3,.0L.6,.0L.0,1.2z"/><path fill="url(#lg10)" transform="translate(21.338412,0.044264)" fill-rule="nonzero" id="shape171" d="M.0,1.2L2.9,1.1L2.3,.0L.6,.0L.0,1.2z"/><path fill="url(#lg10)" transform="translate(23.681095,0.045141)" fill-rule="nonzero" id="shape172" d="M.0,1.2L2.9,1.1L2.3,.0L.6,.0L.0,1.2z"/><path fill="url(#lg10)" transform="translate(25.965569,0.045141)" fill-rule="nonzero" id="shape173" d="M.0,1.2L2.8,1.1L2.2,.0L.6,.0L.0,1.2z"/><path fill="url(#lg10)" transform="translate(28.130279,0.021940)" fill-rule="nonzero" id="shape174" d="M.0,1.2L6.6,1.1L6.5,.6L6.2,-0.0L.7,.0L.0,1.2z"/></g><g transform="translate(0.915433,2.096627)" id="group175"><path fill="url(#lg11)" transform="translate(5.369167,0.017784)" fill-rule="nonzero" id="shape176" d="M.0,.9L2.2,.9L2.0,.0L.3,.0L.0,.9z"/><path fill="url(#lg11)" transform="translate(0.043863,0.020937)" fill-rule="nonzero" id="shape177" d="M-0.0,1.0L5.3,.9L4.9,-0.0L.5,.0L-0.0,1.0z"/><path fill="url(#lg11)" transform="translate(7.765313,0.023308)" fill-rule="nonzero" id="shape178" d="M.0,.9L2.3,.9L1.9,.0L.3,.0L.0,.9z"/><path fill="url(#lg11)" transform="translate(10.139076,0.026109)" fill-rule="nonzero" id="shape179" d="M.0,.9L2.2,.9L2.0,.0L.3,.0L.0,.9z"/><path fill="url(#lg11)" transform="translate(12.438018,0.029442)" fill-rule="nonzero" id="shape180" d="M.0,.9L2.3,.9L1.9,.0L.3,.0L.0,.9z"/><path fill="url(#lg11)" transform="translate(14.708404,0.026109)" fill-rule="nonzero" id="shape181" d="M.0,.9L2.2,.9L2.0,.0L.3,.0L.0,.9z"/><path fill="url(#lg11)" transform="translate(17.104514,0.032060)" fill-rule="nonzero" id="shape182" d="M.0,.9L2.3,.9L1.9,.0L.3,.0L.0,.9z"/><path fill="url(#lg11)" transform="translate(19.404497,0.010121)" fill-rule="nonzero" id="shape183" d="M.0,1.0L2.2,1.0L1.9,.0L.3,.0L.0,1.0z"/><path fill="url(#lg11)" transform="translate(21.678595,0.037756)" fill-rule="nonzero" id="shape184" d="M.0,.9L2.3,.9L1.9,.0L.3,.0L.0,.9z"/><path fill="url(#lg11)" transform="translate(24.047300,-0.024900)" fill-rule="nonzero" id="shape185" d="M.0,1.0L2.2,1.0L1.9,.0L.3,.0L.0,1.0z"/><path fill="url(#lg11)" transform="translate(26.321397,0.002735)" fill-rule="nonzero" id="shape186" d="M.0,.9L2.3,.9L1.9,.0L.3,.0L.0,.9z"/><path fill="url(#lg11)" transform="translate(28.427420,-0.013574)" fill-rule="nonzero" id="shape187" d="M.0,1.0L6.3,1.0L5.9,-0.0L.4,.0L.0,1.0z"/></g><g transform="translate(0.783960,2.534255)" id="group188"><path fill="url(#lg10)" transform="translate(3.373900,0.003140)" fill-rule="nonzero" id="shape189" d="M-0.0,1.2L3.3,1.2L2.8,.0L.6,.0L-0.0,1.2z"/><path fill="url(#lg10)" transform="translate(0.000346,0.021114)" fill-rule="nonzero" id="shape190" d="M.0,1.1L3.9,1.2L3.2,-0.0L.3,.0L.0,1.1z"/><path fill="url(#lg10)" transform="translate(6.261334,0.002802)" fill-rule="nonzero" id="shape191" d="M.0,1.2L3.5,1.2L2.8,.0L.6,.0L.0,1.2z"/><path fill="url(#lg10)" transform="translate(9.097169,0.002682)" fill-rule="nonzero" id="shape192" d="M.0,1.1L14.1,1.2L13.2,.0L.8,.0L.0,1.1z"/><path fill="url(#lg10)" transform="translate(22.600300,0.011893)" fill-rule="nonzero" id="shape193" d="M-0.0,1.2L3.3,1.2L2.8,.0L.6,.0L-0.0,1.2z"/><path fill="url(#lg10)" transform="translate(25.414519,0.002802)" fill-rule="nonzero" id="shape194" d="M.0,1.2L3.5,1.2L2.8,.0L.6,.0L.0,1.2z"/><path fill="url(#lg10)" transform="translate(28.357059,-0.002994)" fill-rule="nonzero" id="shape195" d="M-0.0,1.2L3.3,1.2L2.8,.0L.6,.0L-0.0,1.2z"/><path fill="url(#lg10)" transform="translate(31.033210,0.002842)" fill-rule="nonzero" id="shape196" d="M.0,1.2L4.0,1.2L3.6,.0L.7,.0L.0,1.2z"/></g><path fill="url(#lg10)" transform="translate(39.006196,1.921046)" fill-rule="nonzero" id="shape197" d="M.0,1.2L2.5,1.2L1.9,.0L.2,.0L.0,.6L.0,1.2z"/><path fill="url(#lg11)" transform="translate(39.076400,2.158686)" fill-rule="nonzero" id="shape198" d="M.0,.8L2.2,.8L2.0,.0L.3,.0L.0,.8z"/><g transform="translate(36.813365,2.522581)" id="group199"><path fill="url(#lg10)" transform="translate(-0.006162,-0.003691)" fill-rule="nonzero" id="shape200" d="M.0,1.2L2.5,1.2L1.9,.0L.2,.0L.0,.6L.0,1.2z"/><path fill="url(#lg10)" transform="translate(2.018000,0.026767)" fill-rule="nonzero" id="shape201" d="M.0,1.2L2.8,1.2L2.3,.0L.5,.0L.0,1.2z"/><path fill="url(#lg10)" transform="translate(4.351641,0.031018)" fill-rule="nonzero" id="shape202" d="M-0.0,1.2L2.6,1.2L2.4,.4L2.0,.0L.4,.0L-0.0,1.2z"/></g><g transform="translate(36.233566,0.414485)" id="group203"><path fill="url(#lg10)" transform="translate(-0.005255,-0.012696)" fill-rule="nonzero" id="shape204" d="M.0,1.2L2.6,1.2L1.9,.0L.2,.0L.0,.6L.0,1.2z"/><path fill="url(#lg10)" transform="translate(2.036078,0.017697)" fill-rule="nonzero" id="shape205" d="M.0,1.2L2.8,1.2L2.3,.0L.5,.0L.0,1.2z"/><path fill="url(#lg10)" transform="translate(4.389343,0.021886)" fill-rule="nonzero" id="shape206" d="M-0.0,1.2L2.6,1.2L2.0,.0L.4,.0L-0.0,1.2z"/></g><g transform="translate(36.230270,0.668971)" id="group207"><path fill="url(#lg11)" transform="translate(-0.014368,0.005110)" fill-rule="nonzero" id="shape208" d="M.0,.8L2.3,.8L2.1,.0L.3,.0L.0,.8z"/><path fill="url(#lg11)" transform="translate(2.303839,0.010031)" fill-rule="nonzero" id="shape209" d="M.0,.8L2.2,.8L1.9,.0L.3,.0L.0,.8z"/><path fill="url(#lg11)" transform="translate(4.470177,0.005110)" fill-rule="nonzero" id="shape210" d="M.0,.8L2.3,.8L2.1,.0L.3,.0L.0,.8z"/></g><g transform="translate(36.236060,0.832364)" id="group211"><path fill="url(#lg10)" transform="translate(-0.006162,-0.003691)" fill-rule="nonzero" id="shape212" d="M.0,1.2L2.5,1.2L1.9,.0L.2,.0L.0,.6L.0,1.2z"/><path fill="url(#lg10)" transform="translate(2.018000,0.026767)" fill-rule="nonzero" id="shape213" d="M.0,1.2L2.8,1.2L2.3,.0L.5,.0L.0,1.2z"/><path fill="url(#lg10)" transform="translate(4.351641,0.031018)" fill-rule="nonzero" id="shape214" d="M-0.0,1.2L2.6,1.2L2.4,.4L2.0,.0L.4,.0L-0.0,1.2z"/></g><g transform="translate(36.295729,1.177126)" id="group215"><path fill="url(#lg11)" transform="translate(-0.014482,0.005110)" fill-rule="nonzero" id="shape216" d="M.0,.8L2.3,.8L2.1,.0L.3,.0L.0,.8z"/><path fill="url(#lg11)" transform="translate(2.322197,0.010031)" fill-rule="nonzero" id="shape217" d="M.0,.8L2.2,.8L2.0,.0L.3,.0L.0,.8z"/><path fill="url(#lg11)" transform="translate(4.505798,0.005110)" fill-rule="nonzero" id="shape218" d="M.0,.8L2.3,.8L2.1,.0L.3,.0L.0,.8z"/></g><g transform="translate(44.327721,0.651273)" id="group219"><path fill="url(#lg11)" transform="translate(-0.009865,-0.001065)" fill-rule="nonzero" id="shape220" d="M.0,.8L2.2,.8L2.0,.0L.3,.0L.0,.8z"/><path fill="url(#lg11)" transform="translate(2.249932,0.003864)" fill-rule="nonzero" id="shape221" d="M.0,.8L2.1,.8L1.9,.0L.3,.0L.0,.8z"/><path fill="url(#lg11)" transform="translate(4.562036,-0.000986)" fill-rule="nonzero" id="shape222" d="M.0,.8L1.9,.8L1.6,.0L.2,.0L.0,.8z"/><path fill="url(#lg11)" transform="translate(6.535315,0.021424)" fill-rule="nonzero" id="shape223" d="M.0,.8L2.0,.8L1.7,.0L.3,.0L.0,.8z"/></g><path fill="url(#lg10)" transform="translate(50.982129,0.888078)" fill-rule="nonzero" id="shape224" d="M.0,1.7L2.7,1.6L1.9,.0L.4,.0L.0,1.7z"/><path fill="url(#lg11)" transform="translate(51.453904,1.710447)" fill-rule="nonzero" id="shape225" d="M.0,.8L2.1,.8L1.8,.0L.3,.0L.0,.8z"/><g transform="translate(44.352321,0.897735)" id="group226"><path fill="url(#lg10)" transform="translate(-0.006903,-0.003451)" fill-rule="nonzero" id="shape227" d="M.2,1.2L2.6,1.2L2.0,.0L.3,.0L.0,.6L.2,1.2z"/><path fill="url(#lg10)" transform="translate(2.125547,0.027017)" fill-rule="nonzero" id="shape228" d="M.0,1.2L2.8,1.2L2.3,.0L.5,.0L.0,1.2z"/><path fill="url(#lg10)" transform="translate(4.441716,0.031229)" fill-rule="nonzero" id="shape229" d="M-0.0,1.2L2.6,1.2L2.0,.0L.4,.0L-0.0,1.2z"/></g><g transform="translate(44.527950,1.171678)" id="group230"><path fill="url(#lg11)" transform="translate(-0.014485,0.005110)" fill-rule="nonzero" id="shape231" d="M.0,.8L2.3,.8L2.1,.0L.3,.0L.0,.8z"/><path fill="url(#lg11)" transform="translate(2.322206,0.010031)" fill-rule="nonzero" id="shape232" d="M.0,.8L2.2,.8L2.0,.0L.3,.0L.0,.8z"/><path fill="url(#lg11)" transform="translate(4.505744,0.005110)" fill-rule="nonzero" id="shape233" d="M.0,.8L2.0,.8L1.8,.0L.2,.0L.0,.8z"/></g><g transform="translate(44.500054,1.416132)" id="group234"><path fill="url(#lg10)" transform="translate(0.006818,0.008368)" fill-rule="nonzero" id="shape235" d="M.1,1.2L2.7,1.2L2.0,.0L.3,.0L-0.0,.6L.1,1.2z"/><path fill="url(#lg10)" transform="translate(2.172251,0.038835)" fill-rule="nonzero" id="shape236" d="M.0,1.2L2.9,1.2L2.3,.0L.5,.0L.0,1.2z"/><path fill="url(#lg10)" transform="translate(4.556450,0.043046)" fill-rule="nonzero" id="shape237" d="M-0.0,1.2L2.6,1.2L2.0,.0L.4,.0L-0.0,1.2z"/></g><g transform="translate(44.665129,1.690729)" id="group238"><path fill="url(#lg11)" transform="translate(-0.014368,0.005110)" fill-rule="nonzero" id="shape239" d="M.0,.8L2.3,.8L2.1,.0L.3,.0L.0,.8z"/><path fill="url(#lg11)" transform="translate(2.303839,0.010031)" fill-rule="nonzero" id="shape240" d="M.0,.8L2.2,.8L1.9,.0L.3,.0L.0,.8z"/><path fill="url(#lg11)" transform="translate(4.470177,0.005110)" fill-rule="nonzero" id="shape241" d="M.0,.8L2.3,.8L2.1,.0L.3,.0L.0,.8z"/></g><g transform="translate(44.712832,1.921046)" id="group242"><path fill="url(#lg10)" transform="translate(-0.006279,-0.003691)" fill-rule="nonzero" id="shape243" d="M.0,1.2L2.6,1.2L1.9,.0L.2,.0L.0,.6L.0,1.2z"/><path fill="url(#lg10)" transform="translate(2.056418,0.026767)" fill-rule="nonzero" id="shape244" d="M.0,1.2L2.9,1.2L2.3,.0L.5,.0L.0,1.2z"/><path fill="url(#lg10)" transform="translate(4.434486,0.031018)" fill-rule="nonzero" id="shape245" d="M-0.0,1.2L2.6,1.2L2.4,.4L2.0,.0L.4,.0L-0.0,1.2z"/></g><g transform="translate(44.854859,2.167759)" id="group246"><path fill="url(#lg11)" transform="translate(-0.014482,0.005110)" fill-rule="nonzero" id="shape247" d="M.0,.8L2.3,.8L2.1,.0L.3,.0L.0,.8z"/><path fill="url(#lg11)" transform="translate(2.322197,0.010031)" fill-rule="nonzero" id="shape248" d="M.0,.8L2.2,.8L2.0,.0L.3,.0L.0,.8z"/><path fill="url(#lg11)" transform="translate(4.505798,0.005110)" fill-rule="nonzero" id="shape249" d="M.0,.8L2.3,.8L2.1,.0L.3,.0L.0,.8z"/></g><path fill="url(#lg10)" transform="translate(51.558285,1.944113)" fill-rule="nonzero" id="shape250" d="M.2,1.8L2.6,1.8L2.4,.9L1.8,.0L.2,.0L-0.0,.8L.2,1.8z"/><g transform="translate(44.721835,2.571745)" id="group251"><path fill="url(#lg10)" transform="translate(0.012317,0.019199)" fill-rule="nonzero" id="shape252" d="M.2,1.2L5.3,1.2L4.3,.0L.6,.0L-0.0,.6L.2,1.2z"/><path fill="url(#lg10)" transform="translate(4.585405,0.000493)" fill-rule="nonzero" id="shape253" d="M.0,1.2L2.5,1.2L2.2,.0L.5,.0L.0,1.2z"/></g><g transform="translate(0.716368,2.901857)" id="group254"><path fill="url(#lg11)" transform="translate(3.776733,0.000000)" fill-rule="nonzero" id="shape255" d="M.0,.8L2.9,.8L2.6,.0L.4,.0L.0,.8z"/><path fill="url(#lg11)" transform="translate(0.000096,0.002849)" fill-rule="nonzero" id="shape256" d="M-0.0,.8L3.8,.8L3.5,-0.0L.3,.0L-0.0,.8z"/><path fill="url(#lg11)" transform="translate(6.713565,0.000000)" fill-rule="nonzero" id="shape257" d="M.0,.8L2.9,.8L2.6,.0L.4,.0L.0,.8z"/><path fill="url(#lg11)" transform="translate(9.731305,-0.001825)" fill-rule="nonzero" id="shape258" d="M-0.0,.8L13.0,.8L12.7,.0L.3,.0L-0.0,.8z"/><path fill="url(#lg11)" transform="translate(22.880057,0.000000)" fill-rule="nonzero" id="shape259" d="M.0,.8L2.9,.8L2.6,.0L.4,.0L.0,.8z"/><path fill="url(#lg11)" transform="translate(25.788626,0.028014)" fill-rule="nonzero" id="shape260" d="M.0,.8L2.9,.8L2.6,.0L.4,.0L.0,.8z"/><path fill="url(#lg11)" transform="translate(28.768348,0.028014)" fill-rule="nonzero" id="shape261" d="M.0,.8L2.9,.8L2.6,.0L.4,.0L.0,.8z"/><path fill="url(#lg11)" transform="translate(31.695932,-0.007268)" fill-rule="nonzero" id="shape262" d="M-0.0,.8L3.3,.8L3.0,-0.0L.3,.0L-0.0,.8z"/><path fill="url(#lg11)" transform="translate(36.159946,0.028014)" fill-rule="nonzero" id="shape263" d="M.0,.8L2.3,.8L2.1,.0L.3,.0L.0,.8z"/><path fill="url(#lg11)" transform="translate(38.496812,0.000000)" fill-rule="nonzero" id="shape264" d="M.0,.8L2.1,.8L1.9,.0L.3,.0L.0,.8z"/><path fill="url(#lg11)" transform="translate(40.680410,0.028014)" fill-rule="nonzero" id="shape265" d="M.0,.8L2.3,.8L2.1,.0L.3,.0L.0,.8z"/><path fill="url(#lg11)" transform="translate(44.209621,0.007001)" fill-rule="nonzero" id="shape266" d="M.0,.8L4.7,.8L4.2,.0L.6,.0L.0,.8z"/><path fill="url(#lg11)" transform="translate(48.919135,0.025677)" fill-rule="nonzero" id="shape267" d="M.0,.8L2.1,.8L1.9,.0L.3,.0L.0,.8z"/><path fill="url(#lg11)" transform="translate(51.070095,0.007001)" fill-rule="nonzero" id="shape268" d="M.0,.8L2.3,.8L2.1,.0L.3,.0L.0,.8z"/></g></g><g transform="translate(27.750793,0.000030)" id="group269"><path fill="url(#lg13)" transform="translate(12.110590,48.594747)" fill-rule="nonzero" id="shape270" d="M.0,.1L.0,1.5C.0,1.5,-0.2,2.4,1.1,2.4C3.7,2.6,10.2,3.0,18.6,3.0C27.3,3.0,32.5,2.7,34.4,2.6C35.1,2.5,35.1,1.5,35.1,1.5L35.1,.0C35.1,.0,12.1,3.0,.0,.1z"/><path fill="url(#lg13)" transform="translate(12.129984,46.934193)" fill-rule="nonzero" id="shape271" d="M14.4,.0C14.4,.0,2.6,.2,.1,1.7C-2.3,3.1,28.3,4.2,34.7,2.0C36.5,1.4,31.3,.0,14.4,.0z"/><path fill="url(#lg14)" transform="translate(12.129954,46.934193)" fill-rule="nonzero" id="shape272" d="M14.4,.0C14.4,.0,2.6,.2,.1,1.7C-2.3,3.1,28.3,4.2,34.7,2.0C36.5,1.4,31.3,.0,14.4,.0z"/><path stroke="#313131" stroke-width="1" fill="url(#lg15)" transform="translate(26.927265,40.806562)" fill-rule="nonzero" id="shape273" d="M.0,.0L6.0,.0L6.0,8.0L.0,8.0L.0,.0z"/><path stroke="#464646" stroke-width="1" fill="url(#lg1)" transform="translate(0.547385,-0.002865)" fill-rule="nonzero" id="shape274" d="M.3,.0L58.5,.0C58.6,.0,58.8,.1,58.8,.3L58.8,42.3C58.8,42.5,58.6,42.6,58.5,42.6L.3,42.6C.1,42.6,.0,42.5,.0,42.3L.0,.3C.0,.1,.1,.0,.3,.0z"/><path stroke="#184b6e" stroke-width="1" fill="url(#lg16)" transform="translate(3.656233,2.989021)" fill-rule="nonzero" id="shape275" d="M.0,.0L52.5,.0L52.5,36.5L.0,36.5L.0,.0z"/><path fill="url(#lg17)" transform="matrix(-1.000000,0.000000,0.000000,1.000000,47.307081,46.934167)" fill-rule="nonzero" id="shape276" d="M14.6,.0C14.6,.0,1.7,.3,.1,1.7C-2.1,3.5,28.4,4.2,34.8,2.0C36.6,1.4,31.4,.0,14.6,.0z"/></g><text style="fill:#191919;font-family:微软雅黑,PingFang SC,Mircrosoft YaHei,Arial;font-size:11.00pt" xml:space="preserve"><tspan x="35.6" style="font-family:微软雅黑,PingFang SC,Mircrosoft YaHei,Arial" y="76.2">电脑</tspan></text></g><g transform="translate(212.099235,360.453300)" id="group277"><path fill="#000000" transform="translate(0.103017,-0.003426)" fill-rule="nonzero" id="shape278" d="M47.1,.6C47.1,.6,50.2,-0.8,52.7,.7L70.3,11.3C70.3,11.3,73.0,13.2,69.2,15.4L26.4,42.8C26.4,42.8,22.6,45.3,19.2,43.4L1.1,30.8C1.1,30.8,-1.6,29.0,1.4,26.7L47.1,.6z"/><path fill="#404040" transform="translate(7.532790,3.415755)" fill-rule="nonzero" id="shape279" d="M.0,21.5L37.3,.0L58.0,12.3L20.8,35.9L.0,21.5z"/><path fill="url(#lg18)" transform="translate(0.000000,12.776037)" fill-rule="nonzero" id="shape280" d="M71.4,.0C71.4,.0,71.8,1.6,67.8,3.5L26.1,30.2C26.1,30.2,23.0,31.8,20.0,30.9L1.2,17.9C1.2,17.9,.1,17.1,.1,16.1L.0,18.9C.0,18.9,.1,20.3,1.6,21.3L18.6,33.2C18.6,33.2,21.4,35.1,25.3,33.5L69.7,4.9C69.7,4.9,71.2,4.3,71.3,2.9L71.4,.0z"/><path fill="#404040" transform="translate(8.472732,37.146315)" fill-rule="nonzero" id="shape281" d="M.9,.1L4.0,2.2C4.0,2.2,4.9,3.0,3.9,3.5C3.9,3.5,3.6,3.6,3.0,3.3L.3,1.3C.3,1.3,-0.4,.6,.4,.1C.4,.1,.6,-0.1,.9,.1z"/><path fill="#595959" transform="translate(1.050415,31.624413)" fill-rule="nonzero" id="shape282" d="M.0,1.4C-0.1,.8,.1,.1,.6,.0C1.0,-0.1,1.6,.3,1.7,.9C1.9,1.6,1.7,2.2,1.2,2.3C.7,2.4,.2,2.0,.0,1.4z"/><path fill="url(#lg19)" transform="translate(0.055669,11.289682)" fill-rule="nonzero" id="shape283" d="M27.0,31.2L69.3,4.2C69.3,4.2,73.0,2.2,70.3,.0C70.3,.0,72.2,2.0,68.9,3.7L26.8,30.6C26.8,30.6,22.6,33.1,19.4,31.4L1.6,18.9C1.6,18.9,-0.7,17.4,1.2,15.6C1.2,15.6,-1.5,17.4,1.2,19.5L19.2,32.1C19.2,32.1,22.0,34.1,27.0,31.2z"/><path fill="#202020" transform="translate(55.419690,6.786344)" fill-rule="nonzero" id="shape284" d="M.5,.0L4.5,2.4C4.5,2.4,4.8,3.0,4.0,2.9L.1,.4C.1,.4,-0.3,-0.2,.5,.0z"/><path fill="#202020" transform="translate(53.581052,5.438831)" fill-rule="nonzero" id="shape285" d="M.0,.3C.0,.2,.2,-0.0,.5,-0.0C.8,-0.0,1.1,.2,1.1,.3C1.1,.5,.8,.7,.5,.7C.2,.7,.0,.5,.0,.3z"/><path fill="#202020" transform="translate(58.832466,6.372292)" fill-rule="nonzero" id="shape286" d="M-0.0,.5C-0.0,.2,.4,-0.0,.8,-0.0C1.3,-0.0,1.6,.2,1.6,.5C1.6,.7,1.3,.9,.8,.9C.4,.9,-0.0,.7,-0.0,.5z"/><path fill="url(#lg20)" transform="translate(11.596597,32.021704)" fill-rule="nonzero" id="shape287" d="M.0,2.4C.0,1.1,1.3,.0,2.9,.0C4.5,.0,5.8,1.1,5.8,2.4C5.8,3.7,4.5,4.7,2.9,4.7C1.3,4.7,.0,3.7,.0,2.4z"/><path fill="#d0d0d0" transform="translate(13.220923,33.026255)" fill-rule="nonzero" id="shape288" d="M1.5,.0L2.7,.9C2.7,.9,2.9,1.2,2.6,1.4C2.1,1.8,1.7,2.1,1.7,2.1C1.7,2.1,1.4,2.3,1.0,2.0C.6,1.7,.1,1.4,.1,1.4C.1,1.4,-0.3,1.1,.3,.7L.9,.2C.9,.2,1.3,-0.1,1.5,.0z"/><path fill="#000000" transform="translate(13.599691,33.321224)" fill-rule="nonzero" id="shape289" d="M1.1,.0L2.0,.7C2.0,.7,2.1,.8,1.9,1.0C1.6,1.3,1.2,1.5,1.2,1.5C1.2,1.5,1.0,1.7,.7,1.5C.4,1.3,.1,1.0,.1,1.0C.1,1.0,-0.2,.8,.2,.5L.7,.1C.7,.1,.9,-0.1,1.1,.0z"/><path fill="#808080" transform="translate(13.711128,40.596032)" fill-rule="nonzero" id="shape290" d="M.2,.0L4.5,3.1L4.3,4.2L.0,1.1L.2,.0z"/><path fill="#808080" transform="translate(3.265928,33.131051)" fill-rule="nonzero" id="shape291" d="M.2,.0L4.5,3.1L4.3,4.2L.0,1.1L.2,.0z"/><path fill="#595959" transform="translate(8.622241,37.306050)" fill-rule="nonzero" id="shape292" d="M.8,.1L3.7,2.2C3.7,2.2,4.6,2.8,3.7,3.3C3.7,3.3,3.4,3.3,2.9,3.0L.3,1.1C.3,1.1,-0.3,.5,.3,.0C.3,.0,.5,-0.1,.8,.1z"/><path fill="#202020" transform="matrix(0.984808,-0.173648,0.173648,0.984808,1.580906,31.806315)" fill-rule="nonzero" id="shape293" d="M.0,1.2C-0.0,.6,-0.0,.1,.2,.0C.4,-0.1,.9,.3,1.0,.8C1.1,1.3,.9,1.9,.6,2.0C.5,1.9,.1,1.7,.0,1.2z"/><path fill="#202020" transform="translate(8.699395,37.313064)" fill-rule="nonzero" id="shape294" d="M.2,.0C.2,.0,.4,-0.1,.7,.1C1.0,.3,3.7,2.1,3.7,2.1C3.7,2.1,4.1,2.5,4.0,2.9L3.9,3.0L.0,.3C.0,.3,.1,.1,.2,.0z"/><path fill="url(#lg21)" transform="translate(27.768336,-0.001596)" fill-rule="nonzero" id="shape295" d="M19.5,.6C19.5,.6,22.5,-0.8,25.0,.7L42.6,11.3C42.6,11.3,44.3,13.7,40.9,15.3L.0,41.4L19.5,.6z"/><path fill="#c8c8c8" transform="translate(66.584307,16.832455)" fill-rule="nonzero" id="shape296" d="M.0,.4L.6,.0L.6,2.5L.0,2.9L.0,.4z"/><text style="fill:#191919;font-family:微软雅黑,PingFang SC,Mircrosoft YaHei,Arial;font-size:11.00pt" xml:space="preserve"><tspan x="22.0" style="font-family:微软雅黑,PingFang SC,Mircrosoft YaHei,Arial" y="63.6">手机</tspan></text></g><path stroke="#79b64c" stroke-width="1" fill="#79b64c" transform="matrix(0.866025,-0.500000,0.500000,0.866025,479.079935,316.973551)" fill-rule="nonzero" id="shape297" d="M.0,.0C.0,.0,14.5,1.6,29.2,7.6C43.9,13.5,59.2,25.1,67.1,33.6C74.5,41.7,81.1,50.9,85.4,59.0C89.6,66.8,94.6,78.4,94.6,78.4L102.8,77.7L93.7,99.3L70.5,81.2L78.4,80.1C78.4,80.1,75.2,71.3,70.9,63.2C66.8,55.4,61.1,45.7,56.0,39.1C50.5,31.9,40.9,21.6,31.7,14.9C18.1,5.0,.7,.8,.0,.0z"/><g transform="translate(627.321979,295.745125)" id="group298"><path stroke="#3a3a3a" stroke-width="1" fill="url(#lg22)" transform="translate(0.239800,0.000000)" fill-rule="nonzero" id="shape299" d="M.0,25.2L.7,23.4L56.1,.0L93.5,9.7L36.6,47.1L.0,25.2z"/><path stroke="#414141" stroke-width="1" fill="#414141" transform="translate(20.064200,9.672300)" fill-rule="nonzero" id="shape300" d="M14.7,114.3L73.9,82.0L73.9,1.1L15.5,27.7L.0,74.7L14.7,114.3z"/><path stroke="#424242" stroke-width="1" fill="url(#lg23)" transform="translate(-0.010500,23.427100)" fill-rule="nonzero" id="shape301" d="M1.2,.0L34.4,13.1C35.1,13.3,35.5,14.0,35.6,14.4L35.6,99.4C35.6,100.1,35.1,100.5,34.4,100.5L1.2,84.2C.3,83.7,.1,83.4,.0,83.0L.0,1.1C.0,.5,.5,.0,1.2,.0z"/><path fill="url(#lg24)" transform="translate(31.986800,8.871600)" fill-rule="nonzero" id="shape302" d="M.0,27.0C2.5,28.1,2.8,28.0,4.7,29.6C5.7,30.5,6.2,33.2,6.2,33.2L61.9,2.4C61.9,2.4,62.2,1.2,61.7,.8C61.3,.5,57.8,.0,57.8,.0L.0,27.0z"/><path fill="url(#lg25)" transform="translate(31.662640,35.651500)" fill-rule="nonzero" id="shape303" d="M-0.0,.0C1.6,.0,6.2,2.2,6.4,6.0C6.5,7.3,6.4,86.1,6.4,86.1C6.4,86.1,3.3,88.7,2.9,88.3C2.6,87.9,.1,87.0,.1,87.0L-0.0,.0z"/><path fill="url(#lg26)" transform="translate(0.140400,24.058800)" fill-rule="nonzero" id="shape304" d="M21.2,7.2L10.6,88.1L.0,83.6L.0,.3C.0,.3,-0.3,-0.3,1.2,.2L21.2,7.2z"/><g transform="translate(0.080000,34.095000)" id="group305"><g transform="translate(0.126360,-0.000010)" id="shape306"><g clip-path="url(#clip1)"><path stroke="url(#lg27)" stroke-width="2" fill="url(#lg27)" d="M19.4,.0L19.4,10.8L.0,.0z"/></g><g clip-path="url(#clip1)"><path stroke="url(#lg28)" stroke-width="2" fill="url(#lg28)" d="M19.4,10.8L.0,10.8L.0,.0z"/></g><path stroke="#292929" stroke-width="1" fill="none" d="M.0,.0L.0,1.8L19.4,10.8L19.4,8.9L.0,.0z"/></g><g transform="translate(0.126360,12.151070)" id="shape307"><g clip-path="url(#clip2)"><path stroke="url(#lg29)" stroke-width="2" fill="url(#lg29)" d="M19.4,.0L19.4,10.9L.0,.0z"/></g><g clip-path="url(#clip2)"><path stroke="url(#lg30)" stroke-width="2" fill="url(#lg30)" d="M19.4,10.9L.0,10.9L.0,.0z"/></g><path stroke="#292929" stroke-width="1" fill="none" d="M.0,.0L.0,2.0L19.4,10.9L19.4,8.7L.0,.0z"/></g><g transform="translate(-0.000020,24.398860)" id="shape308"><g clip-path="url(#clip3)"><path stroke="url(#lg31)" stroke-width="2" fill="url(#lg31)" d="M19.5,.0L19.5,11.1L.0,.0z"/></g><g clip-path="url(#clip3)"><path stroke="url(#lg32)" stroke-width="2" fill="url(#lg32)" d="M19.5,11.1L.0,11.1L.0,.0z"/></g><path stroke="#292929" stroke-width="1" fill="none" d="M.0,.0L.0,2.1L19.5,11.1L19.5,9.1L.0,.0z"/></g><g transform="translate(0.173330,37.077520)" id="shape309"><g clip-path="url(#clip4)"><path stroke="url(#lg33)" stroke-width="2" fill="url(#lg33)" d="M19.3,.0L19.3,10.9L.0,.0z"/></g><g clip-path="url(#clip4)"><path stroke="url(#lg34)" stroke-width="2" fill="url(#lg34)" d="M19.3,10.9L.0,10.9L.0,.0z"/></g><path stroke="#292929" stroke-width="1" fill="none" d="M.0,.0L.0,2.1L19.3,10.9L19.3,8.9L.0,.0z"/></g><g transform="translate(17.980280,8.346570)" id="shape310"><g clip-path="url(#clip5)"><path stroke="url(#lg35)" stroke-width="2" fill="url(#lg35)" d="M17.5,.0L17.5,9.4L.0,.0z"/></g><g clip-path="url(#clip5)"><path stroke="url(#lg36)" stroke-width="2" fill="url(#lg36)" d="M17.5,9.4L.0,9.4L.0,.0z"/></g><path stroke="url(#lg37)" stroke-width="1" fill="none" d="M.0,.0L.0,1.8L17.5,9.4L17.5,7.7L.0,.0z"/></g><g transform="translate(17.980430,20.207750)" id="shape311"><g clip-path="url(#clip6)"><path stroke="url(#lg38)" stroke-width="2" fill="url(#lg38)" d="M17.6,.0L17.6,10.1L.0,.0z"/></g><g clip-path="url(#clip6)"><path stroke="url(#lg39)" stroke-width="2" fill="url(#lg39)" d="M17.6,10.1L.0,10.1L.0,.0z"/></g><path stroke="url(#lg40)" stroke-width="1" fill="none" d="M.0,.0L.0,2.2L17.6,10.1L17.6,8.1L.0,.0z"/></g><g transform="translate(17.876280,32.781630)" id="shape312"><g clip-path="url(#clip7)"><path stroke="url(#lg41)" stroke-width="2" fill="url(#lg41)" d="M17.7,.0L17.7,9.8L.0,.0z"/></g><g clip-path="url(#clip7)"><path stroke="url(#lg42)" stroke-width="2" fill="url(#lg42)" d="M17.7,9.8L.0,9.8L.0,.0z"/></g><path stroke="url(#lg40)" stroke-width="1" fill="none" d="M.0,.0L17.7,8.0L17.7,9.8L.0,2.2L.0,.0z"/></g><g transform="translate(17.876280,45.145770)" id="shape313"><g clip-path="url(#clip8)"><path stroke="url(#lg43)" stroke-width="2" fill="url(#lg43)" d="M17.7,10.2L.0,10.2L17.7,.0z"/></g><g clip-path="url(#clip8)"><path stroke="url(#lg44)" stroke-width="2" fill="url(#lg44)" d="M.0,.0L.0,10.2L17.7,.0z"/></g><path stroke="url(#lg40)" stroke-width="1" fill="none" d="M.0,.0L17.7,8.3L17.7,10.2L.0,2.2L.0,.0z"/></g><path fill="url(#lg45)" transform="translate(18.915610,8.765740)" fill-rule="nonzero" id="shape314" d="M.0,.0L13.2,5.8L14.7,8.5L.0,2.0L.0,.0z"/><path fill="url(#lg45)" transform="translate(18.687000,20.417210)" fill-rule="nonzero" id="shape315" d="M.0,.0L13.1,6.0L14.6,9.1L.1,2.4L.0,.0z"/><path fill="url(#lg45)" transform="translate(18.853310,33.158750)" fill-rule="nonzero" id="shape316" d="M.0,.0L13.2,5.9L14.7,8.8L.0,2.3L.0,.0z"/><path fill="url(#lg46)" transform="translate(18.853310,45.714640)" fill-rule="nonzero" id="shape317" d="M.0,.0L13.2,5.8L14.7,8.5L.0,2.0L.0,.0z"/><path fill="url(#lg47)" transform="translate(18.853270,45.714430)" fill-rule="nonzero" id="shape318" d="M.0,.0L15.2,7.1L15.2,8.9L2.1,3.1L.0,.0z"/><path fill="url(#lg48)" transform="translate(19.102770,33.107730)" fill-rule="nonzero" id="shape319" d="M.0,.0L15.2,7.1L15.2,8.9L2.1,3.1L.0,.0z"/><path fill="url(#lg48)" transform="translate(19.154870,20.785430)" fill-rule="nonzero" id="shape320" d="M.0,.0L15.2,7.1L15.2,8.9L2.1,3.1L.0,.0z"/><path fill="url(#lg48)" transform="translate(19.154870,8.588930)" fill-rule="nonzero" id="shape321" d="M.0,.0L15.2,7.1L15.2,8.9L2.1,3.1L.0,.0z"/></g></g><g transform="translate(311.845411,283.951558)" id="group322"><path stroke="#000000" stroke-width="0.25" fill="url(#lg49)" transform="translate(-0.021048,0.000048)" fill-rule="nonzero" id="shape323" stroke-opacity="0.00" d="M53.5,39.3L53.5,31.5L72.8,47.7L53.5,64.8L53.5,57.3C53.5,57.3,19.1,49.3,.0,39.3L.0,.0C.0,.0,20.2,28.1,53.5,39.3z"/><path stroke="#000000" stroke-width="0.25" fill="url(#lg50)" transform="matrix(1.000000,0.000000,0.000000,-1.000000,-0.021048,96.263312)" fill-rule="nonzero" id="shape324" stroke-opacity="0.00" d="M53.5,39.2L53.5,31.4L72.8,48.6L53.5,64.8L53.5,57.2C53.5,57.2,19.1,49.3,.0,39.2L.0,.0C.0,.0,20.2,28.0,53.5,39.2z"/><path stroke="#000000" stroke-width="0.25" fill="url(#lg51)" transform="translate(53.468941,31.478071)" fill-rule="nonzero" id="shape325" stroke-opacity="0.00" d="M.0,.0L.0,33.8L20.0,16.0L.0,.0z"/></g><g transform="translate(467.046529,428.957125)" id="group326"><path stroke="#868686" stroke-width="1" fill="#efefef" fill-rule="nonzero" id="shape327" d="M11.0,.0L282.0,.0C288.1,.0,293.0,4.9,293.0,11.0L293.0,154.1C293.0,160.2,288.1,165.1,282.0,165.1L11.0,165.1C4.9,165.1,.0,160.2,.0,154.1L.0,11.0C.0,4.9,4.9,.0,11.0,.0z"/><g transform="translate(29.300000,0.000000)" id="shape328"><path stroke="#868686" stroke-width="1" fill="none" d="M.0,30.0L234.4,30.0L.0,30.0z"/><text style="fill:#191919;font-family:微软雅黑,PingFang SC,Mircrosoft YaHei,Arial;font-size:10.00pt" xml:space="preserve"><tspan x="83.9" style="font-family:微软雅黑,PingFang SC,Mircrosoft YaHei,Arial" y="18.2">单一服务器</tspan></text></g></g><g transform="translate(506.563829,515.331925)" id="group329"><path fill="#00c1de" fill-rule="nonzero" id="shape331" d="M36.5,37.9L3.6,37.9C1.6,37.9,.0,36.5,.0,34.5L.0,30.5C.0,28.5,1.6,27.0,3.6,27.0L36.5,27.0C38.4,27.0,40.0,28.5,40.0,30.5L40.0,34.5C40.0,36.5,38.4,37.9,36.5,37.9L36.5,37.9zM32.5,29.9C31.1,29.9,29.9,31.0,29.9,32.5C29.9,33.9,31.1,35.1,32.5,35.1C33.9,35.0,35.0,33.9,35.0,32.5C35.0,31.1,33.9,29.9,32.5,29.9L32.5,29.9zM36.5,24.4L3.6,24.4C1.6,24.4,.0,23.0,.0,21.0L.0,17.0C.0,15.0,1.6,13.5,3.6,13.5L36.5,13.5C38.4,13.5,40.0,15.0,40.0,17.0L40.0,21.0C40.0,23.0,38.4,24.4,36.5,24.4zM32.5,16.3C31.1,16.3,29.9,17.5,29.9,19.0C29.9,20.4,31.1,21.6,32.5,21.6C33.4,21.6,34.3,21.1,34.7,20.3C35.2,19.5,35.2,18.5,34.7,17.6C34.3,16.8,33.4,16.3,32.5,16.3L32.5,16.3zM36.5,10.9L3.6,10.9C1.6,10.9,.0,9.5,.0,7.5L.0,3.5C.0,1.5,1.6,.0,3.6,.0L36.5,.0C38.4,.0,40.0,1.5,40.0,3.5L40.0,7.5C40.0,9.5,38.4,10.9,36.5,10.9zM32.5,2.8C31.1,2.8,29.9,4.0,29.9,5.5C29.9,6.9,31.1,8.1,32.5,8.1C33.9,8.1,35.1,6.9,35.1,5.5C35.1,4.0,33.9,2.8,32.5,2.8z"/></g><g transform="translate(467.046529,472.144725)" id="shape332"><text style="fill:#191919;font-family:微软雅黑,PingFang SC,Mircrosoft YaHei,Arial;font-size:10.00pt" xml:space="preserve"><tspan x="35.2" style="font-family:微软雅黑,PingFang SC,Mircrosoft YaHei,Arial" y="21.7">Web应用</tspan></text></g><g transform="translate(578.960329,472.644725)" id="shape333"><text style="fill:#191919;font-family:微软雅黑,PingFang SC,Mircrosoft YaHei,Arial;font-size:10.00pt" xml:space="preserve"><tspan x="9.3" style="font-family:微软雅黑,PingFang SC,Mircrosoft YaHei,Arial" y="21.1">数据库</tspan></text></g><g transform="translate(637.087329,474.684325)" id="shape334"><text style="fill:#191919;font-family:微软雅黑,PingFang SC,Mircrosoft YaHei,Arial;font-size:10.00pt" xml:space="preserve"><tspan x="46.2" style="font-family:微软雅黑,PingFang SC,Mircrosoft YaHei,Arial" y="21.7">Redis</tspan></text></g><g transform="translate(402.767979,295.744925)" id="group335"><path fill="#d8d8d8" transform="translate(0.000000,54.943800)" fill-rule="nonzero" id="shape336" d="M1.7,.0C1.7,.0,.3,1.0,.0,1.0C-0.2,1.0,42.1,24.3,42.1,24.3L58.9,16.1L57.1,15.3L1.7,.0z"/><path stroke="#c2c2c2" stroke-width="1" fill="#c2c2c2" transform="translate(0.878600,5.458200)" fill-rule="nonzero" id="shape337" d="M.0,.0L41.2,20.8L41.2,29.6L.0,7.2L.0,.0z"/><path stroke="#9b9b9b" stroke-width="1" fill="#9b9b9b" transform="translate(42.063620,19.343030)" fill-rule="nonzero" id="shape338" d="M.0,6.9L15.9,.0L15.9,8.3L.0,15.7L.0,6.9z"/><path stroke="#c2c2c2" stroke-width="1" fill="#d8d8d8" transform="translate(0.870900,0.000000)" fill-rule="nonzero" id="shape339" d="M.0,5.5L15.9,.0L57.1,19.3L40.8,26.2L.0,5.5z"/><path stroke="#ffffff" stroke-width="1" fill="#e73e05" transform="translate(1.591100,13.418300)" fill-rule="nonzero" id="shape340" d="M.0,.0L.0,42.2L40.5,64.9L40.5,21.6L.0,.0z"/><path stroke="#e35020" stroke-width="1" fill="#ba3104" transform="translate(42.063720,28.517300)" fill-rule="nonzero" id="shape341" d="M.0,6.5L15.1,.0L15.1,42.5L.0,49.8L.0,6.5z"/><path stroke="#c2c2c2" stroke-width="1" fill="#c2c2c2" transform="translate(-0.000100,55.967000)" fill-rule="nonzero" id="shape342" d="M.0,.0L.0,4.9L42.1,28.9L42.1,23.3L.0,.0z"/><path stroke="#9b9b9b" stroke-width="1" fill="#9b9b9b" transform="translate(42.063870,71.057010)" fill-rule="nonzero" id="shape343" d="M.0,8.2L16.8,.0L16.8,4.5L.0,14.1L.0,8.2z"/><path fill="#ffffff" transform="translate(1.772300,21.981200)" fill-rule="nonzero" id="shape344" d="M.0,.0L40.3,20.9L40.3,22.0L.0,1.0L.0,.0z"/><path fill="#ffffff" transform="translate(1.772400,30.552000)" fill-rule="nonzero" id="shape345" d="M.0,.0L40.2,21.4L40.2,22.5L.0,1.0L.0,.0z"/><path fill="#ffffff" transform="translate(1.772400,39.056200)" fill-rule="nonzero" id="shape346" d="M.0,.0L40.2,21.9L40.2,23.0L.0,1.0L.0,.0z"/><path fill="#ffffff" transform="translate(1.591300,47.869200)" fill-rule="nonzero" id="shape347" d="M.0,.0L40.5,22.8L40.5,23.9L.0,1.0L.0,.0z"/><path fill="#ffffff" transform="translate(42.063780,36.519420)" fill-rule="nonzero" id="shape348" d="M.0,6.4L.0,7.5L15.1,1.2L15.1,.0L.0,6.4z"/><path fill="#ffffff" transform="translate(42.063660,45.831240)" fill-rule="nonzero" id="shape349" d="M.0,6.3L.0,7.4L15.4,1.2L15.4,.0L.0,6.3z"/><path fill="#ffffff" transform="matrix(0.999743,-0.022687,0.022687,0.999743,42.037811,55.347373)" fill-rule="nonzero" id="shape350" d="M.0,5.8L.0,6.9L15.2,1.2L15.2,.0L.0,5.8z"/><path fill="#ffffff" transform="matrix(0.995884,-0.090633,0.090633,0.995884,41.553503,65.023299)" fill-rule="nonzero" id="shape351" d="M.0,5.6L.0,6.7L15.5,1.2L15.5,.0L.0,5.6z"/><path fill="#ffffff" transform="translate(6.943804,51.669140)" fill-rule="nonzero" id="shape352" d="M.0,.0L1.0,.2L.9,7.5L.0,7.0L.0,.0z"/><path fill="#ffffff" transform="translate(27.166496,63.060020)" fill-rule="nonzero" id="shape353" d="M.0,.0L1.0,.3L1.0,7.2L.0,6.9L.0,.0z"/><path fill="#ffffff" transform="translate(12.096296,28.269060)" fill-rule="nonzero" id="shape354" d="M.0,.0L1.0,.3L1.0,8.6L.0,8.6L.0,.0z"/><path fill="#ffffff" transform="translate(31.248196,38.175760)" fill-rule="nonzero" id="shape355" d="M.0,.0L1.0,.3L1.0,8.6L.0,8.6L.0,.0z"/><path fill="#ffffff" transform="translate(27.659996,44.736310)" fill-rule="nonzero" id="shape356" d="M.0,.0L1.0,.3L1.0,9.0L.0,9.0L.0,.0z"/><path fill="#ffffff" transform="translate(6.943796,33.878660)" fill-rule="nonzero" id="shape357" d="M.0,.0L1.0,.3L1.0,8.6L.0,8.6L.0,.0z"/><path fill="#ffffff" transform="translate(12.096296,45.580100)" fill-rule="nonzero" id="shape358" d="M.0,.0L1.0,.3L1.0,9.1L.0,9.1L.0,.0z"/><path fill="#ffffff" transform="translate(31.248196,55.714240)" fill-rule="nonzero" id="shape359" d="M.0,.0L1.0,.3L1.0,9.6L.0,9.6L.0,.0z"/><path fill="#ffffff" transform="translate(8.508021,16.995690)" fill-rule="nonzero" id="shape360" d="M.0,.0L1.0,.5L1.0,9.2L.1,8.9L.0,.0z"/><path fill="#ffffff" transform="translate(27.648160,27.365240)" fill-rule="nonzero" id="shape361" d="M.0,.0L.9,.6L1.0,9.1L.0,9.1L.0,.0z"/><path fill="#ffffff" transform="matrix(-1.000000,0.000000,0.000000,1.000000,48.337604,32.436860)" fill-rule="nonzero" id="shape362" d="M.0,.0L1.0,.3L1.0,8.6L.0,8.6L.0,.0z"/><path fill="#ffffff" transform="matrix(-1.000000,0.000000,0.000000,1.000000,55.338937,38.552250)" fill-rule="nonzero" id="shape363" d="M.0,.0L1.0,.3L1.0,9.0L.0,8.7L.0,.0z"/><path fill="#ffffff" transform="matrix(-1.000000,0.000000,0.000000,1.000000,48.530204,50.549660)" fill-rule="nonzero" id="shape364" d="M.0,.0L1.0,.3L1.0,8.6L.0,8.6L.0,.0z"/><path fill="#ffffff" transform="matrix(-1.000000,0.000000,0.000000,1.000000,55.338938,56.250040)" fill-rule="nonzero" id="shape365" d="M.0,.0L1.0,.3L1.0,9.3L.0,9.0L.0,.0z"/><path fill="#ffffff" transform="matrix(-1.000000,0.000000,0.000000,1.000000,48.530228,68.336040)" fill-rule="nonzero" id="shape366" d="M.0,.0L1.0,.3L1.0,7.4L.0,6.9L.0,.0z"/><text style="fill:#191919;font-family:微软雅黑,PingFang SC,Mircrosoft YaHei,Arial;font-size:11.00pt" xml:space="preserve"><tspan x="8.4" style="font-family:微软雅黑,PingFang SC,Mircrosoft YaHei,Arial" y="101.9">防火墙</tspan></text></g><g transform="translate(340.389979,194.755425)" id="shape367"><path stroke="#00aeee" stroke-width="5.666669845581055" fill="#ffffff" fill-rule="nonzero" d="M7.0,.0L533.8,.0C537.6,.0,540.8,3.1,540.8,7.0L540.8,59.1C540.8,63.0,537.6,66.1,533.8,66.1L7.0,66.1C3.1,66.1,.0,63.0,.0,59.1L.0,7.0C.0,3.1,3.1,.0,7.0,.0z"/><text style="fill:#000000;font-family:微软雅黑,PingFang SC,Mircrosoft YaHei,Arial;font-size:10.00pt" xml:space="preserve"><tspan x="117.0" style="font-family:微软雅黑,PingFang SC,Mircrosoft YaHei,Arial" y="17.2">单机架构很常见，因为简单，部署和管理都很清晰！</tspan><tspan x="30.4" style="font-family:微软雅黑,PingFang SC,Mircrosoft YaHei,Arial" y="35.2">特别在政务和传统企业领域，一个信息化项目就是系统软件加上一台物理服务器。</tspan><tspan x="24.7" style="font-family:微软雅黑,PingFang SC,Mircrosoft YaHei,Arial" y="53.2">在医院和一些具有IT运维能力的单位，会分配虚拟机来降低成本，架构本质上相同。</tspan></text></g><g transform="translate(622.122329,637.229025)" id="shape368"><path stroke="#000000" stroke-width="0.3199999928474426" fill="none" d="M56.0,.0L.0,.0L.0,49.6L56.0,49.6"/><text style="fill:#000000;font-family:Arial,PingFang SC,Mircrosoft YaHei,Arial;font-size:12.00pt" xml:space="preserve"><tspan x="1.0" style="font-family:Arial,PingFang SC,Mircrosoft YaHei,Arial" y="19.9">大石头@新生命团队</tspan><tspan x="1.0" style="font-family:Arial,PingFang SC,Mircrosoft YaHei,Arial" y="38.6">https://newlifex.com</tspan></text></g><g transform="translate(676.061679,515.831925)" id="group369"><path fill="#00c1de" fill-rule="nonzero" id="shape371" d="M24.1,3.5L18.6,5.3L15.1,3.3L24.2,.0L33.4,3.3L29.9,5.3L24.1,3.5L24.1,3.5zM24.2,14.3L29.7,12.4L33.3,14.5L24.1,17.7L14.9,14.4L18.4,12.4L24.2,14.3zM15.8,11.5L12.1,13.3L.1,8.9L12.3,4.4L15.8,6.5L9.2,8.9L15.8,11.5L15.8,11.5zM39.3,8.9L32.7,6.5L36.3,4.4L48.5,8.9L36.5,13.3L32.7,11.5L39.3,8.9zM24.2,24.7L.1,15.3L.0,10.5L24.2,19.9L48.4,10.6L48.4,15.4L24.2,24.7zM24.2,26.5L48.5,17.2L48.5,22.0L24.2,31.3L.1,21.9L.1,17.1L24.2,26.5zM.1,23.7L24.2,33.1L48.5,23.8L48.5,28.7L24.2,37.9L.1,28.5L.1,23.7L.1,23.7z"/></g><g transform="translate(586.758829,511.252725)" id="group372"><path fill="#00c1de" transform="translate(0.016000,0.000000)" fill-rule="nonzero" id="shape374" d="M46.0,9.0C44.8,9.6,40.5,9.8,40.6,10.8C40.6,11.0,40.7,11.0,40.7,11.1C44.5,18.9,43.8,28.0,36.8,37.6C35.8,38.9,34.6,40.1,33.3,41.1C32.4,41.6,32.1,41.9,31.5,42.0C34.8,37.5,36.4,31.5,35.0,25.7C33.8,20.4,30.4,16.2,26.0,13.5L25.8,13.5C25.7,13.5,25.6,13.7,25.6,13.7C25.2,14.8,25.3,18.3,24.6,18.6C23.6,18.8,21.9,16.7,20.9,13.7C20.5,12.1,20.5,11.4,20.6,11.0L20.6,10.8L20.5,10.7C17.6,9.6,15.3,9.0,14.8,8.9C13.7,8.5,10.4,7.6,11.3,6.1C12.4,4.4,14.9,4.0,16.8,3.5C18.1,1.4,21.3,.1,23.6,.0C25.9,.0,31.6,1.2,35.9,5.0C36.0,5.0,36.4,5.1,36.5,5.1C39.4,4.8,46.5,7.9,46.0,9.0zM29.7,29.3L32.8,24.4C32.4,23.7,32.2,23.0,31.8,22.4L28.6,27.4L22.3,27.4L25.9,33.1L21.7,39.7L13.3,39.7L9.0,33.0L12.7,27.3L6.4,27.3L2.2,20.6L6.4,14.0L14.8,14.0L17.4,18.1L19.0,15.5C18.9,15.4,18.9,15.2,18.8,15.1C18.6,14.1,18.4,13.4,18.4,12.8L17.4,14.5L15.9,12.1L5.4,12.1L.0,20.8L5.4,29.3L9.3,29.3L6.9,33.1L12.3,41.6L22.9,41.6L28.3,33.1L25.9,29.3L29.7,29.3z"/></g><g transform="translate(844.016591,387.457115)" id="group375"><path stroke="#868686" stroke-width="1" fill="#e9f8f5" fill-rule="nonzero" id="shape376" d="M11.0,.0L69.0,.0C75.1,.0,80.0,4.9,80.0,11.0L80.0,253.2C80.0,259.2,75.1,264.2,69.0,264.2L11.0,264.2C4.9,264.2,.0,259.2,.0,253.2L.0,11.0C.0,4.9,4.9,.0,11.0,.0z"/></g><g transform="translate(851.532366,424.324515)" id="group377"><path fill="#00c1de" fill-rule="nonzero" id="shape379" d="M54.9,.0C50.9,.0,47.7,3.2,47.7,7.2C47.7,8.4,48.0,9.5,48.5,10.5L36.9,22.0C36.2,21.6,35.5,21.5,34.8,21.5C34.3,21.5,33.9,21.6,33.5,21.7L28.8,15.3C28.8,15.0,28.8,14.8,28.8,14.6C28.8,12.2,26.9,10.3,24.6,10.3C22.2,10.3,20.3,12.2,20.3,14.6L20.3,14.7L13.5,21.3L7.9,21.3C7.1,20.0,5.8,19.2,4.3,19.2C1.9,19.2,.0,21.1,.0,23.5C.0,25.9,1.9,27.8,4.3,27.8C5.8,27.8,7.3,26.9,8.0,25.6L15.3,25.6L22.7,18.4C23.3,18.7,23.9,18.9,24.6,18.9C25.1,18.9,25.6,18.8,26.0,18.6L30.6,25.0C30.6,25.3,30.6,25.5,30.6,25.8C30.6,28.1,32.4,30.0,34.8,30.0C37.1,30.0,39.0,28.2,39.0,25.9L51.5,13.5C53.7,14.7,56.4,14.6,58.5,13.3C60.7,12.0,62.0,9.7,62.0,7.2C62.0,5.3,61.3,3.5,59.9,2.1C58.6,.8,56.8,.0,54.9,.0zM55.0,10.2C53.3,10.2,51.9,8.8,51.9,7.2C51.9,5.5,53.3,4.1,55.0,4.1C56.6,4.1,58.0,5.5,58.0,7.2C58.0,8.0,57.7,8.8,57.1,9.3C56.5,9.9,55.8,10.2,55.0,10.2L55.0,10.2z"/></g><g transform="translate(852.780804,387.457115)" id="shape380"><text style="fill:#191919;font-family:微软雅黑,PingFang SC,Mircrosoft YaHei,Arial;font-size:10.00pt;font-weight:bold" xml:space="preserve"><tspan x="4.6" style="font-family:微软雅黑,PingFang SC,Mircrosoft YaHei,Arial" y="21.6">星尘平台</tspan></text></g><g transform="translate(864.294578,454.547348)" id="shape381"><text style="fill:#191919;font-family:微软雅黑,PingFang SC,Mircrosoft YaHei,Arial;font-size:10.00pt" xml:space="preserve"><tspan x="6.4" style="font-family:微软雅黑,PingFang SC,Mircrosoft YaHei,Arial" y="14.0">监控</tspan></text></g><path stroke="#ebebeb" stroke-width="1" fill="#ebebeb" transform="matrix(0.000000,-1.000000,1.000000,0.000000,779.526310,535.598160)" fill-rule="nonzero" id="shape382" d="M19.6,.0L19.6,29.8L31.2,26.6L15.6,48.5L.0,26.6L11.5,29.8L11.5,.0L19.6,.0"/><g transform="translate(724.515979,553.752725)" id="group383"><g id="group384"><g id="group386"><path fill="#1c7b68" transform="translate(13.170370,10.034568)" fill-rule="nonzero" id="shape387" d="M.0,.0L2.5,.0L2.5,1.3L.0,1.3L.0,.0z"/><path fill="#1c7b68" transform="translate(4.528099,10.034568)" fill-rule="nonzero" id="shape388" d="M.0,.0L7.4,.0L7.4,1.3L.0,1.3L.0,.0z"/><path fill="#1c7b68" transform="translate(18.814815,18.814815)" fill-rule="nonzero" id="shape389" d="M.0,.0L9.4,.0L9.4,1.3L.0,1.3L.0,.0z"/><path fill="#1c7b68" transform="translate(15.051852,18.814815)" fill-rule="nonzero" id="shape390" d="M.0,.0L2.5,.0L2.5,1.3L.0,1.3L.0,.0z"/><path fill="#1c7b68" transform="translate(2.508611,7.528560)" fill-rule="nonzero" id="shape391" d="M6.3,15.0C6.1,15.0,6.0,15.0,5.9,14.9L.2,10.2C.1,10.1,.0,9.9,.0,9.7C.0,9.5,.1,9.3,.2,9.2L5.9,4.7C6.1,4.6,6.3,4.6,6.5,4.7C6.8,4.8,6.9,5.0,6.9,5.2L6.9,6.9L19.4,6.9C19.8,6.9,20.0,7.2,20.0,7.5L20.0,8.5L24.2,5.3L20.0,1.9L20.0,3.1C20.0,3.5,19.8,3.8,19.4,3.8L14.4,3.8L14.4,2.5L18.8,2.5L18.8,.6C18.8,.4,18.9,.2,19.1,.0C19.4,.0,19.6,.0,19.8,.1L25.6,4.8C25.7,5.0,25.8,5.1,25.8,5.3C25.8,5.5,25.7,5.7,25.6,5.8L19.8,10.3C19.6,10.5,19.4,10.5,19.1,10.4C18.9,10.3,18.8,10.1,18.8,9.8L18.8,8.2L6.3,8.2C5.9,8.2,5.6,7.9,5.6,7.5L5.6,6.5L1.6,9.7L5.6,13.1L5.6,11.9C5.6,11.6,5.9,11.3,6.3,11.3L11.3,11.3L11.3,12.5L6.9,12.5L6.9,14.4C6.9,14.7,6.8,14.9,6.5,15.0C6.5,15.0,6.4,15.0,6.3,15.0z"/><path fill="#1c7b68" fill-rule="nonzero" id="shape392" d="M27.3,31.4L4.0,31.4C1.8,31.4,.0,29.5,.0,27.3L.0,4.0C.0,1.8,1.8,.0,4.0,.0L27.3,.0C29.5,.0,31.4,1.8,31.4,4.0L31.4,27.3C31.4,29.5,29.5,31.4,27.3,31.4zM4.0,1.3C2.5,1.3,1.3,2.5,1.3,4.0L1.3,27.3C1.3,28.9,2.5,30.1,4.0,30.1L27.3,30.1C28.9,30.1,30.1,28.9,30.1,27.3L30.1,4.0C30.1,2.5,28.9,1.3,27.3,1.3L4.0,1.3z"/></g></g></g><g transform="translate(670.288829,563.110750)" id="shape394"><text style="fill:#191919;font-family:微软雅黑,PingFang SC,Mircrosoft YaHei,Arial;font-size:6.00pt" xml:space="preserve"><tspan x="14.0" style="font-family:微软雅黑,PingFang SC,Mircrosoft YaHei,Arial" y="15.1">星尘代理</tspan></text></g><g transform="translate(860.016591,496.021960)" id="group395"><g id="group397"><path fill="#d86613" transform="translate(18.166000,0.302000)" fill-rule="nonzero" id="shape398" d="M4.5,30.5C2.8,30.5,1.7,30.4,1.3,30.4L1.0,30.4C.6,30.3,.2,29.9,.2,29.5C.0,27.5,.0,25.4,.0,23.4C.0,23.2,.0,22.9,.0,22.6L.1,22.1L2.2,22.3L2.1,22.8C2.1,23.0,2.1,23.3,2.1,23.5C2.0,25.1,2.0,26.8,2.1,28.4C5.2,28.6,15.9,28.9,22.0,22.6C28.2,16.3,27.9,5.2,27.7,2.1C24.7,1.9,13.9,1.7,7.9,8.0C7.7,8.1,7.6,8.3,7.4,8.4C7.4,8.5,7.3,8.6,7.2,8.7L5.6,7.4C5.7,7.3,5.7,7.2,5.8,7.1L6.3,6.5C14.2,-1.5,28.2,.1,28.8,.2C29.2,.2,29.6,.6,29.6,1.1C29.7,1.7,31.3,16.0,23.5,24.0C17.9,29.7,9.2,30.5,4.5,30.5z"/><path fill="#d86613" transform="translate(18.159000,0.301500)" fill-rule="nonzero" id="shape399" d="M1.4,30.3L1.3,30.3L1.0,30.3C.6,30.3,.2,29.9,.2,29.4C.0,27.0,.0,24.5,.2,22.1L2.2,22.3C2.1,24.0,2.0,25.8,2.1,27.6C6.7,24.1,11.1,20.2,15.2,16.0C19.4,11.7,23.3,7.0,26.8,2.1C22.9,1.9,13.4,2.2,7.8,8.0C7.6,8.2,7.4,8.4,7.2,8.7L5.6,7.4C5.8,7.1,6.1,6.8,6.4,6.5C14.2,-1.5,28.2,.1,28.8,.2C29.2,.2,29.5,.4,29.6,.8C29.8,1.1,29.7,1.5,29.5,1.8C25.7,7.4,21.4,12.6,16.6,17.5C12.1,22.1,7.2,26.4,2.0,30.2C1.8,30.3,1.6,30.3,1.4,30.3z"/><path fill="#d86613" transform="translate(18.175240,27.869600)" fill-rule="nonzero" id="shape400" d="M.0,.0L2.0,.0L2.0,20.1L.0,20.1L.0,.0z"/><path fill="#d86613" fill-rule="nonzero" id="shape401" d="M11.5,23.1C5.2,23.1,.0,18.0,.0,11.6C.0,5.2,5.2,.0,11.5,.0C17.9,.0,23.1,5.2,23.1,11.6C23.1,18.0,17.9,23.1,11.5,23.1zM11.5,2.0C6.3,2.0,2.0,6.3,2.0,11.5C2.0,16.8,6.3,21.1,11.5,21.1C16.8,21.1,21.0,16.8,21.0,11.5C21.0,6.3,16.8,2.0,11.5,2.0z"/><path fill="#d86613" transform="translate(10.530040,5.428760)" fill-rule="nonzero" id="shape402" d="M.0,.0L2.0,.0L2.0,13.6L.0,13.6L.0,.0z"/><path fill="#d86613" transform="translate(6.880720,3.965950)" fill-rule="nonzero" id="shape403" d="M7.9,5.7L4.7,2.5L1.4,5.7L.0,4.3L3.9,.3C4.3,.0,5.0,.0,5.4,.3L9.3,4.3L7.9,5.7z"/></g></g><g transform="translate(860.322421,575.273485)" id="group404"><path fill="#00c1de" fill-rule="nonzero" id="shape406" d="M39.7,32.2C37.9,32.2,36.3,33.7,36.3,35.6C36.3,37.4,37.7,39.0,39.7,39.0C41.5,39.0,43.0,37.6,43.0,35.6C43.0,33.7,41.6,32.2,39.7,32.2zM39.7,44.0C38.9,44.0,38.3,43.9,37.6,43.8L37.5,43.8C36.9,43.5,36.2,43.1,35.3,42.8C31.7,41.2,27.2,39.1,24.0,39.1C22.0,39.1,19.6,39.9,17.2,40.8C17.2,40.7,17.3,40.7,17.3,40.6C17.7,39.9,18.1,39.1,18.3,38.3C18.3,38.2,18.4,38.2,18.4,38.0C18.5,37.3,18.7,36.5,18.7,35.5C18.8,34.0,19.0,32.5,19.3,30.9C20.9,31.5,22.6,31.8,24.0,31.8C27.2,31.8,31.7,29.9,35.2,28.3C35.9,28.0,36.8,27.6,37.4,27.4C38.1,27.1,38.8,27.1,39.5,27.1C44.3,27.1,48.0,30.9,48.0,35.6C48.0,40.4,44.4,44.0,39.7,44.0zM11.4,37.0C12.3,35.4,11.7,33.3,10.2,32.4C8.6,31.4,6.5,32.0,5.6,33.6C4.6,35.1,5.2,37.2,6.8,38.2C8.3,39.2,10.4,38.7,11.4,37.0zM1.1,31.0C1.5,30.4,1.8,29.8,2.3,29.3L2.3,29.2C2.9,28.8,3.5,28.3,4.1,27.9C7.3,25.5,11.2,22.6,12.8,19.7C13.8,18.0,14.4,15.5,14.7,12.9C14.7,13.0,14.9,13.0,14.9,13.1C15.2,13.9,15.8,14.6,16.3,15.2C16.3,15.3,16.4,15.3,16.6,15.5C17.2,15.9,17.9,16.4,18.6,17.0C19.7,17.9,21.0,18.9,22.4,19.8C21.0,21.0,19.9,22.3,19.2,23.5C17.6,26.3,17.0,31.1,16.7,35.0C16.6,35.9,16.6,36.7,16.4,37.3C16.2,38.1,16.0,38.7,15.6,39.3C13.3,43.3,8.1,44.7,4.1,42.4C.3,40.4,-1.2,35.1,1.1,31.0zM21.1,10.2C22.0,11.7,24.1,12.4,25.7,11.4C27.2,10.4,27.8,8.3,26.9,6.8C25.9,5.2,23.8,4.6,22.3,5.6C20.7,6.4,20.1,8.5,21.1,10.2zM31.3,4.2C31.7,4.8,31.9,5.4,32.2,6.2L32.2,6.3C32.3,7.0,32.3,7.7,32.4,8.6C32.9,12.5,33.4,17.5,35.0,20.3C35.9,22.0,37.7,23.8,39.8,25.4L39.5,25.4C38.7,25.4,37.9,25.5,37.0,25.7C36.9,25.7,36.9,25.7,36.8,25.8C36.0,26.1,35.3,26.5,34.5,26.8C33.1,27.4,31.7,28.0,30.1,28.6C29.8,26.9,29.3,25.2,28.6,24.0C27.0,21.2,23.0,18.3,19.9,16.0C19.1,15.5,18.5,15.0,17.9,14.5C17.4,14.1,17.0,13.5,16.6,12.8C14.3,8.8,15.6,3.6,19.7,1.3C23.8,-1.3,29.0,.1,31.3,4.2z"/></g><g transform="translate(860.322421,544.021960)" id="shape407"><text style="fill:#191919;font-family:微软雅黑,PingFang SC,Mircrosoft YaHei,Arial;font-size:10.00pt" xml:space="preserve"><tspan x="8.4" style="font-family:微软雅黑,PingFang SC,Mircrosoft YaHei,Arial" y="14.0">发布</tspan></text></g><g transform="translate(864.294578,619.273485)" id="shape408"><text style="fill:#191919;font-family:微软雅黑,PingFang SC,Mircrosoft YaHei,Arial;font-size:10.00pt" xml:space="preserve"><tspan x="6.8" style="font-family:微软雅黑,PingFang SC,Mircrosoft YaHei,Arial" y="14.6">配置</tspan></text></g><g transform="translate(566.514985,552.176725)" id="shape409"><text style="fill:#191919;font-family:微软雅黑,PingFang SC,Mircrosoft YaHei,Arial;font-size:8.00pt" xml:space="preserve"><tspan x="13.0" style="font-family:微软雅黑,PingFang SC,Mircrosoft YaHei,Arial" y="25.9">MySql/Sqlite</tspan></text></g><g transform="translate(486.514985,552.176725)" id="shape410"><text style="fill:#191919;font-family:微软雅黑,PingFang SC,Mircrosoft YaHei,Arial;font-size:8.00pt" xml:space="preserve"><tspan x="7.0" style="font-family:微软雅黑,PingFang SC,Mircrosoft YaHei,Arial" y="25.9">魔方/WebApi</tspan></text></g><g transform="translate(198.514985,475.110425)" id="table411"><g><path stroke="#191919" stroke-width="1" fill="#ffffff" d="M.0,.0L222.0,.0L222.0,30.0L.0,30.0L.0,.0z"/><text style="fill:#000000;font-family:Arial,PingFang SC,Mircrosoft YaHei,Arial;font-size:8.00pt" xml:space="preserve"><tspan x="7.7" style="font-family:Arial,PingFang SC,Mircrosoft YaHei,Arial" y="17.0">单台服务器部署一个或多个应用</tspan></text></g><g><path stroke="#191919" stroke-width="1" fill="#ffffff" d="M.0,30.0L222.0,30.0L222.0,62.2L.0,62.2L.0,30.0z"/><text style="fill:#000000;font-family:Arial,PingFang SC,Mircrosoft YaHei,Arial;font-size:8.00pt" xml:space="preserve"><tspan x="7.7" style="font-family:Arial,PingFang SC,Mircrosoft YaHei,Arial" y="48.1">应用端口直接暴露公网或通过防火墙映射</tspan></text></g><g><path stroke="#191919" stroke-width="1" fill="#ffffff" d="M.0,62.2L222.0,62.2L222.0,93.2L.0,93.2L.0,62.2z"/><text style="fill:#000000;font-family:Arial,PingFang SC,Mircrosoft YaHei,Arial;font-size:8.00pt" xml:space="preserve"><tspan x="7.7" style="font-family:Arial,PingFang SC,Mircrosoft YaHei,Arial" y="79.7">开启系统防火墙，可极大简化安全配置</tspan></text></g><g><path stroke="#191919" stroke-width="1" fill="#ffffff" d="M.0,93.2L222.0,93.2L222.0,124.2L.0,124.2L.0,93.2z"/><text style="fill:#000000;font-family:Arial,PingFang SC,Mircrosoft YaHei,Arial;font-size:8.00pt" xml:space="preserve"><tspan x="7.7" style="font-family:Arial,PingFang SC,Mircrosoft YaHei,Arial" y="110.7">禁止服务器外部访问数据库和Redis</tspan></text></g><g><path stroke="#191919" stroke-width="1" fill="#ffffff" d="M.0,124.2L222.0,124.2L222.0,155.2L.0,155.2L.0,124.2z"/><text style="fill:#000000;font-family:Arial,PingFang SC,Mircrosoft YaHei,Arial;font-size:8.00pt" xml:space="preserve"><tspan x="7.7" style="font-family:Arial,PingFang SC,Mircrosoft YaHei,Arial" y="141.7">服务器和应用接入星尘，方便监控和发布</tspan></text></g></g><g transform="translate(484.515979,106.918475)" id="shape412"><text style="fill:#191919;font-family:微软雅黑,PingFang SC,Mircrosoft YaHei,Arial;font-size:26.00pt;font-weight:bold" xml:space="preserve"><tspan x="2.7" style="font-family:微软雅黑,PingFang SC,Mircrosoft YaHei,Arial" y="43.3">单机应用架构</tspan></text></g></g></svg>