<svg height="804" width="1132" viewBox="0 0 1132 804" xmlns:ev="http://www.w3.org/2001/xml-events" xmlns:xlink="http://www.w3.org/1999/xlink" xmlns="http://www.w3.org/2000/svg"><defs><linearGradient x2="0%" x1="0%" y2="100%" id="lg1" y1="0%"><stop offset="0.00" stop-color="#4a4a4a"/><stop offset="1.00" stop-color="#2a2a2a"/></linearGradient><linearGradient x2="0%" x1="100%" y2="0%" id="lg2" y1="0%"><stop offset="0.00" stop-color="#272727"/><stop offset="0.79" stop-color="#373737"/><stop offset="1.00" stop-color="#1d1d1d"/></linearGradient><linearGradient x2="0%" x1="100%" y2="0%" id="lg3" y1="0%"><stop offset="0.00" stop-color="#272727"/><stop offset="0.83" stop-color="#383838"/><stop offset="1.00" stop-color="#1d1d1d"/></linearGradient><linearGradient x2="0%" x1="100%" y2="0%" id="lg4" y1="0%"><stop offset="0.00" stop-color="#272727"/><stop offset="0.13" stop-color="#373737"/><stop offset="1.00" stop-color="#1d1d1d"/></linearGradient><linearGradient x2="-2" gradientUnits="userSpaceOnUse" x1="15" y2="22" id="lg5" y1="24"><stop stop-opacity="0.25" offset="0.00" stop-color="#ffffff"/><stop stop-opacity="0.00" offset="0.44" stop-color="#686868"/></linearGradient><radialGradient r="4.6" gradientUnits="userSpaceOnUse" fx="0" fy="0" cy="0" id="rg1" cx="0"><stop offset="0.00" stop-color="#404040"/><stop offset="0.50" stop-color="#d8d8d8"/><stop offset="1.00" stop-color="#404040"/></radialGradient><linearGradient x2="0%" x1="0%" y2="100%" id="lg6" y1="0%"><stop offset="0.00" stop-color="#000000"/><stop offset="1.00" stop-color="#000000"/></linearGradient><linearGradient x2="0%" x1="0%" y2="100%" id="lg7" y1="0%"><stop stop-opacity="0.39" offset="0.09" stop-color="#ffffff"/><stop stop-opacity="0.00" offset="0.36" stop-color="#ffffff"/></linearGradient><radialGradient r="7.7" gradientUnits="userSpaceOnUse" fx="0" fy="-0" cy="-0" id="rg2" cx="0"><stop offset="0.00" stop-color="#a5a5a5"/><stop offset="0.83" stop-color="#383b3b"/><stop offset="1.00" stop-color="#383b3b"/></radialGradient><linearGradient x2="0%" x1="100%" y2="0%" id="lg8" y1="0%"><stop offset="0.00" stop-color="#d8d8d8"/><stop offset="1.00" stop-color="#bfbfbf"/></linearGradient><radialGradient r="2.1" gradientUnits="userSpaceOnUse" fx="0" fy="0" cy="0" id="rg3" cx="0"><stop offset="0.00" stop-color="#daeafd"/><stop offset="0.71" stop-color="#a8b1b2"/><stop offset="1.00" stop-color="#a8b1b2"/></radialGradient><linearGradient x2="0%" x1="0%" y2="100%" id="lg9" y1="0%"><stop offset="0.00" stop-color="#a5a5a5"/><stop offset="1.00" stop-color="#0c0c0c"/></linearGradient><radialGradient r="46.6" gradientUnits="userSpaceOnUse" fx="0" fy="0" cy="0" id="rg4" cx="0"><stop offset="0.00" stop-color="#383b3b"/><stop offset="0.99" stop-color="#e1ecee"/><stop offset="1.00" stop-color="#e1ecee"/></radialGradient><linearGradient x2="0%" x1="0%" y2="100%" id="lg10" y1="0%"><stop offset="0.00" stop-color="#e1ecee"/><stop offset="1.00" stop-color="#262626"/></linearGradient><linearGradient x2="100%" x1="0%" y2="0%" id="lg11" y1="0%"><stop offset="0.00" stop-color="#383b3b"/><stop offset="1.00" stop-color="#161717"/></linearGradient><linearGradient x2="100%" x1="0%" y2="0%" id="lg12" y1="0%"><stop offset="0.00" stop-color="#cad4d6"/><stop offset="1.00" stop-color="#707677"/></linearGradient><linearGradient x2="100%" x1="0%" y2="0%" id="lg13" y1="0%"><stop offset="0.00" stop-color="#2e2e2e"/><stop offset="0.30" stop-color="#4c4c4c"/><stop offset="1.00" stop-color="#1e1e1e"/></linearGradient><linearGradient x2="17" gradientUnits="userSpaceOnUse" x1="13" y2="-5" id="lg14" y1="7"><stop stop-opacity="0.33" offset="0.00" stop-color="#ffffff"/><stop stop-opacity="0.02" offset="0.40" stop-color="#000000"/></linearGradient><linearGradient x2="100%" x1="0%" y2="0%" id="lg15" y1="0%"><stop offset="0.00" stop-color="#2e2e2e"/><stop offset="0.29" stop-color="#3f3f3f"/><stop offset="1.00" stop-color="#1e1e1e"/></linearGradient><linearGradient x2="0%" x1="0%" y2="100%" id="lg16" y1="0%"><stop offset="0.00" stop-color="#3498db"/><stop offset="1.00" stop-color="#1a567f"/></linearGradient><linearGradient x2="17" gradientUnits="userSpaceOnUse" x1="13" y2="-5" id="lg17" y1="8"><stop stop-opacity="0.23" offset="0.00" stop-color="#ffffff"/><stop stop-opacity="0.02" offset="0.40" stop-color="#000000"/></linearGradient><linearGradient x2="100%" x1="0%" y2="0%" id="lg18" y1="0%"><stop offset="0.00" stop-color="#cccccc"/><stop offset="0.08" stop-color="#dadada"/><stop offset="0.21" stop-color="#dddddd"/><stop offset="0.29" stop-color="#b8b8b8"/><stop offset="0.34" stop-color="#9b9b9b"/><stop offset="0.48" stop-color="#b4b4b4"/></linearGradient><linearGradient x2="100%" x1="0%" y2="0%" id="lg19" y1="0%"><stop offset="0.00" stop-color="#8a8a8a"/><stop offset="0.18" stop-color="#adadad"/><stop offset="0.38" stop-color="#f8f8f8"/><stop offset="0.62" stop-color="#d8d8d8"/><stop offset="0.86" stop-color="#e0e0e0"/><stop offset="1.00" stop-color="#e0e0e0"/></linearGradient><linearGradient x2="100%" x1="0%" y2="0%" id="lg20" y1="0%"><stop offset="0.00" stop-color="#000000"/><stop offset="1.00" stop-color="#404040"/></linearGradient><linearGradient x2="0%" x1="0%" y2="100%" id="lg21" y1="0%"><stop stop-opacity="0.20" offset="0.00" stop-color="#ffffff"/><stop stop-opacity="0.06" offset="0.40" stop-color="#ffffff"/><stop stop-opacity="0.00" offset="1.00" stop-color="#ffffff"/></linearGradient><linearGradient x2="26" gradientUnits="userSpaceOnUse" x1="18" y2="42" id="lg22" y1="-3"><stop stop-opacity="0.15" offset="0.14" stop-color="#0099d2"/><stop offset="0.93" stop-color="#007faf"/></linearGradient><linearGradient x2="26" gradientUnits="userSpaceOnUse" x1="18" y2="42" id="lg23" y1="-3"><stop stop-opacity="0.15" offset="0.14" stop-color="#00c044"/><stop offset="0.93" stop-color="#009d4b"/></linearGradient><linearGradient x2="100%" x1="0%" y2="0%" id="lg24" y1="0%"><stop offset="0.00" stop-color="#009970"/><stop offset="0.69" stop-color="#95e2cd"/></linearGradient></defs><g transform="translate(5.5,5.5)" id="page1"><rect x="0" height="794" width="1123" fill="none" y="0"/><g transform="translate(131.240270,367.641795)" id="group1"><g transform="translate(-0.009884,2.548368)" id="group2"><path stroke="#000000" stroke-width="1" fill="url(#lg1)" fill-rule="nonzero" id="shape3" d="M.2,.0L20.5,.0C20.6,.0,20.7,.1,20.7,.2L20.7,45.7C20.7,45.8,20.6,45.9,20.5,45.9L.2,45.9C.1,45.9,.0,45.8,.0,45.7L.0,.2C.0,.1,.1,.0,.2,.0z"/><path stroke="#7e7e7e" stroke-width="1" fill="url(#lg2)" transform="translate(1.400461,1.377636)" fill-rule="nonzero" id="shape4" d="M.2,.0L8.9,.0C9.0,.0,9.1,.1,9.1,.2L9.1,27.3C9.1,27.5,9.0,27.6,8.9,27.6L.2,27.6C.1,27.6,.0,27.5,.0,27.3L.0,.2C.0,.1,.1,.0,.2,.0z"/><path stroke="#7e7e7e" stroke-width="1" fill="url(#lg3)" transform="translate(1.400461,28.930346)" fill-rule="nonzero" id="shape5" d="M.2,.0L8.9,.0C9.0,.0,9.1,.1,9.1,.3L9.1,15.4C9.1,15.5,9.0,15.6,8.9,15.6L.2,15.6C.1,15.6,.0,15.5,.0,15.4L.0,.3C.0,.1,.1,.0,.2,.0z"/><path stroke="#7e7e7e" stroke-width="1" fill="url(#lg4)" transform="translate(10.448234,1.377636)" fill-rule="nonzero" id="shape6" d="M.2,.0L8.5,.0C8.6,.0,8.7,.1,8.7,.2L8.7,42.9C8.7,43.1,8.6,43.2,8.5,43.2L.2,43.2C.1,43.2,.0,43.1,.0,42.9L.0,.2C.0,.1,.1,.0,.2,.0z"/><path fill="url(#lg5)" transform="translate(0.124646,0.038023)" fill-rule="nonzero" id="shape7" d="M.0,.0L13.3,.0L9.4,45.8L.1,45.8L.0,.0z"/><g transform="translate(13.622048,28.120763)" id="group8"><path stroke="#000000" stroke-width="1" fill="url(#rg1)" fill-rule="nonzero" id="shape9" d="M.0,1.7C.0,.7,.7,.0,1.7,.0C2.6,.0,3.3,.7,3.3,1.7C3.3,2.6,2.6,3.3,1.7,3.3C.7,3.3,.0,2.6,.0,1.7z"/><path fill="url(#lg6)" transform="translate(0.369022,0.369022)" fill-rule="nonzero" id="shape10" d="M.0,1.3C.0,.6,.6,.0,1.3,.0C2.0,.0,2.6,.6,2.6,1.3C2.6,2.0,2.0,2.6,1.3,2.6C.6,2.6,.0,2.0,.0,1.3z"/><path fill="url(#lg7)" transform="translate(0.369022,0.369022)" fill-rule="nonzero" id="shape11" d="M.0,1.3C.0,.6,.6,.0,1.3,.0C2.0,.0,2.6,.6,2.6,1.3C2.6,2.0,2.0,2.6,1.3,2.6C.6,2.6,.0,2.0,.0,1.3z"/><g transform="translate(1.061780,0.805030)" id="group12"><path fill="#ff4500" transform="translate(0.494184,0.000280)" fill-rule="nonzero" id="shape13" d="M.1,-0.0L.1,-0.0C.1,-0.0,.2,.0,.2,.1L.2,.7C.2,.8,.1,.8,.1,.8L.1,.8C.0,.8,-0.0,.8,-0.0,.7L-0.0,.1C-0.0,.0,.0,-0.0,.1,-0.0z"/><path fill="#ff4500" transform="translate(0.000000,0.341577)" fill-rule="nonzero" id="shape14" d="M.4,.2C.5,.2,.4,-0.0,.3,.0C.2,.0,.0,.2,.0,.5C-0.0,.9,.3,1.1,.6,1.1C.9,1.1,1.2,.9,1.2,.5C1.2,.1,.8,-0.0,.8,.0C.7,.1,.7,.1,.8,.2C.9,.2,1.0,.4,1.0,.5C1.0,.7,1.0,.9,.6,.9C.2,.9,.2,.7,.2,.5C.2,.4,.2,.2,.4,.2z"/></g></g></g><g transform="translate(77.338171,46.429413)" id="group15"><path fill="url(#rg2)" transform="translate(0.258707,-0.011269)" fill-rule="nonzero" id="shape16" d="M.0,1.7C.3,.9,1.3,.4,1.9,.2C2.5,.0,3.7,-0.1,4.5,.1C5.2,.4,6.0,.8,6.3,1.8C6.5,2.3,6.6,3.1,6.4,3.5C6.3,3.7,5.6,4.2,4.3,4.1C2.8,4.0,1.8,3.5,1.8,3.5C1.8,3.5,1.4,1.8,1.0,1.5C.7,1.3,.3,1.2,.0,1.7z"/><path fill="url(#lg8)" transform="translate(0.038006,1.281791)" fill-rule="nonzero" id="shape17" d="M.0,1.0C.0,1.0,1.6,2.0,2.0,2.2C1.9,1.7,1.7,.2,.9,.0C.2,-0.2,.0,1.0,.0,1.0z"/><path fill="url(#rg3)" transform="translate(2.471090,0.883721)" fill-rule="nonzero" id="shape18" d="M.8,.0C.4,.0,.0,.3,.0,.7C.0,1.1,.4,1.4,.8,1.4C1.3,1.4,1.6,1.1,1.6,.7C1.6,.3,1.3,.0,.8,.0z"/></g><g transform="translate(26.628683,46.044271)" id="group19"><path fill="url(#lg9)" transform="translate(-0.004447,0.386795)" fill-rule="nonzero" id="shape20" d="M.9,.0C.9,.0,.3,1.3,.1,2.2C.0,3.1,-0.2,4.3,.3,4.4C.3,4.4,46.9,4.4,46.9,4.4C47.2,4.2,47.6,4.1,46.9,2.4C46.1,.7,44.8,.0,44.8,.0L.9,.0z"/><path fill="url(#rg4)" transform="translate(0.103292,0.401322)" fill-rule="nonzero" id="shape21" d="M.9,.0C.9,.0,.3,1.3,.1,2.1C.0,2.9,-0.2,4.0,.3,4.1C.3,4.1,46.5,4.1,46.5,4.1C46.8,3.9,47.2,3.8,46.5,2.2C45.9,.7,44.8,.0,44.8,.0L.9,.0z"/><g transform="translate(37.764687,0.346037)" id="group22"><path fill="url(#lg10)" transform="translate(0.006098,0.004414)" fill-rule="nonzero" id="shape23" d="M.1,1.0L2.2,1.0L1.6,.0L.2,.0L-0.0,.5L.1,1.0z"/><path fill="url(#lg10)" transform="translate(1.731267,0.030419)" fill-rule="nonzero" id="shape24" d="M.0,1.0L2.3,1.0L1.9,.0L.4,.0L.0,1.0z"/><path fill="url(#lg10)" transform="translate(3.671753,0.034024)" fill-rule="nonzero" id="shape25" d="M-0.0,1.0L2.1,1.0L1.6,.0L.3,.0L-0.0,1.0z"/><path fill="url(#lg10)" transform="translate(5.468061,0.018018)" fill-rule="nonzero" id="shape26" d="M.0,1.0L2.0,1.0L1.6,.0L.3,.0L.0,1.0z"/></g><g transform="translate(30.891837,0.037625)" id="group27"><path fill="url(#lg10)" transform="translate(-0.004333,-0.010840)" fill-rule="nonzero" id="shape28" d="M.0,1.0L2.1,1.0L1.6,.0L.2,.0L.0,.5L.0,1.0z"/><path fill="url(#lg10)" transform="translate(1.678853,0.015110)" fill-rule="nonzero" id="shape29" d="M.0,1.0L2.3,1.0L1.9,.0L.4,.0L.0,1.0z"/><path fill="url(#lg10)" transform="translate(3.619243,0.018688)" fill-rule="nonzero" id="shape30" d="M-0.0,1.0L2.1,1.0L1.6,.0L.3,.0L-0.0,1.0z"/></g><g transform="translate(30.878497,0.191797)" id="group31"><path fill="url(#lg11)" transform="translate(-0.012368,0.004363)" fill-rule="nonzero" id="shape32" d="M.0,.7L2.0,.7L1.8,.0L.2,.0L.0,.7z"/><path fill="url(#lg11)" transform="translate(1.982795,0.008565)" fill-rule="nonzero" id="shape33" d="M.0,.7L1.9,.7L1.7,.0L.2,.0L.0,.7z"/><path fill="url(#lg11)" transform="translate(3.847188,0.004363)" fill-rule="nonzero" id="shape34" d="M.0,.7L1.7,.7L1.5,.0L.2,.0L.0,.7z"/></g><g transform="translate(1.258429,0.024393)" id="group35"><g transform="translate(20.756736,0.000000)" id="group36"><path fill="url(#lg10)" transform="translate(3.735829,-0.003222)" fill-rule="nonzero" id="shape37" d="M.0,1.0L2.4,1.0L1.8,.0L.5,.0L.0,1.0z"/><path fill="url(#lg10)" transform="translate(5.681639,-0.003222)" fill-rule="nonzero" id="shape38" d="M.0,1.0L2.4,1.0L1.8,.0L.5,.0L.0,1.0z"/><path fill="url(#lg10)" transform="translate(0.003546,0.006592)" fill-rule="nonzero" id="shape39" d="M.0,1.0L2.4,1.0L1.8,.0L.5,.0L.0,1.0z"/><path fill="url(#lg10)" transform="translate(1.949349,0.006592)" fill-rule="nonzero" id="shape40" d="M.0,1.0L2.4,1.0L1.8,.0L.5,.0L.0,1.0z"/></g><g transform="translate(12.257584,0.000000)" id="group41"><path fill="url(#lg10)" transform="translate(3.735829,-0.003222)" fill-rule="nonzero" id="shape42" d="M.0,1.0L2.4,1.0L1.8,.0L.5,.0L.0,1.0z"/><path fill="url(#lg10)" transform="translate(5.681639,-0.003222)" fill-rule="nonzero" id="shape43" d="M.0,1.0L2.4,1.0L1.8,.0L.5,.0L.0,1.0z"/><path fill="url(#lg10)" transform="translate(0.003546,0.006592)" fill-rule="nonzero" id="shape44" d="M.0,1.0L2.4,1.0L1.8,.0L.5,.0L.0,1.0z"/><path fill="url(#lg10)" transform="translate(1.949349,0.006592)" fill-rule="nonzero" id="shape45" d="M.0,1.0L2.4,1.0L1.8,.0L.5,.0L.0,1.0z"/></g><g transform="translate(3.560124,0.000000)" id="group46"><path fill="url(#lg10)" transform="translate(3.735829,-0.003222)" fill-rule="nonzero" id="shape47" d="M.0,1.0L2.4,1.0L1.8,.0L.5,.0L.0,1.0z"/><path fill="url(#lg10)" transform="translate(5.681639,-0.003222)" fill-rule="nonzero" id="shape48" d="M.0,1.0L2.4,1.0L1.8,.0L.5,.0L.0,1.0z"/><path fill="url(#lg10)" transform="translate(0.003546,0.006592)" fill-rule="nonzero" id="shape49" d="M.0,1.0L2.4,1.0L1.8,.0L.5,.0L.0,1.0z"/><path fill="url(#lg10)" transform="translate(1.949349,0.006592)" fill-rule="nonzero" id="shape50" d="M.0,1.0L2.4,1.0L1.8,.0L.5,.0L.0,1.0z"/></g><path fill="url(#lg10)" transform="translate(-0.005300,-0.005324)" fill-rule="nonzero" id="shape51" d="M-0.0,1.0L1.9,1.0L1.9,.5L1.6,.0L.3,.0L-0.0,1.0z"/></g><g transform="translate(1.314747,0.220121)" id="group52"><path fill="url(#lg11)" transform="translate(0.010285,0.000524)" fill-rule="nonzero" id="shape53" d="M.0,.8L1.7,.8L1.5,.0L.2,.0L.0,.8z"/><g transform="translate(3.870810,0.000000)" id="group54"><path fill="url(#lg11)" transform="translate(0.001531,0.008411)" fill-rule="nonzero" id="shape55" d="M.0,.8L1.8,.8L1.6,.0L.2,.0L.0,.8z"/><path fill="url(#lg11)" transform="translate(1.859894,0.010611)" fill-rule="nonzero" id="shape56" d="M.0,.8L1.7,.8L1.5,.0L.2,.0L.0,.8z"/><path fill="url(#lg11)" transform="translate(3.742048,0.013454)" fill-rule="nonzero" id="shape57" d="M.0,.8L1.8,.8L1.6,.0L.2,.0L.0,.8z"/><path fill="url(#lg11)" transform="translate(5.573113,0.010611)" fill-rule="nonzero" id="shape58" d="M.0,.8L1.8,.8L1.6,.0L.2,.0L.0,.8z"/></g><g transform="translate(12.549126,-0.003641)" id="group59"><path fill="url(#lg11)" transform="translate(0.001531,0.008411)" fill-rule="nonzero" id="shape60" d="M.0,.8L1.8,.8L1.6,.0L.2,.0L.0,.8z"/><path fill="url(#lg11)" transform="translate(1.859894,0.010611)" fill-rule="nonzero" id="shape61" d="M.0,.8L1.7,.8L1.5,.0L.2,.0L.0,.8z"/><path fill="url(#lg11)" transform="translate(3.742048,0.013454)" fill-rule="nonzero" id="shape62" d="M.0,.8L1.8,.8L1.6,.0L.2,.0L.0,.8z"/><path fill="url(#lg11)" transform="translate(5.573113,0.010611)" fill-rule="nonzero" id="shape63" d="M.0,.8L1.8,.8L1.6,.0L.2,.0L.0,.8z"/></g><g transform="translate(21.074899,0.000000)" id="group64"><path fill="url(#lg11)" transform="translate(0.001531,0.008411)" fill-rule="nonzero" id="shape65" d="M.0,.8L1.8,.8L1.6,.0L.2,.0L.0,.8z"/><path fill="url(#lg11)" transform="translate(1.859894,0.010611)" fill-rule="nonzero" id="shape66" d="M.0,.8L1.7,.8L1.5,.0L.2,.0L.0,.8z"/><path fill="url(#lg11)" transform="translate(3.742048,0.013454)" fill-rule="nonzero" id="shape67" d="M.0,.8L1.8,.8L1.6,.0L.2,.0L.0,.8z"/><path fill="url(#lg11)" transform="translate(5.573113,0.010611)" fill-rule="nonzero" id="shape68" d="M.0,.8L1.8,.8L1.6,.0L.2,.0L.0,.8z"/></g></g><g transform="translate(1.062087,0.500805)" id="group69"><path fill="url(#lg10)" transform="translate(-0.019449,-0.002941)" fill-rule="nonzero" id="shape70" d="M.0,1.0L2.0,1.0L1.6,.0L.4,.0L.0,1.0z"/><path fill="url(#lg10)" transform="translate(1.529739,-0.002941)" fill-rule="nonzero" id="shape71" d="M.0,1.0L2.5,1.0L2.0,.0L.5,.0L.0,1.0z"/><path fill="url(#lg10)" transform="translate(3.595601,-0.012194)" fill-rule="nonzero" id="shape72" d="M.0,1.0L2.5,1.0L2.0,.0L.5,.0L.0,1.0z"/><path fill="url(#lg10)" transform="translate(5.531912,-0.012194)" fill-rule="nonzero" id="shape73" d="M.0,1.0L2.4,1.0L1.9,.0L.5,.0L.0,1.0z"/><path fill="url(#lg10)" transform="translate(7.443615,-0.012194)" fill-rule="nonzero" id="shape74" d="M.0,1.0L2.5,1.0L2.0,.0L.5,.0L.0,1.0z"/><path fill="url(#lg10)" transform="translate(9.442380,-0.012194)" fill-rule="nonzero" id="shape75" d="M.0,1.0L2.5,1.0L2.0,.0L.5,.0L.0,1.0z"/><path fill="url(#lg10)" transform="translate(11.466528,-0.011914)" fill-rule="nonzero" id="shape76" d="M.0,1.0L2.5,1.0L2.0,.0L.5,.0L.0,1.0z"/><path fill="url(#lg10)" transform="translate(13.403193,-0.011914)" fill-rule="nonzero" id="shape77" d="M.0,1.0L2.4,1.0L1.9,.0L.5,.0L.0,1.0z"/><path fill="url(#lg10)" transform="translate(15.388989,-0.011072)" fill-rule="nonzero" id="shape78" d="M.0,1.0L2.5,1.0L1.9,.0L.5,.0L.0,1.0z"/><path fill="url(#lg10)" transform="translate(17.366036,0.005470)" fill-rule="nonzero" id="shape79" d="M.0,1.0L2.4,1.0L1.9,.0L.5,.0L.0,1.0z"/><path fill="url(#lg10)" transform="translate(19.268613,0.005470)" fill-rule="nonzero" id="shape80" d="M.0,1.0L2.4,1.0L1.9,.0L.5,.0L.0,1.0z"/><path fill="url(#lg10)" transform="translate(21.195346,0.005750)" fill-rule="nonzero" id="shape81" d="M.0,1.0L2.4,1.0L1.9,.0L.5,.0L.0,1.0z"/><path fill="url(#lg10)" transform="translate(23.039211,0.005750)" fill-rule="nonzero" id="shape82" d="M.0,1.0L2.3,1.0L1.8,.0L.5,.0L.0,1.0z"/><path fill="url(#lg10)" transform="translate(24.929203,0.006592)" fill-rule="nonzero" id="shape83" d="M.0,1.0L2.3,1.0L1.8,.0L.5,.0L.0,1.0z"/></g><g transform="translate(1.146338,0.668558)" id="group84"><path fill="url(#lg11)" transform="translate(23.362223,0.023549)" fill-rule="nonzero" id="shape85" d="M.0,.8L1.9,.8L1.6,.0L.2,.0L.0,.8z"/><path fill="url(#lg11)" transform="translate(25.274625,0.038407)" fill-rule="nonzero" id="shape86" d="M.0,.8L1.9,.8L1.6,.0L.2,.0L.0,.8z"/><path fill="url(#lg11)" transform="translate(-0.004193,0.033075)" fill-rule="nonzero" id="shape87" d="M-0.0,.8L1.6,.8L1.4,.0L.2,.0L-0.0,.8z"/><g transform="translate(1.760159,0.009716)" id="group88"><path fill="url(#lg11)" transform="translate(0.006616,0.021919)" fill-rule="nonzero" id="shape89" d="M.0,.8L1.9,.8L1.7,.0L.2,.0L.0,.8z"/><path fill="url(#lg11)" transform="translate(2.020616,0.026626)" fill-rule="nonzero" id="shape90" d="M.0,.8L1.9,.8L1.6,.0L.2,.0L.0,.8z"/><path fill="url(#lg11)" transform="translate(4.015768,0.029018)" fill-rule="nonzero" id="shape91" d="M.0,.8L1.9,.8L1.7,.0L.2,.0L.0,.8z"/><path fill="url(#lg11)" transform="translate(5.948068,0.031864)" fill-rule="nonzero" id="shape92" d="M.0,.8L1.9,.8L1.6,.0L.2,.0L.0,.8z"/><path fill="url(#lg11)" transform="translate(7.856356,0.029018)" fill-rule="nonzero" id="shape93" d="M.0,.8L1.9,.8L1.7,.0L.2,.0L.0,.8z"/><path fill="url(#lg11)" transform="translate(9.870300,0.034108)" fill-rule="nonzero" id="shape94" d="M.0,.8L1.9,.8L1.6,.0L.2,.0L.0,.8z"/><path fill="url(#lg11)" transform="translate(11.803441,0.015367)" fill-rule="nonzero" id="shape95" d="M.0,.8L1.9,.8L1.6,.0L.2,.0L.0,.8z"/><path fill="url(#lg11)" transform="translate(13.714888,0.038963)" fill-rule="nonzero" id="shape96" d="M.0,.8L1.9,.8L1.6,.0L.2,.0L.0,.8z"/><path fill="url(#lg11)" transform="translate(15.705845,-0.014527)" fill-rule="nonzero" id="shape97" d="M.0,.8L1.9,.8L1.6,.0L.2,.0L.0,.8z"/><path fill="url(#lg11)" transform="translate(17.617250,0.009060)" fill-rule="nonzero" id="shape98" d="M.0,.8L1.9,.8L1.6,.0L.2,.0L.0,.8z"/><path fill="url(#lg11)" transform="translate(19.499802,-0.004015)" fill-rule="nonzero" id="shape99" d="M.0,.8L1.9,.8L1.6,.0L.2,.0L.0,.8z"/></g></g><g transform="translate(0.968587,0.855556)" id="group100"><path fill="url(#lg10)" transform="translate(0.012070,0.020604)" fill-rule="nonzero" id="shape101" d="M-0.0,.9L3.2,1.0L2.6,-0.0L.3,.0L-0.0,.9z"/><path fill="url(#lg10)" transform="translate(26.250093,0.010512)" fill-rule="nonzero" id="shape102" d="M.0,1.0L3.2,1.0L3.1,.5L2.9,-0.0L.4,.0L.0,1.0z"/><path fill="url(#lg10)" transform="translate(2.529395,0.005283)" fill-rule="nonzero" id="shape103" d="M.0,1.0L2.5,1.0L2.0,.0L.5,.0L.0,1.0z"/><path fill="url(#lg10)" transform="translate(4.542843,0.005283)" fill-rule="nonzero" id="shape104" d="M.0,1.0L2.5,1.0L2.0,.0L.5,.0L.0,1.0z"/><path fill="url(#lg10)" transform="translate(6.623750,0.033315)" fill-rule="nonzero" id="shape105" d="M.0,1.0L2.5,1.0L2.0,.0L.5,.0L.0,1.0z"/><path fill="url(#lg10)" transform="translate(8.574191,0.033315)" fill-rule="nonzero" id="shape106" d="M.0,1.0L2.5,1.0L1.9,.0L.5,.0L.0,1.0z"/><path fill="url(#lg10)" transform="translate(10.499802,0.033315)" fill-rule="nonzero" id="shape107" d="M.0,1.0L2.5,1.0L2.0,.0L.5,.0L.0,1.0z"/><path fill="url(#lg10)" transform="translate(12.513249,0.033315)" fill-rule="nonzero" id="shape108" d="M.0,1.0L2.5,1.0L2.0,.0L.5,.0L.0,1.0z"/><path fill="url(#lg10)" transform="translate(14.552156,0.024345)" fill-rule="nonzero" id="shape109" d="M.0,1.0L2.5,1.0L2.0,.0L.5,.0L.0,1.0z"/><path fill="url(#lg10)" transform="translate(16.502744,0.024345)" fill-rule="nonzero" id="shape110" d="M.0,1.0L2.5,1.0L1.9,.0L.5,.0L.0,1.0z"/><path fill="url(#lg10)" transform="translate(18.502998,0.025084)" fill-rule="nonzero" id="shape111" d="M.0,1.0L2.5,1.0L1.9,.0L.5,.0L.0,1.0z"/><path fill="url(#lg10)" transform="translate(20.453527,0.025084)" fill-rule="nonzero" id="shape112" d="M.0,1.0L2.4,1.0L1.8,.0L.5,.0L.0,1.0z"/><path fill="url(#lg10)" transform="translate(22.399573,0.025084)" fill-rule="nonzero" id="shape113" d="M.0,1.0L2.4,1.0L1.8,.0L.5,.0L.0,1.0z"/><path fill="url(#lg10)" transform="translate(24.334406,0.010512)" fill-rule="nonzero" id="shape114" d="M.0,1.0L2.4,1.0L1.8,.0L.5,.0L.0,1.0z"/></g><g transform="translate(1.005982,1.005389)" id="group115"><path fill="url(#lg11)" transform="translate(0.003549,0.043170)" fill-rule="nonzero" id="shape116" d="M-0.0,.8L2.6,.8L2.3,.0L.3,.0L-0.0,.8z"/><path fill="url(#lg11)" transform="translate(26.698053,0.028029)" fill-rule="nonzero" id="shape117" d="M.0,.8L2.5,.8L2.4,-0.0L.2,.0L.0,.8z"/><g transform="translate(2.662339,0.018687)" id="group118"><path fill="url(#lg11)" transform="translate(0.006721,0.021919)" fill-rule="nonzero" id="shape119" d="M.0,.8L1.9,.8L1.7,.0L.2,.0L.0,.8z"/><path fill="url(#lg11)" transform="translate(2.052652,0.026626)" fill-rule="nonzero" id="shape120" d="M.0,.8L1.9,.8L1.6,.0L.2,.0L.0,.8z"/><path fill="url(#lg11)" transform="translate(4.079435,0.029018)" fill-rule="nonzero" id="shape121" d="M.0,.8L1.9,.8L1.7,.0L.2,.0L.0,.8z"/><path fill="url(#lg11)" transform="translate(6.042371,0.031864)" fill-rule="nonzero" id="shape122" d="M.0,.8L1.9,.8L1.6,.0L.2,.0L.0,.8z"/><path fill="url(#lg11)" transform="translate(7.980914,0.029018)" fill-rule="nonzero" id="shape123" d="M.0,.8L1.9,.8L1.7,.0L.2,.0L.0,.8z"/><path fill="url(#lg11)" transform="translate(10.026788,0.034108)" fill-rule="nonzero" id="shape124" d="M.0,.8L1.9,.8L1.6,.0L.2,.0L.0,.8z"/><path fill="url(#lg11)" transform="translate(11.990578,0.015367)" fill-rule="nonzero" id="shape125" d="M.0,.8L1.9,.8L1.6,.0L.2,.0L.0,.8z"/><path fill="url(#lg11)" transform="translate(13.932330,0.038963)" fill-rule="nonzero" id="shape126" d="M.0,.8L1.9,.8L1.6,.0L.2,.0L.0,.8z"/><path fill="url(#lg11)" transform="translate(15.954852,-0.014527)" fill-rule="nonzero" id="shape127" d="M.0,.8L1.9,.8L1.6,.0L.2,.0L.0,.8z"/><path fill="url(#lg11)" transform="translate(17.896561,0.009060)" fill-rule="nonzero" id="shape128" d="M.0,.8L1.9,.8L1.6,.0L.2,.0L.0,.8z"/><path fill="url(#lg11)" transform="translate(19.808960,-0.004015)" fill-rule="nonzero" id="shape129" d="M.0,.8L1.9,.8L1.6,.0L.2,.0L.0,.8z"/></g><path fill="url(#lg11)" transform="translate(24.433283,0.039666)" fill-rule="nonzero" id="shape130" d="M.0,.8L1.9,.8L1.6,.0L.2,.0L.0,.8z"/></g><g transform="translate(0.968587,1.191688)" id="group131"><path fill="url(#lg10)" transform="translate(-0.009434,0.039292)" fill-rule="nonzero" id="shape132" d="M-0.0,.9L3.6,1.0L3.0,-0.0L.3,.0L-0.0,.9z"/><path fill="url(#lg10)" transform="translate(24.700670,0.023971)" fill-rule="nonzero" id="shape133" d="M.0,1.0L4.8,1.0L4.6,.5L4.4,-0.0L.6,.0L.0,1.0z"/><g transform="translate(2.954553,0.000000)" id="group134"><path fill="url(#lg10)" transform="translate(0.004971,0.023971)" fill-rule="nonzero" id="shape135" d="M.0,1.0L2.5,1.0L2.0,.0L.5,.0L.0,1.0z"/><path fill="url(#lg10)" transform="translate(2.018433,0.023971)" fill-rule="nonzero" id="shape136" d="M.0,1.0L2.5,1.0L2.0,.0L.5,.0L.0,1.0z"/><path fill="url(#lg10)" transform="translate(4.099385,0.014627)" fill-rule="nonzero" id="shape137" d="M.0,1.0L2.5,1.0L2.0,.0L.5,.0L.0,1.0z"/><path fill="url(#lg10)" transform="translate(6.049825,0.014627)" fill-rule="nonzero" id="shape138" d="M.0,1.0L2.5,1.0L1.9,.0L.5,.0L.0,1.0z"/><path fill="url(#lg10)" transform="translate(7.975476,0.014627)" fill-rule="nonzero" id="shape139" d="M.0,1.0L2.5,1.0L2.0,.0L.5,.0L.0,1.0z"/><path fill="url(#lg10)" transform="translate(9.988981,0.014627)" fill-rule="nonzero" id="shape140" d="M.0,1.0L2.5,1.0L2.0,.0L.5,.0L.0,1.0z"/><path fill="url(#lg10)" transform="translate(12.027875,0.043032)" fill-rule="nonzero" id="shape141" d="M.0,1.0L2.5,1.0L2.0,.0L.5,.0L.0,1.0z"/><path fill="url(#lg10)" transform="translate(13.978560,0.043032)" fill-rule="nonzero" id="shape142" d="M.0,1.0L2.5,1.0L1.9,.0L.5,.0L.0,1.0z"/><path fill="url(#lg10)" transform="translate(15.978824,0.043772)" fill-rule="nonzero" id="shape143" d="M.0,1.0L2.5,1.0L1.9,.0L.5,.0L.0,1.0z"/><path fill="url(#lg10)" transform="translate(17.929420,0.043772)" fill-rule="nonzero" id="shape144" d="M.0,1.0L2.4,1.0L1.8,.0L.5,.0L.0,1.0z"/><path fill="url(#lg10)" transform="translate(19.875499,0.043772)" fill-rule="nonzero" id="shape145" d="M.0,1.0L2.4,1.0L1.8,.0L.5,.0L.0,1.0z"/></g></g><path fill="url(#lg12)" transform="translate(0.481100,3.475970)" fill-rule="nonzero" id="shape146" d="M.0,.0L46.1,.0L46.1,.7L.0,.7L.0,.0z"/><g transform="translate(1.006053,1.379471)" id="group147"><path fill="url(#lg11)" transform="translate(0.003552,0.024482)" fill-rule="nonzero" id="shape148" d="M-0.0,.8L2.9,.8L2.5,.0L.3,.0L-0.0,.8z"/><path fill="url(#lg11)" transform="translate(25.052049,0.008219)" fill-rule="nonzero" id="shape149" d="M.0,.8L4.2,.8L4.0,-0.0L.3,.0L.0,.8z"/><g transform="translate(3.253723,0.000000)" id="group150"><path fill="url(#lg11)" transform="translate(0.006721,0.021919)" fill-rule="nonzero" id="shape151" d="M.0,.8L1.9,.8L1.7,.0L.2,.0L.0,.8z"/><path fill="url(#lg11)" transform="translate(2.052658,0.026626)" fill-rule="nonzero" id="shape152" d="M.0,.8L1.9,.8L1.6,.0L.2,.0L.0,.8z"/><path fill="url(#lg11)" transform="translate(4.079448,0.029018)" fill-rule="nonzero" id="shape153" d="M.0,.8L1.9,.8L1.7,.0L.2,.0L.0,.8z"/><path fill="url(#lg11)" transform="translate(6.042390,0.031864)" fill-rule="nonzero" id="shape154" d="M.0,.8L1.9,.8L1.6,.0L.2,.0L.0,.8z"/><path fill="url(#lg11)" transform="translate(7.980939,0.029018)" fill-rule="nonzero" id="shape155" d="M.0,.8L1.9,.8L1.7,.0L.2,.0L.0,.8z"/><path fill="url(#lg11)" transform="translate(10.026820,0.034108)" fill-rule="nonzero" id="shape156" d="M.0,.8L1.9,.8L1.6,.0L.2,.0L.0,.8z"/><path fill="url(#lg11)" transform="translate(11.990616,0.015367)" fill-rule="nonzero" id="shape157" d="M.0,.8L1.9,.8L1.6,.0L.2,.0L.0,.8z"/><path fill="url(#lg11)" transform="translate(13.932375,0.038963)" fill-rule="nonzero" id="shape158" d="M.0,.8L1.9,.8L1.6,.0L.2,.0L.0,.8z"/><path fill="url(#lg11)" transform="translate(15.954904,-0.014527)" fill-rule="nonzero" id="shape159" d="M.0,.8L1.9,.8L1.6,.0L.2,.0L.0,.8z"/><path fill="url(#lg11)" transform="translate(17.896618,0.009060)" fill-rule="nonzero" id="shape160" d="M.0,.8L1.9,.8L1.6,.0L.2,.0L.0,.8z"/><path fill="url(#lg11)" transform="translate(19.809023,-0.004015)" fill-rule="nonzero" id="shape161" d="M.0,.8L1.9,.8L1.6,.0L.2,.0L.0,.8z"/></g></g><g transform="translate(0.818982,1.640268)" id="group162"><path fill="url(#lg10)" transform="translate(-0.006085,0.034054)" fill-rule="nonzero" id="shape163" d="M.0,.9L4.9,1.0L4.2,-0.0L.3,.0L.0,.9z"/><path fill="url(#lg10)" transform="translate(4.246165,0.018733)" fill-rule="nonzero" id="shape164" d="M.0,1.0L2.5,1.0L2.0,.0L.5,.0L.0,1.0z"/><path fill="url(#lg10)" transform="translate(6.259614,0.018733)" fill-rule="nonzero" id="shape165" d="M.0,1.0L2.5,1.0L2.0,.0L.5,.0L.0,1.0z"/><path fill="url(#lg10)" transform="translate(8.340561,0.009389)" fill-rule="nonzero" id="shape166" d="M.0,1.0L2.5,1.0L2.0,.0L.5,.0L.0,1.0z"/><path fill="url(#lg10)" transform="translate(10.291035,0.009389)" fill-rule="nonzero" id="shape167" d="M.0,1.0L2.5,1.0L1.9,.0L.5,.0L.0,1.0z"/><path fill="url(#lg10)" transform="translate(12.216757,0.009389)" fill-rule="nonzero" id="shape168" d="M.0,1.0L2.5,1.0L2.0,.0L.5,.0L.0,1.0z"/><path fill="url(#lg10)" transform="translate(14.230176,0.009389)" fill-rule="nonzero" id="shape169" d="M.0,1.0L2.5,1.0L2.0,.0L.5,.0L.0,1.0z"/><path fill="url(#lg10)" transform="translate(16.269045,0.037795)" fill-rule="nonzero" id="shape170" d="M.0,1.0L2.5,1.0L2.0,.0L.5,.0L.0,1.0z"/><path fill="url(#lg10)" transform="translate(18.219609,0.037795)" fill-rule="nonzero" id="shape171" d="M.0,1.0L2.5,1.0L1.9,.0L.5,.0L.0,1.0z"/><path fill="url(#lg10)" transform="translate(20.219887,0.038543)" fill-rule="nonzero" id="shape172" d="M.0,1.0L2.5,1.0L1.9,.0L.5,.0L.0,1.0z"/><path fill="url(#lg10)" transform="translate(22.170464,0.038543)" fill-rule="nonzero" id="shape173" d="M.0,1.0L2.4,1.0L1.8,.0L.5,.0L.0,1.0z"/><path fill="url(#lg10)" transform="translate(24.018782,0.018733)" fill-rule="nonzero" id="shape174" d="M.0,1.0L5.7,1.0L5.5,.5L5.3,-0.0L.6,.0L.0,1.0z"/></g><g transform="translate(0.781634,1.790186)" id="group175"><path fill="url(#lg11)" transform="translate(4.584415,0.015185)" fill-rule="nonzero" id="shape176" d="M.0,.8L1.9,.8L1.7,.0L.2,.0L.0,.8z"/><path fill="url(#lg11)" transform="translate(0.037452,0.017877)" fill-rule="nonzero" id="shape177" d="M-0.0,.8L4.5,.8L4.2,-0.0L.4,.0L-0.0,.8z"/><path fill="url(#lg11)" transform="translate(6.630341,0.019901)" fill-rule="nonzero" id="shape178" d="M.0,.8L1.9,.8L1.6,.0L.2,.0L.0,.8z"/><path fill="url(#lg11)" transform="translate(8.657157,0.022293)" fill-rule="nonzero" id="shape179" d="M.0,.8L1.9,.8L1.7,.0L.2,.0L.0,.8z"/><path fill="url(#lg11)" transform="translate(10.620088,0.025139)" fill-rule="nonzero" id="shape180" d="M.0,.8L1.9,.8L1.6,.0L.2,.0L.0,.8z"/><path fill="url(#lg11)" transform="translate(12.558636,0.022293)" fill-rule="nonzero" id="shape181" d="M.0,.8L1.9,.8L1.7,.0L.2,.0L.0,.8z"/><path fill="url(#lg11)" transform="translate(14.604533,0.027374)" fill-rule="nonzero" id="shape182" d="M.0,.8L1.9,.8L1.6,.0L.2,.0L.0,.8z"/><path fill="url(#lg11)" transform="translate(16.568353,0.008641)" fill-rule="nonzero" id="shape183" d="M.0,.8L1.9,.8L1.6,.0L.2,.0L.0,.8z"/><path fill="url(#lg11)" transform="translate(18.510070,0.032238)" fill-rule="nonzero" id="shape184" d="M.0,.8L1.9,.8L1.6,.0L.2,.0L.0,.8z"/><path fill="url(#lg11)" transform="translate(20.532567,-0.021261)" fill-rule="nonzero" id="shape185" d="M.0,.8L1.9,.8L1.6,.0L.2,.0L.0,.8z"/><path fill="url(#lg11)" transform="translate(22.474285,0.002336)" fill-rule="nonzero" id="shape186" d="M.0,.8L1.9,.8L1.6,.0L.2,.0L.0,.8z"/><path fill="url(#lg11)" transform="translate(24.272494,-0.011590)" fill-rule="nonzero" id="shape187" d="M.0,.8L5.4,.8L5.0,-0.0L.4,.0L.0,.8z"/></g><g transform="translate(0.669377,2.163851)" id="group188"><path fill="url(#lg10)" transform="translate(2.880774,0.002681)" fill-rule="nonzero" id="shape189" d="M-0.0,1.0L2.8,1.0L2.4,.0L.5,.0L-0.0,1.0z"/><path fill="url(#lg10)" transform="translate(0.000296,0.018028)" fill-rule="nonzero" id="shape190" d="M.0,1.0L3.3,1.0L2.7,-0.0L.3,.0L.0,1.0z"/><path fill="url(#lg10)" transform="translate(5.346183,0.002392)" fill-rule="nonzero" id="shape191" d="M.0,1.0L3.0,1.0L2.4,.0L.5,.0L.0,1.0z"/><path fill="url(#lg10)" transform="translate(7.767535,0.002290)" fill-rule="nonzero" id="shape192" d="M.0,1.0L12.1,1.0L11.3,.0L.7,.0L.0,1.0z"/><path fill="url(#lg10)" transform="translate(19.297060,0.010154)" fill-rule="nonzero" id="shape193" d="M-0.0,1.0L2.8,1.0L2.4,.0L.5,.0L-0.0,1.0z"/><path fill="url(#lg10)" transform="translate(21.699956,0.002392)" fill-rule="nonzero" id="shape194" d="M.0,1.0L3.0,1.0L2.4,.0L.5,.0L.0,1.0z"/><path fill="url(#lg10)" transform="translate(24.212416,-0.002557)" fill-rule="nonzero" id="shape195" d="M-0.0,1.0L2.8,1.0L2.4,.0L.5,.0L-0.0,1.0z"/><path fill="url(#lg10)" transform="translate(26.497424,0.002427)" fill-rule="nonzero" id="shape196" d="M.0,1.0L3.4,1.0L3.0,.0L.6,.0L.0,1.0z"/></g><path fill="url(#lg10)" transform="translate(33.305085,1.640268)" fill-rule="nonzero" id="shape197" d="M.0,1.0L2.2,1.0L1.6,.0L.2,.0L.0,.5L.0,1.0z"/><path fill="url(#lg11)" transform="translate(33.365028,1.843175)" fill-rule="nonzero" id="shape198" d="M.0,.7L1.9,.7L1.7,.0L.2,.0L.0,.7z"/><g transform="translate(31.432756,2.153883)" id="group199"><path fill="url(#lg10)" transform="translate(-0.005261,-0.003152)" fill-rule="nonzero" id="shape200" d="M.0,1.0L2.2,1.0L1.6,.0L.2,.0L.0,.5L.0,1.0z"/><path fill="url(#lg10)" transform="translate(1.723051,0.022854)" fill-rule="nonzero" id="shape201" d="M.0,1.0L2.4,1.0L2.0,.0L.4,.0L.0,1.0z"/><path fill="url(#lg10)" transform="translate(3.715609,0.026484)" fill-rule="nonzero" id="shape202" d="M-0.0,1.0L2.2,1.0L2.0,.3L1.7,.0L.3,.0L-0.0,1.0z"/></g><g transform="translate(30.937700,0.353904)" id="group203"><path fill="url(#lg10)" transform="translate(-0.004487,-0.010840)" fill-rule="nonzero" id="shape204" d="M.0,1.0L2.2,1.0L1.6,.0L.2,.0L.0,.5L.0,1.0z"/><path fill="url(#lg10)" transform="translate(1.738486,0.015110)" fill-rule="nonzero" id="shape205" d="M.0,1.0L2.4,1.0L2.0,.0L.4,.0L.0,1.0z"/><path fill="url(#lg10)" transform="translate(3.747800,0.018688)" fill-rule="nonzero" id="shape206" d="M-0.0,1.0L2.2,1.0L1.7,.0L.4,.0L-0.0,1.0z"/></g><g transform="translate(30.934885,0.571195)" id="group207"><path fill="url(#lg11)" transform="translate(-0.012268,0.004363)" fill-rule="nonzero" id="shape208" d="M.0,.7L2.0,.7L1.8,.0L.2,.0L.0,.7z"/><path fill="url(#lg11)" transform="translate(1.967112,0.008565)" fill-rule="nonzero" id="shape209" d="M.0,.7L1.8,.7L1.7,.0L.2,.0L.0,.7z"/><path fill="url(#lg11)" transform="translate(3.816820,0.004363)" fill-rule="nonzero" id="shape210" d="M.0,.7L2.0,.7L1.8,.0L.2,.0L.0,.7z"/></g><g transform="translate(30.939829,0.710706)" id="group211"><path fill="url(#lg10)" transform="translate(-0.005261,-0.003152)" fill-rule="nonzero" id="shape212" d="M.0,1.0L2.2,1.0L1.6,.0L.2,.0L.0,.5L.0,1.0z"/><path fill="url(#lg10)" transform="translate(1.723051,0.022854)" fill-rule="nonzero" id="shape213" d="M.0,1.0L2.4,1.0L2.0,.0L.4,.0L.0,1.0z"/><path fill="url(#lg10)" transform="translate(3.715609,0.026484)" fill-rule="nonzero" id="shape214" d="M-0.0,1.0L2.2,1.0L2.0,.3L1.7,.0L.3,.0L-0.0,1.0z"/></g><g transform="translate(30.990777,1.005078)" id="group215"><path fill="url(#lg11)" transform="translate(-0.012366,0.004363)" fill-rule="nonzero" id="shape216" d="M.0,.7L2.0,.7L1.8,.0L.2,.0L.0,.7z"/><path fill="url(#lg11)" transform="translate(1.982787,0.008565)" fill-rule="nonzero" id="shape217" d="M.0,.7L1.9,.7L1.7,.0L.2,.0L.0,.7z"/><path fill="url(#lg11)" transform="translate(3.847234,0.004363)" fill-rule="nonzero" id="shape218" d="M.0,.7L2.0,.7L1.8,.0L.2,.0L.0,.7z"/></g><g transform="translate(37.848821,0.556083)" id="group219"><path fill="url(#lg11)" transform="translate(-0.008423,-0.000910)" fill-rule="nonzero" id="shape220" d="M.0,.7L1.9,.7L1.7,.0L.2,.0L.0,.7z"/><path fill="url(#lg11)" transform="translate(1.921084,0.003300)" fill-rule="nonzero" id="shape221" d="M.0,.7L1.8,.7L1.6,.0L.2,.0L.0,.7z"/><path fill="url(#lg11)" transform="translate(3.895253,-0.000842)" fill-rule="nonzero" id="shape222" d="M.0,.7L1.6,.7L1.3,.0L.2,.0L.0,.7z"/><path fill="url(#lg11)" transform="translate(5.580119,0.018293)" fill-rule="nonzero" id="shape223" d="M.0,.7L1.7,.7L1.4,.0L.3,.0L.0,.7z"/></g><path fill="url(#lg10)" transform="translate(43.530626,0.758277)" fill-rule="nonzero" id="shape224" d="M.0,1.4L2.3,1.4L1.6,.0L.4,.0L.0,1.4z"/><path fill="url(#lg11)" transform="translate(43.933447,1.460449)" fill-rule="nonzero" id="shape225" d="M.0,.7L1.8,.7L1.6,.0L.2,.0L.0,.7z"/><g transform="translate(37.869824,0.766523)" id="group226"><path fill="url(#lg10)" transform="translate(-0.005894,-0.002947)" fill-rule="nonzero" id="shape227" d="M.1,1.0L2.3,1.0L1.7,.0L.3,.0L.0,.5L.1,1.0z"/><path fill="url(#lg10)" transform="translate(1.814879,0.023068)" fill-rule="nonzero" id="shape228" d="M.0,1.0L2.4,1.0L1.9,.0L.4,.0L.0,1.0z"/><path fill="url(#lg10)" transform="translate(3.792519,0.026664)" fill-rule="nonzero" id="shape229" d="M-0.0,1.0L2.2,1.0L1.7,.0L.3,.0L-0.0,1.0z"/></g><g transform="translate(38.019784,1.000427)" id="group230"><path fill="url(#lg11)" transform="translate(-0.012368,0.004363)" fill-rule="nonzero" id="shape231" d="M.0,.7L2.0,.7L1.8,.0L.2,.0L.0,.7z"/><path fill="url(#lg11)" transform="translate(1.982795,0.008565)" fill-rule="nonzero" id="shape232" d="M.0,.7L1.9,.7L1.7,.0L.2,.0L.0,.7z"/><path fill="url(#lg11)" transform="translate(3.847188,0.004363)" fill-rule="nonzero" id="shape233" d="M.0,.7L1.7,.7L1.5,.0L.2,.0L.0,.7z"/></g><g transform="translate(37.995965,1.209152)" id="group234"><path fill="url(#lg10)" transform="translate(0.005821,0.007145)" fill-rule="nonzero" id="shape235" d="M.1,1.0L2.3,1.0L1.7,.0L.3,.0L-0.0,.5L.1,1.0z"/><path fill="url(#lg10)" transform="translate(1.854756,0.033159)" fill-rule="nonzero" id="shape236" d="M.0,1.0L2.5,1.0L2.0,.0L.4,.0L.0,1.0z"/><path fill="url(#lg10)" transform="translate(3.890483,0.036755)" fill-rule="nonzero" id="shape237" d="M-0.0,1.0L2.2,1.0L1.7,.0L.4,.0L-0.0,1.0z"/></g><g transform="translate(38.136913,1.443613)" id="group238"><path fill="url(#lg11)" transform="translate(-0.012268,0.004363)" fill-rule="nonzero" id="shape239" d="M.0,.7L2.0,.7L1.8,.0L.2,.0L.0,.7z"/><path fill="url(#lg11)" transform="translate(1.967112,0.008565)" fill-rule="nonzero" id="shape240" d="M.0,.7L1.8,.7L1.7,.0L.2,.0L.0,.7z"/><path fill="url(#lg11)" transform="translate(3.816820,0.004363)" fill-rule="nonzero" id="shape241" d="M.0,.7L2.0,.7L1.8,.0L.2,.0L.0,.7z"/></g><g transform="translate(38.177643,1.640268)" id="group242"><path fill="url(#lg10)" transform="translate(-0.005361,-0.003152)" fill-rule="nonzero" id="shape243" d="M.0,1.0L2.2,1.0L1.6,.0L.2,.0L.0,.5L.0,1.0z"/><path fill="url(#lg10)" transform="translate(1.755854,0.022854)" fill-rule="nonzero" id="shape244" d="M.0,1.0L2.5,1.0L2.0,.0L.4,.0L.0,1.0z"/><path fill="url(#lg10)" transform="translate(3.786345,0.026484)" fill-rule="nonzero" id="shape245" d="M-0.0,1.0L2.2,1.0L2.0,.3L1.7,.0L.4,.0L-0.0,1.0z"/></g><g transform="translate(38.298912,1.850921)" id="group246"><path fill="url(#lg11)" transform="translate(-0.012366,0.004363)" fill-rule="nonzero" id="shape247" d="M.0,.7L2.0,.7L1.8,.0L.2,.0L.0,.7z"/><path fill="url(#lg11)" transform="translate(1.982787,0.008565)" fill-rule="nonzero" id="shape248" d="M.0,.7L1.9,.7L1.7,.0L.2,.0L.0,.7z"/><path fill="url(#lg11)" transform="translate(3.847234,0.004363)" fill-rule="nonzero" id="shape249" d="M.0,.7L2.0,.7L1.8,.0L.2,.0L.0,.7z"/></g><path fill="url(#lg10)" transform="translate(44.022571,1.659963)" fill-rule="nonzero" id="shape250" d="M.2,1.6L2.2,1.5L2.0,.8L1.6,.0L.2,.0L-0.0,.7L.2,1.6z"/><g transform="translate(38.185331,2.195861)" id="group251"><path fill="url(#lg10)" transform="translate(0.010517,0.016393)" fill-rule="nonzero" id="shape252" d="M.2,1.0L4.5,1.0L3.7,.0L.5,.0L-0.0,.5L.2,1.0z"/><path fill="url(#lg10)" transform="translate(3.915206,0.000421)" fill-rule="nonzero" id="shape253" d="M.0,1.0L2.1,1.0L1.8,.0L.4,.0L.0,1.0z"/></g><g transform="translate(0.611664,2.477724)" id="group254"><path fill="url(#lg11)" transform="translate(3.224729,0.000000)" fill-rule="nonzero" id="shape255" d="M.0,.7L2.4,.7L2.2,.0L.3,.0L.0,.7z"/><path fill="url(#lg11)" transform="translate(0.000082,0.002433)" fill-rule="nonzero" id="shape256" d="M-0.0,.7L3.2,.7L3.0,-0.0L.3,.0L-0.0,.7z"/><path fill="url(#lg11)" transform="translate(5.732316,0.000000)" fill-rule="nonzero" id="shape257" d="M.0,.7L2.4,.7L2.2,.0L.3,.0L.0,.7z"/><path fill="url(#lg11)" transform="translate(8.308986,-0.001558)" fill-rule="nonzero" id="shape258" d="M-0.0,.7L11.1,.7L10.9,.0L.3,.0L-0.0,.7z"/><path fill="url(#lg11)" transform="translate(19.535928,0.000000)" fill-rule="nonzero" id="shape259" d="M.0,.7L2.4,.7L2.2,.0L.3,.0L.0,.7z"/><path fill="url(#lg11)" transform="translate(22.019383,0.023920)" fill-rule="nonzero" id="shape260" d="M.0,.7L2.4,.7L2.2,.0L.3,.0L.0,.7z"/><path fill="url(#lg11)" transform="translate(24.563592,0.023920)" fill-rule="nonzero" id="shape261" d="M.0,.7L2.4,.7L2.2,.0L.3,.0L.0,.7z"/><path fill="url(#lg11)" transform="translate(27.063282,-0.006206)" fill-rule="nonzero" id="shape262" d="M-0.0,.7L2.8,.7L2.6,-0.0L.3,.0L-0.0,.7z"/><path fill="url(#lg11)" transform="translate(30.874840,0.023920)" fill-rule="nonzero" id="shape263" d="M.0,.7L2.0,.7L1.8,.0L.2,.0L.0,.7z"/><path fill="url(#lg11)" transform="translate(32.870151,0.000000)" fill-rule="nonzero" id="shape264" d="M.0,.7L1.8,.7L1.6,.0L.2,.0L.0,.7z"/><path fill="url(#lg11)" transform="translate(34.734597,0.023920)" fill-rule="nonzero" id="shape265" d="M.0,.7L2.0,.7L1.8,.0L.2,.0L.0,.7z"/><path fill="url(#lg11)" transform="translate(37.747982,0.005978)" fill-rule="nonzero" id="shape266" d="M.0,.7L4.0,.7L3.6,.0L.5,.0L.0,.7z"/><path fill="url(#lg11)" transform="translate(41.769157,0.021924)" fill-rule="nonzero" id="shape267" d="M.0,.7L1.8,.7L1.6,.0L.2,.0L.0,.7z"/><path fill="url(#lg11)" transform="translate(43.605734,0.005978)" fill-rule="nonzero" id="shape268" d="M.0,.7L2.0,.7L1.8,.0L.2,.0L.0,.7z"/></g></g><g transform="translate(23.694761,0.000025)" id="group269"><path fill="url(#lg13)" transform="translate(10.340517,41.492181)" fill-rule="nonzero" id="shape270" d="M.0,.1L.0,1.3C.0,1.3,-0.1,2.1,1.0,2.0C3.1,2.2,8.7,2.6,15.9,2.6C23.3,2.6,27.8,2.3,29.3,2.2C30.0,2.2,30.0,1.3,30.0,1.3L30.0,.0C30.0,.0,10.3,2.6,.0,.1z"/><path fill="url(#lg13)" transform="translate(10.357076,40.074333)" fill-rule="nonzero" id="shape271" d="M12.3,.0C12.3,.0,2.2,.2,.1,1.4C-2.0,2.7,24.2,3.5,29.6,1.7C31.2,1.2,26.7,.0,12.3,.0z"/><path fill="url(#lg14)" transform="translate(10.357051,40.074333)" fill-rule="nonzero" id="shape272" d="M12.3,.0C12.3,.0,2.2,.2,.1,1.4C-2.0,2.7,24.2,3.5,29.6,1.7C31.2,1.2,26.7,.0,12.3,.0z"/><path stroke="#313131" stroke-width="1" fill="url(#lg15)" transform="translate(22.991600,34.842311)" fill-rule="nonzero" id="shape273" d="M.0,.0L5.1,.0L5.1,6.8L.0,6.8L.0,.0z"/><path stroke="#464646" stroke-width="1" fill="url(#lg1)" transform="translate(0.467380,-0.002446)" fill-rule="nonzero" id="shape274" d="M.2,.0L49.9,.0C50.1,.0,50.2,.1,50.2,.2L50.2,36.1C50.2,36.3,50.1,36.4,49.9,36.4L.2,36.4C.1,36.4,.0,36.3,.0,36.1L.0,.2C.0,.1,.1,.0,.2,.0z"/><path stroke="#184b6e" stroke-width="1" fill="url(#lg16)" transform="translate(3.121841,2.552148)" fill-rule="nonzero" id="shape275" d="M.0,.0L44.9,.0L44.9,31.2L.0,31.2L.0,.0z"/><path fill="url(#lg17)" transform="matrix(-1.000000,0.000000,0.000000,1.000000,40.392720,40.074311)" fill-rule="nonzero" id="shape276" d="M12.4,.0C12.4,.0,1.5,.2,.1,1.4C-1.8,3.0,24.3,3.5,29.7,1.7C31.3,1.2,26.8,.0,12.4,.0z"/></g><text style="fill:#191919;font-family:微软雅黑,PingFang SC,Mircrosoft YaHei,Arial;font-size:11.00pt" xml:space="preserve"><tspan x="28.4" style="font-family:微软雅黑,PingFang SC,Mircrosoft YaHei,Arial" y="67.5">电脑</tspan></text></g><g transform="translate(139.804212,467.716360)" id="group277"><path fill="#000000" transform="translate(0.096637,-0.003214)" fill-rule="nonzero" id="shape278" d="M44.2,.5C44.2,.5,47.1,-0.8,49.4,.7L65.9,10.6C65.9,10.6,68.4,12.4,64.9,14.4L24.7,40.1C24.7,40.1,21.2,42.5,18.0,40.7L1.1,28.9C1.1,28.9,-1.5,27.2,1.3,25.1L44.2,.5z"/><path fill="#404040" transform="translate(7.066276,3.204214)" fill-rule="nonzero" id="shape279" d="M.0,20.1L35.0,.0L54.4,11.6L19.5,33.7L.0,20.1z"/><path fill="url(#lg18)" transform="translate(0.000000,11.984802)" fill-rule="nonzero" id="shape280" d="M67.0,.0C67.0,.0,67.4,1.5,63.6,3.3L24.5,28.3C24.5,28.3,21.5,29.9,18.7,29.0L1.1,16.8C1.1,16.8,.1,16.0,.1,15.1L.0,17.7C.0,17.7,.1,19.1,1.5,20.0L17.4,31.1C17.4,31.1,20.1,32.9,23.7,31.5L65.4,4.6C65.4,4.6,66.8,4.0,66.9,2.7L67.0,.0z"/><path fill="#404040" transform="translate(7.948006,34.845802)" fill-rule="nonzero" id="shape281" d="M.8,.1L3.7,2.1C3.7,2.1,4.6,2.8,3.7,3.3C3.7,3.3,3.4,3.4,2.8,3.1L.3,1.2C.3,1.2,-0.4,.6,.3,.1C.3,.1,.6,-0.1,.8,.1z"/><path fill="#595959" transform="translate(0.985362,29.665877)" fill-rule="nonzero" id="shape282" d="M.0,1.3C-0.1,.7,.1,.1,.5,.0C1.0,-0.1,1.5,.3,1.6,.9C1.8,1.5,1.6,2.1,1.1,2.2C.7,2.3,.2,1.9,.0,1.3z"/><path fill="url(#lg19)" transform="translate(0.052221,10.590499)" fill-rule="nonzero" id="shape283" d="M25.4,29.3L65.0,3.9C65.0,3.9,68.5,2.0,66.0,.0C66.0,.0,67.7,1.9,64.6,3.5L25.1,28.7C25.1,28.7,21.2,31.1,18.2,29.5L1.5,17.7C1.5,17.7,-0.6,16.3,1.1,14.6C1.1,14.6,-1.4,16.3,1.1,18.3L18.0,30.1C18.0,30.1,20.6,32.0,25.4,29.3z"/><path fill="#202020" transform="translate(51.987485,6.366058)" fill-rule="nonzero" id="shape284" d="M.5,.0L4.2,2.3C4.2,2.3,4.5,2.8,3.8,2.7L.1,.4C.1,.4,-0.3,-0.1,.5,.0z"/><path fill="#202020" transform="translate(50.262716,5.101998)" fill-rule="nonzero" id="shape285" d="M.0,.3C.0,.1,.2,-0.0,.5,-0.0C.8,-0.0,1.0,.1,1.0,.3C1.0,.5,.8,.7,.5,.7C.2,.7,.0,.5,.0,.3z"/><path fill="#202020" transform="translate(55.188905,5.977649)" fill-rule="nonzero" id="shape286" d="M-0.0,.4C-0.0,.2,.3,-0.0,.8,-0.0C1.2,-0.0,1.5,.2,1.5,.4C1.5,.7,1.2,.9,.8,.9C.3,.9,-0.0,.7,-0.0,.4z"/><path fill="url(#lg20)" transform="translate(10.878406,30.038564)" fill-rule="nonzero" id="shape287" d="M.0,2.2C.0,1.0,1.2,.0,2.7,.0C4.2,.0,5.4,1.0,5.4,2.2C5.4,3.4,4.2,4.4,2.7,4.4C1.2,4.4,.0,3.4,.0,2.2z"/><path fill="#d0d0d0" transform="translate(12.402136,30.980902)" fill-rule="nonzero" id="shape288" d="M1.4,.0L2.5,.9C2.5,.9,2.7,1.1,2.4,1.3C2.0,1.7,1.6,2.0,1.6,2.0C1.6,2.0,1.3,2.2,.9,1.9C.6,1.6,.1,1.3,.1,1.3C.1,1.3,-0.2,1.0,.3,.6L.9,.2C.9,.2,1.2,-0.1,1.4,.0z"/><path fill="#000000" transform="translate(12.757446,31.257603)" fill-rule="nonzero" id="shape289" d="M1.0,.0L1.8,.6C1.8,.6,2.0,.8,1.7,1.0C1.5,1.2,1.1,1.4,1.1,1.4C1.1,1.4,.9,1.6,.7,1.4C.4,1.2,.1,.9,.1,.9C.1,.9,-0.2,.8,.2,.5L.6,.1C.6,.1,.9,-0.1,1.0,.0z"/><path fill="#808080" transform="translate(12.861982,38.081873)" fill-rule="nonzero" id="shape290" d="M.2,.0L4.2,2.9L4.0,4.0L.0,1.1L.2,.0z"/><path fill="#808080" transform="translate(3.063665,31.079207)" fill-rule="nonzero" id="shape291" d="M.2,.0L4.2,2.9L4.0,4.0L.0,1.1L.2,.0z"/><path fill="#595959" transform="translate(8.088256,34.995644)" fill-rule="nonzero" id="shape292" d="M.7,.1L3.5,2.0C3.5,2.0,4.3,2.6,3.5,3.1C3.5,3.1,3.2,3.1,2.7,2.8L.2,1.0C.2,1.0,-0.3,.4,.3,.0C.3,.0,.5,-0.1,.7,.1z"/><path fill="#202020" transform="matrix(0.984808,-0.173648,0.173648,0.984808,1.482999,29.836514)" fill-rule="nonzero" id="shape293" d="M.0,1.1C-0.0,.6,-0.0,.1,.2,.0C.4,-0.1,.8,.2,.9,.7C1.0,1.3,.8,1.7,.6,1.8C.5,1.8,.1,1.6,.0,1.1z"/><path fill="#202020" transform="translate(8.160632,35.002223)" fill-rule="nonzero" id="shape294" d="M.2,.0C.2,.0,.3,-0.1,.7,.1C1.0,.3,3.4,2.0,3.4,2.0C3.4,2.0,3.8,2.3,3.8,2.7L3.7,2.8L.0,.2C.0,.2,.1,.1,.2,.0z"/><path fill="url(#lg21)" transform="translate(26.048611,-0.001497)" fill-rule="nonzero" id="shape295" d="M18.3,.5C18.3,.5,21.1,-0.8,23.5,.7L40.0,10.6C40.0,10.6,41.6,12.8,38.4,14.4L.0,38.8L18.3,.5z"/><path fill="#c8c8c8" transform="translate(62.460665,15.790002)" fill-rule="nonzero" id="shape296" d="M.0,.4L.6,.0L.6,2.4L.0,2.7L.0,.4z"/><text style="fill:#191919;font-family:微软雅黑,PingFang SC,Mircrosoft YaHei,Arial;font-size:11.00pt" xml:space="preserve"><tspan x="19.8" style="font-family:微软雅黑,PingFang SC,Mircrosoft YaHei,Arial" y="60.7">手机</tspan></text></g><g transform="translate(228.049592,408.584206)" id="group297"><path stroke="#000000" stroke-width="0.25" fill="url(#lg22)" transform="translate(-0.012590,0.000029)" fill-rule="nonzero" id="shape298" stroke-opacity="0.00" d="M32.0,23.5L32.0,18.8L43.6,28.5L32.0,38.8L32.0,34.3C32.0,34.3,11.4,29.5,.0,23.5L.0,.0C.0,.0,12.1,16.8,32.0,23.5z"/><path stroke="#000000" stroke-width="0.25" fill="url(#lg23)" transform="matrix(1.000000,0.000000,0.000000,-1.000000,-0.012590,57.583131)" fill-rule="nonzero" id="shape299" stroke-opacity="0.00" d="M32.0,23.5L32.0,18.8L43.6,29.1L32.0,38.8L32.0,34.2C32.0,34.2,11.4,29.5,.0,23.5L.0,.0C.0,.0,12.1,16.8,32.0,23.5z"/><path stroke="#000000" stroke-width="0.25" fill="url(#lg24)" transform="translate(31.984241,18.829664)" fill-rule="nonzero" id="shape300" stroke-opacity="0.00" d="M.0,.0L.0,20.2L12.0,9.6L.0,.0z"/></g><g transform="translate(439.476776,275.740593)" id="group301"><path stroke="#868686" stroke-width="1" fill="#efefef" fill-rule="nonzero" id="shape302" d="M11.0,.0L132.3,.0C138.3,.0,143.3,4.9,143.3,11.0L143.3,140.7C143.3,146.8,138.3,151.7,132.3,151.7L11.0,151.7C4.9,151.7,.0,146.8,.0,140.7L.0,11.0C.0,4.9,4.9,.0,11.0,.0z"/><g transform="translate(14.325600,0.000000)" id="shape303"><path stroke="#868686" stroke-width="1" fill="none" d="M.0,30.0L114.6,30.0L.0,30.0z"/><text style="fill:#191919;font-family:微软雅黑,PingFang SC,Mircrosoft YaHei,Arial;font-size:10.00pt" xml:space="preserve"><tspan x="32.6" style="font-family:微软雅黑,PingFang SC,Mircrosoft YaHei,Arial" y="18.2">服务器A</tspan></text></g></g><g transform="translate(489.839676,347.824593)" id="group304"><path fill="#00c1de" fill-rule="nonzero" id="shape306" d="M36.5,37.9L3.6,37.9C1.6,37.9,.0,36.5,.0,34.5L.0,30.5C.0,28.5,1.6,27.0,3.6,27.0L36.5,27.0C38.4,27.0,40.0,28.5,40.0,30.5L40.0,34.5C40.0,36.5,38.4,37.9,36.5,37.9L36.5,37.9zM32.5,29.9C31.1,29.9,29.9,31.0,29.9,32.5C29.9,33.9,31.1,35.1,32.5,35.1C33.9,35.0,35.0,33.9,35.0,32.5C35.0,31.1,33.9,29.9,32.5,29.9L32.5,29.9zM36.5,24.4L3.6,24.4C1.6,24.4,.0,23.0,.0,21.0L.0,17.0C.0,15.0,1.6,13.5,3.6,13.5L36.5,13.5C38.4,13.5,40.0,15.0,40.0,17.0L40.0,21.0C40.0,23.0,38.4,24.4,36.5,24.4zM32.5,16.3C31.1,16.3,29.9,17.5,29.9,19.0C29.9,20.4,31.1,21.6,32.5,21.6C33.4,21.6,34.3,21.1,34.7,20.3C35.2,19.5,35.2,18.5,34.7,17.6C34.3,16.8,33.4,16.3,32.5,16.3L32.5,16.3zM36.5,10.9L3.6,10.9C1.6,10.9,.0,9.5,.0,7.5L.0,3.5C.0,1.5,1.6,.0,3.6,.0L36.5,.0C38.4,.0,40.0,1.5,40.0,3.5L40.0,7.5C40.0,9.5,38.4,10.9,36.5,10.9zM32.5,2.8C31.1,2.8,29.9,4.0,29.9,5.5C29.9,6.9,31.1,8.1,32.5,8.1C33.9,8.1,35.1,6.9,35.1,5.5C35.1,4.0,33.9,2.8,32.5,2.8z"/></g><g transform="translate(447.903276,310.957193)" id="shape307"><text style="fill:#191919;font-family:微软雅黑,PingFang SC,Mircrosoft YaHei,Arial;font-size:10.00pt" xml:space="preserve"><tspan x="36.5" style="font-family:微软雅黑,PingFang SC,Mircrosoft YaHei,Arial" y="21.7">应用系统</tspan></text></g><g transform="translate(285.650592,163.875926)" id="shape308"><path stroke="#00aeee" stroke-width="5.666669845581055" fill="#ffffff" fill-rule="nonzero" d="M7.0,.0L533.8,.0C537.6,.0,540.8,3.1,540.8,7.0L540.8,57.1C540.8,61.0,537.6,64.1,533.8,64.1L7.0,64.1C3.1,64.1,.0,61.0,.0,57.1L.0,7.0C.0,3.1,3.1,.0,7.0,.0z"/><text style="fill:#000000;font-family:微软雅黑,PingFang SC,Mircrosoft YaHei,Arial;font-size:10.00pt" xml:space="preserve"><tspan x="57.0" style="font-family:微软雅黑,PingFang SC,Mircrosoft YaHei,Arial" y="16.2">小型高可用架构把应用和数据库分开到不同服务器，进一步提升可用性。</tspan><tspan x="14.7" style="font-family:微软雅黑,PingFang SC,Mircrosoft YaHei,Arial" y="34.2">应用服务器集群（2台+）完全分摊用户请求，且随时可以扩容缩容，也方便维护重启。</tspan><tspan x="10.4" style="font-family:微软雅黑,PingFang SC,Mircrosoft YaHei,Arial" y="52.2">小型应用的数据库压力不大，一般把中间件跟数据库部署到一起，甚至只用一台服务器。</tspan></text></g><g transform="translate(439.476776,454.800593)" id="group309"><path stroke="#868686" stroke-width="1" fill="#efefef" fill-rule="nonzero" id="shape310" d="M11.0,.0L132.3,.0C138.3,.0,143.3,4.9,143.3,11.0L143.3,140.7C143.3,146.8,138.3,151.7,132.3,151.7L11.0,151.7C4.9,151.7,.0,146.8,.0,140.7L.0,11.0C.0,4.9,4.9,.0,11.0,.0z"/><g transform="translate(14.325600,0.000000)" id="shape311"><path stroke="#868686" stroke-width="1" fill="none" d="M.0,30.0L114.6,30.0L.0,30.0z"/><text style="fill:#191919;font-family:微软雅黑,PingFang SC,Mircrosoft YaHei,Arial;font-size:10.00pt" xml:space="preserve"><tspan x="33.0" style="font-family:微软雅黑,PingFang SC,Mircrosoft YaHei,Arial" y="18.2">服务器B</tspan></text></g></g><g transform="translate(491.091026,526.884593)" id="group312"><path fill="#00c1de" fill-rule="nonzero" id="shape314" d="M36.5,37.9L3.6,37.9C1.6,37.9,.0,36.5,.0,34.5L.0,30.5C.0,28.5,1.6,27.0,3.6,27.0L36.5,27.0C38.4,27.0,40.0,28.5,40.0,30.5L40.0,34.5C40.0,36.5,38.4,37.9,36.5,37.9L36.5,37.9zM32.5,29.9C31.1,29.9,29.9,31.0,29.9,32.5C29.9,33.9,31.1,35.1,32.5,35.1C33.9,35.0,35.0,33.9,35.0,32.5C35.0,31.1,33.9,29.9,32.5,29.9L32.5,29.9zM36.5,24.4L3.6,24.4C1.6,24.4,.0,23.0,.0,21.0L.0,17.0C.0,15.0,1.6,13.5,3.6,13.5L36.5,13.5C38.4,13.5,40.0,15.0,40.0,17.0L40.0,21.0C40.0,23.0,38.4,24.4,36.5,24.4zM32.5,16.3C31.1,16.3,29.9,17.5,29.9,19.0C29.9,20.4,31.1,21.6,32.5,21.6C33.4,21.6,34.3,21.1,34.7,20.3C35.2,19.5,35.2,18.5,34.7,17.6C34.3,16.8,33.4,16.3,32.5,16.3L32.5,16.3zM36.5,10.9L3.6,10.9C1.6,10.9,.0,9.5,.0,7.5L.0,3.5C.0,1.5,1.6,.0,3.6,.0L36.5,.0C38.4,.0,40.0,1.5,40.0,3.5L40.0,7.5C40.0,9.5,38.4,10.9,36.5,10.9zM32.5,2.8C31.1,2.8,29.9,4.0,29.9,5.5C29.9,6.9,31.1,8.1,32.5,8.1C33.9,8.1,35.1,6.9,35.1,5.5C35.1,4.0,33.9,2.8,32.5,2.8z"/></g><g transform="translate(449.020476,490.017193)" id="shape315"><text style="fill:#191919;font-family:微软雅黑,PingFang SC,Mircrosoft YaHei,Arial;font-size:10.00pt" xml:space="preserve"><tspan x="36.5" style="font-family:微软雅黑,PingFang SC,Mircrosoft YaHei,Arial" y="21.7">应用系统</tspan></text></g><g transform="translate(285.650592,380.739195)" id="group316"><path stroke="#868686" stroke-width="1" fill="#e9f8f5" fill-rule="nonzero" id="shape317" d="M11.0,.0L80.7,.0C86.8,.0,91.7,4.9,91.7,11.0L91.7,111.5C91.7,117.5,86.8,122.5,80.7,122.5L11.0,122.5C4.9,122.5,.0,117.5,.0,111.5L.0,11.0C.0,4.9,4.9,.0,11.0,.0z"/></g><g transform="translate(296.035431,380.738295)" id="shape318"><text style="fill:#191919;font-family:微软雅黑,PingFang SC,Mircrosoft YaHei,Arial;font-size:10.00pt" xml:space="preserve"><tspan x="10.8" style="font-family:微软雅黑,PingFang SC,Mircrosoft YaHei,Arial" y="21.6">负载均衡</tspan></text></g><g transform="translate(296.035431,461.847295)" id="shape319"><text style="fill:#191919;font-family:微软雅黑,PingFang SC,Mircrosoft YaHei,Arial;font-size:10.00pt" xml:space="preserve"><tspan x="4.2" style="font-family:微软雅黑,PingFang SC,Mircrosoft YaHei,Arial" y="21.6">Nginx/SLB</tspan></text></g><g transform="translate(782.225676,650.812335)" id="shape320"><path stroke="#000000" stroke-width="0.3199999928474426" fill="none" d="M56.0,.0L.0,.0L.0,49.6L56.0,49.6"/><text style="fill:#000000;font-family:Arial,PingFang SC,Mircrosoft YaHei,Arial;font-size:12.00pt" xml:space="preserve"><tspan x="1.0" style="font-family:Arial,PingFang SC,Mircrosoft YaHei,Arial" y="19.9">大石头@新生命团队</tspan><tspan x="1.0" style="font-family:Arial,PingFang SC,Mircrosoft YaHei,Arial" y="38.6">https://newlifex.com</tspan></text></g><g transform="translate(661.289614,444.446201)" id="group321"><path stroke="#868686" stroke-width="1" fill="#efefef" fill-rule="nonzero" id="shape322" d="M11.0,.0L167.4,.0C173.5,.0,178.4,4.9,178.4,11.0L178.4,154.1C178.4,160.2,173.5,165.1,167.4,165.1L11.0,165.1C4.9,165.1,.0,160.2,.0,154.1L.0,11.0C.0,4.9,4.9,.0,11.0,.0z"/><g transform="translate(17.840503,0.000000)" id="shape323"><path stroke="#868686" stroke-width="1" fill="none" d="M.0,30.0L142.7,30.0L.0,30.0z"/><text style="fill:#191919;font-family:微软雅黑,PingFang SC,Mircrosoft YaHei,Arial;font-size:10.00pt" xml:space="preserve"><tspan x="47.0" style="font-family:微软雅黑,PingFang SC,Mircrosoft YaHei,Arial" y="18.2">数据库B</tspan></text></g></g><g transform="translate(661.289614,265.386201)" id="group324"><path stroke="#868686" stroke-width="1" fill="#efefef" fill-rule="nonzero" id="shape325" d="M11.0,.0L167.4,.0C173.5,.0,178.4,4.9,178.4,11.0L178.4,154.1C178.4,160.2,173.5,165.1,167.4,165.1L11.0,165.1C4.9,165.1,.0,160.2,.0,154.1L.0,11.0C.0,4.9,4.9,.0,11.0,.0z"/><g transform="translate(17.840503,0.000000)" id="shape326"><path stroke="#868686" stroke-width="1" fill="none" d="M.0,30.0L142.7,30.0L.0,30.0z"/><text style="fill:#191919;font-family:微软雅黑,PingFang SC,Mircrosoft YaHei,Arial;font-size:10.00pt" xml:space="preserve"><tspan x="46.7" style="font-family:微软雅黑,PingFang SC,Mircrosoft YaHei,Arial" y="18.2">数据库A</tspan></text></g></g><g transform="translate(665.289614,309.074001)" id="shape327"><text style="fill:#191919;font-family:微软雅黑,PingFang SC,Mircrosoft YaHei,Arial;font-size:10.00pt" xml:space="preserve"><tspan x="5.0" style="font-family:微软雅黑,PingFang SC,Mircrosoft YaHei,Arial" y="21.1">数据库（主）</tspan></text></g><g transform="translate(755.289614,309.074001)" id="shape328"><text style="fill:#191919;font-family:微软雅黑,PingFang SC,Mircrosoft YaHei,Arial;font-size:10.00pt" xml:space="preserve"><tspan x="3.0" style="font-family:微软雅黑,PingFang SC,Mircrosoft YaHei,Arial" y="21.6">Redis（主）</tspan></text></g><g transform="translate(665.289614,488.755851)" id="shape329"><text style="fill:#191919;font-family:微软雅黑,PingFang SC,Mircrosoft YaHei,Arial;font-size:10.00pt" xml:space="preserve"><tspan x="6.5" style="font-family:微软雅黑,PingFang SC,Mircrosoft YaHei,Arial" y="21.1">数据库（从）</tspan></text></g><g transform="translate(750.884583,487.634001)" id="shape330"><text style="fill:#191919;font-family:微软雅黑,PingFang SC,Mircrosoft YaHei,Arial;font-size:10.00pt" xml:space="preserve"><tspan x="7.4" style="font-family:微软雅黑,PingFang SC,Mircrosoft YaHei,Arial" y="21.7">Redis（从）</tspan></text></g><path stroke="#ebebeb" stroke-width="1" fill="#ebebeb" transform="matrix(0.000000,-1.000000,1.000000,0.000000,596.312226,386.860210)" fill-rule="nonzero" id="shape331" d="M19.6,.0L19.6,29.8L31.2,26.6L15.6,48.5L.0,26.6L11.5,29.8L11.5,.0L19.6,.0"/><path stroke="#ebebeb" stroke-width="1" fill="#ebebeb" transform="matrix(-0.866025,-0.500000,0.500000,-0.866025,611.978996,502.200478)" fill-rule="nonzero" id="shape332" d="M19.6,.0L19.6,62.8L31.2,59.6L15.6,81.5L.0,59.6L11.5,62.8L11.5,.0L19.6,.0"/><path stroke="#ebebeb" stroke-width="1" fill="#ebebeb" transform="matrix(-0.866025,-0.500000,0.500000,-0.866025,406.266298,446.051930)" fill-rule="nonzero" id="shape333" d="M19.6,.0L19.6,62.8L31.2,59.6L15.6,81.5L.0,59.6L11.5,62.8L11.5,.0L19.6,.0"/><path stroke="#ebebeb" stroke-width="1" fill="#ebebeb" transform="matrix(0.866025,-0.500000,0.500000,0.866025,383.213723,467.606306)" fill-rule="nonzero" id="shape334" d="M19.6,.0L19.6,52.9L31.2,49.8L15.6,71.6L.0,49.8L11.5,52.9L11.5,.0L19.6,.0"/><path stroke="#ebebeb" stroke-width="1" fill="#ebebeb" transform="matrix(0.000000,-1.000000,1.000000,0.000000,854.289614,455.265941)" fill-rule="nonzero" id="shape335" d="M19.6,.0L19.6,29.8L31.2,26.6L15.6,48.5L.0,26.6L11.5,29.8L11.5,.0L19.6,.0"/><g transform="translate(303.958081,412.904276)" id="group336"><path fill="#00c1de" fill-rule="nonzero" id="shape338" d="M46.6,26.9C44.9,27.0,43.4,27.4,41.9,28.1L35.9,19.0C38.2,17.0,39.6,14.1,39.6,10.9C39.5,4.9,34.6,.0,28.6,.0C22.6,.0,17.7,5.0,17.7,11.0C17.8,14.2,19.2,17.1,21.5,19.1L15.5,28.2C14.1,27.5,12.5,27.1,10.9,27.1C4.8,27.1,.0,32.1,.0,38.1C.0,44.1,4.9,48.9,11.0,48.9C16.5,48.9,21.0,44.8,21.7,39.5L35.9,39.4C36.7,44.7,41.2,48.8,46.7,48.8C52.7,48.8,57.6,43.8,57.6,37.8C57.6,31.8,52.6,26.9,46.6,26.9zM35.9,36.4L21.7,36.4C21.3,33.9,20.0,31.6,18.1,29.9L24.0,20.8C25.5,21.4,27.0,21.9,28.7,21.8C30.3,21.8,31.9,21.4,33.4,20.7L39.4,29.8C37.5,31.5,36.2,33.8,35.9,36.4z"/></g><g transform="translate(544.066676,391.623693)" id="group339"><g id="group340"><g id="group342"><path fill="#1c7b68" transform="translate(13.170380,10.034540)" fill-rule="nonzero" id="shape343" d="M.0,.0L2.5,.0L2.5,1.3L.0,1.3L.0,.0z"/><path fill="#1c7b68" transform="translate(4.528090,10.034540)" fill-rule="nonzero" id="shape344" d="M.0,.0L7.4,.0L7.4,1.3L.0,1.3L.0,.0z"/><path fill="#1c7b68" transform="translate(18.814800,18.814840)" fill-rule="nonzero" id="shape345" d="M.0,.0L9.4,.0L9.4,1.3L.0,1.3L.0,.0z"/><path fill="#1c7b68" transform="translate(15.051880,18.814840)" fill-rule="nonzero" id="shape346" d="M.0,.0L2.5,.0L2.5,1.3L.0,1.3L.0,.0z"/><path fill="#1c7b68" transform="translate(2.508600,7.528590)" fill-rule="nonzero" id="shape347" d="M6.3,15.0C6.1,15.0,6.0,15.0,5.9,14.9L.2,10.2C.1,10.1,.0,9.9,.0,9.7C.0,9.5,.1,9.3,.2,9.2L5.9,4.7C6.1,4.6,6.3,4.6,6.5,4.7C6.8,4.8,6.9,5.0,6.9,5.2L6.9,6.9L19.4,6.9C19.8,6.9,20.0,7.2,20.0,7.5L20.0,8.5L24.2,5.3L20.0,1.9L20.0,3.1C20.0,3.5,19.8,3.8,19.4,3.8L14.4,3.8L14.4,2.5L18.8,2.5L18.8,.6C18.8,.4,18.9,.2,19.1,.0C19.4,.0,19.6,.0,19.8,.1L25.6,4.8C25.7,5.0,25.8,5.1,25.8,5.3C25.8,5.5,25.7,5.7,25.6,5.8L19.8,10.3C19.6,10.5,19.4,10.5,19.1,10.4C18.9,10.3,18.8,10.1,18.8,9.8L18.8,8.2L6.3,8.2C5.9,8.2,5.6,7.9,5.6,7.5L5.6,6.5L1.6,9.7L5.6,13.1L5.6,11.9C5.6,11.6,5.9,11.3,6.3,11.3L11.3,11.3L11.3,12.5L6.9,12.5L6.9,14.4C6.9,14.7,6.8,14.9,6.5,15.0C6.5,15.0,6.4,15.0,6.3,15.0z"/><path fill="#1c7b68" fill-rule="nonzero" id="shape348" d="M27.3,31.4L4.0,31.4C1.8,31.4,.0,29.5,.0,27.3L.0,4.0C.0,1.8,1.8,.0,4.0,.0L27.3,.0C29.5,.0,31.4,1.8,31.4,4.0L31.4,27.3C31.4,29.5,29.5,31.4,27.3,31.4zM4.0,1.3C2.5,1.3,1.3,2.5,1.3,4.0L1.3,27.3C1.3,28.9,2.5,30.1,4.0,30.1L27.3,30.1C28.9,30.1,30.1,28.9,30.1,27.3L30.1,4.0C30.1,2.5,28.9,1.3,27.3,1.3L4.0,1.3z"/></g></g></g><g transform="translate(489.839676,400.981693)" id="shape350"><text style="fill:#191919;font-family:微软雅黑,PingFang SC,Mircrosoft YaHei,Arial;font-size:6.00pt" xml:space="preserve"><tspan x="14.0" style="font-family:微软雅黑,PingFang SC,Mircrosoft YaHei,Arial" y="15.1">星尘代理</tspan></text></g><g transform="translate(542.948276,572.352775)" id="group351"><g id="group352"><g id="group354"><path fill="#1c7b68" transform="translate(13.170380,10.034540)" fill-rule="nonzero" id="shape355" d="M.0,.0L2.5,.0L2.5,1.3L.0,1.3L.0,.0z"/><path fill="#1c7b68" transform="translate(4.528090,10.034540)" fill-rule="nonzero" id="shape356" d="M.0,.0L7.4,.0L7.4,1.3L.0,1.3L.0,.0z"/><path fill="#1c7b68" transform="translate(18.814800,18.814840)" fill-rule="nonzero" id="shape357" d="M.0,.0L9.4,.0L9.4,1.3L.0,1.3L.0,.0z"/><path fill="#1c7b68" transform="translate(15.051880,18.814840)" fill-rule="nonzero" id="shape358" d="M.0,.0L2.5,.0L2.5,1.3L.0,1.3L.0,.0z"/><path fill="#1c7b68" transform="translate(2.508600,7.528590)" fill-rule="nonzero" id="shape359" d="M6.3,15.0C6.1,15.0,6.0,15.0,5.9,14.9L.2,10.2C.1,10.1,.0,9.9,.0,9.7C.0,9.5,.1,9.3,.2,9.2L5.9,4.7C6.1,4.6,6.3,4.6,6.5,4.7C6.8,4.8,6.9,5.0,6.9,5.2L6.9,6.9L19.4,6.9C19.8,6.9,20.0,7.2,20.0,7.5L20.0,8.5L24.2,5.3L20.0,1.9L20.0,3.1C20.0,3.5,19.8,3.8,19.4,3.8L14.4,3.8L14.4,2.5L18.8,2.5L18.8,.6C18.8,.4,18.9,.2,19.1,.0C19.4,.0,19.6,.0,19.8,.1L25.6,4.8C25.7,5.0,25.8,5.1,25.8,5.3C25.8,5.5,25.7,5.7,25.6,5.8L19.8,10.3C19.6,10.5,19.4,10.5,19.1,10.4C18.9,10.3,18.8,10.1,18.8,9.8L18.8,8.2L6.3,8.2C5.9,8.2,5.6,7.9,5.6,7.5L5.6,6.5L1.6,9.7L5.6,13.1L5.6,11.9C5.6,11.6,5.9,11.3,6.3,11.3L11.3,11.3L11.3,12.5L6.9,12.5L6.9,14.4C6.9,14.7,6.8,14.9,6.5,15.0C6.5,15.0,6.4,15.0,6.3,15.0z"/><path fill="#1c7b68" fill-rule="nonzero" id="shape360" d="M27.3,31.4L4.0,31.4C1.8,31.4,.0,29.5,.0,27.3L.0,4.0C.0,1.8,1.8,.0,4.0,.0L27.3,.0C29.5,.0,31.4,1.8,31.4,4.0L31.4,27.3C31.4,29.5,29.5,31.4,27.3,31.4zM4.0,1.3C2.5,1.3,1.3,2.5,1.3,4.0L1.3,27.3C1.3,28.9,2.5,30.1,4.0,30.1L27.3,30.1C28.9,30.1,30.1,28.9,30.1,27.3L30.1,4.0C30.1,2.5,28.9,1.3,27.3,1.3L4.0,1.3z"/></g></g></g><g transform="translate(488.721276,581.710775)" id="shape362"><text style="fill:#191919;font-family:微软雅黑,PingFang SC,Mircrosoft YaHei,Arial;font-size:6.00pt" xml:space="preserve"><tspan x="14.0" style="font-family:微软雅黑,PingFang SC,Mircrosoft YaHei,Arial" y="15.1">星尘代理</tspan></text></g><g transform="translate(911.289614,298.391951)" id="group363"><path stroke="#868686" stroke-width="1" fill="#e9f8f5" fill-rule="nonzero" id="shape364" d="M11.0,.0L69.0,.0C75.1,.0,80.0,4.9,80.0,11.0L80.0,253.2C80.0,259.2,75.1,264.2,69.0,264.2L11.0,264.2C4.9,264.2,.0,259.2,.0,253.2L.0,11.0C.0,4.9,4.9,.0,11.0,.0z"/></g><g transform="translate(918.804614,335.258951)" id="group365"><path fill="#00c1de" fill-rule="nonzero" id="shape367" d="M54.9,.0C50.9,.0,47.7,3.2,47.7,7.2C47.7,8.4,48.0,9.5,48.5,10.5L36.9,22.0C36.2,21.6,35.5,21.5,34.8,21.5C34.3,21.5,33.9,21.6,33.5,21.7L28.8,15.3C28.8,15.0,28.8,14.8,28.8,14.6C28.8,12.2,26.9,10.3,24.6,10.3C22.2,10.3,20.3,12.2,20.3,14.6L20.3,14.7L13.5,21.3L7.9,21.3C7.1,20.0,5.8,19.2,4.3,19.2C1.9,19.2,.0,21.1,.0,23.5C.0,25.9,1.9,27.8,4.3,27.8C5.8,27.8,7.3,26.9,8.0,25.6L15.3,25.6L22.7,18.4C23.3,18.7,23.9,18.9,24.6,18.9C25.1,18.9,25.6,18.8,26.0,18.6L30.6,25.0C30.6,25.3,30.6,25.5,30.6,25.8C30.6,28.1,32.4,30.0,34.8,30.0C37.1,30.0,39.0,28.2,39.0,25.9L51.5,13.5C53.7,14.7,56.4,14.6,58.5,13.3C60.7,12.0,62.0,9.7,62.0,7.2C62.0,5.3,61.3,3.5,59.9,2.1C58.6,.8,56.8,.0,54.9,.0zM55.0,10.2C53.3,10.2,51.9,8.8,51.9,7.2C51.9,5.5,53.3,4.1,55.0,4.1C56.6,4.1,58.0,5.5,58.0,7.2C58.0,8.0,57.7,8.8,57.1,9.3C56.5,9.9,55.8,10.2,55.0,10.2L55.0,10.2z"/></g><g transform="translate(920.053814,298.391251)" id="shape368"><text style="fill:#191919;font-family:微软雅黑,PingFang SC,Mircrosoft YaHei,Arial;font-size:10.00pt;font-weight:bold" xml:space="preserve"><tspan x="4.6" style="font-family:微软雅黑,PingFang SC,Mircrosoft YaHei,Arial" y="21.6">星尘平台</tspan></text></g><g transform="translate(931.567614,365.481751)" id="shape369"><text style="fill:#191919;font-family:微软雅黑,PingFang SC,Mircrosoft YaHei,Arial;font-size:10.00pt" xml:space="preserve"><tspan x="6.4" style="font-family:微软雅黑,PingFang SC,Mircrosoft YaHei,Arial" y="14.0">监控</tspan></text></g><g transform="translate(927.289614,406.955951)" id="group370"><g id="group372"><path fill="#d86613" transform="translate(18.166000,0.302000)" fill-rule="nonzero" id="shape373" d="M4.5,30.5C2.8,30.5,1.7,30.4,1.3,30.4L1.0,30.4C.6,30.3,.2,29.9,.2,29.5C.0,27.5,.0,25.4,.0,23.4C.0,23.2,.0,22.9,.0,22.6L.1,22.1L2.2,22.3L2.1,22.8C2.1,23.0,2.1,23.3,2.1,23.5C2.0,25.1,2.0,26.8,2.1,28.4C5.2,28.6,15.9,28.9,22.0,22.6C28.2,16.3,27.9,5.2,27.7,2.1C24.7,1.9,13.9,1.7,7.9,8.0C7.7,8.1,7.6,8.3,7.4,8.4C7.4,8.5,7.3,8.6,7.2,8.7L5.6,7.4C5.7,7.3,5.7,7.2,5.8,7.1L6.3,6.5C14.2,-1.5,28.2,.1,28.8,.2C29.2,.2,29.6,.6,29.6,1.1C29.7,1.7,31.3,16.0,23.5,24.0C17.9,29.7,9.2,30.5,4.5,30.5z"/><path fill="#d86613" transform="translate(18.159000,0.301500)" fill-rule="nonzero" id="shape374" d="M1.4,30.3L1.3,30.3L1.0,30.3C.6,30.3,.2,29.9,.2,29.4C.0,27.0,.0,24.5,.2,22.1L2.2,22.3C2.1,24.0,2.0,25.8,2.1,27.6C6.7,24.1,11.1,20.2,15.2,16.0C19.4,11.7,23.3,7.0,26.8,2.1C22.9,1.9,13.4,2.2,7.8,8.0C7.6,8.2,7.4,8.4,7.2,8.7L5.6,7.4C5.8,7.1,6.1,6.8,6.4,6.5C14.2,-1.5,28.2,.1,28.8,.2C29.2,.2,29.5,.4,29.6,.8C29.8,1.1,29.7,1.5,29.5,1.8C25.7,7.4,21.4,12.6,16.6,17.5C12.1,22.1,7.2,26.4,2.0,30.2C1.8,30.3,1.6,30.3,1.4,30.3z"/><path fill="#d86613" transform="translate(18.175240,27.869600)" fill-rule="nonzero" id="shape375" d="M.0,.0L2.0,.0L2.0,20.1L.0,20.1L.0,.0z"/><path fill="#d86613" fill-rule="nonzero" id="shape376" d="M11.5,23.1C5.2,23.1,.0,18.0,.0,11.6C.0,5.2,5.2,.0,11.5,.0C17.9,.0,23.1,5.2,23.1,11.6C23.1,18.0,17.9,23.1,11.5,23.1zM11.5,2.0C6.3,2.0,2.0,6.3,2.0,11.5C2.0,16.8,6.3,21.1,11.5,21.1C16.8,21.1,21.0,16.8,21.0,11.5C21.0,6.3,16.8,2.0,11.5,2.0z"/><path fill="#d86613" transform="translate(10.530040,5.428760)" fill-rule="nonzero" id="shape377" d="M.0,.0L2.0,.0L2.0,13.6L.0,13.6L.0,.0z"/><path fill="#d86613" transform="translate(6.880720,3.965950)" fill-rule="nonzero" id="shape378" d="M7.9,5.7L4.7,2.5L1.4,5.7L.0,4.3L3.9,.3C4.3,.0,5.0,.0,5.4,.3L9.3,4.3L7.9,5.7z"/></g></g><g transform="translate(927.594614,486.207951)" id="group379"><path fill="#00c1de" fill-rule="nonzero" id="shape381" d="M39.7,32.2C37.9,32.2,36.3,33.7,36.3,35.6C36.3,37.4,37.7,39.0,39.7,39.0C41.5,39.0,43.0,37.6,43.0,35.6C43.0,33.7,41.6,32.2,39.7,32.2zM39.7,44.0C38.9,44.0,38.3,43.9,37.6,43.8L37.5,43.8C36.9,43.5,36.2,43.1,35.3,42.8C31.7,41.2,27.2,39.1,24.0,39.1C22.0,39.1,19.6,39.9,17.2,40.8C17.2,40.7,17.3,40.7,17.3,40.6C17.7,39.9,18.1,39.1,18.3,38.3C18.3,38.2,18.4,38.2,18.4,38.0C18.5,37.3,18.7,36.5,18.7,35.5C18.8,34.0,19.0,32.5,19.3,30.9C20.9,31.5,22.6,31.8,24.0,31.8C27.2,31.8,31.7,29.9,35.2,28.3C35.9,28.0,36.8,27.6,37.4,27.4C38.1,27.1,38.8,27.1,39.5,27.1C44.3,27.1,48.0,30.9,48.0,35.6C48.0,40.4,44.4,44.0,39.7,44.0zM11.4,37.0C12.3,35.4,11.7,33.3,10.2,32.4C8.6,31.4,6.5,32.0,5.6,33.6C4.6,35.1,5.2,37.2,6.8,38.2C8.3,39.2,10.4,38.7,11.4,37.0zM1.1,31.0C1.5,30.4,1.8,29.8,2.3,29.3L2.3,29.2C2.9,28.8,3.5,28.3,4.1,27.9C7.3,25.5,11.2,22.6,12.8,19.7C13.8,18.0,14.4,15.5,14.7,12.9C14.7,13.0,14.9,13.0,14.9,13.1C15.2,13.9,15.8,14.6,16.3,15.2C16.3,15.3,16.4,15.3,16.6,15.5C17.2,15.9,17.9,16.4,18.6,17.0C19.7,17.9,21.0,18.9,22.4,19.8C21.0,21.0,19.9,22.3,19.2,23.5C17.6,26.3,17.0,31.1,16.7,35.0C16.6,35.9,16.6,36.7,16.4,37.3C16.2,38.1,16.0,38.7,15.6,39.3C13.3,43.3,8.1,44.7,4.1,42.4C.3,40.4,-1.2,35.1,1.1,31.0zM21.1,10.2C22.0,11.7,24.1,12.4,25.7,11.4C27.2,10.4,27.8,8.3,26.9,6.8C25.9,5.2,23.8,4.6,22.3,5.6C20.7,6.4,20.1,8.5,21.1,10.2zM31.3,4.2C31.7,4.8,31.9,5.4,32.2,6.2L32.2,6.3C32.3,7.0,32.3,7.7,32.4,8.6C32.9,12.5,33.4,17.5,35.0,20.3C35.9,22.0,37.7,23.8,39.8,25.4L39.5,25.4C38.7,25.4,37.9,25.5,37.0,25.7C36.9,25.7,36.9,25.7,36.8,25.8C36.0,26.1,35.3,26.5,34.5,26.8C33.1,27.4,31.7,28.0,30.1,28.6C29.8,26.9,29.3,25.2,28.6,24.0C27.0,21.2,23.0,18.3,19.9,16.0C19.1,15.5,18.5,15.0,17.9,14.5C17.4,14.1,17.0,13.5,16.6,12.8C14.3,8.8,15.6,3.6,19.7,1.3C23.8,-1.3,29.0,.1,31.3,4.2z"/></g><g transform="translate(927.595514,454.956151)" id="shape382"><text style="fill:#191919;font-family:微软雅黑,PingFang SC,Mircrosoft YaHei,Arial;font-size:10.00pt" xml:space="preserve"><tspan x="8.4" style="font-family:微软雅黑,PingFang SC,Mircrosoft YaHei,Arial" y="14.0">发布</tspan></text></g><g transform="translate(931.567214,530.207951)" id="shape383"><text style="fill:#191919;font-family:微软雅黑,PingFang SC,Mircrosoft YaHei,Arial;font-size:10.00pt" xml:space="preserve"><tspan x="6.8" style="font-family:微软雅黑,PingFang SC,Mircrosoft YaHei,Arial" y="14.6">配置</tspan></text></g><g transform="translate(761.090645,353.800901)" id="group384"><path fill="#00c1de" fill-rule="nonzero" id="shape386" d="M24.1,3.5L18.6,5.3L15.1,3.3L24.2,.0L33.4,3.3L29.9,5.3L24.1,3.5L24.1,3.5zM24.2,14.3L29.7,12.4L33.3,14.5L24.1,17.7L14.9,14.4L18.4,12.4L24.2,14.3zM15.8,11.5L12.1,13.3L.1,8.9L12.3,4.4L15.8,6.5L9.2,8.9L15.8,11.5L15.8,11.5zM39.3,8.9L32.7,6.5L36.3,4.4L48.5,8.9L36.5,13.3L32.7,11.5L39.3,8.9zM24.2,24.7L.1,15.3L.0,10.5L24.2,19.9L48.4,10.6L48.4,15.4L24.2,24.7zM24.2,26.5L48.5,17.2L48.5,22.0L24.2,31.3L.1,21.9L.1,17.1L24.2,26.5zM.1,23.7L24.2,33.1L48.5,23.8L48.5,28.7L24.2,37.9L.1,28.5L.1,23.7L.1,23.7z"/></g><g transform="translate(684.273614,349.721701)" id="group387"><path fill="#00c1de" transform="translate(0.016000,0.000000)" fill-rule="nonzero" id="shape389" d="M46.0,9.0C44.8,9.6,40.5,9.8,40.6,10.8C40.6,11.0,40.7,11.0,40.7,11.1C44.5,18.9,43.8,28.0,36.8,37.6C35.8,38.9,34.6,40.1,33.3,41.1C32.4,41.6,32.1,41.9,31.5,42.0C34.8,37.5,36.4,31.5,35.0,25.7C33.8,20.4,30.4,16.2,26.0,13.5L25.8,13.5C25.7,13.5,25.6,13.7,25.6,13.7C25.2,14.8,25.3,18.3,24.6,18.6C23.6,18.8,21.9,16.7,20.9,13.7C20.5,12.1,20.5,11.4,20.6,11.0L20.6,10.8L20.5,10.7C17.6,9.6,15.3,9.0,14.8,8.9C13.7,8.5,10.4,7.6,11.3,6.1C12.4,4.4,14.9,4.0,16.8,3.5C18.1,1.4,21.3,.1,23.6,.0C25.9,.0,31.6,1.2,35.9,5.0C36.0,5.0,36.4,5.1,36.5,5.1C39.4,4.8,46.5,7.9,46.0,9.0zM29.7,29.3L32.8,24.4C32.4,23.7,32.2,23.0,31.8,22.4L28.6,27.4L22.3,27.4L25.9,33.1L21.7,39.7L13.3,39.7L9.0,33.0L12.7,27.3L6.4,27.3L2.2,20.6L6.4,14.0L14.8,14.0L17.4,18.1L19.0,15.5C18.9,15.4,18.9,15.2,18.8,15.1C18.6,14.1,18.4,13.4,18.4,12.8L17.4,14.5L15.9,12.1L5.4,12.1L.0,20.8L5.4,29.3L9.3,29.3L6.9,33.1L12.3,41.6L22.9,41.6L28.3,33.1L25.9,29.3L29.7,29.3z"/></g><g transform="translate(761.090645,524.623251)" id="group390"><path fill="#00c1de" fill-rule="nonzero" id="shape392" d="M24.1,3.5L18.6,5.3L15.1,3.3L24.2,.0L33.4,3.3L29.9,5.3L24.1,3.5L24.1,3.5zM24.2,14.3L29.7,12.4L33.3,14.5L24.1,17.7L14.9,14.4L18.4,12.4L24.2,14.3zM15.8,11.5L12.1,13.3L.1,8.9L12.3,4.4L15.8,6.5L9.2,8.9L15.8,11.5L15.8,11.5zM39.3,8.9L32.7,6.5L36.3,4.4L48.5,8.9L36.5,13.3L32.7,11.5L39.3,8.9zM24.2,24.7L.1,15.3L.0,10.5L24.2,19.9L48.4,10.6L48.4,15.4L24.2,24.7zM24.2,26.5L48.5,17.2L48.5,22.0L24.2,31.3L.1,21.9L.1,17.1L24.2,26.5zM.1,23.7L24.2,33.1L48.5,23.8L48.5,28.7L24.2,37.9L.1,28.5L.1,23.7L.1,23.7z"/></g><g transform="translate(684.273614,525.376001)" id="group393"><path fill="#00c1de" transform="translate(0.016000,0.000000)" fill-rule="nonzero" id="shape395" d="M46.0,9.0C44.8,9.6,40.5,9.8,40.6,10.8C40.6,11.0,40.7,11.0,40.7,11.1C44.5,18.9,43.8,28.0,36.8,37.6C35.8,38.9,34.6,40.1,33.3,41.1C32.4,41.6,32.1,41.9,31.5,42.0C34.8,37.5,36.4,31.5,35.0,25.7C33.8,20.4,30.4,16.2,26.0,13.5L25.8,13.5C25.7,13.5,25.6,13.7,25.6,13.7C25.2,14.8,25.3,18.3,24.6,18.6C23.6,18.8,21.9,16.7,20.9,13.7C20.5,12.1,20.5,11.4,20.6,11.0L20.6,10.8L20.5,10.7C17.6,9.6,15.3,9.0,14.8,8.9C13.7,8.5,10.4,7.6,11.3,6.1C12.4,4.4,14.9,4.0,16.8,3.5C18.1,1.4,21.3,.1,23.6,.0C25.9,.0,31.6,1.2,35.9,5.0C36.0,5.0,36.4,5.1,36.5,5.1C39.4,4.8,46.5,7.9,46.0,9.0zM29.7,29.3L32.8,24.4C32.4,23.7,32.2,23.0,31.8,22.4L28.6,27.4L22.3,27.4L25.9,33.1L21.7,39.7L13.3,39.7L9.0,33.0L12.7,27.3L6.4,27.3L2.2,20.6L6.4,14.0L14.8,14.0L17.4,18.1L19.0,15.5C18.9,15.4,18.9,15.2,18.8,15.1C18.6,14.1,18.4,13.4,18.4,12.8L17.4,14.5L15.9,12.1L5.4,12.1L.0,20.8L5.4,29.3L9.3,29.3L6.9,33.1L12.3,41.6L22.9,41.6L28.3,33.1L25.9,29.3L29.7,29.3z"/></g><g transform="translate(803.931614,394.615201)" id="group396"><g id="group397"><g id="group399"><path fill="#1c7b68" transform="translate(13.170380,10.034540)" fill-rule="nonzero" id="shape400" d="M.0,.0L2.5,.0L2.5,1.3L.0,1.3L.0,.0z"/><path fill="#1c7b68" transform="translate(4.528090,10.034540)" fill-rule="nonzero" id="shape401" d="M.0,.0L7.4,.0L7.4,1.3L.0,1.3L.0,.0z"/><path fill="#1c7b68" transform="translate(18.814800,18.814840)" fill-rule="nonzero" id="shape402" d="M.0,.0L9.4,.0L9.4,1.3L.0,1.3L.0,.0z"/><path fill="#1c7b68" transform="translate(15.051880,18.814840)" fill-rule="nonzero" id="shape403" d="M.0,.0L2.5,.0L2.5,1.3L.0,1.3L.0,.0z"/><path fill="#1c7b68" transform="translate(2.508600,7.528590)" fill-rule="nonzero" id="shape404" d="M6.3,15.0C6.1,15.0,6.0,15.0,5.9,14.9L.2,10.2C.1,10.1,.0,9.9,.0,9.7C.0,9.5,.1,9.3,.2,9.2L5.9,4.7C6.1,4.6,6.3,4.6,6.5,4.7C6.8,4.8,6.9,5.0,6.9,5.2L6.9,6.9L19.4,6.9C19.8,6.9,20.0,7.2,20.0,7.5L20.0,8.5L24.2,5.3L20.0,1.9L20.0,3.1C20.0,3.5,19.8,3.8,19.4,3.8L14.4,3.8L14.4,2.5L18.8,2.5L18.8,.6C18.8,.4,18.9,.2,19.1,.0C19.4,.0,19.6,.0,19.8,.1L25.6,4.8C25.7,5.0,25.8,5.1,25.8,5.3C25.8,5.5,25.7,5.7,25.6,5.8L19.8,10.3C19.6,10.5,19.4,10.5,19.1,10.4C18.9,10.3,18.8,10.1,18.8,9.8L18.8,8.2L6.3,8.2C5.9,8.2,5.6,7.9,5.6,7.5L5.6,6.5L1.6,9.7L5.6,13.1L5.6,11.9C5.6,11.6,5.9,11.3,6.3,11.3L11.3,11.3L11.3,12.5L6.9,12.5L6.9,14.4C6.9,14.7,6.8,14.9,6.5,15.0C6.5,15.0,6.4,15.0,6.3,15.0z"/><path fill="#1c7b68" fill-rule="nonzero" id="shape405" d="M27.3,31.4L4.0,31.4C1.8,31.4,.0,29.5,.0,27.3L.0,4.0C.0,1.8,1.8,.0,4.0,.0L27.3,.0C29.5,.0,31.4,1.8,31.4,4.0L31.4,27.3C31.4,29.5,29.5,31.4,27.3,31.4zM4.0,1.3C2.5,1.3,1.3,2.5,1.3,4.0L1.3,27.3C1.3,28.9,2.5,30.1,4.0,30.1L27.3,30.1C28.9,30.1,30.1,28.9,30.1,27.3L30.1,4.0C30.1,2.5,28.9,1.3,27.3,1.3L4.0,1.3z"/></g></g></g><g transform="translate(749.704614,403.973201)" id="shape407"><text style="fill:#191919;font-family:微软雅黑,PingFang SC,Mircrosoft YaHei,Arial;font-size:6.00pt" xml:space="preserve"><tspan x="14.0" style="font-family:微软雅黑,PingFang SC,Mircrosoft YaHei,Arial" y="15.1">星尘代理</tspan></text></g><g transform="translate(803.931614,573.675201)" id="group408"><g id="group409"><g id="group411"><path fill="#1c7b68" transform="translate(13.170380,10.034540)" fill-rule="nonzero" id="shape412" d="M.0,.0L2.5,.0L2.5,1.3L.0,1.3L.0,.0z"/><path fill="#1c7b68" transform="translate(4.528090,10.034540)" fill-rule="nonzero" id="shape413" d="M.0,.0L7.4,.0L7.4,1.3L.0,1.3L.0,.0z"/><path fill="#1c7b68" transform="translate(18.814800,18.814840)" fill-rule="nonzero" id="shape414" d="M.0,.0L9.4,.0L9.4,1.3L.0,1.3L.0,.0z"/><path fill="#1c7b68" transform="translate(15.051880,18.814840)" fill-rule="nonzero" id="shape415" d="M.0,.0L2.5,.0L2.5,1.3L.0,1.3L.0,.0z"/><path fill="#1c7b68" transform="translate(2.508600,7.528590)" fill-rule="nonzero" id="shape416" d="M6.3,15.0C6.1,15.0,6.0,15.0,5.9,14.9L.2,10.2C.1,10.1,.0,9.9,.0,9.7C.0,9.5,.1,9.3,.2,9.2L5.9,4.7C6.1,4.6,6.3,4.6,6.5,4.7C6.8,4.8,6.9,5.0,6.9,5.2L6.9,6.9L19.4,6.9C19.8,6.9,20.0,7.2,20.0,7.5L20.0,8.5L24.2,5.3L20.0,1.9L20.0,3.1C20.0,3.5,19.8,3.8,19.4,3.8L14.4,3.8L14.4,2.5L18.8,2.5L18.8,.6C18.8,.4,18.9,.2,19.1,.0C19.4,.0,19.6,.0,19.8,.1L25.6,4.8C25.7,5.0,25.8,5.1,25.8,5.3C25.8,5.5,25.7,5.7,25.6,5.8L19.8,10.3C19.6,10.5,19.4,10.5,19.1,10.4C18.9,10.3,18.8,10.1,18.8,9.8L18.8,8.2L6.3,8.2C5.9,8.2,5.6,7.9,5.6,7.5L5.6,6.5L1.6,9.7L5.6,13.1L5.6,11.9C5.6,11.6,5.9,11.3,6.3,11.3L11.3,11.3L11.3,12.5L6.9,12.5L6.9,14.4C6.9,14.7,6.8,14.9,6.5,15.0C6.5,15.0,6.4,15.0,6.3,15.0z"/><path fill="#1c7b68" fill-rule="nonzero" id="shape417" d="M27.3,31.4L4.0,31.4C1.8,31.4,.0,29.5,.0,27.3L.0,4.0C.0,1.8,1.8,.0,4.0,.0L27.3,.0C29.5,.0,31.4,1.8,31.4,4.0L31.4,27.3C31.4,29.5,29.5,31.4,27.3,31.4zM4.0,1.3C2.5,1.3,1.3,2.5,1.3,4.0L1.3,27.3C1.3,28.9,2.5,30.1,4.0,30.1L27.3,30.1C28.9,30.1,30.1,28.9,30.1,27.3L30.1,4.0C30.1,2.5,28.9,1.3,27.3,1.3L4.0,1.3z"/></g></g></g><g transform="translate(749.704614,583.033201)" id="shape419"><text style="fill:#191919;font-family:微软雅黑,PingFang SC,Mircrosoft YaHei,Arial;font-size:6.00pt" xml:space="preserve"><tspan x="14.0" style="font-family:微软雅黑,PingFang SC,Mircrosoft YaHei,Arial" y="15.1">星尘代理</tspan></text></g><g transform="translate(139.804212,571.918691)" id="table420"><g><path stroke="#191919" stroke-width="1" fill="#ffffff" d="M.0,.0L275.9,.0L275.9,30.0L.0,30.0L.0,.0z"/><text style="fill:#000000;font-family:Arial,PingFang SC,Mircrosoft YaHei,Arial;font-size:8.00pt" xml:space="preserve"><tspan x="7.7" style="font-family:Arial,PingFang SC,Mircrosoft YaHei,Arial" y="17.0">3到4台服务器，应用独占2台，数据库使用1到2台</tspan></text></g><g><path stroke="#191919" stroke-width="1" fill="#ffffff" d="M.0,30.0L275.9,30.0L275.9,62.2L.0,62.2L.0,30.0z"/><text style="fill:#000000;font-family:Arial,PingFang SC,Mircrosoft YaHei,Arial;font-size:8.00pt" xml:space="preserve"><tspan x="7.7" style="font-family:Arial,PingFang SC,Mircrosoft YaHei,Arial" y="48.1">应用与数据库分离，进一步提升性能</tspan></text></g><g><path stroke="#191919" stroke-width="1" fill="#ffffff" d="M.0,62.2L275.9,62.2L275.9,93.2L.0,93.2L.0,62.2z"/><text style="fill:#000000;font-family:Arial,PingFang SC,Mircrosoft YaHei,Arial;font-size:8.00pt" xml:space="preserve"><tspan x="7.7" style="font-family:Arial,PingFang SC,Mircrosoft YaHei,Arial" y="79.7">Redis使用主从架构，从机打开持久化，主机不开</tspan></text></g><g><path stroke="#191919" stroke-width="1" fill="#ffffff" d="M.0,93.2L275.9,93.2L275.9,124.2L.0,124.2L.0,93.2z"/><text style="fill:#000000;font-family:Arial,PingFang SC,Mircrosoft YaHei,Arial;font-size:8.00pt" xml:space="preserve"><tspan x="7.7" style="font-family:Arial,PingFang SC,Mircrosoft YaHei,Arial" y="110.7">MQ中间件出现，推荐使用RedisStream作为消息队列</tspan></text></g><g><path stroke="#191919" stroke-width="1" fill="#ffffff" d="M.0,124.2L275.9,124.2L275.9,155.2L.0,155.2L.0,124.2z"/><text style="fill:#000000;font-family:Arial,PingFang SC,Mircrosoft YaHei,Arial;font-size:8.00pt" xml:space="preserve"><tspan x="7.7" style="font-family:Arial,PingFang SC,Mircrosoft YaHei,Arial" y="141.7">服务器和应用接入星尘，方便监控和发布</tspan></text></g></g><g transform="translate(425.305513,64.625309)" id="shape421"><text style="fill:#191919;font-family:微软雅黑,PingFang SC,Mircrosoft YaHei,Arial;font-size:26.00pt;font-weight:bold" xml:space="preserve"><tspan x="3.1" style="font-family:微软雅黑,PingFang SC,Mircrosoft YaHei,Arial" y="66.3">小型高可用架构</tspan></text></g></g></svg>