<svg height="804" width="1132" viewBox="0 0 1132 804" xmlns:ev="http://www.w3.org/2001/xml-events" xmlns:xlink="http://www.w3.org/1999/xlink" xmlns="http://www.w3.org/2000/svg"><defs><linearGradient x2="0%" x1="0%" y2="100%" id="lg1" y1="0%"><stop offset="0.00" stop-color="#4a4a4a"/><stop offset="1.00" stop-color="#2a2a2a"/></linearGradient><linearGradient x2="0%" x1="100%" y2="0%" id="lg2" y1="0%"><stop offset="0.00" stop-color="#272727"/><stop offset="0.79" stop-color="#373737"/><stop offset="1.00" stop-color="#1d1d1d"/></linearGradient><linearGradient x2="0%" x1="100%" y2="0%" id="lg3" y1="0%"><stop offset="0.00" stop-color="#272727"/><stop offset="0.83" stop-color="#383838"/><stop offset="1.00" stop-color="#1d1d1d"/></linearGradient><linearGradient x2="0%" x1="100%" y2="0%" id="lg4" y1="0%"><stop offset="0.00" stop-color="#272727"/><stop offset="0.13" stop-color="#373737"/><stop offset="1.00" stop-color="#1d1d1d"/></linearGradient><linearGradient x2="-2" gradientUnits="userSpaceOnUse" x1="15" y2="22" id="lg5" y1="24"><stop stop-opacity="0.25" offset="0.00" stop-color="#ffffff"/><stop stop-opacity="0.00" offset="0.44" stop-color="#686868"/></linearGradient><radialGradient r="4.6" gradientUnits="userSpaceOnUse" fx="0" fy="0" cy="0" id="rg1" cx="0"><stop offset="0.00" stop-color="#404040"/><stop offset="0.50" stop-color="#d8d8d8"/><stop offset="1.00" stop-color="#404040"/></radialGradient><linearGradient x2="0%" x1="0%" y2="100%" id="lg6" y1="0%"><stop offset="0.00" stop-color="#000000"/><stop offset="1.00" stop-color="#000000"/></linearGradient><linearGradient x2="0%" x1="0%" y2="100%" id="lg7" y1="0%"><stop stop-opacity="0.39" offset="0.09" stop-color="#ffffff"/><stop stop-opacity="0.00" offset="0.36" stop-color="#ffffff"/></linearGradient><radialGradient r="7.7" gradientUnits="userSpaceOnUse" fx="0" fy="-0" cy="-0" id="rg2" cx="0"><stop offset="0.00" stop-color="#a5a5a5"/><stop offset="0.83" stop-color="#383b3b"/><stop offset="1.00" stop-color="#383b3b"/></radialGradient><linearGradient x2="0%" x1="100%" y2="0%" id="lg8" y1="0%"><stop offset="0.00" stop-color="#d8d8d8"/><stop offset="1.00" stop-color="#bfbfbf"/></linearGradient><radialGradient r="2.1" gradientUnits="userSpaceOnUse" fx="0" fy="0" cy="0" id="rg3" cx="0"><stop offset="0.00" stop-color="#daeafd"/><stop offset="0.71" stop-color="#a8b1b2"/><stop offset="1.00" stop-color="#a8b1b2"/></radialGradient><linearGradient x2="0%" x1="0%" y2="100%" id="lg9" y1="0%"><stop offset="0.00" stop-color="#a5a5a5"/><stop offset="1.00" stop-color="#0c0c0c"/></linearGradient><radialGradient r="46.6" gradientUnits="userSpaceOnUse" fx="0" fy="0" cy="0" id="rg4" cx="0"><stop offset="0.00" stop-color="#383b3b"/><stop offset="0.99" stop-color="#e1ecee"/><stop offset="1.00" stop-color="#e1ecee"/></radialGradient><linearGradient x2="0%" x1="0%" y2="100%" id="lg10" y1="0%"><stop offset="0.00" stop-color="#e1ecee"/><stop offset="1.00" stop-color="#262626"/></linearGradient><linearGradient x2="100%" x1="0%" y2="0%" id="lg11" y1="0%"><stop offset="0.00" stop-color="#383b3b"/><stop offset="1.00" stop-color="#161717"/></linearGradient><linearGradient x2="100%" x1="0%" y2="0%" id="lg12" y1="0%"><stop offset="0.00" stop-color="#cad4d6"/><stop offset="1.00" stop-color="#707677"/></linearGradient><linearGradient x2="100%" x1="0%" y2="0%" id="lg13" y1="0%"><stop offset="0.00" stop-color="#2e2e2e"/><stop offset="0.30" stop-color="#4c4c4c"/><stop offset="1.00" stop-color="#1e1e1e"/></linearGradient><linearGradient x2="17" gradientUnits="userSpaceOnUse" x1="13" y2="-5" id="lg14" y1="7"><stop stop-opacity="0.33" offset="0.00" stop-color="#ffffff"/><stop stop-opacity="0.02" offset="0.40" stop-color="#000000"/></linearGradient><linearGradient x2="100%" x1="0%" y2="0%" id="lg15" y1="0%"><stop offset="0.00" stop-color="#2e2e2e"/><stop offset="0.29" stop-color="#3f3f3f"/><stop offset="1.00" stop-color="#1e1e1e"/></linearGradient><linearGradient x2="0%" x1="0%" y2="100%" id="lg16" y1="0%"><stop offset="0.00" stop-color="#3498db"/><stop offset="1.00" stop-color="#1a567f"/></linearGradient><linearGradient x2="17" gradientUnits="userSpaceOnUse" x1="13" y2="-5" id="lg17" y1="8"><stop stop-opacity="0.23" offset="0.00" stop-color="#ffffff"/><stop stop-opacity="0.02" offset="0.40" stop-color="#000000"/></linearGradient><linearGradient x2="100%" x1="0%" y2="0%" id="lg18" y1="0%"><stop offset="0.00" stop-color="#cccccc"/><stop offset="0.08" stop-color="#dadada"/><stop offset="0.21" stop-color="#dddddd"/><stop offset="0.29" stop-color="#b8b8b8"/><stop offset="0.34" stop-color="#9b9b9b"/><stop offset="0.48" stop-color="#b4b4b4"/></linearGradient><linearGradient x2="100%" x1="0%" y2="0%" id="lg19" y1="0%"><stop offset="0.00" stop-color="#8a8a8a"/><stop offset="0.18" stop-color="#adadad"/><stop offset="0.38" stop-color="#f8f8f8"/><stop offset="0.62" stop-color="#d8d8d8"/><stop offset="0.86" stop-color="#e0e0e0"/><stop offset="1.00" stop-color="#e0e0e0"/></linearGradient><linearGradient x2="100%" x1="0%" y2="0%" id="lg20" y1="0%"><stop offset="0.00" stop-color="#000000"/><stop offset="1.00" stop-color="#404040"/></linearGradient><linearGradient x2="0%" x1="0%" y2="100%" id="lg21" y1="0%"><stop stop-opacity="0.20" offset="0.00" stop-color="#ffffff"/><stop stop-opacity="0.06" offset="0.40" stop-color="#ffffff"/><stop stop-opacity="0.00" offset="1.00" stop-color="#ffffff"/></linearGradient><linearGradient x2="26" gradientUnits="userSpaceOnUse" x1="18" y2="42" id="lg22" y1="-3"><stop stop-opacity="0.15" offset="0.14" stop-color="#0099d2"/><stop offset="0.93" stop-color="#007faf"/></linearGradient><linearGradient x2="26" gradientUnits="userSpaceOnUse" x1="18" y2="42" id="lg23" y1="-3"><stop stop-opacity="0.15" offset="0.14" stop-color="#00c044"/><stop offset="0.93" stop-color="#009d4b"/></linearGradient><linearGradient x2="100%" x1="0%" y2="0%" id="lg24" y1="0%"><stop offset="0.00" stop-color="#009970"/><stop offset="0.69" stop-color="#95e2cd"/></linearGradient></defs><g transform="translate(5.5,5.5)" id="page1"><rect x="0" height="794" width="1123" fill="none" y="0"/><g transform="translate(493.553042,258.053325)" id="group1"><path stroke="#868686" stroke-width="1" fill="#efefef" fill-rule="nonzero" id="shape2" d="M11.0,.0L283.9,.0C289.9,.0,294.9,4.9,294.9,11.0L294.9,154.1C294.9,160.2,289.9,165.1,283.9,165.1L11.0,165.1C4.9,165.1,.0,160.2,.0,154.1L.0,11.0C.0,4.9,4.9,.0,11.0,.0z"/><g transform="translate(29.487578,0.000000)" id="shape3"><path stroke="#868686" stroke-width="1" fill="none" d="M.0,30.0L235.9,30.0L.0,30.0z"/><text style="fill:#191919;font-family:微软雅黑,PingFang SC,Mircrosoft YaHei,Arial;font-size:10.00pt" xml:space="preserve"><tspan x="93.3" style="font-family:微软雅黑,PingFang SC,Mircrosoft YaHei,Arial" y="18.2">服务器A</tspan></text></g></g><g transform="translate(523.573292,348.588125)" id="group4"><path fill="#00c1de" fill-rule="nonzero" id="shape6" d="M36.5,37.9L3.6,37.9C1.6,37.9,.0,36.5,.0,34.5L.0,30.5C.0,28.5,1.6,27.0,3.6,27.0L36.5,27.0C38.4,27.0,40.0,28.5,40.0,30.5L40.0,34.5C40.0,36.5,38.4,37.9,36.5,37.9L36.5,37.9zM32.5,29.9C31.1,29.9,29.9,31.0,29.9,32.5C29.9,33.9,31.1,35.1,32.5,35.1C33.9,35.0,35.0,33.9,35.0,32.5C35.0,31.1,33.9,29.9,32.5,29.9L32.5,29.9zM36.5,24.4L3.6,24.4C1.6,24.4,.0,23.0,.0,21.0L.0,17.0C.0,15.0,1.6,13.5,3.6,13.5L36.5,13.5C38.4,13.5,40.0,15.0,40.0,17.0L40.0,21.0C40.0,23.0,38.4,24.4,36.5,24.4zM32.5,16.3C31.1,16.3,29.9,17.5,29.9,19.0C29.9,20.4,31.1,21.6,32.5,21.6C33.4,21.6,34.3,21.1,34.7,20.3C35.2,19.5,35.2,18.5,34.7,17.6C34.3,16.8,33.4,16.3,32.5,16.3L32.5,16.3zM36.5,10.9L3.6,10.9C1.6,10.9,.0,9.5,.0,7.5L.0,3.5C.0,1.5,1.6,.0,3.6,.0L36.5,.0C38.4,.0,40.0,1.5,40.0,3.5L40.0,7.5C40.0,9.5,38.4,10.9,36.5,10.9zM32.5,2.8C31.1,2.8,29.9,4.0,29.9,5.5C29.9,6.9,31.1,8.1,32.5,8.1C33.9,8.1,35.1,6.9,35.1,5.5C35.1,4.0,33.9,2.8,32.5,2.8z"/></g><g transform="translate(511.073825,301.241125)" id="shape7"><text style="fill:#191919;font-family:微软雅黑,PingFang SC,Mircrosoft YaHei,Arial;font-size:10.00pt" xml:space="preserve"><tspan x="4.2" style="font-family:微软雅黑,PingFang SC,Mircrosoft YaHei,Arial" y="21.6">应用（主）</tspan></text></g><g transform="translate(247.672825,168.095175)" id="shape8"><path stroke="#00aeee" stroke-width="5.666669845581055" fill="#ffffff" fill-rule="nonzero" d="M7.0,.0L533.8,.0C537.6,.0,540.8,3.1,540.8,7.0L540.8,50.0C540.8,53.9,537.6,57.0,533.8,57.0L7.0,57.0C3.1,57.0,.0,53.9,.0,50.0L.0,7.0C.0,3.1,3.1,.0,7.0,.0z"/><text style="fill:#000000;font-family:微软雅黑,PingFang SC,Mircrosoft YaHei,Arial;font-size:10.00pt" xml:space="preserve"><tspan x="70.4" style="font-family:微软雅黑,PingFang SC,Mircrosoft YaHei,Arial" y="22.2">双机最小高可用架构，在成本受限的情况下提供一定的高可用能力。</tspan><tspan x="17.0" style="font-family:微软雅黑,PingFang SC,Mircrosoft YaHei,Arial" y="40.2">两台服务器，应用和数据库互为主备，既分摊了压力也避免单点故障（需手工切换）。</tspan></text></g><g transform="translate(493.553042,437.113325)" id="group9"><path stroke="#868686" stroke-width="1" fill="#efefef" fill-rule="nonzero" id="shape10" d="M11.0,.0L283.9,.0C289.9,.0,294.9,4.9,294.9,11.0L294.9,154.1C294.9,160.2,289.9,165.1,283.9,165.1L11.0,165.1C4.9,165.1,.0,160.2,.0,154.1L.0,11.0C.0,4.9,4.9,.0,11.0,.0z"/><g transform="translate(29.487578,0.000000)" id="shape11"><path stroke="#868686" stroke-width="1" fill="none" d="M.0,30.0L235.9,30.0L.0,30.0z"/><text style="fill:#191919;font-family:微软雅黑,PingFang SC,Mircrosoft YaHei,Arial;font-size:10.00pt" xml:space="preserve"><tspan x="93.6" style="font-family:微软雅黑,PingFang SC,Mircrosoft YaHei,Arial" y="18.2">服务器B</tspan></text></g></g><g transform="translate(480.385542,480.301025)" id="shape12"><text style="fill:#191919;font-family:微软雅黑,PingFang SC,Mircrosoft YaHei,Arial;font-size:10.00pt" xml:space="preserve"><tspan x="29.9" style="font-family:微软雅黑,PingFang SC,Mircrosoft YaHei,Arial" y="21.7">应用（备）</tspan></text></g><g transform="translate(580.746125,480.801125)" id="shape13"><text style="fill:#191919;font-family:微软雅黑,PingFang SC,Mircrosoft YaHei,Arial;font-size:10.00pt" xml:space="preserve"><tspan x="23.2" style="font-family:微软雅黑,PingFang SC,Mircrosoft YaHei,Arial" y="21.2">数据库（主）</tspan></text></g><g transform="translate(682.070325,480.801125)" id="shape14"><text style="fill:#191919;font-family:微软雅黑,PingFang SC,Mircrosoft YaHei,Arial;font-size:10.00pt" xml:space="preserve"><tspan x="26.2" style="font-family:微软雅黑,PingFang SC,Mircrosoft YaHei,Arial" y="21.7">Redis（主）</tspan></text></g><g transform="translate(580.746125,561.409125)" id="shape15"><text style="fill:#191919;font-family:微软雅黑,PingFang SC,Mircrosoft YaHei,Arial;font-size:10.00pt" xml:space="preserve"><tspan x="9.5" style="font-family:微软雅黑,PingFang SC,Mircrosoft YaHei,Arial" y="21.2">MySql/SqlServer</tspan></text></g><g transform="translate(596.073825,301.241125)" id="shape16"><text style="fill:#191919;font-family:微软雅黑,PingFang SC,Mircrosoft YaHei,Arial;font-size:10.00pt" xml:space="preserve"><tspan x="4.5" style="font-family:微软雅黑,PingFang SC,Mircrosoft YaHei,Arial" y="21.2">数据库（从）</tspan></text></g><g transform="translate(700.073825,301.241125)" id="shape17"><text style="fill:#191919;font-family:微软雅黑,PingFang SC,Mircrosoft YaHei,Arial;font-size:10.00pt" xml:space="preserve"><tspan x="9.7" style="font-family:微软雅黑,PingFang SC,Mircrosoft YaHei,Arial" y="21.7">Redis（从</tspan><tspan x="33.3" style="font-family:微软雅黑,PingFang SC,Mircrosoft YaHei,Arial" y="39.7">）</tspan></text></g><g transform="translate(581.252125,381.849125)" id="shape18"><text style="fill:#191919;font-family:微软雅黑,PingFang SC,Mircrosoft YaHei,Arial;font-size:10.00pt" xml:space="preserve"><tspan x="9.5" style="font-family:微软雅黑,PingFang SC,Mircrosoft YaHei,Arial" y="21.2">MySql/SqlServer</tspan></text></g><g transform="translate(697.281325,656.031725)" id="shape19"><path stroke="#000000" stroke-width="0.3199999928474426" fill="none" d="M56.0,.0L.0,.0L.0,49.6L56.0,49.6"/><text style="fill:#000000;font-family:Arial,PingFang SC,Mircrosoft YaHei,Arial;font-size:12.00pt" xml:space="preserve"><tspan x="1.0" style="font-family:Arial,PingFang SC,Mircrosoft YaHei,Arial" y="19.9">大石头@新生命团队</tspan><tspan x="1.0" style="font-family:Arial,PingFang SC,Mircrosoft YaHei,Arial" y="38.6">https://newlifex.com</tspan></text></g><path stroke="#ebebeb" stroke-width="1" fill="#ebebeb" transform="matrix(-0.866025,-0.500000,0.500000,-0.866025,442.657910,433.685165)" fill-rule="nonzero" id="shape20" d="M19.6,.0L19.6,62.8L31.2,59.6L15.6,81.5L.0,59.6L11.5,62.8L11.5,.0L19.6,.0"/><path stroke="#ebebeb" stroke-width="1" fill="#ebebeb" transform="matrix(0.866025,-0.500000,0.500000,0.866025,418.142240,452.342839)" fill-rule="nonzero" id="shape21" d="M19.6,.0L19.6,52.9L31.2,49.8L15.6,71.6L.0,49.8L11.5,52.9L11.5,.0L19.6,.0"/><g transform="translate(867.446175,288.266625)" id="group22"><path stroke="#868686" stroke-width="1" fill="#e9f8f5" fill-rule="nonzero" id="shape23" d="M11.0,.0L69.0,.0C75.1,.0,80.0,4.9,80.0,11.0L80.0,253.2C80.0,259.2,75.1,264.2,69.0,264.2L11.0,264.2C4.9,264.2,.0,259.2,.0,253.2L.0,11.0C.0,4.9,4.9,.0,11.0,.0z"/></g><g transform="translate(874.961175,325.133625)" id="group24"><path fill="#00c1de" fill-rule="nonzero" id="shape26" d="M54.9,.0C50.9,.0,47.7,3.2,47.7,7.2C47.7,8.4,48.0,9.5,48.5,10.5L36.9,22.0C36.2,21.6,35.5,21.5,34.8,21.5C34.3,21.5,33.9,21.6,33.5,21.7L28.8,15.3C28.8,15.0,28.8,14.8,28.8,14.6C28.8,12.2,26.9,10.3,24.6,10.3C22.2,10.3,20.3,12.2,20.3,14.6L20.3,14.7L13.5,21.3L7.9,21.3C7.1,20.0,5.8,19.2,4.3,19.2C1.9,19.2,.0,21.1,.0,23.5C.0,25.9,1.9,27.8,4.3,27.8C5.8,27.8,7.3,26.9,8.0,25.6L15.3,25.6L22.7,18.4C23.3,18.7,23.9,18.9,24.6,18.9C25.1,18.9,25.6,18.8,26.0,18.6L30.6,25.0C30.6,25.3,30.6,25.5,30.6,25.8C30.6,28.1,32.4,30.0,34.8,30.0C37.1,30.0,39.0,28.2,39.0,25.9L51.5,13.5C53.7,14.7,56.4,14.6,58.5,13.3C60.7,12.0,62.0,9.7,62.0,7.2C62.0,5.3,61.3,3.5,59.9,2.1C58.6,.8,56.8,.0,54.9,.0zM55.0,10.2C53.3,10.2,51.9,8.8,51.9,7.2C51.9,5.5,53.3,4.1,55.0,4.1C56.6,4.1,58.0,5.5,58.0,7.2C58.0,8.0,57.7,8.8,57.1,9.3C56.5,9.9,55.8,10.2,55.0,10.2L55.0,10.2z"/></g><g transform="translate(876.210375,288.265925)" id="shape27"><text style="fill:#191919;font-family:微软雅黑,PingFang SC,Mircrosoft YaHei,Arial;font-size:10.00pt;font-weight:bold" xml:space="preserve"><tspan x="4.6" style="font-family:微软雅黑,PingFang SC,Mircrosoft YaHei,Arial" y="21.6">星尘平台</tspan></text></g><g transform="translate(887.724175,355.356425)" id="shape28"><text style="fill:#191919;font-family:微软雅黑,PingFang SC,Mircrosoft YaHei,Arial;font-size:10.00pt" xml:space="preserve"><tspan x="6.4" style="font-family:微软雅黑,PingFang SC,Mircrosoft YaHei,Arial" y="14.0">监控</tspan></text></g><g transform="translate(883.446175,396.830625)" id="group29"><g id="group31"><path fill="#d86613" transform="translate(18.166000,0.302000)" fill-rule="nonzero" id="shape32" d="M4.5,30.5C2.8,30.5,1.7,30.4,1.3,30.4L1.0,30.4C.6,30.3,.2,29.9,.2,29.5C.0,27.5,.0,25.4,.0,23.4C.0,23.2,.0,22.9,.0,22.6L.1,22.1L2.2,22.3L2.1,22.8C2.1,23.0,2.1,23.3,2.1,23.5C2.0,25.1,2.0,26.8,2.1,28.4C5.2,28.6,15.9,28.9,22.0,22.6C28.2,16.3,27.9,5.2,27.7,2.1C24.7,1.9,13.9,1.7,7.9,8.0C7.7,8.1,7.6,8.3,7.4,8.4C7.4,8.5,7.3,8.6,7.2,8.7L5.6,7.4C5.7,7.3,5.7,7.2,5.8,7.1L6.3,6.5C14.2,-1.5,28.2,.1,28.8,.2C29.2,.2,29.6,.6,29.6,1.1C29.7,1.7,31.3,16.0,23.5,24.0C17.9,29.7,9.2,30.5,4.5,30.5z"/><path fill="#d86613" transform="translate(18.159000,0.301500)" fill-rule="nonzero" id="shape33" d="M1.4,30.3L1.3,30.3L1.0,30.3C.6,30.3,.2,29.9,.2,29.4C.0,27.0,.0,24.5,.2,22.1L2.2,22.3C2.1,24.0,2.0,25.8,2.1,27.6C6.7,24.1,11.1,20.2,15.2,16.0C19.4,11.7,23.3,7.0,26.8,2.1C22.9,1.9,13.4,2.2,7.8,8.0C7.6,8.2,7.4,8.4,7.2,8.7L5.6,7.4C5.8,7.1,6.1,6.8,6.4,6.5C14.2,-1.5,28.2,.1,28.8,.2C29.2,.2,29.5,.4,29.6,.8C29.8,1.1,29.7,1.5,29.5,1.8C25.7,7.4,21.4,12.6,16.6,17.5C12.1,22.1,7.2,26.4,2.0,30.2C1.8,30.3,1.6,30.3,1.4,30.3z"/><path fill="#d86613" transform="translate(18.175240,27.869600)" fill-rule="nonzero" id="shape34" d="M.0,.0L2.0,.0L2.0,20.1L.0,20.1L.0,.0z"/><path fill="#d86613" fill-rule="nonzero" id="shape35" d="M11.5,23.1C5.2,23.1,.0,18.0,.0,11.6C.0,5.2,5.2,.0,11.5,.0C17.9,.0,23.1,5.2,23.1,11.6C23.1,18.0,17.9,23.1,11.5,23.1zM11.5,2.0C6.3,2.0,2.0,6.3,2.0,11.5C2.0,16.8,6.3,21.1,11.5,21.1C16.8,21.1,21.0,16.8,21.0,11.5C21.0,6.3,16.8,2.0,11.5,2.0z"/><path fill="#d86613" transform="translate(10.530040,5.428760)" fill-rule="nonzero" id="shape36" d="M.0,.0L2.0,.0L2.0,13.6L.0,13.6L.0,.0z"/><path fill="#d86613" transform="translate(6.880720,3.965950)" fill-rule="nonzero" id="shape37" d="M7.9,5.7L4.7,2.5L1.4,5.7L.0,4.3L3.9,.3C4.3,.0,5.0,.0,5.4,.3L9.3,4.3L7.9,5.7z"/></g></g><g transform="translate(883.751175,476.082625)" id="group38"><path fill="#00c1de" fill-rule="nonzero" id="shape40" d="M39.7,32.2C37.9,32.2,36.3,33.7,36.3,35.6C36.3,37.4,37.7,39.0,39.7,39.0C41.5,39.0,43.0,37.6,43.0,35.6C43.0,33.7,41.6,32.2,39.7,32.2zM39.7,44.0C38.9,44.0,38.3,43.9,37.6,43.8L37.5,43.8C36.9,43.5,36.2,43.1,35.3,42.8C31.7,41.2,27.2,39.1,24.0,39.1C22.0,39.1,19.6,39.9,17.2,40.8C17.2,40.7,17.3,40.7,17.3,40.6C17.7,39.9,18.1,39.1,18.3,38.3C18.3,38.2,18.4,38.2,18.4,38.0C18.5,37.3,18.7,36.5,18.7,35.5C18.8,34.0,19.0,32.5,19.3,30.9C20.9,31.5,22.6,31.8,24.0,31.8C27.2,31.8,31.7,29.9,35.2,28.3C35.9,28.0,36.8,27.6,37.4,27.4C38.1,27.1,38.8,27.1,39.5,27.1C44.3,27.1,48.0,30.9,48.0,35.6C48.0,40.4,44.4,44.0,39.7,44.0zM11.4,37.0C12.3,35.4,11.7,33.3,10.2,32.4C8.6,31.4,6.5,32.0,5.6,33.6C4.6,35.1,5.2,37.2,6.8,38.2C8.3,39.2,10.4,38.7,11.4,37.0zM1.1,31.0C1.5,30.4,1.8,29.8,2.3,29.3L2.3,29.2C2.9,28.8,3.5,28.3,4.1,27.9C7.3,25.5,11.2,22.6,12.8,19.7C13.8,18.0,14.4,15.5,14.7,12.9C14.7,13.0,14.9,13.0,14.9,13.1C15.2,13.9,15.8,14.6,16.3,15.2C16.3,15.3,16.4,15.3,16.6,15.5C17.2,15.9,17.9,16.4,18.6,17.0C19.7,17.9,21.0,18.9,22.4,19.8C21.0,21.0,19.9,22.3,19.2,23.5C17.6,26.3,17.0,31.1,16.7,35.0C16.6,35.9,16.6,36.7,16.4,37.3C16.2,38.1,16.0,38.7,15.6,39.3C13.3,43.3,8.1,44.7,4.1,42.4C.3,40.4,-1.2,35.1,1.1,31.0zM21.1,10.2C22.0,11.7,24.1,12.4,25.7,11.4C27.2,10.4,27.8,8.3,26.9,6.8C25.9,5.2,23.8,4.6,22.3,5.6C20.7,6.4,20.1,8.5,21.1,10.2zM31.3,4.2C31.7,4.8,31.9,5.4,32.2,6.2L32.2,6.3C32.3,7.0,32.3,7.7,32.4,8.6C32.9,12.5,33.4,17.5,35.0,20.3C35.9,22.0,37.7,23.8,39.8,25.4L39.5,25.4C38.7,25.4,37.9,25.5,37.0,25.7C36.9,25.7,36.9,25.7,36.8,25.8C36.0,26.1,35.3,26.5,34.5,26.8C33.1,27.4,31.7,28.0,30.1,28.6C29.8,26.9,29.3,25.2,28.6,24.0C27.0,21.2,23.0,18.3,19.9,16.0C19.1,15.5,18.5,15.0,17.9,14.5C17.4,14.1,17.0,13.5,16.6,12.8C14.3,8.8,15.6,3.6,19.7,1.3C23.8,-1.3,29.0,.1,31.3,4.2z"/></g><g transform="translate(883.752075,444.830825)" id="shape41"><text style="fill:#191919;font-family:微软雅黑,PingFang SC,Mircrosoft YaHei,Arial;font-size:10.00pt" xml:space="preserve"><tspan x="8.4" style="font-family:微软雅黑,PingFang SC,Mircrosoft YaHei,Arial" y="14.0">发布</tspan></text></g><g transform="translate(887.723775,520.082625)" id="shape42"><text style="fill:#191919;font-family:微软雅黑,PingFang SC,Mircrosoft YaHei,Arial;font-size:10.00pt" xml:space="preserve"><tspan x="6.8" style="font-family:微软雅黑,PingFang SC,Mircrosoft YaHei,Arial" y="14.6">配置</tspan></text></g><g transform="translate(175.083625,365.202973)" id="group43"><g transform="translate(-0.009800,2.548400)" id="group44"><path stroke="#000000" stroke-width="1" fill="url(#lg1)" fill-rule="nonzero" id="shape45" d="M.2,.0L20.5,.0C20.6,.0,20.7,.1,20.7,.2L20.7,45.7C20.7,45.8,20.6,45.9,20.5,45.9L.2,45.9C.1,45.9,.0,45.8,.0,45.7L.0,.2C.0,.1,.1,.0,.2,.0z"/><path stroke="#7e7e7e" stroke-width="1" fill="url(#lg2)" transform="translate(1.400460,1.377600)" fill-rule="nonzero" id="shape46" d="M.2,.0L8.9,.0C9.0,.0,9.1,.1,9.1,.2L9.1,27.3C9.1,27.5,9.0,27.6,8.9,27.6L.2,27.6C.1,27.6,.0,27.5,.0,27.3L.0,.2C.0,.1,.1,.0,.2,.0z"/><path stroke="#7e7e7e" stroke-width="1" fill="url(#lg3)" transform="translate(1.400460,28.930300)" fill-rule="nonzero" id="shape47" d="M.2,.0L8.9,.0C9.0,.0,9.1,.1,9.1,.3L9.1,15.4C9.1,15.5,9.0,15.6,8.9,15.6L.2,15.6C.1,15.6,.0,15.5,.0,15.4L.0,.3C.0,.1,.1,.0,.2,.0z"/><path stroke="#7e7e7e" stroke-width="1" fill="url(#lg4)" transform="translate(10.448210,1.377600)" fill-rule="nonzero" id="shape48" d="M.2,.0L8.5,.0C8.6,.0,8.7,.1,8.7,.2L8.7,42.9C8.7,43.1,8.6,43.2,8.5,43.2L.2,43.2C.1,43.2,.0,43.1,.0,42.9L.0,.2C.0,.1,.1,.0,.2,.0z"/><path fill="url(#lg5)" transform="translate(0.124650,0.038000)" fill-rule="nonzero" id="shape49" d="M.0,.0L13.3,.0L9.4,45.8L.1,45.8L.0,.0z"/><g transform="translate(13.622000,28.120800)" id="group50"><path stroke="#000000" stroke-width="1" fill="url(#rg1)" fill-rule="nonzero" id="shape51" d="M.0,1.7C.0,.7,.7,.0,1.7,.0C2.6,.0,3.3,.7,3.3,1.7C3.3,2.6,2.6,3.3,1.7,3.3C.7,3.3,.0,2.6,.0,1.7z"/><path fill="url(#lg6)" transform="translate(0.369020,0.369020)" fill-rule="nonzero" id="shape52" d="M.0,1.3C.0,.6,.6,.0,1.3,.0C2.0,.0,2.6,.6,2.6,1.3C2.6,2.0,2.0,2.6,1.3,2.6C.6,2.6,.0,2.0,.0,1.3z"/><path fill="url(#lg7)" transform="translate(0.369020,0.369020)" fill-rule="nonzero" id="shape53" d="M.0,1.3C.0,.6,.6,.0,1.3,.0C2.0,.0,2.6,.6,2.6,1.3C2.6,2.0,2.0,2.6,1.3,2.6C.6,2.6,.0,2.0,.0,1.3z"/><g transform="translate(1.061778,0.805031)" id="group54"><path fill="#ff4500" transform="translate(0.494185,0.000280)" fill-rule="nonzero" id="shape55" d="M.1,-0.0L.1,-0.0C.1,-0.0,.2,.0,.2,.1L.2,.7C.2,.8,.1,.8,.1,.8L.1,.8C.0,.8,-0.0,.8,-0.0,.7L-0.0,.1C-0.0,.0,.0,-0.0,.1,-0.0z"/><path fill="#ff4500" transform="translate(0.000000,0.341576)" fill-rule="nonzero" id="shape56" d="M.4,.2C.5,.2,.4,-0.0,.3,.0C.2,.0,.0,.2,.0,.5C-0.0,.9,.3,1.1,.6,1.1C.9,1.1,1.2,.9,1.2,.5C1.2,.1,.8,-0.0,.8,.0C.7,.1,.7,.1,.8,.2C.9,.2,1.0,.4,1.0,.5C1.0,.7,1.0,.9,.6,.9C.2,.9,.2,.7,.2,.5C.2,.4,.2,.2,.4,.2z"/></g></g></g><g transform="translate(77.338180,46.429410)" id="group57"><path fill="url(#rg2)" transform="translate(0.258710,-0.011270)" fill-rule="nonzero" id="shape58" d="M.0,1.7C.3,.9,1.3,.4,1.9,.2C2.5,.0,3.7,-0.1,4.5,.1C5.2,.4,6.0,.8,6.3,1.8C6.5,2.3,6.6,3.1,6.4,3.5C6.3,3.7,5.6,4.2,4.3,4.1C2.8,4.0,1.8,3.5,1.8,3.5C1.8,3.5,1.4,1.8,1.0,1.5C.7,1.3,.3,1.2,.0,1.7z"/><path fill="url(#lg8)" transform="translate(0.038010,1.281790)" fill-rule="nonzero" id="shape59" d="M.0,1.0C.0,1.0,1.6,2.0,2.0,2.2C1.9,1.7,1.7,.2,.9,.0C.2,-0.2,.0,1.0,.0,1.0z"/><path fill="url(#rg3)" transform="translate(2.471090,0.883724)" fill-rule="nonzero" id="shape60" d="M.8,.0C.4,.0,.0,.3,.0,.7C.0,1.1,.4,1.4,.8,1.4C1.3,1.4,1.6,1.1,1.6,.7C1.6,.3,1.3,.0,.8,.0z"/></g><g transform="translate(26.628700,46.044270)" id="group61"><path fill="url(#lg9)" transform="translate(-0.004400,0.386790)" fill-rule="nonzero" id="shape62" d="M.9,.0C.9,.0,.3,1.3,.1,2.2C.0,3.1,-0.2,4.3,.3,4.4C.3,4.4,46.9,4.4,46.9,4.4C47.2,4.2,47.6,4.1,46.9,2.4C46.1,.7,44.8,.0,44.8,.0L.9,.0z"/><path fill="url(#rg4)" transform="translate(0.103300,0.401320)" fill-rule="nonzero" id="shape63" d="M.9,.0C.9,.0,.3,1.3,.1,2.1C.0,2.9,-0.2,4.0,.3,4.1C.3,4.1,46.5,4.1,46.5,4.1C46.8,3.9,47.2,3.8,46.5,2.2C45.9,.7,44.8,.0,44.8,.0L.9,.0z"/><g transform="translate(37.764690,0.346037)" id="group64"><path fill="url(#lg10)" transform="translate(0.006100,0.004414)" fill-rule="nonzero" id="shape65" d="M.1,1.0L2.2,1.0L1.6,.0L.2,.0L-0.0,.5L.1,1.0z"/><path fill="url(#lg10)" transform="translate(1.731270,0.030418)" fill-rule="nonzero" id="shape66" d="M.0,1.0L2.3,1.0L1.9,.0L.4,.0L.0,1.0z"/><path fill="url(#lg10)" transform="translate(3.671750,0.034023)" fill-rule="nonzero" id="shape67" d="M-0.0,1.0L2.1,1.0L1.6,.0L.3,.0L-0.0,1.0z"/><path fill="url(#lg10)" transform="translate(5.468058,0.018017)" fill-rule="nonzero" id="shape68" d="M.0,1.0L2.0,1.0L1.6,.0L.3,.0L.0,1.0z"/></g><g transform="translate(30.891870,0.037625)" id="group69"><path fill="url(#lg10)" transform="translate(-0.004340,-0.010840)" fill-rule="nonzero" id="shape70" d="M.0,1.0L2.1,1.0L1.6,.0L.2,.0L.0,.5L.0,1.0z"/><path fill="url(#lg10)" transform="translate(1.678850,0.015110)" fill-rule="nonzero" id="shape71" d="M.0,1.0L2.3,1.0L1.9,.0L.4,.0L.0,1.0z"/><path fill="url(#lg10)" transform="translate(3.619240,0.018687)" fill-rule="nonzero" id="shape72" d="M-0.0,1.0L2.1,1.0L1.6,.0L.3,.0L-0.0,1.0z"/></g><g transform="translate(30.878500,0.191797)" id="group73"><path fill="url(#lg11)" transform="translate(-0.012368,0.004363)" fill-rule="nonzero" id="shape74" d="M.0,.7L2.0,.7L1.8,.0L.2,.0L.0,.7z"/><path fill="url(#lg11)" transform="translate(1.982798,0.008565)" fill-rule="nonzero" id="shape75" d="M.0,.7L1.9,.7L1.7,.0L.2,.0L.0,.7z"/><path fill="url(#lg11)" transform="translate(3.847185,0.004363)" fill-rule="nonzero" id="shape76" d="M.0,.7L1.7,.7L1.5,.0L.2,.0L.0,.7z"/></g><g transform="translate(1.258400,0.024393)" id="group77"><g transform="translate(20.756770,0.000000)" id="group78"><path fill="url(#lg10)" transform="translate(3.735830,-0.003222)" fill-rule="nonzero" id="shape79" d="M.0,1.0L2.4,1.0L1.8,.0L.5,.0L.0,1.0z"/><path fill="url(#lg10)" transform="translate(5.681640,-0.003222)" fill-rule="nonzero" id="shape80" d="M.0,1.0L2.4,1.0L1.8,.0L.5,.0L.0,1.0z"/><path fill="url(#lg10)" transform="translate(0.003550,0.006592)" fill-rule="nonzero" id="shape81" d="M.0,1.0L2.4,1.0L1.8,.0L.5,.0L.0,1.0z"/><path fill="url(#lg10)" transform="translate(1.949350,0.006592)" fill-rule="nonzero" id="shape82" d="M.0,1.0L2.4,1.0L1.8,.0L.5,.0L.0,1.0z"/></g><g transform="translate(12.257570,0.000000)" id="group83"><path fill="url(#lg10)" transform="translate(3.735830,-0.003222)" fill-rule="nonzero" id="shape84" d="M.0,1.0L2.4,1.0L1.8,.0L.5,.0L.0,1.0z"/><path fill="url(#lg10)" transform="translate(5.681640,-0.003222)" fill-rule="nonzero" id="shape85" d="M.0,1.0L2.4,1.0L1.8,.0L.5,.0L.0,1.0z"/><path fill="url(#lg10)" transform="translate(0.003550,0.006592)" fill-rule="nonzero" id="shape86" d="M.0,1.0L2.4,1.0L1.8,.0L.5,.0L.0,1.0z"/><path fill="url(#lg10)" transform="translate(1.949350,0.006592)" fill-rule="nonzero" id="shape87" d="M.0,1.0L2.4,1.0L1.8,.0L.5,.0L.0,1.0z"/></g><g transform="translate(3.560120,0.000000)" id="group88"><path fill="url(#lg10)" transform="translate(3.735830,-0.003222)" fill-rule="nonzero" id="shape89" d="M.0,1.0L2.4,1.0L1.8,.0L.5,.0L.0,1.0z"/><path fill="url(#lg10)" transform="translate(5.681640,-0.003222)" fill-rule="nonzero" id="shape90" d="M.0,1.0L2.4,1.0L1.8,.0L.5,.0L.0,1.0z"/><path fill="url(#lg10)" transform="translate(0.003550,0.006592)" fill-rule="nonzero" id="shape91" d="M.0,1.0L2.4,1.0L1.8,.0L.5,.0L.0,1.0z"/><path fill="url(#lg10)" transform="translate(1.949350,0.006592)" fill-rule="nonzero" id="shape92" d="M.0,1.0L2.4,1.0L1.8,.0L.5,.0L.0,1.0z"/></g><path fill="url(#lg10)" transform="translate(-0.005300,-0.005324)" fill-rule="nonzero" id="shape93" d="M-0.0,1.0L1.9,1.0L1.9,.5L1.6,.0L.3,.0L-0.0,1.0z"/></g><g transform="translate(1.314700,0.220122)" id="group94"><path fill="url(#lg11)" transform="translate(0.010285,0.000524)" fill-rule="nonzero" id="shape95" d="M.0,.8L1.7,.8L1.5,.0L.2,.0L.0,.8z"/><g transform="translate(3.870810,0.000000)" id="group96"><path fill="url(#lg11)" transform="translate(0.001531,0.008410)" fill-rule="nonzero" id="shape97" d="M.0,.8L1.8,.8L1.6,.0L.2,.0L.0,.8z"/><path fill="url(#lg11)" transform="translate(1.859894,0.010611)" fill-rule="nonzero" id="shape98" d="M.0,.8L1.7,.8L1.5,.0L.2,.0L.0,.8z"/><path fill="url(#lg11)" transform="translate(3.742045,0.013454)" fill-rule="nonzero" id="shape99" d="M.0,.8L1.8,.8L1.6,.0L.2,.0L.0,.8z"/><path fill="url(#lg11)" transform="translate(5.573114,0.010611)" fill-rule="nonzero" id="shape100" d="M.0,.8L1.8,.8L1.6,.0L.2,.0L.0,.8z"/></g><g transform="translate(12.549110,-0.003641)" id="group101"><path fill="url(#lg11)" transform="translate(0.001531,0.008410)" fill-rule="nonzero" id="shape102" d="M.0,.8L1.8,.8L1.6,.0L.2,.0L.0,.8z"/><path fill="url(#lg11)" transform="translate(1.859894,0.010611)" fill-rule="nonzero" id="shape103" d="M.0,.8L1.7,.8L1.5,.0L.2,.0L.0,.8z"/><path fill="url(#lg11)" transform="translate(3.742045,0.013454)" fill-rule="nonzero" id="shape104" d="M.0,.8L1.8,.8L1.6,.0L.2,.0L.0,.8z"/><path fill="url(#lg11)" transform="translate(5.573114,0.010611)" fill-rule="nonzero" id="shape105" d="M.0,.8L1.8,.8L1.6,.0L.2,.0L.0,.8z"/></g><g transform="translate(21.074910,0.000000)" id="group106"><path fill="url(#lg11)" transform="translate(0.001531,0.008410)" fill-rule="nonzero" id="shape107" d="M.0,.8L1.8,.8L1.6,.0L.2,.0L.0,.8z"/><path fill="url(#lg11)" transform="translate(1.859894,0.010611)" fill-rule="nonzero" id="shape108" d="M.0,.8L1.7,.8L1.5,.0L.2,.0L.0,.8z"/><path fill="url(#lg11)" transform="translate(3.742045,0.013454)" fill-rule="nonzero" id="shape109" d="M.0,.8L1.8,.8L1.6,.0L.2,.0L.0,.8z"/><path fill="url(#lg11)" transform="translate(5.573114,0.010611)" fill-rule="nonzero" id="shape110" d="M.0,.8L1.8,.8L1.6,.0L.2,.0L.0,.8z"/></g></g><g transform="translate(1.062100,0.500805)" id="group111"><path fill="url(#lg10)" transform="translate(-0.019449,-0.002942)" fill-rule="nonzero" id="shape112" d="M.0,1.0L2.0,1.0L1.6,.0L.4,.0L.0,1.0z"/><path fill="url(#lg10)" transform="translate(1.529740,-0.002942)" fill-rule="nonzero" id="shape113" d="M.0,1.0L2.5,1.0L2.0,.0L.5,.0L.0,1.0z"/><path fill="url(#lg10)" transform="translate(3.595600,-0.012194)" fill-rule="nonzero" id="shape114" d="M.0,1.0L2.5,1.0L2.0,.0L.5,.0L.0,1.0z"/><path fill="url(#lg10)" transform="translate(5.531920,-0.012194)" fill-rule="nonzero" id="shape115" d="M.0,1.0L2.4,1.0L1.9,.0L.5,.0L.0,1.0z"/><path fill="url(#lg10)" transform="translate(7.443610,-0.012194)" fill-rule="nonzero" id="shape116" d="M.0,1.0L2.5,1.0L2.0,.0L.5,.0L.0,1.0z"/><path fill="url(#lg10)" transform="translate(9.442350,-0.012194)" fill-rule="nonzero" id="shape117" d="M.0,1.0L2.5,1.0L2.0,.0L.5,.0L.0,1.0z"/><path fill="url(#lg10)" transform="translate(11.466550,-0.011914)" fill-rule="nonzero" id="shape118" d="M.0,1.0L2.5,1.0L2.0,.0L.5,.0L.0,1.0z"/><path fill="url(#lg10)" transform="translate(13.403240,-0.011914)" fill-rule="nonzero" id="shape119" d="M.0,1.0L2.4,1.0L1.9,.0L.5,.0L.0,1.0z"/><path fill="url(#lg10)" transform="translate(15.389010,-0.011072)" fill-rule="nonzero" id="shape120" d="M.0,1.0L2.5,1.0L1.9,.0L.5,.0L.0,1.0z"/><path fill="url(#lg10)" transform="translate(17.366020,0.005469)" fill-rule="nonzero" id="shape121" d="M.0,1.0L2.4,1.0L1.9,.0L.5,.0L.0,1.0z"/><path fill="url(#lg10)" transform="translate(19.268620,0.005469)" fill-rule="nonzero" id="shape122" d="M.0,1.0L2.4,1.0L1.9,.0L.5,.0L.0,1.0z"/><path fill="url(#lg10)" transform="translate(21.195320,0.005750)" fill-rule="nonzero" id="shape123" d="M.0,1.0L2.4,1.0L1.9,.0L.5,.0L.0,1.0z"/><path fill="url(#lg10)" transform="translate(23.039240,0.005750)" fill-rule="nonzero" id="shape124" d="M.0,1.0L2.3,1.0L1.8,.0L.5,.0L.0,1.0z"/><path fill="url(#lg10)" transform="translate(24.929160,0.006592)" fill-rule="nonzero" id="shape125" d="M.0,1.0L2.3,1.0L1.8,.0L.5,.0L.0,1.0z"/></g><g transform="translate(1.146400,0.668558)" id="group126"><path fill="url(#lg11)" transform="translate(23.362190,0.023549)" fill-rule="nonzero" id="shape127" d="M.0,.8L1.9,.8L1.6,.0L.2,.0L.0,.8z"/><path fill="url(#lg11)" transform="translate(25.274590,0.038407)" fill-rule="nonzero" id="shape128" d="M.0,.8L1.9,.8L1.6,.0L.2,.0L.0,.8z"/><path fill="url(#lg11)" transform="translate(-0.004192,0.033075)" fill-rule="nonzero" id="shape129" d="M-0.0,.8L1.6,.8L1.4,.0L.2,.0L-0.0,.8z"/><g transform="translate(1.760100,0.009716)" id="group130"><path fill="url(#lg11)" transform="translate(0.006616,0.021919)" fill-rule="nonzero" id="shape131" d="M.0,.8L1.9,.8L1.7,.0L.2,.0L.0,.8z"/><path fill="url(#lg11)" transform="translate(2.020612,0.026627)" fill-rule="nonzero" id="shape132" d="M.0,.8L1.9,.8L1.6,.0L.2,.0L.0,.8z"/><path fill="url(#lg11)" transform="translate(4.015772,0.029018)" fill-rule="nonzero" id="shape133" d="M.0,.8L1.9,.8L1.7,.0L.2,.0L.0,.8z"/><path fill="url(#lg11)" transform="translate(5.948072,0.031864)" fill-rule="nonzero" id="shape134" d="M.0,.8L1.9,.8L1.6,.0L.2,.0L.0,.8z"/><path fill="url(#lg11)" transform="translate(7.856352,0.029018)" fill-rule="nonzero" id="shape135" d="M.0,.8L1.9,.8L1.7,.0L.2,.0L.0,.8z"/><path fill="url(#lg11)" transform="translate(9.870302,0.034109)" fill-rule="nonzero" id="shape136" d="M.0,.8L1.9,.8L1.6,.0L.2,.0L.0,.8z"/><path fill="url(#lg11)" transform="translate(11.803457,0.015367)" fill-rule="nonzero" id="shape137" d="M.0,.8L1.9,.8L1.6,.0L.2,.0L.0,.8z"/><path fill="url(#lg11)" transform="translate(13.714902,0.038963)" fill-rule="nonzero" id="shape138" d="M.0,.8L1.9,.8L1.6,.0L.2,.0L.0,.8z"/><path fill="url(#lg11)" transform="translate(15.705857,-0.014527)" fill-rule="nonzero" id="shape139" d="M.0,.8L1.9,.8L1.6,.0L.2,.0L.0,.8z"/><path fill="url(#lg11)" transform="translate(17.617202,0.009061)" fill-rule="nonzero" id="shape140" d="M.0,.8L1.9,.8L1.6,.0L.2,.0L.0,.8z"/><path fill="url(#lg11)" transform="translate(19.499802,-0.004015)" fill-rule="nonzero" id="shape141" d="M.0,.8L1.9,.8L1.6,.0L.2,.0L.0,.8z"/></g></g><g transform="translate(0.968500,0.855553)" id="group142"><path fill="url(#lg10)" transform="translate(0.012070,0.020604)" fill-rule="nonzero" id="shape143" d="M-0.0,.9L3.2,1.0L2.6,-0.0L.3,.0L-0.0,.9z"/><path fill="url(#lg10)" transform="translate(26.250130,0.010512)" fill-rule="nonzero" id="shape144" d="M.0,1.0L3.2,1.0L3.1,.5L2.9,-0.0L.4,.0L.0,1.0z"/><path fill="url(#lg10)" transform="translate(2.529390,0.005283)" fill-rule="nonzero" id="shape145" d="M.0,1.0L2.5,1.0L2.0,.0L.5,.0L.0,1.0z"/><path fill="url(#lg10)" transform="translate(4.542840,0.005283)" fill-rule="nonzero" id="shape146" d="M.0,1.0L2.5,1.0L2.0,.0L.5,.0L.0,1.0z"/><path fill="url(#lg10)" transform="translate(6.623750,0.033315)" fill-rule="nonzero" id="shape147" d="M.0,1.0L2.5,1.0L2.0,.0L.5,.0L.0,1.0z"/><path fill="url(#lg10)" transform="translate(8.574190,0.033315)" fill-rule="nonzero" id="shape148" d="M.0,1.0L2.5,1.0L1.9,.0L.5,.0L.0,1.0z"/><path fill="url(#lg10)" transform="translate(10.499790,0.033315)" fill-rule="nonzero" id="shape149" d="M.0,1.0L2.5,1.0L2.0,.0L.5,.0L.0,1.0z"/><path fill="url(#lg10)" transform="translate(12.513290,0.033315)" fill-rule="nonzero" id="shape150" d="M.0,1.0L2.5,1.0L2.0,.0L.5,.0L.0,1.0z"/><path fill="url(#lg10)" transform="translate(14.552190,0.024345)" fill-rule="nonzero" id="shape151" d="M.0,1.0L2.5,1.0L2.0,.0L.5,.0L.0,1.0z"/><path fill="url(#lg10)" transform="translate(16.502740,0.024345)" fill-rule="nonzero" id="shape152" d="M.0,1.0L2.5,1.0L1.9,.0L.5,.0L.0,1.0z"/><path fill="url(#lg10)" transform="translate(18.503050,0.025084)" fill-rule="nonzero" id="shape153" d="M.0,1.0L2.5,1.0L1.9,.0L.5,.0L.0,1.0z"/><path fill="url(#lg10)" transform="translate(20.453540,0.025084)" fill-rule="nonzero" id="shape154" d="M.0,1.0L2.4,1.0L1.8,.0L.5,.0L.0,1.0z"/><path fill="url(#lg10)" transform="translate(22.399540,0.025084)" fill-rule="nonzero" id="shape155" d="M.0,1.0L2.4,1.0L1.8,.0L.5,.0L.0,1.0z"/><path fill="url(#lg10)" transform="translate(24.334440,0.010512)" fill-rule="nonzero" id="shape156" d="M.0,1.0L2.4,1.0L1.8,.0L.5,.0L.0,1.0z"/></g><g transform="translate(1.006000,1.005386)" id="group157"><path fill="url(#lg11)" transform="translate(0.003550,0.043170)" fill-rule="nonzero" id="shape158" d="M-0.0,.8L2.6,.8L2.3,.0L.3,.0L-0.0,.8z"/><path fill="url(#lg11)" transform="translate(26.698040,0.028029)" fill-rule="nonzero" id="shape159" d="M.0,.8L2.5,.8L2.4,-0.0L.2,.0L.0,.8z"/><g transform="translate(2.662400,0.018687)" id="group160"><path fill="url(#lg11)" transform="translate(0.006721,0.021919)" fill-rule="nonzero" id="shape161" d="M.0,.8L1.9,.8L1.7,.0L.2,.0L.0,.8z"/><path fill="url(#lg11)" transform="translate(2.052650,0.026626)" fill-rule="nonzero" id="shape162" d="M.0,.8L1.9,.8L1.6,.0L.2,.0L.0,.8z"/><path fill="url(#lg11)" transform="translate(4.079433,0.029018)" fill-rule="nonzero" id="shape163" d="M.0,.8L1.9,.8L1.7,.0L.2,.0L.0,.8z"/><path fill="url(#lg11)" transform="translate(6.042370,0.031863)" fill-rule="nonzero" id="shape164" d="M.0,.8L1.9,.8L1.6,.0L.2,.0L.0,.8z"/><path fill="url(#lg11)" transform="translate(7.980913,0.029018)" fill-rule="nonzero" id="shape165" d="M.0,.8L1.9,.8L1.7,.0L.2,.0L.0,.8z"/><path fill="url(#lg11)" transform="translate(10.026800,0.034108)" fill-rule="nonzero" id="shape166" d="M.0,.8L1.9,.8L1.6,.0L.2,.0L.0,.8z"/><path fill="url(#lg11)" transform="translate(11.990619,0.015367)" fill-rule="nonzero" id="shape167" d="M.0,.8L1.9,.8L1.6,.0L.2,.0L.0,.8z"/><path fill="url(#lg11)" transform="translate(13.932300,0.038962)" fill-rule="nonzero" id="shape168" d="M.0,.8L1.9,.8L1.6,.0L.2,.0L.0,.8z"/><path fill="url(#lg11)" transform="translate(15.954819,-0.014527)" fill-rule="nonzero" id="shape169" d="M.0,.8L1.9,.8L1.6,.0L.2,.0L.0,.8z"/><path fill="url(#lg11)" transform="translate(17.896600,0.009060)" fill-rule="nonzero" id="shape170" d="M.0,.8L1.9,.8L1.6,.0L.2,.0L.0,.8z"/><path fill="url(#lg11)" transform="translate(19.809000,-0.004016)" fill-rule="nonzero" id="shape171" d="M.0,.8L1.9,.8L1.6,.0L.2,.0L.0,.8z"/></g><path fill="url(#lg11)" transform="translate(24.433318,0.039666)" fill-rule="nonzero" id="shape172" d="M.0,.8L1.9,.8L1.6,.0L.2,.0L.0,.8z"/></g><g transform="translate(0.968600,1.191689)" id="group173"><path fill="url(#lg10)" transform="translate(-0.009430,0.039292)" fill-rule="nonzero" id="shape174" d="M-0.0,.9L3.6,1.0L3.0,-0.0L.3,.0L-0.0,.9z"/><path fill="url(#lg10)" transform="translate(24.700710,0.023971)" fill-rule="nonzero" id="shape175" d="M.0,1.0L4.8,1.0L4.6,.5L4.4,-0.0L.6,.0L.0,1.0z"/><g transform="translate(2.954600,0.000000)" id="group176"><path fill="url(#lg10)" transform="translate(0.004970,0.023971)" fill-rule="nonzero" id="shape177" d="M.0,1.0L2.5,1.0L2.0,.0L.5,.0L.0,1.0z"/><path fill="url(#lg10)" transform="translate(2.018430,0.023971)" fill-rule="nonzero" id="shape178" d="M.0,1.0L2.5,1.0L2.0,.0L.5,.0L.0,1.0z"/><path fill="url(#lg10)" transform="translate(4.099380,0.014627)" fill-rule="nonzero" id="shape179" d="M.0,1.0L2.5,1.0L2.0,.0L.5,.0L.0,1.0z"/><path fill="url(#lg10)" transform="translate(6.049820,0.014627)" fill-rule="nonzero" id="shape180" d="M.0,1.0L2.5,1.0L1.9,.0L.5,.0L.0,1.0z"/><path fill="url(#lg10)" transform="translate(7.975480,0.014627)" fill-rule="nonzero" id="shape181" d="M.0,1.0L2.5,1.0L2.0,.0L.5,.0L.0,1.0z"/><path fill="url(#lg10)" transform="translate(9.988980,0.014627)" fill-rule="nonzero" id="shape182" d="M.0,1.0L2.5,1.0L2.0,.0L.5,.0L.0,1.0z"/><path fill="url(#lg10)" transform="translate(12.027880,0.043032)" fill-rule="nonzero" id="shape183" d="M.0,1.0L2.5,1.0L2.0,.0L.5,.0L.0,1.0z"/><path fill="url(#lg10)" transform="translate(13.978520,0.043032)" fill-rule="nonzero" id="shape184" d="M.0,1.0L2.5,1.0L1.9,.0L.5,.0L.0,1.0z"/><path fill="url(#lg10)" transform="translate(15.978830,0.043772)" fill-rule="nonzero" id="shape185" d="M.0,1.0L2.5,1.0L1.9,.0L.5,.0L.0,1.0z"/><path fill="url(#lg10)" transform="translate(17.929430,0.043772)" fill-rule="nonzero" id="shape186" d="M.0,1.0L2.4,1.0L1.8,.0L.5,.0L.0,1.0z"/><path fill="url(#lg10)" transform="translate(19.875530,0.043772)" fill-rule="nonzero" id="shape187" d="M.0,1.0L2.4,1.0L1.8,.0L.5,.0L.0,1.0z"/></g></g><path fill="url(#lg12)" transform="translate(0.481100,3.475974)" fill-rule="nonzero" id="shape188" d="M.0,.0L46.1,.0L46.1,.7L.0,.7L.0,.0z"/><g transform="translate(1.006000,1.379466)" id="group189"><path fill="url(#lg11)" transform="translate(0.003550,0.024482)" fill-rule="nonzero" id="shape190" d="M-0.0,.8L2.9,.8L2.5,.0L.3,.0L-0.0,.8z"/><path fill="url(#lg11)" transform="translate(25.052000,0.008219)" fill-rule="nonzero" id="shape191" d="M.0,.8L4.2,.8L4.0,-0.0L.3,.0L.0,.8z"/><g transform="translate(3.253700,0.000000)" id="group192"><path fill="url(#lg11)" transform="translate(0.006721,0.021919)" fill-rule="nonzero" id="shape193" d="M.0,.8L1.9,.8L1.7,.0L.2,.0L.0,.8z"/><path fill="url(#lg11)" transform="translate(2.052657,0.026626)" fill-rule="nonzero" id="shape194" d="M.0,.8L1.9,.8L1.6,.0L.2,.0L.0,.8z"/><path fill="url(#lg11)" transform="translate(4.079450,0.029018)" fill-rule="nonzero" id="shape195" d="M.0,.8L1.9,.8L1.7,.0L.2,.0L.0,.8z"/><path fill="url(#lg11)" transform="translate(6.042387,0.031863)" fill-rule="nonzero" id="shape196" d="M.0,.8L1.9,.8L1.6,.0L.2,.0L.0,.8z"/><path fill="url(#lg11)" transform="translate(7.980940,0.029018)" fill-rule="nonzero" id="shape197" d="M.0,.8L1.9,.8L1.7,.0L.2,.0L.0,.8z"/><path fill="url(#lg11)" transform="translate(10.026797,0.034108)" fill-rule="nonzero" id="shape198" d="M.0,.8L1.9,.8L1.6,.0L.2,.0L.0,.8z"/><path fill="url(#lg11)" transform="translate(11.990615,0.015367)" fill-rule="nonzero" id="shape199" d="M.0,.8L1.9,.8L1.6,.0L.2,.0L.0,.8z"/><path fill="url(#lg11)" transform="translate(13.932397,0.038962)" fill-rule="nonzero" id="shape200" d="M.0,.8L1.9,.8L1.6,.0L.2,.0L.0,.8z"/><path fill="url(#lg11)" transform="translate(15.954915,-0.014527)" fill-rule="nonzero" id="shape201" d="M.0,.8L1.9,.8L1.6,.0L.2,.0L.0,.8z"/><path fill="url(#lg11)" transform="translate(17.896597,0.009060)" fill-rule="nonzero" id="shape202" d="M.0,.8L1.9,.8L1.6,.0L.2,.0L.0,.8z"/><path fill="url(#lg11)" transform="translate(19.808997,-0.004016)" fill-rule="nonzero" id="shape203" d="M.0,.8L1.9,.8L1.6,.0L.2,.0L.0,.8z"/></g></g><g transform="translate(0.819000,1.640263)" id="group204"><path fill="url(#lg10)" transform="translate(-0.006090,0.034054)" fill-rule="nonzero" id="shape205" d="M.0,.9L4.9,1.0L4.2,-0.0L.3,.0L.0,.9z"/><path fill="url(#lg10)" transform="translate(4.246170,0.018733)" fill-rule="nonzero" id="shape206" d="M.0,1.0L2.5,1.0L2.0,.0L.5,.0L.0,1.0z"/><path fill="url(#lg10)" transform="translate(6.259620,0.018733)" fill-rule="nonzero" id="shape207" d="M.0,1.0L2.5,1.0L2.0,.0L.5,.0L.0,1.0z"/><path fill="url(#lg10)" transform="translate(8.340560,0.009389)" fill-rule="nonzero" id="shape208" d="M.0,1.0L2.5,1.0L2.0,.0L.5,.0L.0,1.0z"/><path fill="url(#lg10)" transform="translate(10.291020,0.009389)" fill-rule="nonzero" id="shape209" d="M.0,1.0L2.5,1.0L1.9,.0L.5,.0L.0,1.0z"/><path fill="url(#lg10)" transform="translate(12.216790,0.009389)" fill-rule="nonzero" id="shape210" d="M.0,1.0L2.5,1.0L2.0,.0L.5,.0L.0,1.0z"/><path fill="url(#lg10)" transform="translate(14.230190,0.009389)" fill-rule="nonzero" id="shape211" d="M.0,1.0L2.5,1.0L2.0,.0L.5,.0L.0,1.0z"/><path fill="url(#lg10)" transform="translate(16.269090,0.037795)" fill-rule="nonzero" id="shape212" d="M.0,1.0L2.5,1.0L2.0,.0L.5,.0L.0,1.0z"/><path fill="url(#lg10)" transform="translate(18.219620,0.037795)" fill-rule="nonzero" id="shape213" d="M.0,1.0L2.5,1.0L1.9,.0L.5,.0L.0,1.0z"/><path fill="url(#lg10)" transform="translate(20.219930,0.038543)" fill-rule="nonzero" id="shape214" d="M.0,1.0L2.5,1.0L1.9,.0L.5,.0L.0,1.0z"/><path fill="url(#lg10)" transform="translate(22.170420,0.038543)" fill-rule="nonzero" id="shape215" d="M.0,1.0L2.4,1.0L1.8,.0L.5,.0L.0,1.0z"/><path fill="url(#lg10)" transform="translate(24.018780,0.018733)" fill-rule="nonzero" id="shape216" d="M.0,1.0L5.7,1.0L5.5,.5L5.3,-0.0L.6,.0L.0,1.0z"/></g><g transform="translate(0.781600,1.790183)" id="group217"><path fill="url(#lg11)" transform="translate(4.584420,0.015185)" fill-rule="nonzero" id="shape218" d="M.0,.8L1.9,.8L1.7,.0L.2,.0L.0,.8z"/><path fill="url(#lg11)" transform="translate(0.037450,0.017877)" fill-rule="nonzero" id="shape219" d="M-0.0,.8L4.5,.8L4.2,-0.0L.4,.0L-0.0,.8z"/><path fill="url(#lg11)" transform="translate(6.630346,0.019901)" fill-rule="nonzero" id="shape220" d="M.0,.8L1.9,.8L1.6,.0L.2,.0L.0,.8z"/><path fill="url(#lg11)" transform="translate(8.657160,0.022293)" fill-rule="nonzero" id="shape221" d="M.0,.8L1.9,.8L1.7,.0L.2,.0L.0,.8z"/><path fill="url(#lg11)" transform="translate(10.620096,0.025139)" fill-rule="nonzero" id="shape222" d="M.0,.8L1.9,.8L1.6,.0L.2,.0L.0,.8z"/><path fill="url(#lg11)" transform="translate(12.558680,0.022293)" fill-rule="nonzero" id="shape223" d="M.0,.8L1.9,.8L1.7,.0L.2,.0L.0,.8z"/><path fill="url(#lg11)" transform="translate(14.604496,0.027374)" fill-rule="nonzero" id="shape224" d="M.0,.8L1.9,.8L1.6,.0L.2,.0L.0,.8z"/><path fill="url(#lg11)" transform="translate(16.568314,0.008642)" fill-rule="nonzero" id="shape225" d="M.0,.8L1.9,.8L1.6,.0L.2,.0L.0,.8z"/><path fill="url(#lg11)" transform="translate(18.510096,0.032237)" fill-rule="nonzero" id="shape226" d="M.0,.8L1.9,.8L1.6,.0L.2,.0L.0,.8z"/><path fill="url(#lg11)" transform="translate(20.532614,-0.021260)" fill-rule="nonzero" id="shape227" d="M.0,.8L1.9,.8L1.6,.0L.2,.0L.0,.8z"/><path fill="url(#lg11)" transform="translate(22.474296,0.002335)" fill-rule="nonzero" id="shape228" d="M.0,.8L1.9,.8L1.6,.0L.2,.0L.0,.8z"/><path fill="url(#lg11)" transform="translate(24.272460,-0.011589)" fill-rule="nonzero" id="shape229" d="M.0,.8L5.4,.8L5.0,-0.0L.4,.0L.0,.8z"/></g><g transform="translate(0.669400,2.163853)" id="group230"><path fill="url(#lg10)" transform="translate(2.880780,0.002681)" fill-rule="nonzero" id="shape231" d="M-0.0,1.0L2.8,1.0L2.4,.0L.5,.0L-0.0,1.0z"/><path fill="url(#lg10)" transform="translate(0.000290,0.018027)" fill-rule="nonzero" id="shape232" d="M.0,1.0L3.3,1.0L2.7,-0.0L.3,.0L.0,1.0z"/><path fill="url(#lg10)" transform="translate(5.346180,0.002392)" fill-rule="nonzero" id="shape233" d="M.0,1.0L3.0,1.0L2.4,.0L.5,.0L.0,1.0z"/><path fill="url(#lg10)" transform="translate(7.767490,0.002290)" fill-rule="nonzero" id="shape234" d="M.0,1.0L12.1,1.0L11.3,.0L.7,.0L.0,1.0z"/><path fill="url(#lg10)" transform="translate(19.297040,0.010154)" fill-rule="nonzero" id="shape235" d="M-0.0,1.0L2.8,1.0L2.4,.0L.5,.0L-0.0,1.0z"/><path fill="url(#lg10)" transform="translate(21.699990,0.002392)" fill-rule="nonzero" id="shape236" d="M.0,1.0L3.0,1.0L2.4,.0L.5,.0L.0,1.0z"/><path fill="url(#lg10)" transform="translate(24.212440,-0.002557)" fill-rule="nonzero" id="shape237" d="M-0.0,1.0L2.8,1.0L2.4,.0L.5,.0L-0.0,1.0z"/><path fill="url(#lg10)" transform="translate(26.497420,0.002427)" fill-rule="nonzero" id="shape238" d="M.0,1.0L3.4,1.0L3.0,.0L.6,.0L.0,1.0z"/></g><path fill="url(#lg10)" transform="translate(33.305090,1.640263)" fill-rule="nonzero" id="shape239" d="M.0,1.0L2.2,1.0L1.6,.0L.2,.0L.0,.5L.0,1.0z"/><path fill="url(#lg11)" transform="translate(33.364984,1.843175)" fill-rule="nonzero" id="shape240" d="M.0,.7L1.9,.7L1.7,.0L.2,.0L.0,.7z"/><g transform="translate(31.432760,2.153883)" id="group241"><path fill="url(#lg10)" transform="translate(-0.005260,-0.003152)" fill-rule="nonzero" id="shape242" d="M.0,1.0L2.2,1.0L1.6,.0L.2,.0L.0,.5L.0,1.0z"/><path fill="url(#lg10)" transform="translate(1.723050,0.022854)" fill-rule="nonzero" id="shape243" d="M.0,1.0L2.4,1.0L2.0,.0L.4,.0L.0,1.0z"/><path fill="url(#lg10)" transform="translate(3.715610,0.026484)" fill-rule="nonzero" id="shape244" d="M-0.0,1.0L2.2,1.0L2.0,.3L1.7,.0L.3,.0L-0.0,1.0z"/></g><g transform="translate(30.937670,0.353904)" id="group245"><path fill="url(#lg10)" transform="translate(-0.004480,-0.010840)" fill-rule="nonzero" id="shape246" d="M.0,1.0L2.2,1.0L1.6,.0L.2,.0L.0,.5L.0,1.0z"/><path fill="url(#lg10)" transform="translate(1.738490,0.015110)" fill-rule="nonzero" id="shape247" d="M.0,1.0L2.4,1.0L2.0,.0L.4,.0L.0,1.0z"/><path fill="url(#lg10)" transform="translate(3.747800,0.018687)" fill-rule="nonzero" id="shape248" d="M-0.0,1.0L2.2,1.0L1.7,.0L.4,.0L-0.0,1.0z"/></g><g transform="translate(30.934920,0.571195)" id="group249"><path fill="url(#lg11)" transform="translate(-0.012268,0.004363)" fill-rule="nonzero" id="shape250" d="M.0,.7L2.0,.7L1.8,.0L.2,.0L.0,.7z"/><path fill="url(#lg11)" transform="translate(1.967107,0.008565)" fill-rule="nonzero" id="shape251" d="M.0,.7L1.8,.7L1.7,.0L.2,.0L.0,.7z"/><path fill="url(#lg11)" transform="translate(3.816820,0.004363)" fill-rule="nonzero" id="shape252" d="M.0,.7L2.0,.7L1.8,.0L.2,.0L.0,.7z"/></g><g transform="translate(30.939860,0.710703)" id="group253"><path fill="url(#lg10)" transform="translate(-0.005260,-0.003152)" fill-rule="nonzero" id="shape254" d="M.0,1.0L2.2,1.0L1.6,.0L.2,.0L.0,.5L.0,1.0z"/><path fill="url(#lg10)" transform="translate(1.723050,0.022854)" fill-rule="nonzero" id="shape255" d="M.0,1.0L2.4,1.0L2.0,.0L.4,.0L.0,1.0z"/><path fill="url(#lg10)" transform="translate(3.715610,0.026484)" fill-rule="nonzero" id="shape256" d="M-0.0,1.0L2.2,1.0L2.0,.3L1.7,.0L.3,.0L-0.0,1.0z"/></g><g transform="translate(30.990760,1.005078)" id="group257"><path fill="url(#lg11)" transform="translate(-0.012365,0.004363)" fill-rule="nonzero" id="shape258" d="M.0,.7L2.0,.7L1.8,.0L.2,.0L.0,.7z"/><path fill="url(#lg11)" transform="translate(1.982782,0.008565)" fill-rule="nonzero" id="shape259" d="M.0,.7L1.9,.7L1.7,.0L.2,.0L.0,.7z"/><path fill="url(#lg11)" transform="translate(3.847237,0.004363)" fill-rule="nonzero" id="shape260" d="M.0,.7L2.0,.7L1.8,.0L.2,.0L.0,.7z"/></g><g transform="translate(37.848820,0.556083)" id="group261"><path fill="url(#lg11)" transform="translate(-0.008423,-0.000910)" fill-rule="nonzero" id="shape262" d="M.0,.7L1.9,.7L1.7,.0L.2,.0L.0,.7z"/><path fill="url(#lg11)" transform="translate(1.921082,0.003300)" fill-rule="nonzero" id="shape263" d="M.0,.7L1.8,.7L1.6,.0L.2,.0L.0,.7z"/><path fill="url(#lg11)" transform="translate(3.895248,-0.000842)" fill-rule="nonzero" id="shape264" d="M.0,.7L1.6,.7L1.3,.0L.2,.0L.0,.7z"/><path fill="url(#lg11)" transform="translate(5.580124,0.018293)" fill-rule="nonzero" id="shape265" d="M.0,.7L1.7,.7L1.4,.0L.3,.0L.0,.7z"/></g><path fill="url(#lg10)" transform="translate(43.530640,0.758272)" fill-rule="nonzero" id="shape266" d="M.0,1.4L2.3,1.4L1.6,.0L.4,.0L.0,1.4z"/><path fill="url(#lg11)" transform="translate(43.933400,1.460445)" fill-rule="nonzero" id="shape267" d="M.0,.7L1.8,.7L1.6,.0L.2,.0L.0,.7z"/><g transform="translate(37.869830,0.766526)" id="group268"><path fill="url(#lg10)" transform="translate(-0.005900,-0.002946)" fill-rule="nonzero" id="shape269" d="M.1,1.0L2.3,1.0L1.7,.0L.3,.0L.0,.5L.1,1.0z"/><path fill="url(#lg10)" transform="translate(1.814880,0.023068)" fill-rule="nonzero" id="shape270" d="M.0,1.0L2.4,1.0L1.9,.0L.4,.0L.0,1.0z"/><path fill="url(#lg10)" transform="translate(3.792520,0.026664)" fill-rule="nonzero" id="shape271" d="M-0.0,1.0L2.2,1.0L1.7,.0L.3,.0L-0.0,1.0z"/></g><g transform="translate(38.019800,1.000428)" id="group272"><path fill="url(#lg11)" transform="translate(-0.012368,0.004363)" fill-rule="nonzero" id="shape273" d="M.0,.7L2.0,.7L1.8,.0L.2,.0L.0,.7z"/><path fill="url(#lg11)" transform="translate(1.982798,0.008565)" fill-rule="nonzero" id="shape274" d="M.0,.7L1.9,.7L1.7,.0L.2,.0L.0,.7z"/><path fill="url(#lg11)" transform="translate(3.847185,0.004363)" fill-rule="nonzero" id="shape275" d="M.0,.7L1.7,.7L1.5,.0L.2,.0L.0,.7z"/></g><g transform="translate(37.995960,1.209155)" id="group276"><path fill="url(#lg10)" transform="translate(0.005820,0.007145)" fill-rule="nonzero" id="shape277" d="M.1,1.0L2.3,1.0L1.7,.0L.3,.0L-0.0,.5L.1,1.0z"/><path fill="url(#lg10)" transform="translate(1.854750,0.033159)" fill-rule="nonzero" id="shape278" d="M.0,1.0L2.5,1.0L2.0,.0L.4,.0L.0,1.0z"/><path fill="url(#lg10)" transform="translate(3.890490,0.036754)" fill-rule="nonzero" id="shape279" d="M-0.0,1.0L2.2,1.0L1.7,.0L.4,.0L-0.0,1.0z"/></g><g transform="translate(38.136920,1.443618)" id="group280"><path fill="url(#lg11)" transform="translate(-0.012268,0.004363)" fill-rule="nonzero" id="shape281" d="M.0,.7L2.0,.7L1.8,.0L.2,.0L.0,.7z"/><path fill="url(#lg11)" transform="translate(1.967107,0.008565)" fill-rule="nonzero" id="shape282" d="M.0,.7L1.8,.7L1.7,.0L.2,.0L.0,.7z"/><path fill="url(#lg11)" transform="translate(3.816820,0.004363)" fill-rule="nonzero" id="shape283" d="M.0,.7L2.0,.7L1.8,.0L.2,.0L.0,.7z"/></g><g transform="translate(38.177690,1.640263)" id="group284"><path fill="url(#lg10)" transform="translate(-0.005370,-0.003152)" fill-rule="nonzero" id="shape285" d="M.0,1.0L2.2,1.0L1.6,.0L.2,.0L.0,.5L.0,1.0z"/><path fill="url(#lg10)" transform="translate(1.755860,0.022854)" fill-rule="nonzero" id="shape286" d="M.0,1.0L2.5,1.0L2.0,.0L.4,.0L.0,1.0z"/><path fill="url(#lg10)" transform="translate(3.786340,0.026484)" fill-rule="nonzero" id="shape287" d="M-0.0,1.0L2.2,1.0L2.0,.3L1.7,.0L.4,.0L-0.0,1.0z"/></g><g transform="translate(38.298860,1.850918)" id="group288"><path fill="url(#lg11)" transform="translate(-0.012365,0.004363)" fill-rule="nonzero" id="shape289" d="M.0,.7L2.0,.7L1.8,.0L.2,.0L.0,.7z"/><path fill="url(#lg11)" transform="translate(1.982782,0.008565)" fill-rule="nonzero" id="shape290" d="M.0,.7L1.9,.7L1.7,.0L.2,.0L.0,.7z"/><path fill="url(#lg11)" transform="translate(3.847237,0.004363)" fill-rule="nonzero" id="shape291" d="M.0,.7L2.0,.7L1.8,.0L.2,.0L.0,.7z"/></g><path fill="url(#lg10)" transform="translate(44.022560,1.659962)" fill-rule="nonzero" id="shape292" d="M.2,1.6L2.2,1.5L2.0,.8L1.6,.0L.2,.0L-0.0,.7L.2,1.6z"/><g transform="translate(38.185300,2.195865)" id="group293"><path fill="url(#lg10)" transform="translate(0.010520,0.016392)" fill-rule="nonzero" id="shape294" d="M.2,1.0L4.5,1.0L3.7,.0L.5,.0L-0.0,.5L.2,1.0z"/><path fill="url(#lg10)" transform="translate(3.915210,0.000421)" fill-rule="nonzero" id="shape295" d="M.0,1.0L2.1,1.0L1.8,.0L.4,.0L.0,1.0z"/></g><g transform="translate(0.611700,2.477724)" id="group296"><path fill="url(#lg11)" transform="translate(3.224730,0.000001)" fill-rule="nonzero" id="shape297" d="M.0,.7L2.4,.7L2.2,.0L.3,.0L.0,.7z"/><path fill="url(#lg11)" transform="translate(0.000080,0.002432)" fill-rule="nonzero" id="shape298" d="M-0.0,.7L3.2,.7L3.0,-0.0L.3,.0L-0.0,.7z"/><path fill="url(#lg11)" transform="translate(5.732320,0.000001)" fill-rule="nonzero" id="shape299" d="M.0,.7L2.4,.7L2.2,.0L.3,.0L.0,.7z"/><path fill="url(#lg11)" transform="translate(8.308970,-0.001558)" fill-rule="nonzero" id="shape300" d="M-0.0,.7L11.1,.7L10.9,.0L.3,.0L-0.0,.7z"/><path fill="url(#lg11)" transform="translate(19.535890,0.000001)" fill-rule="nonzero" id="shape301" d="M.0,.7L2.4,.7L2.2,.0L.3,.0L.0,.7z"/><path fill="url(#lg11)" transform="translate(22.019390,0.023920)" fill-rule="nonzero" id="shape302" d="M.0,.7L2.4,.7L2.2,.0L.3,.0L.0,.7z"/><path fill="url(#lg11)" transform="translate(24.563590,0.023920)" fill-rule="nonzero" id="shape303" d="M.0,.7L2.4,.7L2.2,.0L.3,.0L.0,.7z"/><path fill="url(#lg11)" transform="translate(27.063330,-0.006206)" fill-rule="nonzero" id="shape304" d="M-0.0,.7L2.8,.7L2.6,-0.0L.3,.0L-0.0,.7z"/><path fill="url(#lg11)" transform="translate(30.874845,0.023920)" fill-rule="nonzero" id="shape305" d="M.0,.7L2.0,.7L1.8,.0L.2,.0L.0,.7z"/><path fill="url(#lg11)" transform="translate(32.870166,0.000001)" fill-rule="nonzero" id="shape306" d="M.0,.7L1.8,.7L1.6,.0L.2,.0L.0,.7z"/><path fill="url(#lg11)" transform="translate(34.734645,0.023920)" fill-rule="nonzero" id="shape307" d="M.0,.7L2.0,.7L1.8,.0L.2,.0L.0,.7z"/><path fill="url(#lg11)" transform="translate(37.747990,0.005978)" fill-rule="nonzero" id="shape308" d="M.0,.7L4.0,.7L3.6,.0L.5,.0L.0,.7z"/><path fill="url(#lg11)" transform="translate(41.769166,0.021925)" fill-rule="nonzero" id="shape309" d="M.0,.7L1.8,.7L1.6,.0L.2,.0L.0,.7z"/><path fill="url(#lg11)" transform="translate(43.605745,0.005978)" fill-rule="nonzero" id="shape310" d="M.0,.7L2.0,.7L1.8,.0L.2,.0L.0,.7z"/></g></g><g transform="translate(23.694800,0.000000)" id="group311"><path fill="url(#lg13)" transform="translate(10.340500,41.492140)" fill-rule="nonzero" id="shape312" d="M.0,.1L.0,1.3C.0,1.3,-0.1,2.1,1.0,2.0C3.1,2.2,8.7,2.6,15.9,2.6C23.3,2.6,27.8,2.3,29.3,2.2C30.0,2.2,30.0,1.3,30.0,1.3L30.0,.0C30.0,.0,10.3,2.6,.0,.1z"/><path fill="url(#lg13)" transform="translate(10.357100,40.074320)" fill-rule="nonzero" id="shape313" d="M12.3,.0C12.3,.0,2.2,.2,.1,1.4C-2.0,2.7,24.2,3.5,29.6,1.7C31.2,1.2,26.7,.0,12.3,.0z"/><path fill="url(#lg14)" transform="translate(10.357100,40.074320)" fill-rule="nonzero" id="shape314" d="M12.3,.0C12.3,.0,2.2,.2,.1,1.4C-2.0,2.7,24.2,3.5,29.6,1.7C31.2,1.2,26.7,.0,12.3,.0z"/><path stroke="#313131" stroke-width="1" fill="url(#lg15)" transform="translate(22.991610,34.842350)" fill-rule="nonzero" id="shape315" d="M.0,.0L5.1,.0L5.1,6.8L.0,6.8L.0,.0z"/><path stroke="#464646" stroke-width="1" fill="url(#lg1)" transform="translate(0.467400,-0.002400)" fill-rule="nonzero" id="shape316" d="M.2,.0L49.9,.0C50.1,.0,50.2,.1,50.2,.2L50.2,36.1C50.2,36.3,50.1,36.4,49.9,36.4L.2,36.4C.1,36.4,.0,36.3,.0,36.1L.0,.2C.0,.1,.1,.0,.2,.0z"/><path stroke="#184b6e" stroke-width="1" fill="url(#lg16)" transform="translate(3.121900,2.552100)" fill-rule="nonzero" id="shape317" d="M.0,.0L44.9,.0L44.9,31.2L.0,31.2L.0,.0z"/><path fill="url(#lg17)" transform="matrix(-1.000000,0.000000,0.000000,1.000000,40.392700,40.074290)" fill-rule="nonzero" id="shape318" d="M12.4,.0C12.4,.0,1.5,.2,.1,1.4C-1.8,3.0,24.3,3.5,29.7,1.7C31.3,1.2,26.8,.0,12.4,.0z"/></g><text style="fill:#191919;font-family:微软雅黑,PingFang SC,Mircrosoft YaHei,Arial;font-size:11.00pt" xml:space="preserve"><tspan x="28.4" style="font-family:微软雅黑,PingFang SC,Mircrosoft YaHei,Arial" y="67.5">电脑</tspan></text></g><g transform="translate(183.647625,465.276773)" id="group319"><path fill="#000000" transform="translate(0.096600,-0.003200)" fill-rule="nonzero" id="shape320" d="M44.2,.5C44.2,.5,47.1,-0.8,49.4,.7L65.9,10.6C65.9,10.6,68.4,12.4,64.9,14.4L24.7,40.1C24.7,40.1,21.2,42.5,18.0,40.7L1.1,28.9C1.1,28.9,-1.5,27.2,1.3,25.1L44.2,.5z"/><path fill="#404040" transform="translate(7.066300,3.204200)" fill-rule="nonzero" id="shape321" d="M.0,20.1L35.0,.0L54.4,11.6L19.5,33.7L.0,20.1z"/><path fill="url(#lg18)" transform="translate(0.000000,11.984800)" fill-rule="nonzero" id="shape322" d="M67.0,.0C67.0,.0,67.4,1.5,63.6,3.3L24.5,28.3C24.5,28.3,21.5,29.9,18.7,29.0L1.1,16.8C1.1,16.8,.1,16.0,.1,15.1L.0,17.7C.0,17.7,.1,19.1,1.5,20.0L17.4,31.1C17.4,31.1,20.1,32.9,23.7,31.5L65.4,4.6C65.4,4.6,66.8,4.0,66.9,2.7L67.0,.0z"/><path fill="#404040" transform="translate(7.948010,34.845770)" fill-rule="nonzero" id="shape323" d="M.8,.1L3.7,2.1C3.7,2.1,4.6,2.8,3.7,3.3C3.7,3.3,3.4,3.4,2.8,3.1L.3,1.2C.3,1.2,-0.4,.6,.3,.1C.3,.1,.6,-0.1,.8,.1z"/><path fill="#595959" transform="translate(0.985358,29.665900)" fill-rule="nonzero" id="shape324" d="M.0,1.3C-0.1,.7,.1,.1,.5,.0C1.0,-0.1,1.5,.3,1.6,.9C1.8,1.5,1.6,2.1,1.1,2.2C.7,2.3,.2,1.9,.0,1.3z"/><path fill="url(#lg19)" transform="translate(0.052200,10.590500)" fill-rule="nonzero" id="shape325" d="M25.4,29.3L65.0,3.9C65.0,3.9,68.5,2.0,66.0,.0C66.0,.0,67.7,1.9,64.6,3.5L25.1,28.7C25.1,28.7,21.2,31.1,18.2,29.5L1.5,17.7C1.5,17.7,-0.6,16.3,1.1,14.6C1.1,14.6,-1.4,16.3,1.1,18.3L18.0,30.1C18.0,30.1,20.6,32.0,25.4,29.3z"/><path fill="#202020" transform="translate(51.987500,6.366060)" fill-rule="nonzero" id="shape326" d="M.5,.0L4.2,2.3C4.2,2.3,4.5,2.8,3.8,2.7L.1,.4C.1,.4,-0.3,-0.1,.5,.0z"/><path fill="#202020" transform="translate(50.262737,5.101999)" fill-rule="nonzero" id="shape327" d="M.0,.3C.0,.1,.2,-0.0,.5,-0.0C.8,-0.0,1.0,.1,1.0,.3C1.0,.5,.8,.7,.5,.7C.2,.7,.0,.5,.0,.3z"/><path fill="#202020" transform="translate(55.188864,5.977646)" fill-rule="nonzero" id="shape328" d="M-0.0,.4C-0.0,.2,.3,-0.0,.8,-0.0C1.2,-0.0,1.5,.2,1.5,.4C1.5,.7,1.2,.9,.8,.9C.3,.9,-0.0,.7,-0.0,.4z"/><path fill="url(#lg20)" transform="translate(10.878400,30.038550)" fill-rule="nonzero" id="shape329" d="M.0,2.2C.0,1.0,1.2,.0,2.7,.0C4.2,.0,5.4,1.0,5.4,2.2C5.4,3.4,4.2,4.4,2.7,4.4C1.2,4.4,.0,3.4,.0,2.2z"/><path fill="#d0d0d0" transform="translate(12.402170,30.980880)" fill-rule="nonzero" id="shape330" d="M1.4,.0L2.5,.9C2.5,.9,2.7,1.1,2.4,1.3C2.0,1.7,1.6,2.0,1.6,2.0C1.6,2.0,1.3,2.2,.9,1.9C.6,1.6,.1,1.3,.1,1.3C.1,1.3,-0.2,1.0,.3,.6L.9,.2C.9,.2,1.2,-0.1,1.4,.0z"/><path fill="#000000" transform="translate(12.757484,31.257622)" fill-rule="nonzero" id="shape331" d="M1.0,.0L1.8,.6C1.8,.6,2.0,.8,1.7,1.0C1.5,1.2,1.1,1.4,1.1,1.4C1.1,1.4,.9,1.6,.7,1.4C.4,1.2,.1,.9,.1,.9C.1,.9,-0.2,.8,.2,.5L.6,.1C.6,.1,.9,-0.1,1.0,.0z"/><path fill="#808080" transform="translate(12.862010,38.081860)" fill-rule="nonzero" id="shape332" d="M.2,.0L4.2,2.9L4.0,4.0L.0,1.1L.2,.0z"/><path fill="#808080" transform="translate(3.063660,31.079250)" fill-rule="nonzero" id="shape333" d="M.2,.0L4.2,2.9L4.0,4.0L.0,1.1L.2,.0z"/><path fill="#595959" transform="translate(8.088260,34.995680)" fill-rule="nonzero" id="shape334" d="M.7,.1L3.5,2.0C3.5,2.0,4.3,2.6,3.5,3.1C3.5,3.1,3.2,3.1,2.7,2.8L.2,1.0C.2,1.0,-0.3,.4,.3,.0C.3,.0,.5,-0.1,.7,.1z"/><path fill="#202020" transform="matrix(0.984808,-0.173648,0.173648,0.984808,1.483001,29.836512)" fill-rule="nonzero" id="shape335" d="M.0,1.1C-0.0,.6,-0.0,.1,.2,.0C.4,-0.1,.8,.2,.9,.7C1.0,1.3,.8,1.7,.6,1.8C.5,1.8,.1,1.6,.0,1.1z"/><path fill="#202020" transform="translate(8.160620,35.002190)" fill-rule="nonzero" id="shape336" d="M.2,.0C.2,.0,.3,-0.1,.7,.1C1.0,.3,3.4,2.0,3.4,2.0C3.4,2.0,3.8,2.3,3.8,2.7L3.7,2.8L.0,.2C.0,.2,.1,.1,.2,.0z"/><path fill="url(#lg21)" transform="translate(26.048600,-0.001500)" fill-rule="nonzero" id="shape337" d="M18.3,.5C18.3,.5,21.1,-0.8,23.5,.7L40.0,10.6C40.0,10.6,41.6,12.8,38.4,14.4L.0,38.8L18.3,.5z"/><path fill="#c8c8c8" transform="translate(62.460671,15.789950)" fill-rule="nonzero" id="shape338" d="M.0,.4L.6,.0L.6,2.4L.0,2.7L.0,.4z"/><text style="fill:#191919;font-family:微软雅黑,PingFang SC,Mircrosoft YaHei,Arial;font-size:11.00pt" xml:space="preserve"><tspan x="19.8" style="font-family:微软雅黑,PingFang SC,Mircrosoft YaHei,Arial" y="60.7">手机</tspan></text></g><g transform="translate(271.893425,406.145173)" id="group339"><path stroke="#000000" stroke-width="0.25" fill="url(#lg22)" transform="translate(-0.012600,0.000000)" fill-rule="nonzero" id="shape340" stroke-opacity="0.00" d="M32.0,23.5L32.0,18.8L43.6,28.5L32.0,38.8L32.0,34.3C32.0,34.3,11.4,29.5,.0,23.5L.0,.0C.0,.0,12.1,16.8,32.0,23.5z"/><path stroke="#000000" stroke-width="0.25" fill="url(#lg23)" transform="matrix(1.000000,0.000000,0.000000,-1.000000,-0.012600,57.583100)" fill-rule="nonzero" id="shape341" stroke-opacity="0.00" d="M32.0,23.5L32.0,18.8L43.6,29.1L32.0,38.8L32.0,34.2C32.0,34.2,11.4,29.5,.0,23.5L.0,.0C.0,.0,12.1,16.8,32.0,23.5z"/><path stroke="#000000" stroke-width="0.25" fill="url(#lg24)" transform="translate(31.984290,18.829700)" fill-rule="nonzero" id="shape342" stroke-opacity="0.00" d="M.0,.0L.0,20.2L12.0,9.6L.0,.0z"/></g><g transform="translate(324.958130,373.981095)" id="group343"><path stroke="#868686" stroke-width="1" fill="#e9f8f5" fill-rule="nonzero" id="shape344" d="M11.0,.0L80.7,.0C86.8,.0,91.7,4.9,91.7,11.0L91.7,111.5C91.7,117.5,86.8,122.5,80.7,122.5L11.0,122.5C4.9,122.5,.0,117.5,.0,111.5L.0,11.0C.0,4.9,4.9,.0,11.0,.0z"/></g><g transform="translate(335.343230,373.979895)" id="shape345"><text style="fill:#191919;font-family:微软雅黑,PingFang SC,Mircrosoft YaHei,Arial;font-size:10.00pt" xml:space="preserve"><tspan x="10.8" style="font-family:微软雅黑,PingFang SC,Mircrosoft YaHei,Arial" y="21.6">负载均衡</tspan></text></g><g transform="translate(335.343230,455.088895)" id="shape346"><text style="fill:#191919;font-family:微软雅黑,PingFang SC,Mircrosoft YaHei,Arial;font-size:10.00pt" xml:space="preserve"><tspan x="4.2" style="font-family:微软雅黑,PingFang SC,Mircrosoft YaHei,Arial" y="21.6">Nginx/SLB</tspan></text></g><g transform="translate(343.266230,406.146095)" id="group347"><path fill="#00c1de" fill-rule="nonzero" id="shape349" d="M46.6,26.9C44.9,27.0,43.4,27.4,41.9,28.1L35.9,19.0C38.2,17.0,39.6,14.1,39.6,10.9C39.5,4.9,34.6,.0,28.6,.0C22.6,.0,17.7,5.0,17.7,11.0C17.8,14.2,19.2,17.1,21.5,19.1L15.5,28.2C14.1,27.5,12.5,27.1,10.9,27.1C4.8,27.1,.0,32.1,.0,38.1C.0,44.1,4.9,48.9,11.0,48.9C16.5,48.9,21.0,44.8,21.7,39.5L35.9,39.4C36.7,44.7,41.2,48.8,46.7,48.8C52.7,48.8,57.6,43.8,57.6,37.8C57.6,31.8,52.6,26.9,46.6,26.9zM35.9,36.4L21.7,36.4C21.3,33.9,20.0,31.6,18.1,29.9L24.0,20.8C25.5,21.4,27.0,21.9,28.7,21.8C30.3,21.8,31.9,21.4,33.4,20.7L39.4,29.8C37.5,31.5,36.2,33.8,35.9,36.4z"/></g><path stroke="#ebebeb" stroke-width="1" fill="#ebebeb" transform="matrix(0.000000,-1.000000,1.000000,0.000000,808.473325,444.830625)" fill-rule="nonzero" id="shape350" d="M19.6,.0L19.6,29.8L31.2,26.6L15.6,48.5L.0,26.6L11.5,29.8L11.5,.0L19.6,.0"/><g transform="translate(194.073825,570.512275)" id="table351"><g><path stroke="#191919" stroke-width="1" fill="#ffffff" d="M.0,.0L275.9,.0L275.9,30.0L.0,30.0L.0,.0z"/><text style="fill:#000000;font-family:Arial,PingFang SC,Mircrosoft YaHei,Arial;font-size:8.00pt" xml:space="preserve"><tspan x="7.7" style="font-family:Arial,PingFang SC,Mircrosoft YaHei,Arial" y="17.0">两台服务器，典型分配是应用A加数据库B</tspan></text></g><g><path stroke="#191919" stroke-width="1" fill="#ffffff" d="M.0,30.0L275.9,30.0L275.9,62.2L.0,62.2L.0,30.0z"/><text style="fill:#000000;font-family:Arial,PingFang SC,Mircrosoft YaHei,Arial;font-size:8.00pt" xml:space="preserve"><tspan x="7.7" style="font-family:Arial,PingFang SC,Mircrosoft YaHei,Arial" y="48.1">数据库服务器部署备应用，避免A故障</tspan></text></g><g><path stroke="#191919" stroke-width="1" fill="#ffffff" d="M.0,62.2L275.9,62.2L275.9,93.2L.0,93.2L.0,62.2z"/><text style="fill:#000000;font-family:Arial,PingFang SC,Mircrosoft YaHei,Arial;font-size:8.00pt" xml:space="preserve"><tspan x="7.7" style="font-family:Arial,PingFang SC,Mircrosoft YaHei,Arial" y="79.7">应用服务器同时作为数据库从机，避免B损坏丢数据</tspan></text></g><g><path stroke="#191919" stroke-width="1" fill="#ffffff" d="M.0,93.2L275.9,93.2L275.9,124.2L.0,124.2L.0,93.2z"/><text style="fill:#000000;font-family:Arial,PingFang SC,Mircrosoft YaHei,Arial;font-size:8.00pt" xml:space="preserve"><tspan x="7.7" style="font-family:Arial,PingFang SC,Mircrosoft YaHei,Arial" y="110.7">前端nginx提供负载均衡，在A不可用时自动切换B</tspan></text></g><g><path stroke="#191919" stroke-width="1" fill="#ffffff" d="M.0,124.2L275.9,124.2L275.9,155.2L.0,155.2L.0,124.2z"/><text style="fill:#000000;font-family:Arial,PingFang SC,Mircrosoft YaHei,Arial;font-size:8.00pt" xml:space="preserve"><tspan x="7.7" style="font-family:Arial,PingFang SC,Mircrosoft YaHei,Arial" y="141.7">服务器和应用接入星尘，方便监控和发布</tspan></text></g></g><g transform="translate(714.389525,343.428325)" id="group352"><path fill="#00c1de" fill-rule="nonzero" id="shape354" d="M24.1,3.5L18.6,5.3L15.1,3.3L24.2,.0L33.4,3.3L29.9,5.3L24.1,3.5L24.1,3.5zM24.2,14.3L29.7,12.4L33.3,14.5L24.1,17.7L14.9,14.4L18.4,12.4L24.2,14.3zM15.8,11.5L12.1,13.3L.1,8.9L12.3,4.4L15.8,6.5L9.2,8.9L15.8,11.5L15.8,11.5zM39.3,8.9L32.7,6.5L36.3,4.4L48.5,8.9L36.5,13.3L32.7,11.5L39.3,8.9zM24.2,24.7L.1,15.3L.0,10.5L24.2,19.9L48.4,10.6L48.4,15.4L24.2,24.7zM24.2,26.5L48.5,17.2L48.5,22.0L24.2,31.3L.1,21.9L.1,17.1L24.2,26.5zM.1,23.7L24.2,33.1L48.5,23.8L48.5,28.7L24.2,37.9L.1,28.5L.1,23.7L.1,23.7z"/></g><g transform="translate(615.073825,339.849125)" id="group355"><path fill="#00c1de" transform="translate(0.016000,0.000000)" fill-rule="nonzero" id="shape357" d="M46.0,9.0C44.8,9.6,40.5,9.8,40.6,10.8C40.6,11.0,40.7,11.0,40.7,11.1C44.5,18.9,43.8,28.0,36.8,37.6C35.8,38.9,34.6,40.1,33.3,41.1C32.4,41.6,32.1,41.9,31.5,42.0C34.8,37.5,36.4,31.5,35.0,25.7C33.8,20.4,30.4,16.2,26.0,13.5L25.8,13.5C25.7,13.5,25.6,13.7,25.6,13.7C25.2,14.8,25.3,18.3,24.6,18.6C23.6,18.8,21.9,16.7,20.9,13.7C20.5,12.1,20.5,11.4,20.6,11.0L20.6,10.8L20.5,10.7C17.6,9.6,15.3,9.0,14.8,8.9C13.7,8.5,10.4,7.6,11.3,6.1C12.4,4.4,14.9,4.0,16.8,3.5C18.1,1.4,21.3,.1,23.6,.0C25.9,.0,31.6,1.2,35.9,5.0C36.0,5.0,36.4,5.1,36.5,5.1C39.4,4.8,46.5,7.9,46.0,9.0zM29.7,29.3L32.8,24.4C32.4,23.7,32.2,23.0,31.8,22.4L28.6,27.4L22.3,27.4L25.9,33.1L21.7,39.7L13.3,39.7L9.0,33.0L12.7,27.3L6.4,27.3L2.2,20.6L6.4,14.0L14.8,14.0L17.4,18.1L19.0,15.5C18.9,15.4,18.9,15.2,18.8,15.1C18.6,14.1,18.4,13.4,18.4,12.8L17.4,14.5L15.9,12.1L5.4,12.1L.0,20.8L5.4,29.3L9.3,29.3L6.9,33.1L12.3,41.6L22.9,41.6L28.3,33.1L25.9,29.3L29.7,29.3z"/></g><g transform="translate(615.073825,519.409125)" id="group358"><path fill="#00c1de" transform="translate(0.016000,0.000000)" fill-rule="nonzero" id="shape360" d="M46.0,9.0C44.8,9.6,40.5,9.8,40.6,10.8C40.6,11.0,40.7,11.0,40.7,11.1C44.5,18.9,43.8,28.0,36.8,37.6C35.8,38.9,34.6,40.1,33.3,41.1C32.4,41.6,32.1,41.9,31.5,42.0C34.8,37.5,36.4,31.5,35.0,25.7C33.8,20.4,30.4,16.2,26.0,13.5L25.8,13.5C25.7,13.5,25.6,13.7,25.6,13.7C25.2,14.8,25.3,18.3,24.6,18.6C23.6,18.8,21.9,16.7,20.9,13.7C20.5,12.1,20.5,11.4,20.6,11.0L20.6,10.8L20.5,10.7C17.6,9.6,15.3,9.0,14.8,8.9C13.7,8.5,10.4,7.6,11.3,6.1C12.4,4.4,14.9,4.0,16.8,3.5C18.1,1.4,21.3,.1,23.6,.0C25.9,.0,31.6,1.2,35.9,5.0C36.0,5.0,36.4,5.1,36.5,5.1C39.4,4.8,46.5,7.9,46.0,9.0zM29.7,29.3L32.8,24.4C32.4,23.7,32.2,23.0,31.8,22.4L28.6,27.4L22.3,27.4L25.9,33.1L21.7,39.7L13.3,39.7L9.0,33.0L12.7,27.3L6.4,27.3L2.2,20.6L6.4,14.0L14.8,14.0L17.4,18.1L19.0,15.5C18.9,15.4,18.9,15.2,18.8,15.1C18.6,14.1,18.4,13.4,18.4,12.8L17.4,14.5L15.9,12.1L5.4,12.1L.0,20.8L5.4,29.3L9.3,29.3L6.9,33.1L12.3,41.6L22.9,41.6L28.3,33.1L25.9,29.3L29.7,29.3z"/></g><g transform="translate(714.895525,523.488425)" id="group361"><path fill="#00c1de" fill-rule="nonzero" id="shape363" d="M24.1,3.5L18.6,5.3L15.1,3.3L24.2,.0L33.4,3.3L29.9,5.3L24.1,3.5L24.1,3.5zM24.2,14.3L29.7,12.4L33.3,14.5L24.1,17.7L14.9,14.4L18.4,12.4L24.2,14.3zM15.8,11.5L12.1,13.3L.1,8.9L12.3,4.4L15.8,6.5L9.2,8.9L15.8,11.5L15.8,11.5zM39.3,8.9L32.7,6.5L36.3,4.4L48.5,8.9L36.5,13.3L32.7,11.5L39.3,8.9zM24.2,24.7L.1,15.3L.0,10.5L24.2,19.9L48.4,10.6L48.4,15.4L24.2,24.7zM24.2,26.5L48.5,17.2L48.5,22.0L24.2,31.3L.1,21.9L.1,17.1L24.2,26.5zM.1,23.7L24.2,33.1L48.5,23.8L48.5,28.7L24.2,37.9L.1,28.5L.1,23.7L.1,23.7z"/></g><g transform="translate(751.508325,385.326602)" id="group364"><g id="group365"><g id="group367"><path fill="#1c7b68" transform="translate(13.170380,10.034540)" fill-rule="nonzero" id="shape368" d="M.0,.0L2.5,.0L2.5,1.3L.0,1.3L.0,.0z"/><path fill="#1c7b68" transform="translate(4.528090,10.034540)" fill-rule="nonzero" id="shape369" d="M.0,.0L7.4,.0L7.4,1.3L.0,1.3L.0,.0z"/><path fill="#1c7b68" transform="translate(18.814800,18.814840)" fill-rule="nonzero" id="shape370" d="M.0,.0L9.4,.0L9.4,1.3L.0,1.3L.0,.0z"/><path fill="#1c7b68" transform="translate(15.051880,18.814840)" fill-rule="nonzero" id="shape371" d="M.0,.0L2.5,.0L2.5,1.3L.0,1.3L.0,.0z"/><path fill="#1c7b68" transform="translate(2.508600,7.528590)" fill-rule="nonzero" id="shape372" d="M6.3,15.0C6.1,15.0,6.0,15.0,5.9,14.9L.2,10.2C.1,10.1,.0,9.9,.0,9.7C.0,9.5,.1,9.3,.2,9.2L5.9,4.7C6.1,4.6,6.3,4.6,6.5,4.7C6.8,4.8,6.9,5.0,6.9,5.2L6.9,6.9L19.4,6.9C19.8,6.9,20.0,7.2,20.0,7.5L20.0,8.5L24.2,5.3L20.0,1.9L20.0,3.1C20.0,3.5,19.8,3.8,19.4,3.8L14.4,3.8L14.4,2.5L18.8,2.5L18.8,.6C18.8,.4,18.9,.2,19.1,.0C19.4,.0,19.6,.0,19.8,.1L25.6,4.8C25.7,5.0,25.8,5.1,25.8,5.3C25.8,5.5,25.7,5.7,25.6,5.8L19.8,10.3C19.6,10.5,19.4,10.5,19.1,10.4C18.9,10.3,18.8,10.1,18.8,9.8L18.8,8.2L6.3,8.2C5.9,8.2,5.6,7.9,5.6,7.5L5.6,6.5L1.6,9.7L5.6,13.1L5.6,11.9C5.6,11.6,5.9,11.3,6.3,11.3L11.3,11.3L11.3,12.5L6.9,12.5L6.9,14.4C6.9,14.7,6.8,14.9,6.5,15.0C6.5,15.0,6.4,15.0,6.3,15.0z"/><path fill="#1c7b68" fill-rule="nonzero" id="shape373" d="M27.3,31.4L4.0,31.4C1.8,31.4,.0,29.5,.0,27.3L.0,4.0C.0,1.8,1.8,.0,4.0,.0L27.3,.0C29.5,.0,31.4,1.8,31.4,4.0L31.4,27.3C31.4,29.5,29.5,31.4,27.3,31.4zM4.0,1.3C2.5,1.3,1.3,2.5,1.3,4.0L1.3,27.3C1.3,28.9,2.5,30.1,4.0,30.1L27.3,30.1C28.9,30.1,30.1,28.9,30.1,27.3L30.1,4.0C30.1,2.5,28.9,1.3,27.3,1.3L4.0,1.3z"/></g></g></g><g transform="translate(697.281325,394.684602)" id="shape375"><text style="fill:#191919;font-family:微软雅黑,PingFang SC,Mircrosoft YaHei,Arial;font-size:6.00pt" xml:space="preserve"><tspan x="14.0" style="font-family:微软雅黑,PingFang SC,Mircrosoft YaHei,Arial" y="15.1">星尘代理</tspan></text></g><g transform="translate(754.300825,566.342325)" id="group376"><g id="group377"><g id="group379"><path fill="#1c7b68" transform="translate(13.170380,10.034540)" fill-rule="nonzero" id="shape380" d="M.0,.0L2.5,.0L2.5,1.3L.0,1.3L.0,.0z"/><path fill="#1c7b68" transform="translate(4.528090,10.034540)" fill-rule="nonzero" id="shape381" d="M.0,.0L7.4,.0L7.4,1.3L.0,1.3L.0,.0z"/><path fill="#1c7b68" transform="translate(18.814800,18.814840)" fill-rule="nonzero" id="shape382" d="M.0,.0L9.4,.0L9.4,1.3L.0,1.3L.0,.0z"/><path fill="#1c7b68" transform="translate(15.051880,18.814840)" fill-rule="nonzero" id="shape383" d="M.0,.0L2.5,.0L2.5,1.3L.0,1.3L.0,.0z"/><path fill="#1c7b68" transform="translate(2.508600,7.528590)" fill-rule="nonzero" id="shape384" d="M6.3,15.0C6.1,15.0,6.0,15.0,5.9,14.9L.2,10.2C.1,10.1,.0,9.9,.0,9.7C.0,9.5,.1,9.3,.2,9.2L5.9,4.7C6.1,4.6,6.3,4.6,6.5,4.7C6.8,4.8,6.9,5.0,6.9,5.2L6.9,6.9L19.4,6.9C19.8,6.9,20.0,7.2,20.0,7.5L20.0,8.5L24.2,5.3L20.0,1.9L20.0,3.1C20.0,3.5,19.8,3.8,19.4,3.8L14.4,3.8L14.4,2.5L18.8,2.5L18.8,.6C18.8,.4,18.9,.2,19.1,.0C19.4,.0,19.6,.0,19.8,.1L25.6,4.8C25.7,5.0,25.8,5.1,25.8,5.3C25.8,5.5,25.7,5.7,25.6,5.8L19.8,10.3C19.6,10.5,19.4,10.5,19.1,10.4C18.9,10.3,18.8,10.1,18.8,9.8L18.8,8.2L6.3,8.2C5.9,8.2,5.6,7.9,5.6,7.5L5.6,6.5L1.6,9.7L5.6,13.1L5.6,11.9C5.6,11.6,5.9,11.3,6.3,11.3L11.3,11.3L11.3,12.5L6.9,12.5L6.9,14.4C6.9,14.7,6.8,14.9,6.5,15.0C6.5,15.0,6.4,15.0,6.3,15.0z"/><path fill="#1c7b68" fill-rule="nonzero" id="shape385" d="M27.3,31.4L4.0,31.4C1.8,31.4,.0,29.5,.0,27.3L.0,4.0C.0,1.8,1.8,.0,4.0,.0L27.3,.0C29.5,.0,31.4,1.8,31.4,4.0L31.4,27.3C31.4,29.5,29.5,31.4,27.3,31.4zM4.0,1.3C2.5,1.3,1.3,2.5,1.3,4.0L1.3,27.3C1.3,28.9,2.5,30.1,4.0,30.1L27.3,30.1C28.9,30.1,30.1,28.9,30.1,27.3L30.1,4.0C30.1,2.5,28.9,1.3,27.3,1.3L4.0,1.3z"/></g></g></g><g transform="translate(700.073825,575.700325)" id="shape387"><text style="fill:#191919;font-family:微软雅黑,PingFang SC,Mircrosoft YaHei,Arial;font-size:6.00pt" xml:space="preserve"><tspan x="14.0" style="font-family:微软雅黑,PingFang SC,Mircrosoft YaHei,Arial" y="15.3">星尘代理</tspan></text></g><g transform="translate(523.573292,523.488425)" id="group388"><path fill="#00c1de" fill-rule="nonzero" id="shape390" d="M36.5,37.9L3.6,37.9C1.6,37.9,.0,36.5,.0,34.5L.0,30.5C.0,28.5,1.6,27.0,3.6,27.0L36.5,27.0C38.4,27.0,40.0,28.5,40.0,30.5L40.0,34.5C40.0,36.5,38.4,37.9,36.5,37.9L36.5,37.9zM32.5,29.9C31.1,29.9,29.9,31.0,29.9,32.5C29.9,33.9,31.1,35.1,32.5,35.1C33.9,35.0,35.0,33.9,35.0,32.5C35.0,31.1,33.9,29.9,32.5,29.9L32.5,29.9zM36.5,24.4L3.6,24.4C1.6,24.4,.0,23.0,.0,21.0L.0,17.0C.0,15.0,1.6,13.5,3.6,13.5L36.5,13.5C38.4,13.5,40.0,15.0,40.0,17.0L40.0,21.0C40.0,23.0,38.4,24.4,36.5,24.4zM32.5,16.3C31.1,16.3,29.9,17.5,29.9,19.0C29.9,20.4,31.1,21.6,32.5,21.6C33.4,21.6,34.3,21.1,34.7,20.3C35.2,19.5,35.2,18.5,34.7,17.6C34.3,16.8,33.4,16.3,32.5,16.3L32.5,16.3zM36.5,10.9L3.6,10.9C1.6,10.9,.0,9.5,.0,7.5L.0,3.5C.0,1.5,1.6,.0,3.6,.0L36.5,.0C38.4,.0,40.0,1.5,40.0,3.5L40.0,7.5C40.0,9.5,38.4,10.9,36.5,10.9zM32.5,2.8C31.1,2.8,29.9,4.0,29.9,5.5C29.9,6.9,31.1,8.1,32.5,8.1C33.9,8.1,35.1,6.9,35.1,5.5C35.1,4.0,33.9,2.8,32.5,2.8z"/></g><g transform="translate(428.067229,66.031725)" id="shape391"><text style="fill:#191919;font-family:微软雅黑,PingFang SC,Mircrosoft YaHei,Arial;font-size:26.00pt;font-weight:bold" xml:space="preserve"><tspan x="2.9" style="font-family:微软雅黑,PingFang SC,Mircrosoft YaHei,Arial" y="66.3">最小高可用架构</tspan></text></g></g></svg>