<svg height="804" width="1132" viewBox="0 0 1132 804" xmlns:ev="http://www.w3.org/2001/xml-events" xmlns:xlink="http://www.w3.org/1999/xlink" xmlns="http://www.w3.org/2000/svg"><defs/><g transform="translate(5.5,5.5)" id="page1"><rect x="0" height="794" width="1123" fill="none" y="0"/><path stroke="#ebebeb" stroke-width="1" fill="#ebebeb" transform="matrix(-1.000000,-0.000000,0.000000,-1.000000,652.623156,323.805078)" fill-rule="nonzero" id="shape1" d="M18.0,.0L18.0,21.8L28.5,18.9L14.3,38.9L.0,18.9L10.6,21.8L10.6,.0L18.0,.0"/><g transform="translate(92.143970,128.996341)" id="shape2"><path stroke="#00aeee" stroke-width="5.666669845581055" fill="#ffffff" fill-rule="nonzero" d="M7.0,.0L409.0,.0C412.9,.0,416.0,3.1,416.0,7.0L416.0,60.2C416.0,64.0,412.9,67.2,409.0,67.2L7.0,67.2C3.1,67.2,.0,64.0,.0,60.2L.0,7.0C.0,3.1,3.1,.0,7.0,.0z"/><text style="fill:#000000;font-family:微软雅黑,PingFang SC,Mircrosoft YaHei,Arial;font-size:10.00pt" xml:space="preserve"><tspan x="21.4" style="font-family:微软雅黑,PingFang SC,Mircrosoft YaHei,Arial" y="27.2">标准高可用架构，要求能够</tspan><tspan x="181.4" style="fill:#e54648;font-family:微软雅黑,PingFang SC,Mircrosoft YaHei,Arial;font-weight:bold">关闭任意服务器，且不影响业务系统</tspan><tspan x="21.4" style="font-family:微软雅黑,PingFang SC,Mircrosoft YaHei,Arial" y="45.2">整体分为网关、应用、数据、监控四大部分，各自可简化或强化</tspan></text></g><g transform="translate(95.826103,240.620022)" id="shape3"><path stroke="#000000" stroke-width="0.3199999928474426" fill="none" d="M56.0,.0L.0,.0L.0,49.6L56.0,49.6"/><text style="fill:#000000;font-family:Arial,PingFang SC,Mircrosoft YaHei,Arial;font-size:12.00pt" xml:space="preserve"><tspan x="1.0" style="font-family:Arial,PingFang SC,Mircrosoft YaHei,Arial" y="19.9">大石头@新生命团队</tspan><tspan x="1.0" style="font-family:Arial,PingFang SC,Mircrosoft YaHei,Arial" y="38.6">https://newlifex.com</tspan></text></g><path stroke="#ebebeb" stroke-width="1" fill="#ebebeb" transform="matrix(0.000000,-1.000000,1.000000,0.000000,416.564128,448.289234)" fill-rule="nonzero" id="shape4" d="M19.6,.0L19.6,29.8L31.2,26.6L15.6,48.5L.0,26.6L11.5,29.8L11.5,.0L19.6,.0"/><g transform="translate(477.026772,335.153678)" id="group5"><path stroke="#868686" stroke-width="1" fill="#e8e9f5" fill-rule="nonzero" id="shape6" d="M11.0,.0L308.7,.0C314.8,.0,319.7,4.9,319.7,11.0L319.7,154.1C319.7,160.2,314.8,165.1,308.7,165.1L11.0,165.1C4.9,165.1,.0,160.2,.0,154.1L.0,11.0C.0,4.9,4.9,.0,11.0,.0z"/><g transform="translate(31.971780,0.000000)" id="shape7"><path stroke="#868686" stroke-width="1" fill="none" d="M.0,30.0L255.8,30.0L.0,30.0z"/><text style="fill:#191919;font-family:微软雅黑,PingFang SC,Mircrosoft YaHei,Arial;font-size:10.00pt" xml:space="preserve"><tspan x="31.6" style="font-family:微软雅黑,PingFang SC,Mircrosoft YaHei,Arial" y="18.2">应用系统集群（虚拟化/容器化）</tspan></text></g></g><g transform="translate(490.560372,378.341278)" id="group8"><path stroke="#868686" stroke-width="1" fill="none" id="shape9" d="M11.0,.0L78.7,.0C84.8,.0,89.7,4.9,89.7,11.0L89.7,103.0C89.7,109.1,84.8,114.0,78.7,114.0L11.0,114.0C4.9,114.0,.0,109.1,.0,103.0L.0,11.0C.0,4.9,4.9,.0,11.0,.0z"/></g><g transform="translate(511.064775,410.340478)" id="group10"><path fill="#00c1de" fill-rule="nonzero" id="shape12" d="M44.4,46.1L4.3,46.1C1.9,46.1,.0,44.4,.0,41.9L.0,37.1C.0,34.6,1.9,32.9,4.3,32.9L44.4,32.9C46.8,32.9,48.7,34.6,48.7,37.1L48.7,41.9C48.7,44.4,46.8,46.1,44.4,46.1L44.4,46.1zM39.5,36.3C37.8,36.3,36.4,37.7,36.4,39.5C36.4,41.3,37.8,42.7,39.5,42.7C41.2,42.6,42.6,41.2,42.6,39.5C42.6,37.8,41.2,36.4,39.5,36.3L39.5,36.3zM44.4,29.7L4.3,29.7C1.9,29.7,.0,27.9,.0,25.5L.0,20.6C.0,18.2,1.9,16.4,4.3,16.4L44.4,16.4C46.8,16.4,48.7,18.2,48.7,20.6L48.7,25.5C48.7,27.9,46.8,29.7,44.4,29.7zM39.5,19.9C37.8,19.9,36.4,21.3,36.4,23.1C36.4,24.8,37.8,26.3,39.5,26.3C40.7,26.3,41.7,25.7,42.3,24.7C42.8,23.7,42.8,22.5,42.3,21.5C41.7,20.5,40.7,19.9,39.5,19.9L39.5,19.9zM44.4,13.3L4.3,13.3C1.9,13.3,.0,11.5,.0,9.1L.0,4.2C.0,1.8,1.9,.0,4.3,.0L44.4,.0C46.8,.0,48.7,1.8,48.7,4.2L48.7,9.1C48.7,11.5,46.8,13.3,44.4,13.3zM39.5,3.5C37.8,3.5,36.4,4.9,36.4,6.6C36.4,8.4,37.8,9.8,39.5,9.8C41.3,9.8,42.7,8.4,42.7,6.6C42.7,4.9,41.3,3.5,39.5,3.5z"/></g><g transform="translate(512.790322,376.932403)" id="shape13"><text style="fill:#191919;font-family:微软雅黑,PingFang SC,Mircrosoft YaHei,Arial;font-size:10.00pt" xml:space="preserve"><tspan x="6.2" style="font-family:微软雅黑,PingFang SC,Mircrosoft YaHei,Arial" y="18.7">服务A</tspan></text></g><g transform="translate(531.848706,107.243066)" id="group14"><path stroke="#868686" stroke-width="1" fill="#e8e9f5" fill-rule="nonzero" id="shape15" d="M11.0,.0L202.0,.0C208.1,.0,213.0,4.9,213.0,11.0L213.0,154.1C213.0,160.2,208.1,165.1,202.0,165.1L11.0,165.1C4.9,165.1,.0,160.2,.0,154.1L.0,11.0C.0,4.9,4.9,.0,11.0,.0z"/><g transform="translate(21.300000,0.000000)" id="shape16"><path stroke="#868686" stroke-width="1" fill="none" d="M.0,30.0L170.4,30.0L.0,30.0z"/><text style="fill:#191919;font-family:微软雅黑,PingFang SC,Mircrosoft YaHei,Arial;font-size:10.00pt" xml:space="preserve"><tspan x="17.2" style="font-family:微软雅黑,PingFang SC,Mircrosoft YaHei,Arial" y="18.2">数据库集群（1主1从）</tspan></text></g></g><g transform="translate(545.824718,150.430866)" id="group17"><path stroke="#868686" stroke-width="1" fill="none" id="shape18" d="M11.0,.0L78.2,.0C84.2,.0,89.2,4.9,89.2,11.0L89.2,91.6C89.2,97.7,84.2,102.6,78.2,102.6L11.0,102.6C4.9,102.6,.0,97.7,.0,91.6L.0,11.0C.0,4.9,4.9,.0,11.0,.0z"/></g><g transform="translate(545.824718,150.430666)" id="shape19"><text style="fill:#191919;font-family:微软雅黑,PingFang SC,Mircrosoft YaHei,Arial;font-size:10.00pt" xml:space="preserve"><tspan x="4.6" style="font-family:微软雅黑,PingFang SC,Mircrosoft YaHei,Arial" y="21.6">数据库（主）</tspan></text></g><path stroke="#ebebeb" stroke-width="1" fill="#ebebeb" transform="matrix(0.000000,-1.000000,1.000000,0.000000,203.704803,449.685972)" fill-rule="nonzero" id="shape20" d="M19.6,.0L19.6,29.8L31.2,26.6L15.6,48.5L.0,26.6L11.5,29.8L11.5,.0L19.6,.0"/><g transform="translate(79.704803,334.646241)" id="group21"><path fill="#087bbb" transform="translate(0.206200,26.022800)" fill-rule="nonzero" id="shape22" d="M.0,26.0L79.3,26.0L79.3,.0L.0,.0L.0,26.0z"/><path fill="#087bbb" fill-rule="nonzero" id="shape23" d="M.0,26.2L32.0,.0L106.0,.0L79.4,26.2L.0,26.2z"/><path fill="#087bbb" transform="translate(79.442800,0.000000)" fill-rule="nonzero" id="shape24" d="M.0,51.6L26.5,26.0L26.5,.0L.0,26.1L.0,51.6z"/><g transform="translate(17.692500,2.851700)" id="group25"><path fill="#ffffff" transform="translate(0.134900,13.316140)" fill-rule="nonzero" id="shape26" d="M28.6,3.2L27.1,4.5L7.3,4.5L5.4,6.5L.0,4.1L10.8,1.0L8.9,3.2L28.6,3.2z"/><path fill="#ffffff" transform="translate(15.672500,3.522840)" fill-rule="nonzero" id="shape27" d="M28.6,3.2L27.1,4.5L7.3,4.5L5.4,6.5L.0,4.1L10.8,1.0L8.9,3.2L28.6,3.2z"/><path fill="#ffffff" transform="translate(32.267600,10.787750)" fill-rule="nonzero" id="shape28" d="M.0,2.3L1.5,1.0L21.3,1.0L23.3,-1.0L28.6,1.4L17.9,4.5L19.8,2.3L.0,2.3z"/><path fill="#ffffff" transform="translate(42.532000,0.994390)" fill-rule="nonzero" id="shape29" d="M.0,2.3L1.5,1.0L21.3,1.0L23.3,-1.0L28.6,1.4L17.9,4.5L19.8,2.3L.0,2.3z"/><path fill="#ffffff" transform="translate(22.126600,32.023620)" fill-rule="nonzero" id="shape30" d="M.0,5.6L14.3,5.6L14.3,7.9L19.7,4.5L14.3,1.1L14.3,3.4L.0,3.4L.0,5.6z"/><path fill="#ffffff" transform="translate(21.402240,25.114750)" fill-rule="nonzero" id="shape31" d="M.4,8.8L13.8,4.2L14.6,6.3L18.5,1.4L12.2,.0L13.0,2.1L-0.4,6.7L.4,8.8z"/><path fill="#ffffff" transform="translate(21.402240,39.082940)" fill-rule="nonzero" id="shape32" d="M.4,.0L13.8,4.6L14.6,2.5L18.5,7.3L12.2,8.8L13.0,6.6L-0.4,2.0L.4,.0z"/><path fill="#ffffff" transform="translate(0.000000,32.023620)" fill-rule="nonzero" id="shape33" d="M.0,5.6L13.8,5.6L13.8,7.9L19.1,4.5L13.8,1.1L13.8,3.4L.0,3.4L.0,5.6z"/></g><g id="group34"><path stroke="#ffffff" stroke-width="1.333330035209656" fill="none" transform="translate(0.206200,26.022800)" id="shape35" d="M.0,26.0L79.3,26.0L79.3,.0L.0,.0L.0,26.0z"/><path stroke="#ffffff" stroke-width="1.333330035209656" fill="none" id="shape36" d="M.0,26.2L32.0,.0L106.0,.0L79.4,26.2L.0,26.2z"/><path stroke="#ffffff" stroke-width="1.333330035209656" fill="none" transform="translate(79.442800,0.000000)" id="shape37" d="M.0,52.0L26.5,26.0L26.5,.0L.0,26.1L.0,52.0z"/></g><text style="fill:#191919;font-family:微软雅黑,PingFang SC,Mircrosoft YaHei,Arial;font-size:10.00pt" xml:space="preserve"><tspan x="14.0" style="font-family:微软雅黑,PingFang SC,Mircrosoft YaHei,Arial" y="67.2">硬件负载均衡</tspan></text></g><g transform="translate(79.704803,465.830066)" id="group38"><path fill="#087bbb" transform="translate(0.206200,26.022800)" fill-rule="nonzero" id="shape39" d="M.0,26.0L79.3,26.0L79.3,.0L.0,.0L.0,26.0z"/><path fill="#087bbb" fill-rule="nonzero" id="shape40" d="M.0,26.2L32.0,.0L106.0,.0L79.4,26.2L.0,26.2z"/><path fill="#087bbb" transform="translate(79.442800,0.000000)" fill-rule="nonzero" id="shape41" d="M.0,51.6L26.5,26.0L26.5,.0L.0,26.1L.0,51.6z"/><g transform="translate(17.692500,2.851700)" id="group42"><path fill="#ffffff" transform="translate(0.134900,13.316140)" fill-rule="nonzero" id="shape43" d="M28.6,3.2L27.1,4.5L7.3,4.5L5.4,6.5L.0,4.1L10.8,1.0L8.9,3.2L28.6,3.2z"/><path fill="#ffffff" transform="translate(15.672500,3.522840)" fill-rule="nonzero" id="shape44" d="M28.6,3.2L27.1,4.5L7.3,4.5L5.4,6.5L.0,4.1L10.8,1.0L8.9,3.2L28.6,3.2z"/><path fill="#ffffff" transform="translate(32.267600,10.787750)" fill-rule="nonzero" id="shape45" d="M.0,2.3L1.5,1.0L21.3,1.0L23.3,-1.0L28.6,1.4L17.9,4.5L19.8,2.3L.0,2.3z"/><path fill="#ffffff" transform="translate(42.532000,0.994390)" fill-rule="nonzero" id="shape46" d="M.0,2.3L1.5,1.0L21.3,1.0L23.3,-1.0L28.6,1.4L17.9,4.5L19.8,2.3L.0,2.3z"/><path fill="#ffffff" transform="translate(22.126600,32.023620)" fill-rule="nonzero" id="shape47" d="M.0,5.6L14.3,5.6L14.3,7.9L19.7,4.5L14.3,1.1L14.3,3.4L.0,3.4L.0,5.6z"/><path fill="#ffffff" transform="translate(21.402240,25.114750)" fill-rule="nonzero" id="shape48" d="M.4,8.8L13.8,4.2L14.6,6.3L18.5,1.4L12.2,.0L13.0,2.1L-0.4,6.7L.4,8.8z"/><path fill="#ffffff" transform="translate(21.402240,39.082940)" fill-rule="nonzero" id="shape49" d="M.4,.0L13.8,4.6L14.6,2.5L18.5,7.3L12.2,8.8L13.0,6.6L-0.4,2.0L.4,.0z"/><path fill="#ffffff" transform="translate(0.000000,32.023620)" fill-rule="nonzero" id="shape50" d="M.0,5.6L13.8,5.6L13.8,7.9L19.1,4.5L13.8,1.1L13.8,3.4L.0,3.4L.0,5.6z"/></g><g id="group51"><path stroke="#ffffff" stroke-width="1.333330035209656" fill="none" transform="translate(0.206200,26.022800)" id="shape52" d="M.0,26.0L79.3,26.0L79.3,.0L.0,.0L.0,26.0z"/><path stroke="#ffffff" stroke-width="1.333330035209656" fill="none" id="shape53" d="M.0,26.2L32.0,.0L106.0,.0L79.4,26.2L.0,26.2z"/><path stroke="#ffffff" stroke-width="1.333330035209656" fill="none" transform="translate(79.442800,0.000000)" id="shape54" d="M.0,52.0L26.5,26.0L26.5,.0L.0,26.1L.0,52.0z"/></g><text style="fill:#191919;font-family:微软雅黑,PingFang SC,Mircrosoft YaHei,Arial;font-size:10.00pt" xml:space="preserve"><tspan x="14.0" style="font-family:微软雅黑,PingFang SC,Mircrosoft YaHei,Arial" y="67.2">硬件负载均衡</tspan></text></g><path stroke="#ebebeb" stroke-width="1" fill="#ebebeb" transform="matrix(0.000000,-1.000000,1.000000,0.000000,827.980524,434.670316)" fill-rule="nonzero" id="shape55" d="M19.6,.0L19.6,29.8L31.2,26.6L15.6,48.5L.0,26.6L11.5,29.8L11.5,.0L19.6,.0"/><g transform="translate(477.026772,566.786566)" id="group56"><path stroke="#868686" stroke-width="1" fill="#e8e9f5" fill-rule="nonzero" id="shape57" d="M11.0,.0L320.4,.0C326.4,.0,331.4,4.9,331.4,11.0L331.4,154.1C331.4,160.2,326.4,165.1,320.4,165.1L11.0,165.1C4.9,165.1,.0,160.2,.0,154.1L.0,11.0C.0,4.9,4.9,.0,11.0,.0z"/><g transform="translate(33.135606,0.000000)" id="shape58"><path stroke="#868686" stroke-width="1" fill="none" d="M.0,30.0L265.1,30.0L.0,30.0z"/><text style="fill:#191919;font-family:微软雅黑,PingFang SC,Mircrosoft YaHei,Arial;font-size:10.00pt" xml:space="preserve"><tspan x="52.5" style="font-family:微软雅黑,PingFang SC,Mircrosoft YaHei,Arial" y="18.2">Redis/MQ集群（3主3从）</tspan></text></g></g><g transform="translate(490.946584,609.974366)" id="group59"><path stroke="#868686" stroke-width="1" fill="none" id="shape60" d="M11.0,.0L86.2,.0C92.3,.0,97.2,4.9,97.2,11.0L97.2,91.6C97.2,97.7,92.3,102.6,86.2,102.6L11.0,102.6C4.9,102.6,.0,97.7,.0,91.6L.0,11.0C.0,4.9,4.9,.0,11.0,.0z"/></g><g transform="translate(492.105547,609.974366)" id="shape61"><text style="fill:#191919;font-family:微软雅黑,PingFang SC,Mircrosoft YaHei,Arial;font-size:10.00pt" xml:space="preserve"><tspan x="10.0" style="font-family:微软雅黑,PingFang SC,Mircrosoft YaHei,Arial" y="21.7">NodeA（主）</tspan></text></g><path stroke="#ebebeb" stroke-width="1" fill="#ebebeb" transform="translate(521.137545,516.439879)" fill-rule="nonzero" id="shape62" d="M18.0,.0L18.0,21.8L28.5,18.9L14.3,38.9L.0,18.9L10.6,21.8L10.6,.0L18.0,.0"/><path stroke="#ebebeb" stroke-width="1" fill="#ebebeb" transform="translate(622.611222,516.439879)" fill-rule="nonzero" id="shape63" d="M18.0,.0L18.0,21.8L28.5,18.9L14.3,38.9L.0,18.9L10.6,21.8L10.6,.0L18.0,.0"/><path stroke="#ebebeb" stroke-width="1" fill="#ebebeb" transform="translate(726.589972,516.439879)" fill-rule="nonzero" id="shape64" d="M18.0,.0L18.0,21.8L28.5,18.9L14.3,38.9L.0,18.9L10.6,21.8L10.6,.0L18.0,.0"/><g transform="matrix(0.000000,1.000000,-1.000000,0.000000,1036.040000,137.058830)" id="shape65"><path stroke="#191919" stroke-width="1" fill="#ffffff" fill-rule="nonzero" d="M36.5,215.8L165.1,344.5M.0,.0L73.0,.0L73.0,215.8L.0,215.8L.0,.0z"/><path stroke="#191919" stroke-width="1" fill="#191919" d="M168.0,347.3C166.4,348.9,163.9,348.9,162.3,347.3C160.7,345.8,160.7,343.2,162.3,341.7C163.9,340.1,166.4,340.1,168.0,341.7C169.5,343.2,169.5,345.8,168.0,347.3" stroke-linecap="round"/><text style="fill:#454545;font-family:微软雅黑,PingFang SC,Mircrosoft YaHei,Arial;font-size:10.00pt" transform="matrix(0.00,-1.00,1.00,0.00,-71.4,144.4)" xml:space="preserve"><tspan x="-62.8" style="font-family:微软雅黑,PingFang SC,Mircrosoft YaHei,Arial" y="92.1">应用通过虚拟IP访问数据库，主库</tspan><tspan x="-62.8" style="font-family:微软雅黑,PingFang SC,Mircrosoft YaHei,Arial" y="110.1">下线时，虚拟IP自动切到从库。实</tspan><tspan x="-50.2" style="font-family:微软雅黑,PingFang SC,Mircrosoft YaHei,Arial" y="128.1">现数据库单点故障自动恢复。</tspan></text></g><g transform="translate(892.325801,232.542459)" id="group66"><path stroke="#868686" stroke-width="1" fill="#e9f8f5" fill-rule="nonzero" id="shape67" d="M11.0,.0L69.0,.0C75.1,.0,80.0,4.9,80.0,11.0L80.0,253.2C80.0,259.2,75.1,264.2,69.0,264.2L11.0,264.2C4.9,264.2,.0,259.2,.0,253.2L.0,11.0C.0,4.9,4.9,.0,11.0,.0z"/></g><g transform="translate(899.840801,269.409459)" id="group68"><path fill="#00c1de" fill-rule="nonzero" id="shape70" d="M54.9,.0C50.9,.0,47.7,3.2,47.7,7.2C47.7,8.4,48.0,9.5,48.5,10.5L36.9,22.0C36.2,21.6,35.5,21.5,34.8,21.5C34.3,21.5,33.9,21.6,33.5,21.7L28.8,15.3C28.8,15.0,28.8,14.8,28.8,14.6C28.8,12.2,26.9,10.3,24.6,10.3C22.2,10.3,20.3,12.2,20.3,14.6L20.3,14.7L13.5,21.3L7.9,21.3C7.1,20.0,5.8,19.2,4.3,19.2C1.9,19.2,.0,21.1,.0,23.5C.0,25.9,1.9,27.8,4.3,27.8C5.8,27.8,7.3,26.9,8.0,25.6L15.3,25.6L22.7,18.4C23.3,18.7,23.9,18.9,24.6,18.9C25.1,18.9,25.6,18.8,26.0,18.6L30.6,25.0C30.6,25.3,30.6,25.5,30.6,25.8C30.6,28.1,32.4,30.0,34.8,30.0C37.1,30.0,39.0,28.2,39.0,25.9L51.5,13.5C53.7,14.7,56.4,14.6,58.5,13.3C60.7,12.0,62.0,9.7,62.0,7.2C62.0,5.3,61.3,3.5,59.9,2.1C58.6,.8,56.8,.0,54.9,.0zM55.0,10.2C53.3,10.2,51.9,8.8,51.9,7.2C51.9,5.5,53.3,4.1,55.0,4.1C56.6,4.1,58.0,5.5,58.0,7.2C58.0,8.0,57.7,8.8,57.1,9.3C56.5,9.9,55.8,10.2,55.0,10.2L55.0,10.2z"/></g><g transform="translate(901.090001,232.541759)" id="shape71"><text style="fill:#191919;font-family:微软雅黑,PingFang SC,Mircrosoft YaHei,Arial;font-size:10.00pt;font-weight:bold" xml:space="preserve"><tspan x="4.6" style="font-family:微软雅黑,PingFang SC,Mircrosoft YaHei,Arial" y="21.6">星尘平台</tspan></text></g><g transform="translate(912.603801,299.632259)" id="shape72"><text style="fill:#191919;font-family:微软雅黑,PingFang SC,Mircrosoft YaHei,Arial;font-size:10.00pt" xml:space="preserve"><tspan x="6.4" style="font-family:微软雅黑,PingFang SC,Mircrosoft YaHei,Arial" y="14.0">监控</tspan></text></g><g transform="translate(908.325801,341.106459)" id="group73"><g id="group75"><path fill="#d86613" transform="translate(18.166000,0.302000)" fill-rule="nonzero" id="shape76" d="M4.5,30.5C2.8,30.5,1.7,30.4,1.3,30.4L1.0,30.4C.6,30.3,.2,29.9,.2,29.5C.0,27.5,.0,25.4,.0,23.4C.0,23.2,.0,22.9,.0,22.6L.1,22.1L2.2,22.3L2.1,22.8C2.1,23.0,2.1,23.3,2.1,23.5C2.0,25.1,2.0,26.8,2.1,28.4C5.2,28.6,15.9,28.9,22.0,22.6C28.2,16.3,27.9,5.2,27.7,2.1C24.7,1.9,13.9,1.7,7.9,8.0C7.7,8.1,7.6,8.3,7.4,8.4C7.4,8.5,7.3,8.6,7.2,8.7L5.6,7.4C5.7,7.3,5.7,7.2,5.8,7.1L6.3,6.5C14.2,-1.5,28.2,.1,28.8,.2C29.2,.2,29.6,.6,29.6,1.1C29.7,1.7,31.3,16.0,23.5,24.0C17.9,29.7,9.2,30.5,4.5,30.5z"/><path fill="#d86613" transform="translate(18.159000,0.301500)" fill-rule="nonzero" id="shape77" d="M1.4,30.3L1.3,30.3L1.0,30.3C.6,30.3,.2,29.9,.2,29.4C.0,27.0,.0,24.5,.2,22.1L2.2,22.3C2.1,24.0,2.0,25.8,2.1,27.6C6.7,24.1,11.1,20.2,15.2,16.0C19.4,11.7,23.3,7.0,26.8,2.1C22.9,1.9,13.4,2.2,7.8,8.0C7.6,8.2,7.4,8.4,7.2,8.7L5.6,7.4C5.8,7.1,6.1,6.8,6.4,6.5C14.2,-1.5,28.2,.1,28.8,.2C29.2,.2,29.5,.4,29.6,.8C29.8,1.1,29.7,1.5,29.5,1.8C25.7,7.4,21.4,12.6,16.6,17.5C12.1,22.1,7.2,26.4,2.0,30.2C1.8,30.3,1.6,30.3,1.4,30.3z"/><path fill="#d86613" transform="translate(18.175240,27.869600)" fill-rule="nonzero" id="shape78" d="M.0,.0L2.0,.0L2.0,20.1L.0,20.1L.0,.0z"/><path fill="#d86613" fill-rule="nonzero" id="shape79" d="M11.5,23.1C5.2,23.1,.0,18.0,.0,11.6C.0,5.2,5.2,.0,11.5,.0C17.9,.0,23.1,5.2,23.1,11.6C23.1,18.0,17.9,23.1,11.5,23.1zM11.5,2.0C6.3,2.0,2.0,6.3,2.0,11.5C2.0,16.8,6.3,21.1,11.5,21.1C16.8,21.1,21.0,16.8,21.0,11.5C21.0,6.3,16.8,2.0,11.5,2.0z"/><path fill="#d86613" transform="translate(10.530040,5.428760)" fill-rule="nonzero" id="shape80" d="M.0,.0L2.0,.0L2.0,13.6L.0,13.6L.0,.0z"/><path fill="#d86613" transform="translate(6.880720,3.965950)" fill-rule="nonzero" id="shape81" d="M7.9,5.7L4.7,2.5L1.4,5.7L.0,4.3L3.9,.3C4.3,.0,5.0,.0,5.4,.3L9.3,4.3L7.9,5.7z"/></g></g><g transform="translate(908.630801,420.358459)" id="group82"><path fill="#00c1de" fill-rule="nonzero" id="shape84" d="M39.7,32.2C37.9,32.2,36.3,33.7,36.3,35.6C36.3,37.4,37.7,39.0,39.7,39.0C41.5,39.0,43.0,37.6,43.0,35.6C43.0,33.7,41.6,32.2,39.7,32.2zM39.7,44.0C38.9,44.0,38.3,43.9,37.6,43.8L37.5,43.8C36.9,43.5,36.2,43.1,35.3,42.8C31.7,41.2,27.2,39.1,24.0,39.1C22.0,39.1,19.6,39.9,17.2,40.8C17.2,40.7,17.3,40.7,17.3,40.6C17.7,39.9,18.1,39.1,18.3,38.3C18.3,38.2,18.4,38.2,18.4,38.0C18.5,37.3,18.7,36.5,18.7,35.5C18.8,34.0,19.0,32.5,19.3,30.9C20.9,31.5,22.6,31.8,24.0,31.8C27.2,31.8,31.7,29.9,35.2,28.3C35.9,28.0,36.8,27.6,37.4,27.4C38.1,27.1,38.8,27.1,39.5,27.1C44.3,27.1,48.0,30.9,48.0,35.6C48.0,40.4,44.4,44.0,39.7,44.0zM11.4,37.0C12.3,35.4,11.7,33.3,10.2,32.4C8.6,31.4,6.5,32.0,5.6,33.6C4.6,35.1,5.2,37.2,6.8,38.2C8.3,39.2,10.4,38.7,11.4,37.0zM1.1,31.0C1.5,30.4,1.8,29.8,2.3,29.3L2.3,29.2C2.9,28.8,3.5,28.3,4.1,27.9C7.3,25.5,11.2,22.6,12.8,19.7C13.8,18.0,14.4,15.5,14.7,12.9C14.7,13.0,14.9,13.0,14.9,13.1C15.2,13.9,15.8,14.6,16.3,15.2C16.3,15.3,16.4,15.3,16.6,15.5C17.2,15.9,17.9,16.4,18.6,17.0C19.7,17.9,21.0,18.9,22.4,19.8C21.0,21.0,19.9,22.3,19.2,23.5C17.6,26.3,17.0,31.1,16.7,35.0C16.6,35.9,16.6,36.7,16.4,37.3C16.2,38.1,16.0,38.7,15.6,39.3C13.3,43.3,8.1,44.7,4.1,42.4C.3,40.4,-1.2,35.1,1.1,31.0zM21.1,10.2C22.0,11.7,24.1,12.4,25.7,11.4C27.2,10.4,27.8,8.3,26.9,6.8C25.9,5.2,23.8,4.6,22.3,5.6C20.7,6.4,20.1,8.5,21.1,10.2zM31.3,4.2C31.7,4.8,31.9,5.4,32.2,6.2L32.2,6.3C32.3,7.0,32.3,7.7,32.4,8.6C32.9,12.5,33.4,17.5,35.0,20.3C35.9,22.0,37.7,23.8,39.8,25.4L39.5,25.4C38.7,25.4,37.9,25.5,37.0,25.7C36.9,25.7,36.9,25.7,36.8,25.8C36.0,26.1,35.3,26.5,34.5,26.8C33.1,27.4,31.7,28.0,30.1,28.6C29.8,26.9,29.3,25.2,28.6,24.0C27.0,21.2,23.0,18.3,19.9,16.0C19.1,15.5,18.5,15.0,17.9,14.5C17.4,14.1,17.0,13.5,16.6,12.8C14.3,8.8,15.6,3.6,19.7,1.3C23.8,-1.3,29.0,.1,31.3,4.2z"/></g><g transform="translate(908.631701,389.106659)" id="shape85"><text style="fill:#191919;font-family:微软雅黑,PingFang SC,Mircrosoft YaHei,Arial;font-size:10.00pt" xml:space="preserve"><tspan x="8.4" style="font-family:微软雅黑,PingFang SC,Mircrosoft YaHei,Arial" y="14.0">发布</tspan></text></g><g transform="translate(912.603401,464.358459)" id="shape86"><text style="fill:#191919;font-family:微软雅黑,PingFang SC,Mircrosoft YaHei,Arial;font-size:10.00pt" xml:space="preserve"><tspan x="6.8" style="font-family:微软雅黑,PingFang SC,Mircrosoft YaHei,Arial" y="14.6">配置</tspan></text></g><g transform="translate(652.623156,284.874778)" id="group87"><path fill="#0052d9" fill-rule="nonzero" id="shape89" d="M22.6,19.5C23.1,19.5,23.7,19.5,24.0,19.0C24.3,18.6,24.3,18.2,24.3,17.9C24.3,17.7,24.3,17.6,24.0,17.1C23.7,16.5,23.1,16.5,22.6,16.5L20.7,16.5L20.7,19.5L22.6,19.5zM19.6,.0C29.1,.0,37.0,6.8,38.7,15.8L36.3,15.8C34.6,8.2,27.7,2.4,19.6,2.4C10.1,2.4,2.4,10.1,2.4,19.5C2.4,28.8,10.1,36.5,19.6,36.5C28.1,36.5,35.3,30.2,36.5,21.9L38.9,21.9C37.7,31.5,29.6,38.9,19.6,38.9C8.8,38.9,.0,30.2,.0,19.5C.0,8.8,8.8,.0,19.6,.0zM21.8,28.0L23.6,29.7L20.9,32.2L19.2,33.9L15.0,29.7L16.7,28.0L19.2,30.5L21.8,28.0zM24.2,14.8C24.6,14.9,25.1,15.1,25.3,15.4C25.7,15.6,25.9,15.9,26.1,16.3C26.3,16.8,26.5,17.6,26.5,18.1C26.5,18.8,26.4,19.7,25.8,20.3C25.2,21.1,24.3,21.5,23.4,21.5L20.7,21.5L20.7,25.6L18.3,25.6L18.3,14.6L23.0,14.6C23.4,14.6,23.8,14.6,24.2,14.8zM17.0,14.6L17.0,25.5L14.6,25.5L14.6,14.6L17.0,14.6zM9.2,15.3L10.9,17.2L8.4,19.7L10.9,22.3L9.2,24.0L5.0,19.7L6.7,18.0L9.2,15.3zM29.7,15.0L33.9,19.2L32.2,20.9L29.7,23.6L28.0,21.8L30.5,19.2L28.0,16.7L29.7,15.0zM19.7,5.0L24.0,9.2L22.3,10.9L19.7,8.4L17.2,10.9L15.3,9.2L18.0,6.7L19.7,5.0z"/></g><g transform="translate(691.553456,286.839928)" id="shape90"><text style="fill:#191919;font-family:微软雅黑,PingFang SC,Mircrosoft YaHei,Arial;font-size:10.00pt" xml:space="preserve"><tspan x="10.9" style="font-family:微软雅黑,PingFang SC,Mircrosoft YaHei,Arial" y="20.7">虚拟IP</tspan></text></g><g transform="translate(262.945703,410.778472)" id="group91"><path fill="#0052d9" fill-rule="nonzero" id="shape93" d="M22.6,19.5C23.1,19.5,23.7,19.5,24.0,19.0C24.3,18.6,24.3,18.2,24.3,17.9C24.3,17.7,24.3,17.6,24.0,17.1C23.7,16.5,23.1,16.5,22.6,16.5L20.7,16.5L20.7,19.5L22.6,19.5zM19.6,.0C29.1,.0,37.0,6.8,38.7,15.8L36.3,15.8C34.6,8.2,27.7,2.4,19.6,2.4C10.1,2.4,2.4,10.1,2.4,19.5C2.4,28.8,10.1,36.5,19.6,36.5C28.1,36.5,35.3,30.2,36.5,21.9L38.9,21.9C37.7,31.5,29.6,38.9,19.6,38.9C8.8,38.9,.0,30.2,.0,19.5C.0,8.8,8.8,.0,19.6,.0zM21.8,28.0L23.6,29.7L20.9,32.2L19.2,33.9L15.0,29.7L16.7,28.0L19.2,30.5L21.8,28.0zM24.2,14.8C24.6,14.9,25.1,15.1,25.3,15.4C25.7,15.6,25.9,15.9,26.1,16.3C26.3,16.8,26.5,17.6,26.5,18.1C26.5,18.8,26.4,19.7,25.8,20.3C25.2,21.1,24.3,21.5,23.4,21.5L20.7,21.5L20.7,25.6L18.3,25.6L18.3,14.6L23.0,14.6C23.4,14.6,23.8,14.6,24.2,14.8zM17.0,14.6L17.0,25.5L14.6,25.5L14.6,14.6L17.0,14.6zM9.2,15.3L10.9,17.2L8.4,19.7L10.9,22.3L9.2,24.0L5.0,19.7L6.7,18.0L9.2,15.3zM29.7,15.0L33.9,19.2L32.2,20.9L29.7,23.6L28.0,21.8L30.5,19.2L28.0,16.7L29.7,15.0zM19.7,5.0L24.0,9.2L22.3,10.9L19.7,8.4L17.2,10.9L15.3,9.2L18.0,6.7L19.7,5.0z"/></g><g transform="translate(252.159103,451.120572)" id="shape94"><text style="fill:#191919;font-family:微软雅黑,PingFang SC,Mircrosoft YaHei,Arial;font-size:10.00pt" xml:space="preserve"><tspan x="10.9" style="font-family:微软雅黑,PingFang SC,Mircrosoft YaHei,Arial" y="20.7">虚拟IP</tspan></text></g><g transform="translate(79.704803,581.595541)" id="table95"><g><path stroke="#191919" stroke-width="1" fill="#ffffff" d="M.0,.0L275.9,.0L275.9,30.0L.0,30.0L.0,.0z"/><text style="fill:#000000;font-family:Arial,PingFang SC,Mircrosoft YaHei,Arial;font-size:8.00pt" xml:space="preserve"><tspan x="7.7" style="font-family:Arial,PingFang SC,Mircrosoft YaHei,Arial" y="17.0">引入硬件负载，结合虚IP，规避nginx单点故障</tspan></text></g><g><path stroke="#191919" stroke-width="1" fill="#ffffff" d="M.0,30.0L275.9,30.0L275.9,62.2L.0,62.2L.0,30.0z"/><text style="fill:#000000;font-family:Arial,PingFang SC,Mircrosoft YaHei,Arial;font-size:8.00pt" xml:space="preserve"><tspan x="7.7" style="font-family:Arial,PingFang SC,Mircrosoft YaHei,Arial" y="48.1">应用集群使用虚拟机/容器化，方便扩容缩容</tspan></text></g><g><path stroke="#191919" stroke-width="1" fill="#ffffff" d="M.0,62.2L275.9,62.2L275.9,93.2L.0,93.2L.0,62.2z"/><text style="fill:#000000;font-family:Arial,PingFang SC,Mircrosoft YaHei,Arial;font-size:8.00pt" xml:space="preserve"><tspan x="7.7" style="font-family:Arial,PingFang SC,Mircrosoft YaHei,Arial" y="79.7">数据库集群结合虚IP，实现故障自动切换</tspan></text></g><g><path stroke="#191919" stroke-width="1" fill="#ffffff" d="M.0,93.2L275.9,93.2L275.9,124.2L.0,124.2L.0,93.2z"/><text style="fill:#000000;font-family:Arial,PingFang SC,Mircrosoft YaHei,Arial;font-size:8.00pt" xml:space="preserve"><tspan x="7.7" style="font-family:Arial,PingFang SC,Mircrosoft YaHei,Arial" y="110.7">Redis集群主从架构提升吞吐，且避免单点故障</tspan></text></g><g><path stroke="#191919" stroke-width="1" fill="#ffffff" d="M.0,124.2L275.9,124.2L275.9,155.2L.0,155.2L.0,124.2z"/><text style="fill:#000000;font-family:Arial,PingFang SC,Mircrosoft YaHei,Arial;font-size:8.00pt" xml:space="preserve"><tspan x="7.7" style="font-family:Arial,PingFang SC,Mircrosoft YaHei,Arial" y="141.7">服务器和应用接入星尘，方便监控和发布</tspan></text></g></g><g transform="translate(318.969333,307.981959)" id="group96"><path stroke="#868686" stroke-width="1" fill="#e9f8f5" fill-rule="nonzero" id="shape97" d="M11.0,.0L80.7,.0C86.8,.0,91.7,4.9,91.7,11.0L91.7,111.5C91.7,117.5,86.8,122.5,80.7,122.5L11.0,122.5C4.9,122.5,.0,117.5,.0,111.5L.0,11.0C.0,4.9,4.9,.0,11.0,.0z"/></g><g transform="translate(329.353433,307.981759)" id="shape98"><text style="fill:#191919;font-family:微软雅黑,PingFang SC,Mircrosoft YaHei,Arial;font-size:10.00pt" xml:space="preserve"><tspan x="17.5" style="font-family:微软雅黑,PingFang SC,Mircrosoft YaHei,Arial" y="21.7">软网关</tspan></text></g><g transform="translate(329.353433,389.090759)" id="shape99"><text style="fill:#191919;font-family:微软雅黑,PingFang SC,Mircrosoft YaHei,Arial;font-size:10.00pt" xml:space="preserve"><tspan x="18.8" style="font-family:微软雅黑,PingFang SC,Mircrosoft YaHei,Arial" y="21.7">Nginx</tspan></text></g><g transform="translate(337.276433,340.146959)" id="group100"><path fill="#00c1de" fill-rule="nonzero" id="shape102" d="M46.6,26.9C44.9,27.0,43.4,27.4,41.9,28.1L35.9,19.0C38.2,17.0,39.6,14.1,39.6,10.9C39.5,4.9,34.6,.0,28.6,.0C22.6,.0,17.7,5.0,17.7,11.0C17.8,14.2,19.2,17.1,21.5,19.1L15.5,28.2C14.1,27.5,12.5,27.1,10.9,27.1C4.8,27.1,.0,32.1,.0,38.1C.0,44.1,4.9,48.9,11.0,48.9C16.5,48.9,21.0,44.8,21.7,39.5L35.9,39.4C36.7,44.7,41.2,48.8,46.7,48.8C52.7,48.8,57.6,43.8,57.6,37.8C57.6,31.8,52.6,26.9,46.6,26.9zM35.9,36.4L21.7,36.4C21.3,33.9,20.0,31.6,18.1,29.9L24.0,20.8C25.5,21.4,27.0,21.9,28.7,21.8C30.3,21.8,31.9,21.4,33.4,20.7L39.4,29.8C37.5,31.5,36.2,33.8,35.9,36.4z"/></g><g transform="translate(318.969333,437.765184)" id="group103"><path stroke="#868686" stroke-width="1" fill="#e9f8f5" fill-rule="nonzero" id="shape104" d="M11.0,.0L80.7,.0C86.8,.0,91.7,4.9,91.7,11.0L91.7,111.5C91.7,117.5,86.8,122.5,80.7,122.5L11.0,122.5C4.9,122.5,.0,117.5,.0,111.5L.0,11.0C.0,4.9,4.9,.0,11.0,.0z"/></g><g transform="translate(329.353433,437.764984)" id="shape105"><text style="fill:#191919;font-family:微软雅黑,PingFang SC,Mircrosoft YaHei,Arial;font-size:10.00pt" xml:space="preserve"><tspan x="17.5" style="font-family:微软雅黑,PingFang SC,Mircrosoft YaHei,Arial" y="21.7">软网关</tspan></text></g><g transform="translate(329.353433,518.873984)" id="shape106"><text style="fill:#191919;font-family:微软雅黑,PingFang SC,Mircrosoft YaHei,Arial;font-size:10.00pt" xml:space="preserve"><tspan x="18.8" style="font-family:微软雅黑,PingFang SC,Mircrosoft YaHei,Arial" y="21.7">Nginx</tspan></text></g><g transform="translate(337.276433,469.930184)" id="group107"><path fill="#00c1de" fill-rule="nonzero" id="shape109" d="M46.6,26.9C44.9,27.0,43.4,27.4,41.9,28.1L35.9,19.0C38.2,17.0,39.6,14.1,39.6,10.9C39.5,4.9,34.6,.0,28.6,.0C22.6,.0,17.7,5.0,17.7,11.0C17.8,14.2,19.2,17.1,21.5,19.1L15.5,28.2C14.1,27.5,12.5,27.1,10.9,27.1C4.8,27.1,.0,32.1,.0,38.1C.0,44.1,4.9,48.9,11.0,48.9C16.5,48.9,21.0,44.8,21.7,39.5L35.9,39.4C36.7,44.7,41.2,48.8,46.7,48.8C52.7,48.8,57.6,43.8,57.6,37.8C57.6,31.8,52.6,26.9,46.6,26.9zM35.9,36.4L21.7,36.4C21.3,33.9,20.0,31.6,18.1,29.9L24.0,20.8C25.5,21.4,27.0,21.9,28.7,21.8C30.3,21.8,31.9,21.4,33.4,20.7L39.4,29.8C37.5,31.5,36.2,33.8,35.9,36.4z"/></g><g transform="translate(546.846495,456.472066)" id="group110"><g id="group111"><g id="group113"><path fill="#1c7b68" transform="translate(13.170380,10.034540)" fill-rule="nonzero" id="shape114" d="M.0,.0L2.5,.0L2.5,1.3L.0,1.3L.0,.0z"/><path fill="#1c7b68" transform="translate(4.528090,10.034540)" fill-rule="nonzero" id="shape115" d="M.0,.0L7.4,.0L7.4,1.3L.0,1.3L.0,.0z"/><path fill="#1c7b68" transform="translate(18.814800,18.814840)" fill-rule="nonzero" id="shape116" d="M.0,.0L9.4,.0L9.4,1.3L.0,1.3L.0,.0z"/><path fill="#1c7b68" transform="translate(15.051880,18.814840)" fill-rule="nonzero" id="shape117" d="M.0,.0L2.5,.0L2.5,1.3L.0,1.3L.0,.0z"/><path fill="#1c7b68" transform="translate(2.508600,7.528590)" fill-rule="nonzero" id="shape118" d="M6.3,15.0C6.1,15.0,6.0,15.0,5.9,14.9L.2,10.2C.1,10.1,.0,9.9,.0,9.7C.0,9.5,.1,9.3,.2,9.2L5.9,4.7C6.1,4.6,6.3,4.6,6.5,4.7C6.8,4.8,6.9,5.0,6.9,5.2L6.9,6.9L19.4,6.9C19.8,6.9,20.0,7.2,20.0,7.5L20.0,8.5L24.2,5.3L20.0,1.9L20.0,3.1C20.0,3.5,19.8,3.8,19.4,3.8L14.4,3.8L14.4,2.5L18.8,2.5L18.8,.6C18.8,.4,18.9,.2,19.1,.0C19.4,.0,19.6,.0,19.8,.1L25.6,4.8C25.7,5.0,25.8,5.1,25.8,5.3C25.8,5.5,25.7,5.7,25.6,5.8L19.8,10.3C19.6,10.5,19.4,10.5,19.1,10.4C18.9,10.3,18.8,10.1,18.8,9.8L18.8,8.2L6.3,8.2C5.9,8.2,5.6,7.9,5.6,7.5L5.6,6.5L1.6,9.7L5.6,13.1L5.6,11.9C5.6,11.6,5.9,11.3,6.3,11.3L11.3,11.3L11.3,12.5L6.9,12.5L6.9,14.4C6.9,14.7,6.8,14.9,6.5,15.0C6.5,15.0,6.4,15.0,6.3,15.0z"/><path fill="#1c7b68" fill-rule="nonzero" id="shape119" d="M27.3,31.4L4.0,31.4C1.8,31.4,.0,29.5,.0,27.3L.0,4.0C.0,1.8,1.8,.0,4.0,.0L27.3,.0C29.5,.0,31.4,1.8,31.4,4.0L31.4,27.3C31.4,29.5,29.5,31.4,27.3,31.4zM4.0,1.3C2.5,1.3,1.3,2.5,1.3,4.0L1.3,27.3C1.3,28.9,2.5,30.1,4.0,30.1L27.3,30.1C28.9,30.1,30.1,28.9,30.1,27.3L30.1,4.0C30.1,2.5,28.9,1.3,27.3,1.3L4.0,1.3z"/></g></g></g><g transform="translate(492.619495,465.830066)" id="shape121"><text style="fill:#191919;font-family:微软雅黑,PingFang SC,Mircrosoft YaHei,Arial;font-size:6.00pt" xml:space="preserve"><tspan x="14.0" style="font-family:微软雅黑,PingFang SC,Mircrosoft YaHei,Arial" y="15.3">星尘代理</tspan></text></g><g transform="translate(592.809360,379.045572)" id="group122"><path stroke="#868686" stroke-width="1" fill="none" id="shape123" d="M11.0,.0L78.7,.0C84.8,.0,89.7,4.9,89.7,11.0L89.7,103.0C89.7,109.1,84.8,114.0,78.7,114.0L11.0,114.0C4.9,114.0,.0,109.1,.0,103.0L.0,11.0C.0,4.9,4.9,.0,11.0,.0z"/></g><g transform="translate(613.313760,411.044172)" id="group124"><path fill="#00c1de" fill-rule="nonzero" id="shape126" d="M44.4,46.1L4.3,46.1C1.9,46.1,.0,44.4,.0,41.9L.0,37.1C.0,34.6,1.9,32.9,4.3,32.9L44.4,32.9C46.8,32.9,48.7,34.6,48.7,37.1L48.7,41.9C48.7,44.4,46.8,46.1,44.4,46.1L44.4,46.1zM39.5,36.3C37.8,36.3,36.4,37.7,36.4,39.5C36.4,41.3,37.8,42.7,39.5,42.7C41.2,42.6,42.6,41.2,42.6,39.5C42.6,37.8,41.2,36.4,39.5,36.3L39.5,36.3zM44.4,29.7L4.3,29.7C1.9,29.7,.0,27.9,.0,25.5L.0,20.6C.0,18.2,1.9,16.4,4.3,16.4L44.4,16.4C46.8,16.4,48.7,18.2,48.7,20.6L48.7,25.5C48.7,27.9,46.8,29.7,44.4,29.7zM39.5,19.9C37.8,19.9,36.4,21.3,36.4,23.1C36.4,24.8,37.8,26.3,39.5,26.3C40.7,26.3,41.7,25.7,42.3,24.7C42.8,23.7,42.8,22.5,42.3,21.5C41.7,20.5,40.7,19.9,39.5,19.9L39.5,19.9zM44.4,13.3L4.3,13.3C1.9,13.3,.0,11.5,.0,9.1L.0,4.2C.0,1.8,1.9,.0,4.3,.0L44.4,.0C46.8,.0,48.7,1.8,48.7,4.2L48.7,9.1C48.7,11.5,46.8,13.3,44.4,13.3zM39.5,3.5C37.8,3.5,36.4,4.9,36.4,6.6C36.4,8.4,37.8,9.8,39.5,9.8C41.3,9.8,42.7,8.4,42.7,6.6C42.7,4.9,41.3,3.5,39.5,3.5z"/></g><g transform="translate(615.039860,377.636772)" id="shape127"><text style="fill:#191919;font-family:微软雅黑,PingFang SC,Mircrosoft YaHei,Arial;font-size:10.00pt" xml:space="preserve"><tspan x="6.6" style="font-family:微软雅黑,PingFang SC,Mircrosoft YaHei,Arial" y="19.2">服务B</tspan></text></g><g transform="translate(649.095960,457.175972)" id="group128"><g id="group129"><g id="group131"><path fill="#1c7b68" transform="translate(13.170380,10.034540)" fill-rule="nonzero" id="shape132" d="M.0,.0L2.5,.0L2.5,1.3L.0,1.3L.0,.0z"/><path fill="#1c7b68" transform="translate(4.528090,10.034540)" fill-rule="nonzero" id="shape133" d="M.0,.0L7.4,.0L7.4,1.3L.0,1.3L.0,.0z"/><path fill="#1c7b68" transform="translate(18.814800,18.814840)" fill-rule="nonzero" id="shape134" d="M.0,.0L9.4,.0L9.4,1.3L.0,1.3L.0,.0z"/><path fill="#1c7b68" transform="translate(15.051880,18.814840)" fill-rule="nonzero" id="shape135" d="M.0,.0L2.5,.0L2.5,1.3L.0,1.3L.0,.0z"/><path fill="#1c7b68" transform="translate(2.508600,7.528590)" fill-rule="nonzero" id="shape136" d="M6.3,15.0C6.1,15.0,6.0,15.0,5.9,14.9L.2,10.2C.1,10.1,.0,9.9,.0,9.7C.0,9.5,.1,9.3,.2,9.2L5.9,4.7C6.1,4.6,6.3,4.6,6.5,4.7C6.8,4.8,6.9,5.0,6.9,5.2L6.9,6.9L19.4,6.9C19.8,6.9,20.0,7.2,20.0,7.5L20.0,8.5L24.2,5.3L20.0,1.9L20.0,3.1C20.0,3.5,19.8,3.8,19.4,3.8L14.4,3.8L14.4,2.5L18.8,2.5L18.8,.6C18.8,.4,18.9,.2,19.1,.0C19.4,.0,19.6,.0,19.8,.1L25.6,4.8C25.7,5.0,25.8,5.1,25.8,5.3C25.8,5.5,25.7,5.7,25.6,5.8L19.8,10.3C19.6,10.5,19.4,10.5,19.1,10.4C18.9,10.3,18.8,10.1,18.8,9.8L18.8,8.2L6.3,8.2C5.9,8.2,5.6,7.9,5.6,7.5L5.6,6.5L1.6,9.7L5.6,13.1L5.6,11.9C5.6,11.6,5.9,11.3,6.3,11.3L11.3,11.3L11.3,12.5L6.9,12.5L6.9,14.4C6.9,14.7,6.8,14.9,6.5,15.0C6.5,15.0,6.4,15.0,6.3,15.0z"/><path fill="#1c7b68" fill-rule="nonzero" id="shape137" d="M27.3,31.4L4.0,31.4C1.8,31.4,.0,29.5,.0,27.3L.0,4.0C.0,1.8,1.8,.0,4.0,.0L27.3,.0C29.5,.0,31.4,1.8,31.4,4.0L31.4,27.3C31.4,29.5,29.5,31.4,27.3,31.4zM4.0,1.3C2.5,1.3,1.3,2.5,1.3,4.0L1.3,27.3C1.3,28.9,2.5,30.1,4.0,30.1L27.3,30.1C28.9,30.1,30.1,28.9,30.1,27.3L30.1,4.0C30.1,2.5,28.9,1.3,27.3,1.3L4.0,1.3z"/></g></g></g><g transform="translate(594.868960,466.533972)" id="shape139"><text style="fill:#191919;font-family:微软雅黑,PingFang SC,Mircrosoft YaHei,Arial;font-size:6.00pt" xml:space="preserve"><tspan x="14.0" style="font-family:微软雅黑,PingFang SC,Mircrosoft YaHei,Arial" y="15.3">星尘代理</tspan></text></g><g transform="translate(694.406772,379.750078)" id="group140"><path stroke="#868686" stroke-width="1" fill="none" id="shape141" d="M11.0,.0L78.7,.0C84.8,.0,89.7,4.9,89.7,11.0L89.7,103.0C89.7,109.1,84.8,114.0,78.7,114.0L11.0,114.0C4.9,114.0,.0,109.1,.0,103.0L.0,11.0C.0,4.9,4.9,.0,11.0,.0z"/></g><g transform="translate(714.911172,411.748678)" id="group142"><path fill="#00c1de" fill-rule="nonzero" id="shape144" d="M44.4,46.1L4.3,46.1C1.9,46.1,.0,44.4,.0,41.9L.0,37.1C.0,34.6,1.9,32.9,4.3,32.9L44.4,32.9C46.8,32.9,48.7,34.6,48.7,37.1L48.7,41.9C48.7,44.4,46.8,46.1,44.4,46.1L44.4,46.1zM39.5,36.3C37.8,36.3,36.4,37.7,36.4,39.5C36.4,41.3,37.8,42.7,39.5,42.7C41.2,42.6,42.6,41.2,42.6,39.5C42.6,37.8,41.2,36.4,39.5,36.3L39.5,36.3zM44.4,29.7L4.3,29.7C1.9,29.7,.0,27.9,.0,25.5L.0,20.6C.0,18.2,1.9,16.4,4.3,16.4L44.4,16.4C46.8,16.4,48.7,18.2,48.7,20.6L48.7,25.5C48.7,27.9,46.8,29.7,44.4,29.7zM39.5,19.9C37.8,19.9,36.4,21.3,36.4,23.1C36.4,24.8,37.8,26.3,39.5,26.3C40.7,26.3,41.7,25.7,42.3,24.7C42.8,23.7,42.8,22.5,42.3,21.5C41.7,20.5,40.7,19.9,39.5,19.9L39.5,19.9zM44.4,13.3L4.3,13.3C1.9,13.3,.0,11.5,.0,9.1L.0,4.2C.0,1.8,1.9,.0,4.3,.0L44.4,.0C46.8,.0,48.7,1.8,48.7,4.2L48.7,9.1C48.7,11.5,46.8,13.3,44.4,13.3zM39.5,3.5C37.8,3.5,36.4,4.9,36.4,6.6C36.4,8.4,37.8,9.8,39.5,9.8C41.3,9.8,42.7,8.4,42.7,6.6C42.7,4.9,41.3,3.5,39.5,3.5z"/></g><g transform="translate(716.637272,378.341278)" id="shape145"><text style="fill:#191919;font-family:微软雅黑,PingFang SC,Mircrosoft YaHei,Arial;font-size:10.00pt" xml:space="preserve"><tspan x="6.6" style="font-family:微软雅黑,PingFang SC,Mircrosoft YaHei,Arial" y="19.2">服务C</tspan></text></g><g transform="translate(750.693372,457.880478)" id="group146"><g id="group147"><g id="group149"><path fill="#1c7b68" transform="translate(13.170380,10.034540)" fill-rule="nonzero" id="shape150" d="M.0,.0L2.5,.0L2.5,1.3L.0,1.3L.0,.0z"/><path fill="#1c7b68" transform="translate(4.528090,10.034540)" fill-rule="nonzero" id="shape151" d="M.0,.0L7.4,.0L7.4,1.3L.0,1.3L.0,.0z"/><path fill="#1c7b68" transform="translate(18.814800,18.814840)" fill-rule="nonzero" id="shape152" d="M.0,.0L9.4,.0L9.4,1.3L.0,1.3L.0,.0z"/><path fill="#1c7b68" transform="translate(15.051880,18.814840)" fill-rule="nonzero" id="shape153" d="M.0,.0L2.5,.0L2.5,1.3L.0,1.3L.0,.0z"/><path fill="#1c7b68" transform="translate(2.508600,7.528590)" fill-rule="nonzero" id="shape154" d="M6.3,15.0C6.1,15.0,6.0,15.0,5.9,14.9L.2,10.2C.1,10.1,.0,9.9,.0,9.7C.0,9.5,.1,9.3,.2,9.2L5.9,4.7C6.1,4.6,6.3,4.6,6.5,4.7C6.8,4.8,6.9,5.0,6.9,5.2L6.9,6.9L19.4,6.9C19.8,6.9,20.0,7.2,20.0,7.5L20.0,8.5L24.2,5.3L20.0,1.9L20.0,3.1C20.0,3.5,19.8,3.8,19.4,3.8L14.4,3.8L14.4,2.5L18.8,2.5L18.8,.6C18.8,.4,18.9,.2,19.1,.0C19.4,.0,19.6,.0,19.8,.1L25.6,4.8C25.7,5.0,25.8,5.1,25.8,5.3C25.8,5.5,25.7,5.7,25.6,5.8L19.8,10.3C19.6,10.5,19.4,10.5,19.1,10.4C18.9,10.3,18.8,10.1,18.8,9.8L18.8,8.2L6.3,8.2C5.9,8.2,5.6,7.9,5.6,7.5L5.6,6.5L1.6,9.7L5.6,13.1L5.6,11.9C5.6,11.6,5.9,11.3,6.3,11.3L11.3,11.3L11.3,12.5L6.9,12.5L6.9,14.4C6.9,14.7,6.8,14.9,6.5,15.0C6.5,15.0,6.4,15.0,6.3,15.0z"/><path fill="#1c7b68" fill-rule="nonzero" id="shape155" d="M27.3,31.4L4.0,31.4C1.8,31.4,.0,29.5,.0,27.3L.0,4.0C.0,1.8,1.8,.0,4.0,.0L27.3,.0C29.5,.0,31.4,1.8,31.4,4.0L31.4,27.3C31.4,29.5,29.5,31.4,27.3,31.4zM4.0,1.3C2.5,1.3,1.3,2.5,1.3,4.0L1.3,27.3C1.3,28.9,2.5,30.1,4.0,30.1L27.3,30.1C28.9,30.1,30.1,28.9,30.1,27.3L30.1,4.0C30.1,2.5,28.9,1.3,27.3,1.3L4.0,1.3z"/></g></g></g><g transform="translate(696.466372,467.238478)" id="shape157"><text style="fill:#191919;font-family:微软雅黑,PingFang SC,Mircrosoft YaHei,Arial;font-size:6.00pt" xml:space="preserve"><tspan x="14.0" style="font-family:微软雅黑,PingFang SC,Mircrosoft YaHei,Arial" y="15.3">星尘代理</tspan></text></g><g transform="translate(564.138486,193.617966)" id="group158"><path fill="#00c1de" transform="translate(0.016000,0.000000)" fill-rule="nonzero" id="shape160" d="M46.0,9.0C44.8,9.6,40.5,9.8,40.6,10.8C40.6,11.0,40.7,11.0,40.7,11.1C44.5,18.9,43.8,28.0,36.8,37.6C35.8,38.9,34.6,40.1,33.3,41.1C32.4,41.6,32.1,41.9,31.5,42.0C34.8,37.5,36.4,31.5,35.0,25.7C33.8,20.4,30.4,16.2,26.0,13.5L25.8,13.5C25.7,13.5,25.6,13.7,25.6,13.7C25.2,14.8,25.3,18.3,24.6,18.6C23.6,18.8,21.9,16.7,20.9,13.7C20.5,12.1,20.5,11.4,20.6,11.0L20.6,10.8L20.5,10.7C17.6,9.6,15.3,9.0,14.8,8.9C13.7,8.5,10.4,7.6,11.3,6.1C12.4,4.4,14.9,4.0,16.8,3.5C18.1,1.4,21.3,.1,23.6,.0C25.9,.0,31.6,1.2,35.9,5.0C36.0,5.0,36.4,5.1,36.5,5.1C39.4,4.8,46.5,7.9,46.0,9.0zM29.7,29.3L32.8,24.4C32.4,23.7,32.2,23.0,31.8,22.4L28.6,27.4L22.3,27.4L25.9,33.1L21.7,39.7L13.3,39.7L9.0,33.0L12.7,27.3L6.4,27.3L2.2,20.6L6.4,14.0L14.8,14.0L17.4,18.1L19.0,15.5C18.9,15.4,18.9,15.2,18.8,15.1C18.6,14.1,18.4,13.4,18.4,12.8L17.4,14.5L15.9,12.1L5.4,12.1L.0,20.8L5.4,29.3L9.3,29.3L6.9,33.1L12.3,41.6L22.9,41.6L28.3,33.1L25.9,29.3L29.7,29.3z"/></g><g transform="translate(643.029518,150.431066)" id="group161"><path stroke="#868686" stroke-width="1" fill="none" id="shape162" d="M11.0,.0L78.2,.0C84.2,.0,89.2,4.9,89.2,11.0L89.2,91.6C89.2,97.7,84.2,102.6,78.2,102.6L11.0,102.6C4.9,102.6,.0,97.7,.0,91.6L.0,11.0C.0,4.9,4.9,.0,11.0,.0z"/></g><g transform="translate(643.029518,150.430866)" id="shape163"><text style="fill:#191919;font-family:微软雅黑,PingFang SC,Mircrosoft YaHei,Arial;font-size:10.00pt" xml:space="preserve"><tspan x="4.6" style="font-family:微软雅黑,PingFang SC,Mircrosoft YaHei,Arial" y="21.7">数据库（从）</tspan></text></g><g transform="translate(661.343218,193.618566)" id="group164"><path fill="#00c1de" transform="translate(0.016000,0.000000)" fill-rule="nonzero" id="shape166" d="M46.0,9.0C44.8,9.6,40.5,9.8,40.6,10.8C40.6,11.0,40.7,11.0,40.7,11.1C44.5,18.9,43.8,28.0,36.8,37.6C35.8,38.9,34.6,40.1,33.3,41.1C32.4,41.6,32.1,41.9,31.5,42.0C34.8,37.5,36.4,31.5,35.0,25.7C33.8,20.4,30.4,16.2,26.0,13.5L25.8,13.5C25.7,13.5,25.6,13.7,25.6,13.7C25.2,14.8,25.3,18.3,24.6,18.6C23.6,18.8,21.9,16.7,20.9,13.7C20.5,12.1,20.5,11.4,20.6,11.0L20.6,10.8L20.5,10.7C17.6,9.6,15.3,9.0,14.8,8.9C13.7,8.5,10.4,7.6,11.3,6.1C12.4,4.4,14.9,4.0,16.8,3.5C18.1,1.4,21.3,.1,23.6,.0C25.9,.0,31.6,1.2,35.9,5.0C36.0,5.0,36.4,5.1,36.5,5.1C39.4,4.8,46.5,7.9,46.0,9.0zM29.7,29.3L32.8,24.4C32.4,23.7,32.2,23.0,31.8,22.4L28.6,27.4L22.3,27.4L25.9,33.1L21.7,39.7L13.3,39.7L9.0,33.0L12.7,27.3L6.4,27.3L2.2,20.6L6.4,14.0L14.8,14.0L17.4,18.1L19.0,15.5C18.9,15.4,18.9,15.2,18.8,15.1C18.6,14.1,18.4,13.4,18.4,12.8L17.4,14.5L15.9,12.1L5.4,12.1L.0,20.8L5.4,29.3L9.3,29.3L6.9,33.1L12.3,41.6L22.9,41.6L28.3,33.1L25.9,29.3L29.7,29.3z"/></g><g transform="translate(517.504984,646.841528)" id="group167"><path fill="#00c1de" fill-rule="nonzero" id="shape169" d="M24.1,3.5L18.6,5.3L15.1,3.3L24.2,.0L33.4,3.3L29.9,5.3L24.1,3.5L24.1,3.5zM24.2,14.3L29.7,12.4L33.3,14.5L24.1,17.7L14.9,14.4L18.4,12.4L24.2,14.3zM15.8,11.5L12.1,13.3L.1,8.9L12.3,4.4L15.8,6.5L9.2,8.9L15.8,11.5L15.8,11.5zM39.3,8.9L32.7,6.5L36.3,4.4L48.5,8.9L36.5,13.3L32.7,11.5L39.3,8.9zM24.2,24.7L.1,15.3L.0,10.5L24.2,19.9L48.4,10.6L48.4,15.4L24.2,24.7zM24.2,26.5L48.5,17.2L48.5,22.0L24.2,31.3L.1,21.9L.1,17.1L24.2,26.5zM.1,23.7L24.2,33.1L48.5,23.8L48.5,28.7L24.2,37.9L.1,28.5L.1,23.7L.1,23.7z"/></g><g transform="translate(596.758834,609.974366)" id="group170"><path stroke="#868686" stroke-width="1" fill="none" id="shape171" d="M11.0,.0L86.2,.0C92.3,.0,97.2,4.9,97.2,11.0L97.2,91.6C97.2,97.7,92.3,102.6,86.2,102.6L11.0,102.6C4.9,102.6,.0,97.7,.0,91.6L.0,11.0C.0,4.9,4.9,.0,11.0,.0z"/></g><g transform="translate(597.917834,609.974166)" id="shape172"><text style="fill:#191919;font-family:微软雅黑,PingFang SC,Mircrosoft YaHei,Arial;font-size:10.00pt" xml:space="preserve"><tspan x="10.3" style="font-family:微软雅黑,PingFang SC,Mircrosoft YaHei,Arial" y="21.7">NodeB（主）</tspan></text></g><g transform="translate(618.477653,646.841566)" id="group173"><path fill="#00c1de" fill-rule="nonzero" id="shape175" d="M24.1,3.5L18.6,5.3L15.1,3.3L24.2,.0L33.4,3.3L29.9,5.3L24.1,3.5L24.1,3.5zM24.2,14.3L29.7,12.4L33.3,14.5L24.1,17.7L14.9,14.4L18.4,12.4L24.2,14.3zM15.8,11.5L12.1,13.3L.1,8.9L12.3,4.4L15.8,6.5L9.2,8.9L15.8,11.5L15.8,11.5zM39.3,8.9L32.7,6.5L36.3,4.4L48.5,8.9L36.5,13.3L32.7,11.5L39.3,8.9zM24.2,24.7L.1,15.3L.0,10.5L24.2,19.9L48.4,10.6L48.4,15.4L24.2,24.7zM24.2,26.5L48.5,17.2L48.5,22.0L24.2,31.3L.1,21.9L.1,17.1L24.2,26.5zM.1,23.7L24.2,33.1L48.5,23.8L48.5,28.7L24.2,37.9L.1,28.5L.1,23.7L.1,23.7z"/></g><g transform="translate(702.570834,609.974366)" id="group176"><path stroke="#868686" stroke-width="1" fill="none" id="shape177" d="M11.0,.0L86.2,.0C92.3,.0,97.2,4.9,97.2,11.0L97.2,91.6C97.2,97.7,92.3,102.6,86.2,102.6L11.0,102.6C4.9,102.6,.0,97.7,.0,91.6L.0,11.0C.0,4.9,4.9,.0,11.0,.0z"/></g><g transform="translate(703.729834,609.974166)" id="shape178"><text style="fill:#191919;font-family:微软雅黑,PingFang SC,Mircrosoft YaHei,Arial;font-size:10.00pt" xml:space="preserve"><tspan x="10.3" style="font-family:微软雅黑,PingFang SC,Mircrosoft YaHei,Arial" y="21.7">NodeC（主）</tspan></text></g><g transform="translate(724.165234,646.841566)" id="group179"><path fill="#00c1de" fill-rule="nonzero" id="shape181" d="M24.1,3.5L18.6,5.3L15.1,3.3L24.2,.0L33.4,3.3L29.9,5.3L24.1,3.5L24.1,3.5zM24.2,14.3L29.7,12.4L33.3,14.5L24.1,17.7L14.9,14.4L18.4,12.4L24.2,14.3zM15.8,11.5L12.1,13.3L.1,8.9L12.3,4.4L15.8,6.5L9.2,8.9L15.8,11.5L15.8,11.5zM39.3,8.9L32.7,6.5L36.3,4.4L48.5,8.9L36.5,13.3L32.7,11.5L39.3,8.9zM24.2,24.7L.1,15.3L.0,10.5L24.2,19.9L48.4,10.6L48.4,15.4L24.2,24.7zM24.2,26.5L48.5,17.2L48.5,22.0L24.2,31.3L.1,21.9L.1,17.1L24.2,26.5zM.1,23.7L24.2,33.1L48.5,23.8L48.5,28.7L24.2,37.9L.1,28.5L.1,23.7L.1,23.7z"/></g><g transform="translate(616.161226,684.762366)" id="shape182"><text style="fill:#191919;font-family:微软雅黑,PingFang SC,Mircrosoft YaHei,Arial;font-size:10.00pt" xml:space="preserve"><tspan x="4.5" style="font-family:微软雅黑,PingFang SC,Mircrosoft YaHei,Arial" y="15.9">A（从）</tspan></text></g><g transform="translate(512.540984,679.762328)" id="shape183"><text style="fill:#191919;font-family:微软雅黑,PingFang SC,Mircrosoft YaHei,Arial;font-size:10.00pt" xml:space="preserve"><tspan x="4.9" style="font-family:微软雅黑,PingFang SC,Mircrosoft YaHei,Arial" y="20.9">C（从）</tspan></text></g><g transform="translate(724.165234,679.762328)" id="shape184"><text style="fill:#191919;font-family:微软雅黑,PingFang SC,Mircrosoft YaHei,Arial;font-size:10.00pt" xml:space="preserve"><tspan x="4.9" style="font-family:微软雅黑,PingFang SC,Mircrosoft YaHei,Arial" y="20.9">B（从）</tspan></text></g><g transform="translate(173.193388,54.948459)" id="shape185"><text style="fill:#191919;font-family:微软雅黑,PingFang SC,Mircrosoft YaHei,Arial;font-size:26.00pt;font-weight:bold" xml:space="preserve"><tspan x="2.9" style="font-family:微软雅黑,PingFang SC,Mircrosoft YaHei,Arial" y="45.9">标准高可用架构</tspan></text></g><g transform="translate(829.815197,566.786566)" id="group186"><path stroke="#868686" stroke-width="1" fill="#e8e9f5" fill-rule="nonzero" id="shape187" d="M11.0,.0L202.0,.0C208.1,.0,213.0,4.9,213.0,11.0L213.0,154.1C213.0,160.2,208.1,165.1,202.0,165.1L11.0,165.1C4.9,165.1,.0,160.2,.0,154.1L.0,11.0C.0,4.9,4.9,.0,11.0,.0z"/><g transform="translate(21.300000,0.000000)" id="shape188"><path stroke="#868686" stroke-width="1" fill="none" d="M.0,30.0L170.4,30.0L.0,30.0z"/><text style="fill:#191919;font-family:微软雅黑,PingFang SC,Mircrosoft YaHei,Arial;font-size:10.00pt" xml:space="preserve"><tspan x="45.2" style="font-family:微软雅黑,PingFang SC,Mircrosoft YaHei,Arial" y="18.2">对象存储集群</tspan></text></g></g><g transform="translate(843.791497,609.973566)" id="group189"><path stroke="#868686" stroke-width="1" fill="none" id="shape190" d="M11.0,.0L78.2,.0C84.2,.0,89.2,4.9,89.2,11.0L89.2,91.6C89.2,97.7,84.2,102.6,78.2,102.6L11.0,102.6C4.9,102.6,.0,97.7,.0,91.6L.0,11.0C.0,4.9,4.9,.0,11.0,.0z"/></g><g transform="translate(843.791497,609.973366)" id="shape191"><text style="fill:#191919;font-family:微软雅黑,PingFang SC,Mircrosoft YaHei,Arial;font-size:10.00pt" xml:space="preserve"><tspan x="11.2" style="font-family:微软雅黑,PingFang SC,Mircrosoft YaHei,Arial" y="21.7">存储（主）</tspan></text></g><g transform="translate(940.996497,609.974566)" id="group192"><path stroke="#868686" stroke-width="1" fill="none" id="shape193" d="M11.0,.0L78.2,.0C84.2,.0,89.2,4.9,89.2,11.0L89.2,91.6C89.2,97.7,84.2,102.6,78.2,102.6L11.0,102.6C4.9,102.6,.0,97.7,.0,91.6L.0,11.0C.0,4.9,4.9,.0,11.0,.0z"/></g><g transform="translate(940.996497,609.974366)" id="shape194"><text style="fill:#191919;font-family:微软雅黑,PingFang SC,Mircrosoft YaHei,Arial;font-size:10.00pt" xml:space="preserve"><tspan x="11.2" style="font-family:微软雅黑,PingFang SC,Mircrosoft YaHei,Arial" y="21.7">存储（从）</tspan></text></g><path stroke="#ebebeb" stroke-width="1" fill="#ebebeb" transform="matrix(0.500000,-0.866025,0.866025,0.500000,817.425549,533.436494)" fill-rule="nonzero" id="shape195" d="M19.6,.0L19.6,29.8L31.2,26.6L15.6,48.5L.0,26.6L11.5,29.8L11.5,.0L19.6,.0"/><g transform="translate(865.369147,648.762366)" id="group196"><path fill="#00c1de" fill-rule="nonzero" id="shape198" d="M28.4,.0C20.2,.0,13.3,5.8,11.4,13.7C11.2,13.7,11.0,13.7,10.9,13.7C4.9,13.7,.0,18.7,.0,24.8C.0,27.8,1.1,30.6,3.2,32.7C5.2,34.8,8.0,36.0,10.9,36.0C13.8,36.0,16.5,34.8,18.6,32.7C20.3,30.9,21.2,28.6,21.5,26.0L17.6,25.7C16.7,25.6,16.4,24.9,16.9,24.1L23.6,15.7C24.1,14.9,24.9,15.0,25.2,15.9L29.0,25.4C29.4,26.2,28.9,26.8,28.0,26.7L25.1,26.4C24.8,29.6,23.4,32.3,21.5,34.5C23.7,35.5,26.0,36.0,28.4,36.0C38.1,36.0,46.0,27.9,46.0,18.0C46.0,8.1,38.1,.0,28.4,.0z"/></g><g transform="translate(962.574147,648.762366)" id="group199"><path fill="#00c1de" fill-rule="nonzero" id="shape201" d="M28.4,.0C20.2,.0,13.3,5.8,11.4,13.7C11.2,13.7,11.0,13.7,10.9,13.7C4.9,13.7,.0,18.7,.0,24.8C.0,27.8,1.1,30.6,3.2,32.7C5.2,34.8,8.0,36.0,10.9,36.0C13.8,36.0,16.5,34.8,18.6,32.7C20.3,30.9,21.2,28.6,21.5,26.0L17.6,25.7C16.7,25.6,16.4,24.9,16.9,24.1L23.6,15.7C24.1,14.9,24.9,15.0,25.2,15.9L29.0,25.4C29.4,26.2,28.9,26.8,28.0,26.7L25.1,26.4C24.8,29.6,23.4,32.3,21.5,34.5C23.7,35.5,26.0,36.0,28.4,36.0C38.1,36.0,46.0,27.9,46.0,18.0C46.0,8.1,38.1,.0,28.4,.0z"/></g><g transform="translate(872.438847,521.307884)" id="group202"><path fill="#0052d9" fill-rule="nonzero" id="shape204" d="M22.6,19.5C23.1,19.5,23.7,19.5,24.0,19.0C24.3,18.6,24.3,18.2,24.3,17.9C24.3,17.7,24.3,17.6,24.0,17.1C23.7,16.5,23.1,16.5,22.6,16.5L20.7,16.5L20.7,19.5L22.6,19.5zM19.6,.0C29.1,.0,37.0,6.8,38.7,15.8L36.3,15.8C34.6,8.2,27.7,2.4,19.6,2.4C10.1,2.4,2.4,10.1,2.4,19.5C2.4,28.8,10.1,36.5,19.6,36.5C28.1,36.5,35.3,30.2,36.5,21.9L38.9,21.9C37.7,31.5,29.6,38.9,19.6,38.9C8.8,38.9,.0,30.2,.0,19.5C.0,8.8,8.8,.0,19.6,.0zM21.8,28.0L23.6,29.7L20.9,32.2L19.2,33.9L15.0,29.7L16.7,28.0L19.2,30.5L21.8,28.0zM24.2,14.8C24.6,14.9,25.1,15.1,25.3,15.4C25.7,15.6,25.9,15.9,26.1,16.3C26.3,16.8,26.5,17.6,26.5,18.1C26.5,18.8,26.4,19.7,25.8,20.3C25.2,21.1,24.3,21.5,23.4,21.5L20.7,21.5L20.7,25.6L18.3,25.6L18.3,14.6L23.0,14.6C23.4,14.6,23.8,14.6,24.2,14.8zM17.0,14.6L17.0,25.5L14.6,25.5L14.6,14.6L17.0,14.6zM9.2,15.3L10.9,17.2L8.4,19.7L10.9,22.3L9.2,24.0L5.0,19.7L6.7,18.0L9.2,15.3zM29.7,15.0L33.9,19.2L32.2,20.9L29.7,23.6L28.0,21.8L30.5,19.2L28.0,16.7L29.7,15.0zM19.7,5.0L24.0,9.2L22.3,10.9L19.7,8.4L17.2,10.9L15.3,9.2L18.0,6.7L19.7,5.0z"/></g></g></svg>